<svg xmlns="http://www.w3.org/2000/svg" width="73.744" height="73.74" viewBox="0 0 73.744 73.74">
  <g id="Grupo_1107274" data-name="Grupo 1107274" transform="translate(-181.208 -1197)">
    <g id="Grupo_1107162" data-name="Grupo 1107162" transform="translate(181.208 1197)">
      <g id="cinta-adhesiva-azul-aislado-sobre-fondo-blanco_457211-2103" transform="translate(0 0)" fill="#fff">
        <path d="M 36.8721923828125 72.23999786376953 C 32.0963020324707 72.23999786376953 27.46406936645508 71.30502319335938 23.10416984558105 69.46105194091797 C 18.89225959777832 67.67966461181641 15.10924816131592 65.12914276123047 11.86024761199951 61.88033294677734 C 8.611248016357422 58.63153076171875 6.060581207275391 54.8487663269043 4.279092311859131 50.63711166381836 C 2.435025691986084 46.27750015258789 1.500003457069397 41.64556503295898 1.500003457069397 36.86999893188477 C 1.500003457069397 32.09443283081055 2.435025691986084 27.46250915527344 4.279092311859131 23.1028881072998 C 6.060581207275391 18.89123153686523 8.611248016357422 15.10846519470215 11.86024761199951 11.8596658706665 C 15.10924816131592 8.610854148864746 18.89225959777832 6.060332298278809 23.10416984558105 4.278943538665771 C 27.46406936645508 2.434976816177368 32.0963020324707 1.499998927116394 36.8721923828125 1.499998927116394 C 41.6480827331543 1.499998927116394 46.28031539916992 2.434976816177368 50.64021301269531 4.278943538665771 C 54.85213851928711 6.060332298278809 58.63513565063477 8.610854148864746 61.88413619995117 11.8596658706665 C 65.13314056396484 15.10846519470215 67.68379974365234 18.89123153686523 69.46529388427734 23.1028881072998 C 71.30935668945312 27.46250915527344 72.244384765625 32.09443283081055 72.244384765625 36.86999893188477 C 72.244384765625 41.64556503295898 71.30935668945312 46.27750015258789 69.46529388427734 50.63711166381836 C 67.68379974365234 54.8487663269043 65.13314056396484 58.63153076171875 61.88413619995117 61.88033294677734 C 58.63513565063477 65.12914276123047 54.85213851928711 67.67966461181641 50.64021301269531 69.46105194091797 C 46.28031539916992 71.30502319335938 41.6480827331543 72.23999786376953 36.8721923828125 72.23999786376953 Z" stroke="none"/>
        <path d="M 36.8721923828125 3 C 32.29813003540039 3 27.86248016357422 3.895111083984375 23.68846893310547 5.66046142578125 C 19.65534210205078 7.366233825683594 16.0326042175293 9.808811187744141 12.92086791992188 12.92036056518555 C 9.809154510498047 16.03188705444336 7.366439819335938 19.65439987182617 5.66058349609375 23.68724822998047 C 3.8951416015625 27.8609619140625 2.999992370605469 32.29627227783203 2.999992370605469 36.86999893188477 C 2.999992370605469 41.4437255859375 3.8951416015625 45.87903594970703 5.66058349609375 50.05276107788086 C 7.366439819335938 54.08560943603516 9.809154510498047 57.70811080932617 12.92086791992188 60.81964874267578 C 16.0325927734375 63.93118667602539 19.65534210205078 66.37377166748047 23.68846893310547 68.07953643798828 C 27.86248016357422 69.84488677978516 32.29813003540039 70.73999786376953 36.8721923828125 70.73999786376953 C 41.44625473022461 70.73999786376953 45.88190460205078 69.84488677978516 50.05591583251953 68.07953643798828 C 54.08904266357422 66.37377166748047 57.7117805480957 63.93118667602539 60.82350540161133 60.81964874267578 C 63.93523025512695 57.70811080932617 66.37794494628906 54.08560943603516 68.08379364013672 50.05276107788086 C 69.84922790527344 45.87905120849609 70.74437713623047 41.4437255859375 70.74437713623047 36.86999893188477 C 70.74437713623047 32.29627227783203 69.84922790527344 27.8609619140625 68.08379364013672 23.68724822998047 C 66.37794494628906 19.65439987182617 63.93523025512695 16.03188705444336 60.82350540161133 12.92036056518555 C 57.7117805480957 9.808811187744141 54.08904266357422 7.366233825683594 50.05591583251953 5.66046142578125 C 45.88189315795898 3.895111083984375 41.44625473022461 3 36.8721923828125 3 M 36.8721923828125 0 C 57.23614501953125 0 73.74437713623047 16.50726318359375 73.74437713623047 36.86999893188477 C 73.74437713623047 57.23274993896484 57.23614501953125 73.73999786376953 36.8721923828125 73.73999786376953 C 16.50824356079102 73.73999786376953 -7.62939453125e-06 57.23274993896484 -7.62939453125e-06 36.86999893188477 C -7.62939453125e-06 16.50726318359375 16.50824356079102 0 36.8721923828125 0 Z" stroke="none" fill="#7bb5f2"/>
      </g>
    </g>
    <g id="document_2463730" transform="translate(193.709 1209.658)">
      <g id="Grupo_1107272" data-name="Grupo 1107272" transform="translate(1.753 1.753)">
        <g id="Grupo_1107267" data-name="Grupo 1107267" transform="translate(11.294 1.506)">
          <path id="Trazado_887324" data-name="Trazado 887324" d="M42.345,8.518a3.015,3.015,0,0,1-2.131-.881L38.836,6.259H36.577A3.005,3.005,0,0,1,33.663,4H17V41.648H44.107V8.518Z" transform="translate(-17 -4)" fill="#e6e9ed"/>
        </g>
        <g id="Grupo_1107268" data-name="Grupo 1107268" transform="translate(14.306 4.518)">
          <path id="Trazado_887325" data-name="Trazado 887325" d="M21,8H33.047v9.036H21Z" transform="translate(-21 -8)" fill="#b4dd7f"/>
        </g>
        <g id="Grupo_1107269" data-name="Grupo 1107269" transform="translate(23.342 25.601)">
          <path id="Trazado_887326" data-name="Trazado 887326" d="M33,36H45.047V46.541H33Z" transform="translate(-33 -36)" fill="#fcd770"/>
        </g>
        <g id="Grupo_1107270" data-name="Grupo 1107270" transform="translate(0 28.613)">
          <path id="Trazado_887327" data-name="Trazado 887327" d="M23.083,53.553a1.517,1.517,0,0,1,1.506,1.506,1.51,1.51,0,0,1-1.506,1.506H8.694A6.085,6.085,0,0,1,6,55.933L2.753,54.306H2V43.012h.753l2.62-1.747A7.493,7.493,0,0,1,9.552,40h9.013a.755.755,0,0,1,.753.753,3.011,3.011,0,0,1-3.012,3.012H13.294v6.777H24.589a1.51,1.51,0,0,1,1.506,1.506,1.517,1.517,0,0,1-1.506,1.506Z" transform="translate(-2 -40)" fill="#f0d0b4"/>
        </g>
        <g id="Grupo_1107271" data-name="Grupo 1107271" transform="translate(27.86)">
          <path id="Trazado_887328" data-name="Trazado 887328" d="M56.318,5.012V15.553h-.753L52.32,17.18a6.085,6.085,0,0,1-2.7.632h-.083V8.024H47.78a3.015,3.015,0,0,1-2.131-.881L44.271,5.765H42.012A3.005,3.005,0,0,1,39.1,3.506a2.754,2.754,0,0,1-.1-.753A.755.755,0,0,1,39.753,2h9.013a7.493,7.493,0,0,1,4.179,1.265l2.62,1.747Z" transform="translate(-39 -2)" fill="#f0d0b4"/>
        </g>
      </g>
      <g id="Grupo_1107273" data-name="Grupo 1107273" transform="translate(1 1)">
        <path id="Trazado_887329" data-name="Trazado 887329" d="M46.406,4.012l-2.431-1.62A8.253,8.253,0,0,0,39.381,1H30.365A1.507,1.507,0,0,0,28.86,2.506H12.294V29.613H9.3A8.255,8.255,0,0,0,4.708,31l-2.431,1.62H1v12.8H2.328l3.087,1.544a6.814,6.814,0,0,0,3.031.715h14.39a2.252,2.252,0,0,0,2.093-3.1,2.221,2.221,0,0,0,1.533-2.924H40.907V18.285a6.82,6.82,0,0,0,2.362-.682l3.087-1.544h1.327V4.012Zm-21.311,38.4a.754.754,0,0,1-.753.753H15.306v1.506h7.53a.753.753,0,0,1,0,1.506H8.446a5.294,5.294,0,0,1-2.358-.556l-3.4-1.7H2.506V34.13h.228l2.81-1.873A6.757,6.757,0,0,1,9.3,31.118h9.015a2.262,2.262,0,0,1-2.259,2.259H12.736L11.58,34.533a3.742,3.742,0,0,1-2.662,1.1H8.53v1.506h.388a5.23,5.23,0,0,0,3.377-1.227V41.66H24.342A.754.754,0,0,1,25.095,42.413ZM39.4,40.154H13.8V34.883h2.259a3.769,3.769,0,0,0,3.765-3.765,1.507,1.507,0,0,0-1.506-1.506H13.8V4.012H29.179a3.767,3.767,0,0,0,3.446,2.259h1.947l1.156,1.157a3.741,3.741,0,0,0,2.662,1.1H39.4Zm6.777-25.6H46l-3.4,1.7a5.287,5.287,0,0,1-1.688.514V7.024H38.391a2.245,2.245,0,0,1-1.6-.661l-1.6-1.6H32.624a2.262,2.262,0,0,1-2.259-2.259h9.015a6.755,6.755,0,0,1,3.759,1.138l2.81,1.873h.228Z" transform="translate(-1 -1)"/>
        <path id="Trazado_887330" data-name="Trazado 887330" d="M32,47.047H45.553V35H32Zm1.506-10.541H44.047v9.036H33.506Z" transform="translate(-8.658 -9.399)"/>
        <path id="Trazado_887331" data-name="Trazado 887331" d="M38.331,43.031l-.974-.974-1.065,1.065,2.038,2.038,5.8-5.8L43.07,38.293Z" transform="translate(-9.719 -10.213)"/>
        <path id="Trazado_887332" data-name="Trazado 887332" d="M20,49h7.53v1.506H20Z" transform="translate(-5.694 -12.858)"/>
        <path id="Trazado_887333" data-name="Trazado 887333" d="M28,45h1.506v1.506H28Z" transform="translate(-7.67 -11.87)"/>
        <path id="Trazado_887334" data-name="Trazado 887334" d="M28,41h1.506v1.506H28Z" transform="translate(-7.67 -10.882)"/>
        <path id="Trazado_887335" data-name="Trazado 887335" d="M33.553,7H20V17.541H33.553Zm-1.506,9.036H21.506V8.506H32.047Z" transform="translate(-5.694 -2.482)"/>
        <path id="Trazado_887336" data-name="Trazado 887336" d="M40,19h7.53v1.506H40Z" transform="translate(-10.635 -5.447)"/>
        <path id="Trazado_887337" data-name="Trazado 887337" d="M40,15h7.53v1.506H40Z" transform="translate(-10.635 -4.459)"/>
        <path id="Trazado_887338" data-name="Trazado 887338" d="M40,11h1.506v1.506H40Z" transform="translate(-10.635 -3.47)"/>
        <path id="Trazado_887339" data-name="Trazado 887339" d="M44,11h4.518v1.506H44Z" transform="translate(-11.623 -3.47)"/>
        <path id="Trazado_887340" data-name="Trazado 887340" d="M20,23h1.506v1.506H20Z" transform="translate(-5.694 -6.435)"/>
        <path id="Trazado_887341" data-name="Trazado 887341" d="M24,23H43.577v1.506H24Z" transform="translate(-6.682 -6.435)"/>
        <path id="Trazado_887342" data-name="Trazado 887342" d="M20,27H42.589v1.506H20Z" transform="translate(-5.694 -7.423)"/>
        <path id="Trazado_887343" data-name="Trazado 887343" d="M20,31h1.506v1.506H20Z" transform="translate(-5.694 -8.411)"/>
        <path id="Trazado_887344" data-name="Trazado 887344" d="M28,31h1.506v1.506H28Z" transform="translate(-7.67 -8.411)"/>
        <path id="Trazado_887345" data-name="Trazado 887345" d="M24,31h1.506v1.506H24Z" transform="translate(-6.682 -8.411)"/>
        <path id="Trazado_887346" data-name="Trazado 887346" d="M32,31H45.553v1.506H32Z" transform="translate(-8.658 -8.411)"/>
        <path id="Trazado_887347" data-name="Trazado 887347" d="M20,35h7.53v1.506H20Z" transform="translate(-5.694 -9.399)"/>
      </g>
    </g>
  </g>
</svg>
