<svg xmlns="http://www.w3.org/2000/svg" width="90.914" height="90.914" viewBox="0 0 90.914 90.914">
  <g id="Grupo_1107199" data-name="Grupo 1107199" transform="translate(0 0)">
    <g id="Grupo_1107197" data-name="Grupo 1107197">
      <g id="Grupo_1107155" data-name="Grupo 1107155" transform="translate(0 0)">
        <path id="Trazado_874924" data-name="Trazado 874924" d="M45.457,0A45.457,45.457,0,0,1,90.914,45.457h0A45.457,45.457,0,0,1,0,45.457H0A45.457,45.457,0,0,1,45.457,0Z" transform="translate(0.001)" fill="#fd9f81" opacity="0.859"/>
        <rect id="Rectángulo_400907" data-name="Rectángulo 400907" width="90.914" height="90.914" rx="45.457" fill="none"/>
      </g>
    </g>
    <g id="Talk-Interview" transform="translate(18.755 18.754)">
      <path id="Trazado_874695" data-name="Trazado 874695" d="M57.482,42.78V57.021A1.785,1.785,0,0,1,55.7,58.8H34.34a1.785,1.785,0,0,1-1.78-1.78v-4.45L29,49.011l3.56-1.78V42.78A1.785,1.785,0,0,1,34.34,41H55.7A1.785,1.785,0,0,1,57.482,42.78Z" transform="translate(-4.968 -6.288)" fill="#ffd422"/>
      <g id="Grupo_1105797" data-name="Grupo 1105797" transform="translate(31.747 41.86)">
        <ellipse id="Elipse_11615" data-name="Elipse 11615" cx="2.165" cy="1.443" rx="2.165" ry="1.443" transform="translate(12.988 0)" fill="#e6e7e8"/>
        <ellipse id="Elipse_11616" data-name="Elipse 11616" cx="1.443" cy="1.443" rx="1.443" ry="1.443" transform="translate(7.215 0)" fill="#e6e7e8"/>
        <ellipse id="Elipse_11617" data-name="Elipse 11617" cx="1.443" cy="1.443" rx="1.443" ry="1.443" transform="translate(0 0)" fill="#e6e7e8"/>
      </g>
      <path id="Trazado_874696" data-name="Trazado 874696" d="M31.482,12.791l-3.56,1.78v4.45a1.785,1.785,0,0,1-1.78,1.78H4.78A1.785,1.785,0,0,1,3,19.021V4.78A1.785,1.785,0,0,1,4.78,3H26.142a1.785,1.785,0,0,1,1.78,1.78V9.23Z" transform="translate(-2.11 -2.11)" fill="#00ccb3"/>
      <path id="Trazado_874697" data-name="Trazado 874697" d="M25.81,58.163v1.869H17.8l-1.62-5.5.73-.73,2.67.89L20.2,52.2l2.439,1.086a5.34,5.34,0,0,1,3.169,4.878Z" transform="translate(-3.559 -7.519)" fill="#5aaae7"/>
      <ellipse id="Elipse_11618" data-name="Elipse 11618" cx="1.443" cy="1.443" rx="1.443" ry="1.443" transform="translate(18.76 8.668)" fill="#e6e7e8"/>
      <path id="Trazado_874698" data-name="Trazado 874698" d="M20.183,52.068,19.56,54.56l-2.67-.89L16,51.89,17.78,51Z" transform="translate(-3.539 -7.387)" fill="#1e81ce"/>
      <ellipse id="Elipse_11619" data-name="Elipse 11619" cx="1.443" cy="1.443" rx="1.443" ry="1.443" transform="translate(11.545 8.668)" fill="#e6e7e8"/>
      <path id="Trazado_874699" data-name="Trazado 874699" d="M15.72,54.82l1.62,5.5H12l1.62-5.5,1.05,1.05Z" transform="translate(-3.099 -7.807)" fill="#ed1c24"/>
      <path id="Trazado_874700" data-name="Trazado 874700" d="M15.67,52l.89,1.78-.73.73-1.05,1.05-1.05-1.05L13,53.78,13.89,52Z" transform="translate(-3.209 -7.497)" fill="#ed1c24"/>
      <path id="Trazado_874701" data-name="Trazado 874701" d="M13.483,51.89l-.89,1.78-2.67.89L9.3,52.068,11.7,51Z" transform="translate(-2.803 -7.387)" fill="#1e81ce"/>
      <path id="Trazado_874702" data-name="Trazado 874702" d="M12.63,54.532l-1.62,5.5H3V58.163a5.34,5.34,0,0,1,3.167-4.877L8.607,52.2l.623,2.492,2.67-.89Z" transform="translate(-2.11 -7.519)" fill="#5aaae7"/>
      <ellipse id="Elipse_11620" data-name="Elipse 11620" cx="2.165" cy="1.443" rx="2.165" ry="1.443" transform="translate(4.329 8.668)" fill="#e6e7e8"/>
      <path id="Trazado_874703" data-name="Trazado 874703" d="M22.886,39a1.78,1.78,0,0,1,0,3.56,1.807,1.807,0,0,1-.926-.258A4.92,4.92,0,0,0,22,41.67V39.24A1.78,1.78,0,0,1,22.886,39Z" transform="translate(-4.194 -6.068)" fill="#ffb655"/>
      <path id="Trazado_874704" data-name="Trazado 874704" d="M21.8,32.56v2.67l-1.78,1.78h-.5a1.788,1.788,0,0,1-1.691-1.219l-.481-1.451-1.664,1.246a7.1,7.1,0,0,1-4.272,1.424H7.56L4.89,34.34l.89-1.78L4,29H18.241A3.56,3.56,0,0,1,21.8,32.56Z" transform="translate(-2.22 -4.968)" fill="#57565c"/>
      <path id="Trazado_874705" data-name="Trazado 874705" d="M20.461,38.8v2.43a4.92,4.92,0,0,1-.036.632A6.174,6.174,0,0,1,16.9,46.856a6.246,6.246,0,0,1-7.076-1.219,6.175,6.175,0,0,1-1.789-3.774A4.921,4.921,0,0,1,8,41.23V37.67h3.854a7.1,7.1,0,0,0,4.272-1.424L17.791,35l.481,1.451a1.788,1.788,0,0,0,1.691,1.219h.5Z" transform="translate(-2.66 -5.628)" fill="#ffc477"/>
      <path id="Trazado_874706" data-name="Trazado 874706" d="M17.34,48v2.67l-1.78.89H13.78L12,50.67V48Z" transform="translate(-3.099 -7.057)" fill="#ffc477"/>
      <path id="Trazado_874707" data-name="Trazado 874707" d="M7.67,41.67a4.921,4.921,0,0,0,.036.632,1.807,1.807,0,0,1-.926.258,1.78,1.78,0,1,1,.89-3.32Z" transform="translate(-2.329 -6.068)" fill="#ffb655"/>
      <path id="Trazado_874708" data-name="Trazado 874708" d="M17.34,48.32v.89a6.193,6.193,0,0,1-5.34,0v-.89A6.193,6.193,0,0,0,17.34,48.32Z" transform="translate(-3.099 -7.092)" fill="#ffb655"/>
      <path id="Trazado_874709" data-name="Trazado 874709" d="M55.917,17.837a2.73,2.73,0,0,0,.445-1.486,2.67,2.67,0,0,0-2.67-2.67v-3.56a7.12,7.12,0,1,0-14.241,0v3.56a2.67,2.67,0,0,0-2.67,2.67,2.73,2.73,0,0,0,.445,1.486A4.45,4.45,0,0,0,38.356,26a5.86,5.86,0,0,1,.7-.374l2.421-1.077c.685,1.442,2.706,2.483,5.091,2.483s4.406-1.041,5.091-2.483l2.421,1.077a5.86,5.86,0,0,1,.7.374H54.8a4.45,4.45,0,0,0,1.121-8.162Z" transform="translate(-5.629 -2.11)" fill="#57565c"/>
      <path id="Trazado_874710" data-name="Trazado 874710" d="M54.9,28.528H54.9a5.859,5.859,0,0,0-.7-.374l-2.421-1.077-1.949-.863L49.351,26h-5.34l-.472.2v.009l-1.949.863-2.421,1.077a5.859,5.859,0,0,0-.7.374A5.35,5.35,0,0,0,36,33.031v.979H57.361v-.979a5.375,5.375,0,0,0-2.457-4.5Z" transform="translate(-5.738 -4.638)" fill="#ed539d"/>
      <path id="Trazado_874711" data-name="Trazado 874711" d="M52.462,26.747c-.685,1.442-2.706,2.483-5.091,2.483s-4.406-1.041-5.091-2.483L44.7,25.67V23h5.34v2.67Z" transform="translate(-6.428 -4.309)" fill="#ffc477"/>
      <path id="Trazado_874712" data-name="Trazado 874712" d="M50.34,23v1.175a6.193,6.193,0,0,1-5.34,0V23Z" transform="translate(-6.727 -4.309)" fill="#ffb655"/>
      <path id="Trazado_874713" data-name="Trazado 874713" d="M52.268,12.67a3.56,3.56,0,0,1-2.519-1.041L48.12,10,47.4,11.086a3.56,3.56,0,0,1-2.964,1.584H41v3.56a6.23,6.23,0,1,0,12.461,0V12.67Z" transform="translate(-6.288 -2.879)" fill="#ffc477"/>
      <path id="Trazado_874714" data-name="Trazado 874714" d="M11,40h1.78v1.78H11Z" transform="translate(-2.989 -6.178)"/>
      <path id="Trazado_874715" data-name="Trazado 874715" d="M17,40h1.78v1.78H17Z" transform="translate(-3.649 -6.178)"/>
      <path id="Trazado_874716" data-name="Trazado 874716" d="M21.444,49.812l-4.313-1.918V46.609a7.1,7.1,0,0,0,3.338-4.4c.075.006.147.03.223.03a2.663,2.663,0,0,0,.335-5.307l1.185-1.185a.89.89,0,0,0,.261-.629V32.45A4.456,4.456,0,0,0,18.021,28H3.78a.89.89,0,0,0-.8,1.288L4.565,32.45l-.692,1.382a.89.89,0,0,0,.167,1.027l2.075,2.075a2.663,2.663,0,0,0,.335,5.307c.076,0,.149-.024.224-.031A7.115,7.115,0,0,0,8.536,45.5a6.911,6.911,0,0,0,1.475,1.1v1.3L5.7,49.812A6.23,6.23,0,0,0,2,55.5v1.869a.89.89,0,0,0,.89.89H24.251a.89.89,0,0,0,.89-.89V55.5a6.23,6.23,0,0,0-3.7-5.691ZM17.6,50.05l-.208.833-1.408-.469-.328-.655.608-.3Zm-4.028-2.469a7.05,7.05,0,0,0,1.78-.233v.573l-1.1.55h-1.36l-1.1-.55v-.573A7.056,7.056,0,0,0,13.571,47.581Zm-.7,3.382.356-.712h.68l.356.712-.7.7Zm.078,2.592a.881.881,0,0,0,1.237,0l.862,2.927h-2.96Zm8.629-13.985a.89.89,0,0,1-.89.89v-1.78A.89.89,0,0,1,21.581,39.571ZM6.361,32.052,5.22,29.78h12.8a2.67,2.67,0,0,1,2.67,2.67v2.3l-1.259,1.259H19.3a.89.89,0,0,1-.844-.609l-.484-1.453a.89.89,0,0,0-.579-.568.872.872,0,0,0-.265-.041.89.89,0,0,0-.534.178l-1.661,1.246A6.276,6.276,0,0,1,11.2,36.011H7.709L5.751,34.052l.611-1.2a.89.89,0,0,0,0-.8Zm-.8,7.518a.89.89,0,0,1,.89-.89v1.78A.89.89,0,0,1,5.56,39.571Zm2.7,1.405a4.083,4.083,0,0,1-.028-.515v-2.67H11.2A8.059,8.059,0,0,0,16,36.189l.674-.5.093.281a2.67,2.67,0,0,0,2.141,1.794v2.7a4.1,4.1,0,0,1-.032.546,5.34,5.34,0,0,1-7.6,4.272,5.22,5.22,0,0,1-1.482-1.042,5.333,5.333,0,0,1-1.536-3.261Zm2.62,8.48.608.3-.328.655-1.408.469-.208-.833ZM3.78,55.5a4.45,4.45,0,0,1,2.64-4.064l1.471-.653.366,1.462a.89.89,0,0,0,.863.674.875.875,0,0,0,.281-.046l2.1-.7-1.268,4.307H3.78Zm19.581.979H16.907l-1.268-4.307,2.1.7a.875.875,0,0,0,.281.046.89.89,0,0,0,.863-.675l.366-1.462,1.471.654a4.45,4.45,0,0,1,2.64,4.064Z" transform="translate(-2 -4.858)"/>
      <path id="Trazado_874717" data-name="Trazado 874717" d="M44,15h1.78v1.78H44Z" transform="translate(-6.618 -3.429)"/>
      <path id="Trazado_874718" data-name="Trazado 874718" d="M50,15h1.78v1.78H50Z" transform="translate(-7.277 -3.429)"/>
      <path id="Trazado_874719" data-name="Trazado 874719" d="M34,21.581a5.313,5.313,0,0,0,2.572,4.554,6.211,6.211,0,0,0-1.682,4.258v.979a.89.89,0,0,0,.89.89H57.142a.89.89,0,0,0,.89-.89v-.979a6.206,6.206,0,0,0-1.686-4.259,5.323,5.323,0,0,0,.592-8.7,3.56,3.56,0,0,0-2.466-4.636V10.011a8.011,8.011,0,1,0-16.021,0v2.783a3.56,3.56,0,0,0-2.466,4.636A5.361,5.361,0,0,0,34,21.581Zm22.251,8.9H36.67v-.089A4.441,4.441,0,0,1,38.7,26.655a5.072,5.072,0,0,1,.608-.324l1.73-.768a6.942,6.942,0,0,0,5.42,2.249,6.942,6.942,0,0,0,5.421-2.252l1.74.773a4.921,4.921,0,0,1,.572.3,4.45,4.45,0,0,1,2.057,3.755ZM41.12,12.681h2.545a4.439,4.439,0,0,0,3.7-1.982l.121-.178.86.86a4.422,4.422,0,0,0,3.146,1.3H51.8v2.67a5.34,5.34,0,1,1-10.681,0Zm2.56,11.708c.034-.014.466-.211.466-.211a.89.89,0,0,0,.535-.816V22.237a6.885,6.885,0,0,0,3.56,0v1.124a.89.89,0,0,0,.522.811l1.412.623a6.218,6.218,0,0,1-7.427,0Zm11.681-8.148a1.849,1.849,0,0,1-.3,1,.89.89,0,0,0,.3,1.253,3.548,3.548,0,0,1-.585,6.423,4.6,4.6,0,0,0-.445-.218l-4.311-1.915V21.508a7.121,7.121,0,0,0,3.56-6.157v-.89a1.78,1.78,0,0,1,1.78,1.78ZM40.23,10.011a6.23,6.23,0,1,1,12.461,0v.89H51.5a2.685,2.685,0,0,1-1.888-.782L47.98,8.491a.89.89,0,0,0-1.37.135l-.724,1.085A2.662,2.662,0,0,1,43.665,10.9H40.23ZM37.56,18.5a.89.89,0,0,0,.3-1.253,1.849,1.849,0,0,1-.3-1,1.78,1.78,0,0,1,1.78-1.78v.89a7.121,7.121,0,0,0,3.56,6.157v1.273a.482.482,0,0,0-.046.027L38.6,24.7a4.761,4.761,0,0,0-.429.228A3.546,3.546,0,0,1,37.56,18.5Z" transform="translate(-5.518 -2)"/>
      <path id="Trazado_874720" data-name="Trazado 874720" d="M55.592,40H34.231a2.67,2.67,0,0,0-2.67,2.67v3.9L28.492,48.1a.89.89,0,0,0-.231,1.424l3.3,3.3v4.082a2.67,2.67,0,0,0,2.67,2.67H55.592a2.67,2.67,0,0,0,2.67-2.67V42.67A2.67,2.67,0,0,0,55.592,40Zm.89,16.911a.89.89,0,0,1-.89.89H34.231a.89.89,0,0,1-.89-.89v-4.45a.89.89,0,0,0-.261-.629l-2.687-2.687,2.456-1.223a.89.89,0,0,0,.492-.8V42.67a.89.89,0,0,1,.89-.89H55.592a.89.89,0,0,1,.89.89Z" transform="translate(-4.859 -6.178)"/>
      <path id="Trazado_874721" data-name="Trazado 874721" d="M46.67,48a2.67,2.67,0,1,0,2.67,2.67A2.67,2.67,0,0,0,46.67,48Zm0,3.56a.89.89,0,1,1,.89-.89A.89.89,0,0,1,46.67,51.56Z" transform="translate(-6.618 -7.057)"/>
      <path id="Trazado_874722" data-name="Trazado 874722" d="M54.67,48a2.67,2.67,0,1,0,2.67,2.67A2.67,2.67,0,0,0,54.67,48Zm0,3.56a.89.89,0,1,1,.89-.89A.89.89,0,0,1,54.67,51.56Z" transform="translate(-7.497 -7.057)"/>
      <path id="Trazado_874723" data-name="Trazado 874723" d="M38.67,48a2.67,2.67,0,1,0,2.67,2.67A2.67,2.67,0,0,0,38.67,48Zm0,3.56a.89.89,0,1,1,.89-.89A.89.89,0,0,1,38.67,51.56Z" transform="translate(-5.738 -7.057)"/>
      <path id="Trazado_874724" data-name="Trazado 874724" d="M4.67,21.581H26.032a2.67,2.67,0,0,0,2.67-2.67v-3.9l3.068-1.529A.89.89,0,0,0,32,12.058L28.7,8.752V4.67A2.67,2.67,0,0,0,26.032,2H4.67A2.67,2.67,0,0,0,2,4.67V18.911a2.67,2.67,0,0,0,2.67,2.67ZM3.78,4.67a.89.89,0,0,1,.89-.89H26.032a.89.89,0,0,1,.89.89v4.45a.89.89,0,0,0,.261.629l2.687,2.687-2.456,1.227a.89.89,0,0,0-.492.8v4.45a.89.89,0,0,1-.89.89H4.67a.89.89,0,0,1-.89-.89Z" transform="translate(-2 -2)"/>
      <path id="Trazado_874725" data-name="Trazado 874725" d="M16.67,15.34A2.67,2.67,0,1,0,14,12.67,2.67,2.67,0,0,0,16.67,15.34Zm0-3.56a.89.89,0,1,1-.89.89A.89.89,0,0,1,16.67,11.78Z" transform="translate(-3.319 -2.879)"/>
      <path id="Trazado_874726" data-name="Trazado 874726" d="M8.67,15.34A2.67,2.67,0,1,0,6,12.67,2.67,2.67,0,0,0,8.67,15.34Zm0-3.56a.89.89,0,1,1-.89.89A.89.89,0,0,1,8.67,11.78Z" transform="translate(-2.44 -2.879)"/>
      <path id="Trazado_874727" data-name="Trazado 874727" d="M24.67,15.34A2.67,2.67,0,1,0,22,12.67a2.67,2.67,0,0,0,2.67,2.67Zm0-3.56a.89.89,0,1,1-.89.89A.89.89,0,0,1,24.67,11.78Z" transform="translate(-4.199 -2.879)"/>
    </g>
  </g>
</svg>
