<svg xmlns="http://www.w3.org/2000/svg" width="73.744" height="73.74" viewBox="0 0 73.744 73.74">
  <g id="Grupo_1106305" data-name="Grupo 1106305" transform="translate(0 0)">
    <g id="cinta-adhesiva-azul-aislado-sobre-fondo-blanco_457211-2103" transform="translate(0 0)" fill="#fff">
      <path d="M 36.8721923828125 72.23999786376953 C 32.0963020324707 72.23999786376953 27.46406936645508 71.30502319335938 23.10416984558105 69.46105194091797 C 18.89225959777832 67.67966461181641 15.10924816131592 65.12914276123047 11.86024761199951 61.88033294677734 C 8.611248016357422 58.63153076171875 6.060581207275391 54.8487663269043 4.279092311859131 50.63711166381836 C 2.435025691986084 46.27750015258789 1.500003457069397 41.64556503295898 1.500003457069397 36.86999893188477 C 1.500003457069397 32.09443283081055 2.435025691986084 27.46250915527344 4.279092311859131 23.1028881072998 C 6.060581207275391 18.89123153686523 8.611248016357422 15.10846519470215 11.86024761199951 11.8596658706665 C 15.10924816131592 8.610854148864746 18.89225959777832 6.060332298278809 23.10416984558105 4.278943538665771 C 27.46406936645508 2.434976816177368 32.0963020324707 1.499998927116394 36.8721923828125 1.499998927116394 C 41.6480827331543 1.499998927116394 46.28031539916992 2.434976816177368 50.64021301269531 4.278943538665771 C 54.85213851928711 6.060332298278809 58.63513565063477 8.610854148864746 61.88413619995117 11.8596658706665 C 65.13314056396484 15.10846519470215 67.68379974365234 18.89123153686523 69.46529388427734 23.1028881072998 C 71.30935668945312 27.46250915527344 72.244384765625 32.09443283081055 72.244384765625 36.86999893188477 C 72.244384765625 41.64556503295898 71.30935668945312 46.27750015258789 69.46529388427734 50.63711166381836 C 67.68379974365234 54.8487663269043 65.13314056396484 58.63153076171875 61.88413619995117 61.88033294677734 C 58.63513565063477 65.12914276123047 54.85213851928711 67.67966461181641 50.64021301269531 69.46105194091797 C 46.28031539916992 71.30502319335938 41.6480827331543 72.23999786376953 36.8721923828125 72.23999786376953 Z" stroke="none"/>
      <path d="M 36.8721923828125 3 C 32.29813003540039 3 27.86248016357422 3.895111083984375 23.68846893310547 5.66046142578125 C 19.65534210205078 7.366233825683594 16.0326042175293 9.808811187744141 12.92086791992188 12.92036056518555 C 9.809154510498047 16.03188705444336 7.366439819335938 19.65439987182617 5.66058349609375 23.68724822998047 C 3.8951416015625 27.8609619140625 2.999992370605469 32.29627227783203 2.999992370605469 36.86999893188477 C 2.999992370605469 41.4437255859375 3.8951416015625 45.87903594970703 5.66058349609375 50.05276107788086 C 7.366439819335938 54.08560943603516 9.809154510498047 57.70811080932617 12.92086791992188 60.81964874267578 C 16.0325927734375 63.93118667602539 19.65534210205078 66.37377166748047 23.68846893310547 68.07953643798828 C 27.86248016357422 69.84488677978516 32.29813003540039 70.73999786376953 36.8721923828125 70.73999786376953 C 41.44625473022461 70.73999786376953 45.88190460205078 69.84488677978516 50.05591583251953 68.07953643798828 C 54.08904266357422 66.37377166748047 57.7117805480957 63.93118667602539 60.82350540161133 60.81964874267578 C 63.93523025512695 57.70811080932617 66.37794494628906 54.08560943603516 68.08379364013672 50.05276107788086 C 69.84922790527344 45.87905120849609 70.74437713623047 41.4437255859375 70.74437713623047 36.86999893188477 C 70.74437713623047 32.29627227783203 69.84922790527344 27.8609619140625 68.08379364013672 23.68724822998047 C 66.37794494628906 19.65439987182617 63.93523025512695 16.03188705444336 60.82350540161133 12.92036056518555 C 57.7117805480957 9.808811187744141 54.08904266357422 7.366233825683594 50.05591583251953 5.66046142578125 C 45.88189315795898 3.895111083984375 41.44625473022461 3 36.8721923828125 3 M 36.8721923828125 0 C 57.23614501953125 0 73.74437713623047 16.50726318359375 73.74437713623047 36.86999893188477 C 73.74437713623047 57.23274993896484 57.23614501953125 73.73999786376953 36.8721923828125 73.73999786376953 C 16.50824356079102 73.73999786376953 -7.62939453125e-06 57.23274993896484 -7.62939453125e-06 36.86999893188477 C -7.62939453125e-06 16.50726318359375 16.50824356079102 0 36.8721923828125 0 Z" stroke="none" fill="#f6de44"/>
    </g>
    <g id="information_14696723" transform="translate(6.975 -18.122)">
      <g id="Grupo_1106314" data-name="Grupo 1106314" transform="translate(15.166 32.662)">
        <path id="Trazado_885042" data-name="Trazado 885042" d="M320.771,229.429h4.518a.285.285,0,0,1,.284.284v17.564a.285.285,0,0,1-.284.284h-4.518a.283.283,0,0,1-.284-.284V229.713A.283.283,0,0,1,320.771,229.429Z" transform="translate(-297.465 -211.953)" fill="#60b7ff" fill-rule="evenodd"/>
        <path id="Trazado_885043" data-name="Trazado 885043" d="M318.708,50.589l-4.878,4.548.028-6.079a8.333,8.333,0,1,1,4.85,1.53Z" transform="translate(-288.224 -33.924)" fill="#22f0ab" fill-rule="evenodd"/>
        <path id="Trazado_885044" data-name="Trazado 885044" d="M149.53,269.256h4.518c.155,0,.284.258.284.57v13.353c0,.312-.129.57-.284.57H149.53c-.157,0-.284-.258-.284-.57V269.826C149.246,269.514,149.373,269.256,149.53,269.256Z" transform="translate(-141.531 -248.22)" fill="#ffee93" fill-rule="evenodd"/>
        <path id="Trazado_885045" data-name="Trazado 885045" d="M63.895,350.723h4.518a.285.285,0,0,1,.284.284v6.644a.285.285,0,0,1-.284.284H63.895a.287.287,0,0,1-.284-.284v-6.644A.287.287,0,0,1,63.895,350.723Z" transform="translate(-63.55 -322.405)" fill="#ff7577" fill-rule="evenodd"/>
        <path id="Trazado_885046" data-name="Trazado 885046" d="M235.136,309.989h4.518c.157,0,.284.193.284.428v10c0,.236-.127.428-.284.428h-4.518c-.155,0-.284-.193-.284-.428v-10C234.852,310.182,234.981,309.989,235.136,309.989Z" transform="translate(-219.485 -285.313)" fill="#22f0ab" fill-rule="evenodd"/>
        <path id="Trazado_885047" data-name="Trazado 885047" d="M65.536,248.7a2.6,2.6,0,1,0-2.6-2.6A2.61,2.61,0,0,0,65.536,248.7Z" transform="translate(-62.931 -224.757)" fill="#ff7577" fill-rule="evenodd"/>
        <path id="Trazado_885048" data-name="Trazado 885048" d="M151.143,158.443a2.6,2.6,0,1,0-2.6-2.6A2.609,2.609,0,0,0,151.143,158.443Z" transform="translate(-140.886 -142.569)" fill="#ffee93" fill-rule="evenodd"/>
        <path id="Trazado_885049" data-name="Trazado 885049" d="M236.777,216.185a2.6,2.6,0,1,0-2.6-2.6A2.61,2.61,0,0,0,236.777,216.185Z" transform="translate(-218.865 -195.15)" fill="#22f0ab" fill-rule="evenodd"/>
        <g id="Grupo_1106313" data-name="Grupo 1106313" transform="translate(29.215 2.432)">
          <path id="Trazado_885050" data-name="Trazado 885050" d="M391,109.467a1.236,1.236,0,0,0-1.231,1.231v4.738a1.233,1.233,0,1,0,2.465,0V110.7A1.236,1.236,0,0,0,391,109.467Z" transform="translate(-389.766 -105.147)" fill="#e8ecf9" fill-rule="evenodd"/>
          <path id="Trazado_885051" data-name="Trazado 885051" d="M391,63.6a1.234,1.234,0,1,0-1.231-1.234A1.236,1.236,0,0,0,391,63.6Z" transform="translate(-389.766 -61.136)" fill="#e8ecf9" fill-rule="evenodd"/>
        </g>
      </g>
      <path id="Trazado_885052" data-name="Trazado 885052" d="M27.655,69.139c.475,0,.82-.465.82-1.106V54.68c0-.641-.345-1.106-.82-1.106H23.137c-.475,0-.82.465-.82,1.106V68.033c0,.641.345,1.106.82,1.106ZM23.389,54.68c0-.012,0-.023,0-.034H27.4c0,.011,0,.022,0,.034V68.033c0,.012,0,.023,0,.034H23.39c0-.011,0-.022,0-.034ZM20,69.139a.821.821,0,0,0,.82-.82V61.675a.821.821,0,0,0-.82-.82H15.485a.821.821,0,0,0-.82.82v6.644a.821.821,0,0,0,.82.82Zm-4.266-7.211h4.014v6.14H15.737Zm19.572,7.211a.891.891,0,0,0,.82-.964v-10a.891.891,0,0,0-.82-.964H30.792a.891.891,0,0,0-.82.964v10a.891.891,0,0,0,.82.964ZM31.044,58.286h4.014v9.781H31.044ZM45.586,32.538A8.863,8.863,0,0,0,37.926,45.87l-3.069,3.069a3.132,3.132,0,0,0-4.073.393l-2.523-1.7a3.14,3.14,0,1,0-5.382.589l-3.4,3.58a3.143,3.143,0,1,0,.777.738l3.4-3.58a3.133,3.133,0,0,0,4-.439l2.524,1.7a3.141,3.141,0,1,0,5.431-.524l2.918-2.918a8.86,8.86,0,0,0,1.7,1.7l-.007,1.535H38.444a.821.821,0,0,0-.82.82V68.4a.821.821,0,0,0,.82.82h4.518a.821.821,0,0,0,.82-.82V52.188l2.056-1.917a8.868,8.868,0,0,0-.25-17.733ZM17.743,56.48a2.069,2.069,0,1,1,2.069-2.069A2.071,2.071,0,0,1,17.743,56.48ZM25.4,48.412a2.069,2.069,0,1,1,2.069-2.069A2.071,2.071,0,0,1,25.4,48.412Zm7.652,5.161A2.069,2.069,0,1,1,35.118,51.5,2.071,2.071,0,0,1,33.049,53.574Zm9.66,14.572H38.7V51.085h1.527l-.015,3.2a.536.536,0,0,0,.9.394l1.6-1.492ZM45.62,49.2a.536.536,0,0,0-.363.144l-3.97,3.7.011-2.488s0-.008,0-.012,0-.007,0-.01l.011-2.329a.536.536,0,0,0-.226-.44A7.8,7.8,0,1,1,45.62,49.2Zm-.033-9.912a1.771,1.771,0,0,0-1.77,1.767V45.8a1.77,1.77,0,1,0,3.54,0V41.058A1.771,1.771,0,0,0,45.586,39.291Zm.7,6.505a.7.7,0,1,1-1.4,0V41.058a.7.7,0,0,1,1.4,0Zm-.7-10.826a1.77,1.77,0,1,0,1.77,1.77A1.772,1.772,0,0,0,45.586,34.97Zm0,2.468a.7.7,0,1,1,.7-.7A.7.7,0,0,1,45.586,37.438ZM43.518,72.829a.536.536,0,0,1-.536.536H12.216a1.74,1.74,0,0,1-1.739-1.737V41.742a.536.536,0,1,1,1.072,0V71.628a.667.667,0,0,0,.668.665H42.982a.536.536,0,0,1,.536.536Z"/>
    </g>
  </g>
</svg>
