<svg xmlns="http://www.w3.org/2000/svg" width="404.426" height="348.206" viewBox="0 0 404.426 348.206">
  <g id="Grupo_1107254" data-name="Grupo 1107254" transform="translate(-598.051 -4566.357)">
    <g id="_10" data-name="10" transform="translate(591.663 4559.877)">
      <g id="Grupo_1107237" data-name="Grupo 1107237" transform="translate(6.496)">
        <path id="Trazado_887312" data-name="Trazado 887312" d="M337.411,134.869l93.775,162.417c.115.209.238.433.354.65l93.5,161.947a11.505,11.505,0,0,1-9.99,17.243v.051H139.663a11.564,11.564,0,0,1-9.427-18.261q93.6-162.121,187.145-324.183a11.533,11.533,0,0,1,20.037.13h0Z" transform="translate(-122.254 -122.498)" fill="#fed8cc" fill-rule="evenodd"/>
      </g>
      <g id="Grupo_1107238" data-name="Grupo 1107238" transform="translate(4.331 75.066)">
        <path id="Trazado_887313" data-name="Trazado 887313" d="M289.99,237.052l73.666,127.59c.1.173.188.339.267.512l73.449,127.222a9.027,9.027,0,0,1-3.327,12.343,8.91,8.91,0,0,1-4.511,1.205v.043H134.647a9.084,9.084,0,0,1-7.406-14.349q73.514-127.345,147.006-254.661a9.063,9.063,0,0,1,15.742.1h0Z" transform="translate(-119.382 -226.348)" fill="#fd9f81" fill-rule="evenodd"/>
      </g>
      <g id="Grupo_1107239" data-name="Grupo 1107239" transform="translate(1.444 147.245)">
        <path id="Trazado_887314" data-name="Trazado 887314" d="M242.58,336.311l54.134,93.76a3.039,3.039,0,0,1,.188.375l53.975,93.479A6.643,6.643,0,0,1,348.43,533a6.475,6.475,0,0,1-3.306.881v.029H128.437a6.672,6.672,0,0,1-5.442-10.538q54.026-93.576,108.023-187.131a6.663,6.663,0,0,1,11.57.072h0Z" transform="translate(-115.437 -326.48)" fill="#cae1f9" fill-rule="evenodd"/>
      </g>
      <g id="Grupo_1107240" data-name="Grupo 1107240" transform="translate(0 211.484)">
        <path id="Trazado_887315" data-name="Trazado 887315" d="M202.062,424.228l36.84,63.792.13.26,36.732,63.611a4.519,4.519,0,0,1-3.919,6.763v.022H124.39a4.548,4.548,0,0,1-3.71-7.167q36.779-63.683,73.507-127.33a4.532,4.532,0,0,1,6.193-1.653,4.461,4.461,0,0,1,1.675,1.7h0Z" transform="translate(-113.462 -415.48)" fill="#7bb5f2" fill-rule="evenodd"/>
      </g>
      <g id="Grupo_1107242" data-name="Grupo 1107242" transform="translate(188.386 51.969)">
        <path id="Trazado_887317" data-name="Trazado 887317" d="M393.3,210.412c0,3.4-.541,5.933-1.6,7.608a5.446,5.446,0,0,1-4.915,2.519,5.3,5.3,0,0,1-4.836-2.577q-1.657-2.577-1.653-7.55c0-3.32.534-5.955,1.6-7.622a5.4,5.4,0,0,1,4.887-2.49,5.3,5.3,0,0,1,4.85,2.6c1.1,1.725,1.667,4.23,1.667,7.514h0Zm-10.747-.014a14.48,14.48,0,0,0,1.01,6.258,3.621,3.621,0,0,0,6.446-.029,19.771,19.771,0,0,0,0-12.436,3.636,3.636,0,0,0-6.446-.022,14.289,14.289,0,0,0-1.01,6.229Zm18.94,9.86h-2.165v-14.01c0-1.162.029-2.266.1-3.3-.188.188-.4.383-.628.592s-1.306,1.075-3.2,2.627l-1.184-1.545,5.2-4.02H401.5v19.654Z" transform="translate(-374.306 -194.309)" fill="#12263f"/>
      </g>
      <g id="Grupo_1107244" data-name="Grupo 1107244" transform="translate(140.748 129.2)">
        <path id="Trazado_887319" data-name="Trazado 887319" d="M327.389,317.265q0,5.1-1.6,7.608a5.438,5.438,0,0,1-4.915,2.519,5.312,5.312,0,0,1-4.836-2.577c-1.1-1.718-1.646-4.23-1.646-7.55s.534-5.955,1.6-7.622a5.949,5.949,0,0,1,9.751.116q1.657,2.6,1.653,7.507h0Zm-10.74,0a14.4,14.4,0,0,0,1,6.243,3.633,3.633,0,0,0,6.46-.029,19.862,19.862,0,0,0,0-12.422,3.639,3.639,0,0,0-6.46-.029,14.345,14.345,0,0,0-1,6.236h0Zm24.663,9.86H328.385V325.2l5.182-5.2a37.23,37.23,0,0,0,3.118-3.421,8.658,8.658,0,0,0,1.133-1.985,6.007,6.007,0,0,0,.368-2.086,3.318,3.318,0,0,0-.953-2.5,3.675,3.675,0,0,0-2.649-.924,6.467,6.467,0,0,0-2.317.411,8.663,8.663,0,0,0-2.447,1.465l-1.184-1.523a9.058,9.058,0,0,1,5.919-2.245A6.262,6.262,0,0,1,338.9,308.6a4.876,4.876,0,0,1,1.573,3.818,7.321,7.321,0,0,1-1.054,3.688,23.28,23.28,0,0,1-3.919,4.619l-4.309,4.208v.108h10.119v2.064Z" transform="translate(-308.334 -301.27)" fill="#12263f"/>
      </g>
      <g id="Grupo_1107246" data-name="Grupo 1107246" transform="translate(98.163 199.935)">
        <path id="Trazado_887321" data-name="Trazado 887321" d="M268.957,415.925q0,5.1-1.617,7.615a5.438,5.438,0,0,1-4.915,2.519,5.288,5.288,0,0,1-4.822-2.577q-1.656-2.577-1.653-7.55c0-3.32.534-5.955,1.6-7.622a5.931,5.931,0,0,1,9.737.108c1.1,1.732,1.667,4.23,1.667,7.507Zm-10.747,0a14.334,14.334,0,0,0,1.01,6.251,3.357,3.357,0,0,0,3.212,1.956,3.4,3.4,0,0,0,3.241-1.985,19.726,19.726,0,0,0,0-12.422,3.636,3.636,0,0,0-6.453-.036c-.678,1.292-1.01,3.378-1.01,6.236h0Zm24.281-5.168a4.492,4.492,0,0,1-1.054,3.075,5.308,5.308,0,0,1-2.988,1.6v.108a5.638,5.638,0,0,1,3.508,1.5,4.407,4.407,0,0,1,1.14,3.176,5.144,5.144,0,0,1-1.956,4.323,8.821,8.821,0,0,1-5.536,1.516,16.61,16.61,0,0,1-2.858-.231,10.111,10.111,0,0,1-2.519-.83v-2.129a12.878,12.878,0,0,0,5.45,1.292q5.1,0,5.1-3.991,0-3.584-5.623-3.58h-1.934v-1.934h1.963a5.928,5.928,0,0,0,3.652-1.01,3.326,3.326,0,0,0,1.342-2.815,2.78,2.78,0,0,0-.989-2.252,4.092,4.092,0,0,0-2.678-.823,8.377,8.377,0,0,0-2.44.354,10.69,10.69,0,0,0-2.606,1.292l-1.133-1.5a9.391,9.391,0,0,1,2.786-1.494,10.241,10.241,0,0,1,3.327-.541,6.8,6.8,0,0,1,4.453,1.306,4.421,4.421,0,0,1,1.581,3.6h0Z" transform="translate(-249.49 -399.454)" fill="#12263f"/>
      </g>
      <g id="Grupo_1107248" data-name="Grupo 1107248" transform="translate(57.743 264.896)">
        <path id="Trazado_887323" data-name="Trazado 887323" d="M212.6,505.792q0,5.1-1.6,7.608a5.438,5.438,0,0,1-4.915,2.519,5.312,5.312,0,0,1-4.836-2.577c-1.1-1.718-1.646-4.23-1.646-7.55s.534-5.955,1.6-7.622a5.416,5.416,0,0,1,4.879-2.49,5.357,5.357,0,0,1,4.865,2.6q1.657,2.588,1.653,7.507h0Zm-10.74,0a14.447,14.447,0,0,0,1,6.243,3.633,3.633,0,0,0,6.46-.029,20.023,20.023,0,0,0,0-12.429,3.645,3.645,0,0,0-6.46-.014,14.323,14.323,0,0,0-1,6.236h0Zm27.024,5.334h-2.916v4.511H223.83v-4.511h-9.556v-1.942l9.325-13.3h2.367V509.1h2.916v2.035Zm-5.053-2.035v-6.539c0-1.27.051-2.728.13-4.331h-.1a20.286,20.286,0,0,1-1.213,2.136l-6.15,8.734h7.326Z" transform="translate(-193.393 -489.415)" fill="#12263f"/>
      </g>
    </g>
    <path id="Trazado_887402" data-name="Trazado 887402" d="M11.549,17H8.912L3.779,8.58V17H1.143V4.2H3.779l5.142,8.438V4.2h2.628Zm4.816,0H13.816V7.49h2.549Zm-2.7-11.971a1.251,1.251,0,0,1,.382-.94,1.648,1.648,0,0,1,2.079,0,1.244,1.244,0,0,1,.387.94,1.247,1.247,0,0,1-.391.949,1.629,1.629,0,0,1-2.065,0A1.247,1.247,0,0,1,13.667,5.029Zm8.35,8.868L23.783,7.49h2.654L23.229,17H20.8L17.6,7.49H20.25Zm9.8,3.278a4.668,4.668,0,0,1-3.406-1.283A4.561,4.561,0,0,1,27.1,12.474v-.246a5.745,5.745,0,0,1,.554-2.562,4.064,4.064,0,0,1,1.569-1.74,4.4,4.4,0,0,1,2.316-.611,3.947,3.947,0,0,1,3.072,1.23,5,5,0,0,1,1.121,3.489v1.037H29.672a2.36,2.36,0,0,0,.743,1.494,2.245,2.245,0,0,0,1.569.563,2.742,2.742,0,0,0,2.294-1.063l1.248,1.4a3.813,3.813,0,0,1-1.547,1.261A5.075,5.075,0,0,1,31.816,17.176Zm-.29-7.813a1.587,1.587,0,0,0-1.226.512,2.651,2.651,0,0,0-.6,1.466h3.533v-.2a1.891,1.891,0,0,0-.457-1.311A1.638,1.638,0,0,0,31.526,9.362ZM39.85,17H37.3V3.5H39.85Zm10.951.176A4.668,4.668,0,0,1,47.4,15.893a4.561,4.561,0,0,1-1.314-3.419v-.246a5.745,5.745,0,0,1,.554-2.562A4.064,4.064,0,0,1,48.2,7.925a4.4,4.4,0,0,1,2.316-.611,3.947,3.947,0,0,1,3.072,1.23,5,5,0,0,1,1.121,3.489v1.037H48.656a2.36,2.36,0,0,0,.743,1.494,2.245,2.245,0,0,0,1.569.563,2.742,2.742,0,0,0,2.294-1.063l1.248,1.4a3.813,3.813,0,0,1-1.547,1.261A5.075,5.075,0,0,1,50.8,17.176Zm-.29-7.813a1.587,1.587,0,0,0-1.226.512,2.651,2.651,0,0,0-.6,1.466h3.533v-.2a1.891,1.891,0,0,0-.457-1.311A1.638,1.638,0,0,0,50.511,9.362ZM61.3,14.372a.818.818,0,0,0-.461-.734,5.241,5.241,0,0,0-1.481-.479q-3.393-.712-3.393-2.883a2.613,2.613,0,0,1,1.05-2.114,4.237,4.237,0,0,1,2.747-.848,4.56,4.56,0,0,1,2.9.853,2.687,2.687,0,0,1,1.085,2.215h-2.54a1.229,1.229,0,0,0-.352-.9,1.488,1.488,0,0,0-1.1-.356,1.52,1.52,0,0,0-.993.29.916.916,0,0,0-.352.738.783.783,0,0,0,.4.681,4.114,4.114,0,0,0,1.349.448,11.019,11.019,0,0,1,1.6.426,2.628,2.628,0,0,1,2.013,2.558,2.481,2.481,0,0,1-1.116,2.1,4.815,4.815,0,0,1-2.883.8,5.029,5.029,0,0,1-2.123-.426A3.561,3.561,0,0,1,56.2,15.581a2.716,2.716,0,0,1-.527-1.6h2.408a1.326,1.326,0,0,0,.5,1.037,1.987,1.987,0,0,0,1.248.36,1.839,1.839,0,0,0,1.1-.277A.861.861,0,0,0,61.3,14.372Zm7.146-9.22V7.49h1.626V9.354H68.449V14.1a1.133,1.133,0,0,0,.2.756,1.015,1.015,0,0,0,.773.229,4.051,4.051,0,0,0,.747-.062v1.925a5.229,5.229,0,0,1-1.538.229,2.425,2.425,0,0,1-2.725-2.7V9.354H64.521V7.49h1.389V5.152Zm8.385,4.72a6.9,6.9,0,0,0-.914-.07,1.86,1.86,0,0,0-1.89.976V17H71.49V7.49h2.4l.07,1.134a2.354,2.354,0,0,1,2.118-1.31,2.662,2.662,0,0,1,.791.114ZM83.3,17a2.821,2.821,0,0,1-.255-.853,3.073,3.073,0,0,1-2.4,1.028,3.376,3.376,0,0,1-2.316-.809,2.6,2.6,0,0,1-.918-2.039,2.687,2.687,0,0,1,1.121-2.32,5.529,5.529,0,0,1,3.239-.817h1.169v-.545A1.567,1.567,0,0,0,82.6,9.591a1.331,1.331,0,0,0-1.068-.4A1.513,1.513,0,0,0,80.53,9.5a1.045,1.045,0,0,0-.365.844h-2.54a2.551,2.551,0,0,1,.51-1.529,3.37,3.37,0,0,1,1.441-1.1,5.253,5.253,0,0,1,2.092-.4,4.15,4.15,0,0,1,2.791.883,3.09,3.09,0,0,1,1.033,2.483V14.8a4.546,4.546,0,0,0,.378,2.048V17Zm-2.1-1.767a2.188,2.188,0,0,0,1.037-.25,1.645,1.645,0,0,0,.7-.672V12.676h-.949q-1.907,0-2.03,1.318l-.009.149a1.017,1.017,0,0,0,.334.782A1.3,1.3,0,0,0,81.2,15.233ZM90.483,5.152V7.49h1.626V9.354H90.483V14.1a1.133,1.133,0,0,0,.2.756,1.015,1.015,0,0,0,.773.229,4.051,4.051,0,0,0,.747-.062v1.925a5.229,5.229,0,0,1-1.538.229,2.425,2.425,0,0,1-2.725-2.7V9.354H86.555V7.49h1.389V5.152ZM97.9,17.176A4.668,4.668,0,0,1,94.5,15.893a4.561,4.561,0,0,1-1.314-3.419v-.246a5.745,5.745,0,0,1,.554-2.562A4.064,4.064,0,0,1,95.3,7.925a4.4,4.4,0,0,1,2.316-.611,3.947,3.947,0,0,1,3.072,1.23,5,5,0,0,1,1.121,3.489v1.037H95.757a2.36,2.36,0,0,0,.743,1.494,2.245,2.245,0,0,0,1.569.563,2.742,2.742,0,0,0,2.294-1.063l1.248,1.4a3.813,3.813,0,0,1-1.547,1.261A5.075,5.075,0,0,1,97.9,17.176Zm-.29-7.813a1.587,1.587,0,0,0-1.226.512,2.651,2.651,0,0,0-.6,1.466h3.533v-.2a1.891,1.891,0,0,0-.457-1.311A1.638,1.638,0,0,0,97.611,9.362ZM97.84,3.5h2.769L98.174,6.225H96.108Zm5.045,8.675a5.573,5.573,0,0,1,1.042-3.524,3.375,3.375,0,0,1,2.808-1.336,2.96,2.96,0,0,1,2.435,1.072l.105-.9h2.3v9.193a4.064,4.064,0,0,1-.567,2.171,3.641,3.641,0,0,1-1.6,1.406,5.608,5.608,0,0,1-2.408.483,5.215,5.215,0,0,1-2.039-.417,3.619,3.619,0,0,1-1.5-1.077L104.59,17.7a2.975,2.975,0,0,0,2.3,1.063,2.178,2.178,0,0,0,1.573-.541,2.027,2.027,0,0,0,.563-1.534v-.51a2.938,2.938,0,0,1-2.312.993,3.366,3.366,0,0,1-2.773-1.34,5.572,5.572,0,0,1-1.059-3.555Zm2.54.181a3.489,3.489,0,0,0,.519,2.035,1.648,1.648,0,0,0,1.424.737,1.762,1.762,0,0,0,1.661-.874V10.236a1.758,1.758,0,0,0-1.644-.874,1.659,1.659,0,0,0-1.437.751A3.933,3.933,0,0,0,105.425,12.356ZM116.209,17H113.66V7.49h2.549Zm-2.7-11.971a1.251,1.251,0,0,1,.382-.94,1.648,1.648,0,0,1,2.079,0,1.244,1.244,0,0,1,.387.94,1.247,1.247,0,0,1-.391.949,1.629,1.629,0,0,1-2.065,0A1.247,1.247,0,0,1,113.511,5.029Zm8.745,10.1a1.666,1.666,0,0,0,1.143-.387,1.355,1.355,0,0,0,.457-1.028h2.382a3.258,3.258,0,0,1-.527,1.771,3.48,3.48,0,0,1-1.419,1.248,4.442,4.442,0,0,1-1.991.444,4.129,4.129,0,0,1-3.217-1.3,5.13,5.13,0,0,1-1.178-3.582v-.167a5.071,5.071,0,0,1,1.169-3.507,4.08,4.08,0,0,1,3.208-1.31,4,4,0,0,1,2.861,1.015,3.594,3.594,0,0,1,1.094,2.7h-2.382a1.745,1.745,0,0,0-.457-1.206,1.7,1.7,0,0,0-2.5.183,3.749,3.749,0,0,0-.453,2.1v.264a3.8,3.8,0,0,0,.448,2.113A1.549,1.549,0,0,0,122.256,15.128Zm5.036-2.971a5.64,5.64,0,0,1,.545-2.522,3.989,3.989,0,0,1,1.569-1.714,4.577,4.577,0,0,1,2.377-.606,4.33,4.33,0,0,1,3.142,1.178,4.727,4.727,0,0,1,1.358,3.2l.018.65a4.97,4.97,0,0,1-1.222,3.511,4.735,4.735,0,0,1-6.561,0,5.058,5.058,0,0,1-1.226-3.586Zm2.54.18a3.555,3.555,0,0,0,.51,2.073,1.831,1.831,0,0,0,2.9.009,3.89,3.89,0,0,0,.519-2.267,3.519,3.519,0,0,0-.519-2.06,1.686,1.686,0,0,0-1.459-.731,1.658,1.658,0,0,0-1.441.726A3.955,3.955,0,0,0,129.832,12.338Z" transform="translate(834.5 4687.833)" fill="#12263f"/>
    <path id="Trazado_887403" data-name="Trazado 887403" d="M11.549,17H8.912L3.779,8.58V17H1.143V4.2H3.779l5.142,8.438V4.2h2.628Zm4.816,0H13.816V7.49h2.549Zm-2.7-11.971a1.251,1.251,0,0,1,.382-.94,1.648,1.648,0,0,1,2.079,0,1.244,1.244,0,0,1,.387.94,1.247,1.247,0,0,1-.391.949,1.629,1.629,0,0,1-2.065,0A1.247,1.247,0,0,1,13.667,5.029Zm8.35,8.868L23.783,7.49h2.654L23.229,17H20.8L17.6,7.49H20.25Zm9.8,3.278a4.668,4.668,0,0,1-3.406-1.283A4.561,4.561,0,0,1,27.1,12.474v-.246a5.745,5.745,0,0,1,.554-2.562,4.064,4.064,0,0,1,1.569-1.74,4.4,4.4,0,0,1,2.316-.611,3.947,3.947,0,0,1,3.072,1.23,5,5,0,0,1,1.121,3.489v1.037H29.672a2.36,2.36,0,0,0,.743,1.494,2.245,2.245,0,0,0,1.569.563,2.742,2.742,0,0,0,2.294-1.063l1.248,1.4a3.813,3.813,0,0,1-1.547,1.261A5.075,5.075,0,0,1,31.816,17.176Zm-.29-7.813a1.587,1.587,0,0,0-1.226.512,2.651,2.651,0,0,0-.6,1.466h3.533v-.2a1.891,1.891,0,0,0-.457-1.311A1.638,1.638,0,0,0,31.526,9.362ZM39.85,17H37.3V3.5H39.85Zm12.085,0a2.821,2.821,0,0,1-.255-.853,3.073,3.073,0,0,1-2.4,1.028,3.376,3.376,0,0,1-2.316-.809,2.6,2.6,0,0,1-.918-2.039,2.687,2.687,0,0,1,1.121-2.32,5.529,5.529,0,0,1,3.239-.817h1.169v-.545a1.567,1.567,0,0,0-.338-1.055,1.331,1.331,0,0,0-1.068-.4,1.513,1.513,0,0,0-1.006.308,1.045,1.045,0,0,0-.365.844h-2.54a2.551,2.551,0,0,1,.51-1.529,3.37,3.37,0,0,1,1.441-1.1,5.253,5.253,0,0,1,2.092-.4A4.15,4.15,0,0,1,53.09,8.2a3.09,3.09,0,0,1,1.033,2.483V14.8a4.546,4.546,0,0,0,.378,2.048V17Zm-2.1-1.767a2.188,2.188,0,0,0,1.037-.25,1.645,1.645,0,0,0,.7-.672V12.676h-.949q-1.907,0-2.03,1.318l-.009.149a1.017,1.017,0,0,0,.334.782A1.3,1.3,0,0,0,49.834,15.233Zm5.845-3.059a5.731,5.731,0,0,1,1-3.542,3.237,3.237,0,0,1,2.729-1.318A2.913,2.913,0,0,1,61.7,8.352V3.5h2.549V17H61.954l-.123-1.011a2.989,2.989,0,0,1-2.443,1.187,3.228,3.228,0,0,1-2.694-1.323A5.916,5.916,0,0,1,55.679,12.175Zm2.54.181a3.775,3.775,0,0,0,.466,2.057,1.516,1.516,0,0,0,1.354.715,1.7,1.7,0,0,0,1.661-1V10.36a1.675,1.675,0,0,0-1.644-1Q58.219,9.362,58.219,12.356ZM68.6,7.49l.079,1.063a3.342,3.342,0,0,1,2.733-1.239,2.536,2.536,0,0,1,2.522,1.45,3.265,3.265,0,0,1,2.856-1.45,2.836,2.836,0,0,1,2.3.9,4.141,4.141,0,0,1,.756,2.711V17H77.3V10.922a1.818,1.818,0,0,0-.316-1.185,1.4,1.4,0,0,0-1.116-.374,1.585,1.585,0,0,0-1.582,1.092L74.294,17h-2.54V10.93a1.8,1.8,0,0,0-.325-1.2,1.414,1.414,0,0,0-1.107-.37,1.645,1.645,0,0,0-1.564.9V17h-2.54V7.49ZM84.48,17H81.932V7.49H84.48Zm-2.7-11.971a1.251,1.251,0,0,1,.382-.94,1.648,1.648,0,0,1,2.079,0,1.244,1.244,0,0,1,.387.94,1.247,1.247,0,0,1-.391.949,1.629,1.629,0,0,1-2.065,0A1.247,1.247,0,0,1,81.782,5.029ZM88.91,7.49l.079,1.1a3.32,3.32,0,0,1,2.733-1.274,2.759,2.759,0,0,1,2.25.888,4.142,4.142,0,0,1,.756,2.654V17h-2.54V10.9a1.654,1.654,0,0,0-.352-1.176,1.572,1.572,0,0,0-1.169-.366,1.747,1.747,0,0,0-1.608.916V17H86.52V7.49ZM99.334,17H96.785V7.49h2.549Zm-2.7-11.971a1.251,1.251,0,0,1,.382-.94,1.648,1.648,0,0,1,2.079,0,1.244,1.244,0,0,1,.387.94,1.247,1.247,0,0,1-.391.949,1.629,1.629,0,0,1-2.065,0A1.247,1.247,0,0,1,96.636,5.029Zm9.94,9.343a.818.818,0,0,0-.461-.734,5.241,5.241,0,0,0-1.481-.479q-3.393-.712-3.393-2.883a2.613,2.613,0,0,1,1.05-2.114,4.237,4.237,0,0,1,2.747-.848,4.56,4.56,0,0,1,2.9.853,2.687,2.687,0,0,1,1.085,2.215h-2.54a1.229,1.229,0,0,0-.352-.9,1.488,1.488,0,0,0-1.1-.356,1.52,1.52,0,0,0-.993.29.916.916,0,0,0-.352.738.783.783,0,0,0,.4.681,4.114,4.114,0,0,0,1.349.448,11.019,11.019,0,0,1,1.6.426,2.628,2.628,0,0,1,2.013,2.558,2.481,2.481,0,0,1-1.116,2.1,4.815,4.815,0,0,1-2.883.8,5.029,5.029,0,0,1-2.123-.426,3.561,3.561,0,0,1-1.455-1.169,2.716,2.716,0,0,1-.527-1.6h2.408a1.326,1.326,0,0,0,.5,1.037,1.987,1.987,0,0,0,1.248.36,1.839,1.839,0,0,0,1.1-.277A.861.861,0,0,0,106.576,14.372Zm7.146-9.22V7.49h1.626V9.354h-1.626V14.1a1.133,1.133,0,0,0,.2.756,1.015,1.015,0,0,0,.773.229,4.051,4.051,0,0,0,.747-.062v1.925a5.229,5.229,0,0,1-1.538.229,2.425,2.425,0,0,1-2.725-2.7V9.354h-1.389V7.49h1.389V5.152Zm8.385,4.72a6.9,6.9,0,0,0-.914-.07,1.86,1.86,0,0,0-1.89.976V17h-2.54V7.49h2.4l.07,1.134a2.354,2.354,0,0,1,2.118-1.31,2.662,2.662,0,0,1,.791.114ZM128.575,17a2.821,2.821,0,0,1-.255-.853,3.073,3.073,0,0,1-2.4,1.028,3.376,3.376,0,0,1-2.316-.809,2.6,2.6,0,0,1-.918-2.039,2.687,2.687,0,0,1,1.121-2.32,5.529,5.529,0,0,1,3.239-.817h1.169v-.545a1.567,1.567,0,0,0-.338-1.055,1.331,1.331,0,0,0-1.068-.4A1.513,1.513,0,0,0,125.8,9.5a1.045,1.045,0,0,0-.365.844H122.9a2.551,2.551,0,0,1,.51-1.529,3.37,3.37,0,0,1,1.441-1.1,5.253,5.253,0,0,1,2.092-.4,4.15,4.15,0,0,1,2.791.883,3.09,3.09,0,0,1,1.033,2.483V14.8a4.546,4.546,0,0,0,.378,2.048V17Zm-2.1-1.767a2.188,2.188,0,0,0,1.037-.25,1.645,1.645,0,0,0,.7-.672V12.676h-.949q-1.907,0-2.03,1.318l-.009.149a1.017,1.017,0,0,0,.334.782A1.3,1.3,0,0,0,126.475,15.233Zm9.281-10.081V7.49h1.626V9.354h-1.626V14.1a1.133,1.133,0,0,0,.2.756,1.015,1.015,0,0,0,.773.229,4.051,4.051,0,0,0,.747-.062v1.925a5.229,5.229,0,0,1-1.538.229,2.425,2.425,0,0,1-2.725-2.7V9.354h-1.389V7.49h1.389V5.152ZM141.478,17h-2.549V7.49h2.549Zm-2.7-11.971a1.251,1.251,0,0,1,.382-.94,1.648,1.648,0,0,1,2.079,0,1.244,1.244,0,0,1,.387.94,1.247,1.247,0,0,1-.391.949,1.629,1.629,0,0,1-2.065,0A1.247,1.247,0,0,1,138.779,5.029Zm8.35,8.868L148.9,7.49h2.654L148.342,17h-2.426l-3.208-9.51h2.654Zm5.01-1.74a5.64,5.64,0,0,1,.545-2.522,3.989,3.989,0,0,1,1.569-1.714,4.577,4.577,0,0,1,2.377-.606,4.33,4.33,0,0,1,3.142,1.178,4.727,4.727,0,0,1,1.358,3.2l.018.65a4.97,4.97,0,0,1-1.222,3.511,4.735,4.735,0,0,1-6.561,0,5.058,5.058,0,0,1-1.226-3.586Zm2.54.18a3.555,3.555,0,0,0,.51,2.073,1.831,1.831,0,0,0,2.9.009,3.89,3.89,0,0,0,.519-2.267,3.519,3.519,0,0,0-.519-2.06,1.686,1.686,0,0,0-1.459-.731,1.658,1.658,0,0,0-1.441.726A3.955,3.955,0,0,0,154.679,12.338Z" transform="translate(785.051 4748.833)" fill="#12263f"/>
    <path id="Trazado_887404" data-name="Trazado 887404" d="M11.549,17H8.912L3.779,8.58V17H1.143V4.2H3.779l5.142,8.438V4.2h2.628Zm4.816,0H13.816V7.49h2.549Zm-2.7-11.971a1.251,1.251,0,0,1,.382-.94,1.648,1.648,0,0,1,2.079,0,1.244,1.244,0,0,1,.387.94,1.247,1.247,0,0,1-.391.949,1.629,1.629,0,0,1-2.065,0A1.247,1.247,0,0,1,13.667,5.029Zm8.35,8.868L23.783,7.49h2.654L23.229,17H20.8L17.6,7.49H20.25Zm9.8,3.278a4.668,4.668,0,0,1-3.406-1.283A4.561,4.561,0,0,1,27.1,12.474v-.246a5.745,5.745,0,0,1,.554-2.562,4.064,4.064,0,0,1,1.569-1.74,4.4,4.4,0,0,1,2.316-.611,3.947,3.947,0,0,1,3.072,1.23,5,5,0,0,1,1.121,3.489v1.037H29.672a2.36,2.36,0,0,0,.743,1.494,2.245,2.245,0,0,0,1.569.563,2.742,2.742,0,0,0,2.294-1.063l1.248,1.4a3.813,3.813,0,0,1-1.547,1.261A5.075,5.075,0,0,1,31.816,17.176Zm-.29-7.813a1.587,1.587,0,0,0-1.226.512,2.651,2.651,0,0,0-.6,1.466h3.533v-.2a1.891,1.891,0,0,0-.457-1.311A1.638,1.638,0,0,0,31.526,9.362ZM39.85,17H37.3V3.5H39.85Zm6.179-4.825a5.731,5.731,0,0,1,1-3.542,3.237,3.237,0,0,1,2.729-1.318,2.913,2.913,0,0,1,2.294,1.037V3.5H54.6V17H52.3l-.123-1.011a2.989,2.989,0,0,1-2.443,1.187,3.228,3.228,0,0,1-2.694-1.323A5.916,5.916,0,0,1,46.028,12.175Zm2.54.181a3.775,3.775,0,0,0,.466,2.057,1.516,1.516,0,0,0,1.354.715,1.7,1.7,0,0,0,1.661-1V10.36a1.675,1.675,0,0,0-1.644-1Q48.568,9.362,48.568,12.356Zm12.375,4.82a4.668,4.668,0,0,1-3.406-1.283,4.561,4.561,0,0,1-1.314-3.419v-.246a5.745,5.745,0,0,1,.554-2.562,4.064,4.064,0,0,1,1.569-1.74,4.4,4.4,0,0,1,2.316-.611,3.947,3.947,0,0,1,3.072,1.23,5,5,0,0,1,1.121,3.489v1.037H58.8a2.36,2.36,0,0,0,.743,1.494,2.245,2.245,0,0,0,1.569.563A2.742,2.742,0,0,0,63.4,14.064l1.248,1.4a3.813,3.813,0,0,1-1.547,1.261A5.075,5.075,0,0,1,60.943,17.176Zm-.29-7.813a1.587,1.587,0,0,0-1.226.512,2.651,2.651,0,0,0-.6,1.466h3.533v-.2A1.891,1.891,0,0,0,61.9,9.826,1.638,1.638,0,0,0,60.653,9.362Zm14.08,5.766a1.666,1.666,0,0,0,1.143-.387,1.355,1.355,0,0,0,.457-1.028h2.382a3.258,3.258,0,0,1-.527,1.771,3.48,3.48,0,0,1-1.419,1.248,4.442,4.442,0,0,1-1.991.444,4.129,4.129,0,0,1-3.217-1.3A5.13,5.13,0,0,1,70.383,12.3v-.167a5.071,5.071,0,0,1,1.169-3.507,4.08,4.08,0,0,1,3.208-1.31A4,4,0,0,1,77.621,8.33a3.594,3.594,0,0,1,1.094,2.7H76.333a1.745,1.745,0,0,0-.457-1.206,1.7,1.7,0,0,0-2.5.183,3.749,3.749,0,0,0-.453,2.1v.264a3.8,3.8,0,0,0,.448,2.113A1.549,1.549,0,0,0,74.733,15.128Zm5.036-2.971a5.64,5.64,0,0,1,.545-2.522,3.989,3.989,0,0,1,1.569-1.714,4.577,4.577,0,0,1,2.377-.606A4.33,4.33,0,0,1,87.4,8.492a4.727,4.727,0,0,1,1.358,3.2l.018.65a4.97,4.97,0,0,1-1.222,3.511,4.735,4.735,0,0,1-6.561,0,5.058,5.058,0,0,1-1.226-3.586Zm2.54.18a3.555,3.555,0,0,0,.51,2.073,1.831,1.831,0,0,0,2.9.009,3.89,3.89,0,0,0,.519-2.267,3.519,3.519,0,0,0-.519-2.06,1.686,1.686,0,0,0-1.459-.731,1.658,1.658,0,0,0-1.441.726A3.955,3.955,0,0,0,82.31,12.338ZM92.681,7.49l.079,1.1a3.32,3.32,0,0,1,2.733-1.274,2.759,2.759,0,0,1,2.25.888,4.142,4.142,0,0,1,.756,2.654V17h-2.54V10.9a1.654,1.654,0,0,0-.352-1.176,1.572,1.572,0,0,0-1.169-.366,1.747,1.747,0,0,0-1.608.916V17H90.29V7.49Zm7.348,4.667a5.64,5.64,0,0,1,.545-2.522,3.989,3.989,0,0,1,1.569-1.714,4.577,4.577,0,0,1,2.377-.606,4.33,4.33,0,0,1,3.142,1.178,4.727,4.727,0,0,1,1.358,3.2l.018.65a4.97,4.97,0,0,1-1.222,3.511,4.735,4.735,0,0,1-6.561,0,5.058,5.058,0,0,1-1.226-3.586Zm2.54.18a3.555,3.555,0,0,0,.51,2.073,1.831,1.831,0,0,0,2.9.009,3.89,3.89,0,0,0,.519-2.267,3.519,3.519,0,0,0-.519-2.06,1.686,1.686,0,0,0-1.459-.731,1.658,1.658,0,0,0-1.441.726A3.955,3.955,0,0,0,102.568,12.338Zm11.988,2.79a1.666,1.666,0,0,0,1.143-.387,1.355,1.355,0,0,0,.457-1.028h2.382a3.258,3.258,0,0,1-.527,1.771,3.48,3.48,0,0,1-1.419,1.248,4.442,4.442,0,0,1-1.991.444,4.129,4.129,0,0,1-3.217-1.3,5.13,5.13,0,0,1-1.178-3.582v-.167a5.071,5.071,0,0,1,1.169-3.507,4.08,4.08,0,0,1,3.208-1.31,4,4,0,0,1,2.861,1.015,3.594,3.594,0,0,1,1.094,2.7h-2.382a1.745,1.745,0,0,0-.457-1.206,1.7,1.7,0,0,0-2.5.183,3.749,3.749,0,0,0-.453,2.1v.264a3.8,3.8,0,0,0,.448,2.113A1.549,1.549,0,0,0,114.557,15.128ZM122.669,17H120.12V7.49h2.549Zm-2.7-11.971a1.251,1.251,0,0,1,.382-.94,1.648,1.648,0,0,1,2.079,0,1.244,1.244,0,0,1,.387.94,1.247,1.247,0,0,1-.391.949,1.629,1.629,0,0,1-2.065,0A1.247,1.247,0,0,1,119.971,5.029Zm7.172,2.461.079,1.063a3.342,3.342,0,0,1,2.733-1.239,2.536,2.536,0,0,1,2.522,1.45,3.265,3.265,0,0,1,2.856-1.45,2.836,2.836,0,0,1,2.3.9,4.141,4.141,0,0,1,.756,2.711V17h-2.549V10.922a1.818,1.818,0,0,0-.316-1.185,1.4,1.4,0,0,0-1.116-.374,1.585,1.585,0,0,0-1.582,1.092L132.838,17H130.3V10.93a1.8,1.8,0,0,0-.325-1.2,1.414,1.414,0,0,0-1.107-.37,1.645,1.645,0,0,0-1.564.9V17h-2.54V7.49ZM143.024,17h-2.549V7.49h2.549Zm-2.7-11.971a1.251,1.251,0,0,1,.382-.94,1.648,1.648,0,0,1,2.079,0,1.244,1.244,0,0,1,.387.94,1.247,1.247,0,0,1-.391.949,1.629,1.629,0,0,1-2.065,0A1.247,1.247,0,0,1,140.326,5.029Zm9.167,12.146a4.668,4.668,0,0,1-3.406-1.283,4.561,4.561,0,0,1-1.314-3.419v-.246a5.745,5.745,0,0,1,.554-2.562,4.064,4.064,0,0,1,1.569-1.74,4.4,4.4,0,0,1,2.316-.611,3.947,3.947,0,0,1,3.072,1.23,5,5,0,0,1,1.121,3.489v1.037h-6.056a2.36,2.36,0,0,0,.743,1.494,2.245,2.245,0,0,0,1.569.563,2.742,2.742,0,0,0,2.294-1.063l1.248,1.4a3.813,3.813,0,0,1-1.547,1.261A5.075,5.075,0,0,1,149.493,17.176Zm-.29-7.813a1.587,1.587,0,0,0-1.226.512,2.651,2.651,0,0,0-.6,1.466h3.533v-.2a1.891,1.891,0,0,0-.457-1.311A1.638,1.638,0,0,0,149.2,9.362Zm7.98-1.872.079,1.1A3.32,3.32,0,0,1,160,7.314a2.759,2.759,0,0,1,2.25.888A4.142,4.142,0,0,1,163,10.856V17h-2.54V10.9a1.654,1.654,0,0,0-.352-1.176,1.572,1.572,0,0,0-1.169-.366,1.747,1.747,0,0,0-1.608.916V17h-2.54V7.49Zm10.784-2.338V7.49h1.626V9.354h-1.626V14.1a1.133,1.133,0,0,0,.2.756,1.015,1.015,0,0,0,.773.229,4.051,4.051,0,0,0,.747-.062v1.925a5.229,5.229,0,0,1-1.538.229,2.425,2.425,0,0,1-2.725-2.7V9.354h-1.389V7.49h1.389V5.152Zm2.382,7a5.64,5.64,0,0,1,.545-2.522,3.989,3.989,0,0,1,1.569-1.714,4.577,4.577,0,0,1,2.377-.606,4.33,4.33,0,0,1,3.142,1.178,4.727,4.727,0,0,1,1.358,3.2l.018.65a4.97,4.97,0,0,1-1.222,3.511,4.735,4.735,0,0,1-6.561,0,5.058,5.058,0,0,1-1.226-3.586Zm2.54.18a3.555,3.555,0,0,0,.51,2.073,1.831,1.831,0,0,0,2.9.009,3.89,3.89,0,0,0,.519-2.267,3.519,3.519,0,0,0-.519-2.06,1.686,1.686,0,0,0-1.459-.731,1.658,1.658,0,0,0-1.441.726A3.955,3.955,0,0,0,172.89,12.338Z" transform="translate(743 4817.912)" fill="#12263f"/>
    <path id="Trazado_887405" data-name="Trazado 887405" d="M11.549,17H8.912L3.779,8.58V17H1.143V4.2H3.779l5.142,8.438V4.2h2.628Zm4.816,0H13.816V7.49h2.549Zm-2.7-11.971a1.251,1.251,0,0,1,.382-.94,1.648,1.648,0,0,1,2.079,0,1.244,1.244,0,0,1,.387.94,1.247,1.247,0,0,1-.391.949,1.629,1.629,0,0,1-2.065,0A1.247,1.247,0,0,1,13.667,5.029Zm8.35,8.868L23.783,7.49h2.654L23.229,17H20.8L17.6,7.49H20.25Zm9.8,3.278a4.668,4.668,0,0,1-3.406-1.283A4.561,4.561,0,0,1,27.1,12.474v-.246a5.745,5.745,0,0,1,.554-2.562,4.064,4.064,0,0,1,1.569-1.74,4.4,4.4,0,0,1,2.316-.611,3.947,3.947,0,0,1,3.072,1.23,5,5,0,0,1,1.121,3.489v1.037H29.672a2.36,2.36,0,0,0,.743,1.494,2.245,2.245,0,0,0,1.569.563,2.742,2.742,0,0,0,2.294-1.063l1.248,1.4a3.813,3.813,0,0,1-1.547,1.261A5.075,5.075,0,0,1,31.816,17.176Zm-.29-7.813a1.587,1.587,0,0,0-1.226.512,2.651,2.651,0,0,0-.6,1.466h3.533v-.2a1.891,1.891,0,0,0-.457-1.311A1.638,1.638,0,0,0,31.526,9.362ZM39.85,17H37.3V3.5H39.85Zm6.179-4.843a5.64,5.64,0,0,1,.545-2.522,3.989,3.989,0,0,1,1.569-1.714,4.577,4.577,0,0,1,2.377-.606,4.33,4.33,0,0,1,3.142,1.178,4.727,4.727,0,0,1,1.358,3.2l.018.65a4.97,4.97,0,0,1-1.222,3.511,4.735,4.735,0,0,1-6.561,0,5.058,5.058,0,0,1-1.226-3.586Zm2.54.18a3.555,3.555,0,0,0,.51,2.073,1.831,1.831,0,0,0,2.9.009,3.89,3.89,0,0,0,.519-2.267,3.519,3.519,0,0,0-.519-2.06,1.686,1.686,0,0,0-1.459-.731,1.658,1.658,0,0,0-1.441.726A3.955,3.955,0,0,0,48.568,12.338Zm16.594,0a5.7,5.7,0,0,1-1,3.52,3.2,3.2,0,0,1-2.694,1.323,2.963,2.963,0,0,1-2.329-1v4.482H56.6V7.49h2.355l.088.932a2.985,2.985,0,0,1,2.408-1.107,3.22,3.22,0,0,1,2.733,1.3,5.858,5.858,0,0,1,.976,3.586Zm-2.54-.194a3.763,3.763,0,0,0-.47-2.054,1.53,1.53,0,0,0-1.367-.723,1.662,1.662,0,0,0-1.644.917v3.906a1.691,1.691,0,0,0,1.661.943Q62.622,15.128,62.622,12.139Zm8.49,5.036a4.668,4.668,0,0,1-3.406-1.283,4.561,4.561,0,0,1-1.314-3.419v-.246a5.745,5.745,0,0,1,.554-2.562,4.064,4.064,0,0,1,1.569-1.74,4.4,4.4,0,0,1,2.316-.611A3.947,3.947,0,0,1,73.9,8.545a5,5,0,0,1,1.121,3.489v1.037H68.968a2.36,2.36,0,0,0,.743,1.494,2.245,2.245,0,0,0,1.569.563,2.742,2.742,0,0,0,2.294-1.063l1.248,1.4a3.813,3.813,0,0,1-1.547,1.261A5.075,5.075,0,0,1,71.112,17.176Zm-.29-7.813a1.587,1.587,0,0,0-1.226.512,2.651,2.651,0,0,0-.6,1.466h3.533v-.2a1.891,1.891,0,0,0-.457-1.311A1.638,1.638,0,0,0,70.822,9.362Zm10.986.51a6.9,6.9,0,0,0-.914-.07,1.86,1.86,0,0,0-1.89.976V17h-2.54V7.49h2.4l.07,1.134a2.354,2.354,0,0,1,2.118-1.31,2.662,2.662,0,0,1,.791.114ZM88.277,17a2.821,2.821,0,0,1-.255-.853,3.073,3.073,0,0,1-2.4,1.028,3.376,3.376,0,0,1-2.316-.809,2.6,2.6,0,0,1-.918-2.039,2.687,2.687,0,0,1,1.121-2.32,5.529,5.529,0,0,1,3.239-.817h1.169v-.545a1.567,1.567,0,0,0-.338-1.055,1.331,1.331,0,0,0-1.068-.4A1.513,1.513,0,0,0,85.5,9.5a1.045,1.045,0,0,0-.365.844H82.6a2.551,2.551,0,0,1,.51-1.529,3.37,3.37,0,0,1,1.441-1.1,5.253,5.253,0,0,1,2.092-.4,4.15,4.15,0,0,1,2.791.883,3.09,3.09,0,0,1,1.033,2.483V14.8a4.546,4.546,0,0,0,.378,2.048V17Zm-2.1-1.767a2.188,2.188,0,0,0,1.037-.25,1.645,1.645,0,0,0,.7-.672V12.676h-.949q-1.907,0-2.03,1.318l-.009.149a1.017,1.017,0,0,0,.334.782A1.3,1.3,0,0,0,86.177,15.233ZM95.458,5.152V7.49h1.626V9.354H95.458V14.1a1.133,1.133,0,0,0,.2.756,1.015,1.015,0,0,0,.773.229,4.051,4.051,0,0,0,.747-.062v1.925a5.229,5.229,0,0,1-1.538.229,2.425,2.425,0,0,1-2.725-2.7V9.354H91.529V7.49h1.389V5.152ZM101.18,17H98.631V7.49h2.549Zm-2.7-11.971a1.251,1.251,0,0,1,.382-.94,1.648,1.648,0,0,1,2.079,0,1.244,1.244,0,0,1,.387.94,1.247,1.247,0,0,1-.391.949,1.629,1.629,0,0,1-2.065,0A1.247,1.247,0,0,1,98.481,5.029Zm8.35,8.868L108.6,7.49h2.654L108.044,17h-2.426L102.41,7.49h2.654Zm5.01-1.74a5.64,5.64,0,0,1,.545-2.522,3.989,3.989,0,0,1,1.569-1.714,4.577,4.577,0,0,1,2.377-.606,4.33,4.33,0,0,1,3.142,1.178,4.727,4.727,0,0,1,1.358,3.2l.018.65a4.97,4.97,0,0,1-1.222,3.511,4.735,4.735,0,0,1-6.561,0,5.058,5.058,0,0,1-1.226-3.586Zm2.54.18a3.555,3.555,0,0,0,.51,2.073,1.831,1.831,0,0,0,2.9.009,3.89,3.89,0,0,0,.519-2.267,3.519,3.519,0,0,0-.519-2.06,1.686,1.686,0,0,0-1.459-.731,1.658,1.658,0,0,0-1.441.726A3.955,3.955,0,0,0,114.381,12.338Z" transform="translate(632 4876.912)" fill="#12263f"/>
    <path id="Polígono_5" data-name="Polígono 5" d="M4.5,0,9,7H0Z" transform="translate(739.051 4826) rotate(90)" fill="#12263f"/>
    <path id="Polígono_7" data-name="Polígono 7" d="M4.5,0,9,7H0Z" transform="translate(780.051 4757) rotate(90)" fill="#12263f"/>
    <path id="Polígono_8" data-name="Polígono 8" d="M4.5,0,9,7H0Z" transform="translate(829.051 4696) rotate(90)" fill="#12263f"/>
    <path id="Polígono_6" data-name="Polígono 6" d="M4.5,0,9,7H0Z" transform="translate(627.051 4887) rotate(90)" fill="#12263f"/>
  </g>
</svg>
