<svg id="Grupo_1098845" data-name="Grupo 1098845" xmlns="http://www.w3.org/2000/svg" width="56.458" height="48.309" viewBox="0 0 56.458 48.309">
  <g id="Grupo_78347" data-name="Grupo 78347">
    <path id="Trazado_99257" data-name="Trazado 99257" d="M417.186,104.2a1.487,1.487,0,1,1-1.487-1.42A1.454,1.454,0,0,1,417.186,104.2Z" transform="translate(-414.214 -102.779)" fill="#fd9f81"/>
    <path id="Trazado_99258" data-name="Trazado 99258" d="M425.632,104.2a1.487,1.487,0,1,1-1.485-1.42A1.454,1.454,0,0,1,425.632,104.2Z" transform="translate(-409.289 -102.779)" fill="#fd9f81"/>
    <path id="Trazado_99259" data-name="Trazado 99259" d="M434.078,104.2a1.487,1.487,0,1,1-1.485-1.42A1.454,1.454,0,0,1,434.078,104.2Z" transform="translate(-404.363 -102.779)" fill="#fd9f81"/>
    <path id="Trazado_99260" data-name="Trazado 99260" d="M442.525,104.2a1.487,1.487,0,1,1-1.487-1.42A1.454,1.454,0,0,1,442.525,104.2Z" transform="translate(-399.438 -102.779)" fill="#fd9f81"/>
    <path id="Trazado_99261" data-name="Trazado 99261" d="M450.971,104.2a1.487,1.487,0,1,1-1.485-1.42A1.454,1.454,0,0,1,450.971,104.2Z" transform="translate(-394.512 -102.779)" fill="#fd9f81"/>
    <ellipse id="Elipse_3975" data-name="Elipse 3975" cx="1.486" cy="1.421" rx="1.486" ry="1.421" transform="translate(0 11.367)" fill="#fd9f81"/>
    <path id="Trazado_99268" data-name="Trazado 99268" d="M425.632,111.707a1.487,1.487,0,1,1-1.485-1.42A1.455,1.455,0,0,1,425.632,111.707Z" transform="translate(-409.289 -98.92)" fill="#fd9f81"/>
    <ellipse id="Elipse_3976" data-name="Elipse 3976" cx="1.486" cy="1.421" rx="1.486" ry="1.421" transform="translate(26.743 11.367)" fill="#fd9f81"/>
    <path id="Trazado_99269" data-name="Trazado 99269" d="M442.525,111.707a1.487,1.487,0,1,1-1.487-1.42A1.455,1.455,0,0,1,442.525,111.707Z" transform="translate(-399.438 -98.92)" fill="#fd9f81"/>
    <path id="Trazado_99270" data-name="Trazado 99270" d="M450.971,111.707a1.487,1.487,0,1,1-1.485-1.42A1.455,1.455,0,0,1,450.971,111.707Z" transform="translate(-394.512 -98.92)" fill="#fd9f81"/>
    <path id="Trazado_99274" data-name="Trazado 99274" d="M417.186,119.216a1.487,1.487,0,1,1-1.487-1.422A1.455,1.455,0,0,1,417.186,119.216Z" transform="translate(-414.214 -95.062)" fill="#fd9f81"/>
    <path id="Trazado_99275" data-name="Trazado 99275" d="M425.632,119.216a1.487,1.487,0,1,1-1.485-1.422A1.455,1.455,0,0,1,425.632,119.216Z" transform="translate(-409.289 -95.062)" fill="#fd9f81"/>
    <path id="Trazado_99276" data-name="Trazado 99276" d="M434.078,119.216a1.487,1.487,0,1,1-1.485-1.422A1.455,1.455,0,0,1,434.078,119.216Z" transform="translate(-404.363 -95.062)" fill="#fd9f81"/>
    <path id="Trazado_99277" data-name="Trazado 99277" d="M442.525,119.216a1.487,1.487,0,1,1-1.487-1.422A1.455,1.455,0,0,1,442.525,119.216Z" transform="translate(-399.438 -95.062)" fill="#fd9f81"/>
    <path id="Trazado_99278" data-name="Trazado 99278" d="M450.971,119.216a1.487,1.487,0,1,1-1.485-1.422A1.455,1.455,0,0,1,450.971,119.216Z" transform="translate(-394.512 -95.062)" fill="#fd9f81"/>
    <ellipse id="Elipse_3980" data-name="Elipse 3980" cx="1.486" cy="1.421" rx="1.486" ry="1.421" transform="translate(0 34.1)" fill="#fd9f81"/>
    <path id="Trazado_99285" data-name="Trazado 99285" d="M425.632,126.724a1.487,1.487,0,1,1-1.485-1.422A1.454,1.454,0,0,1,425.632,126.724Z" transform="translate(-409.289 -91.202)" fill="#fd9f81"/>
    <ellipse id="Elipse_3981" data-name="Elipse 3981" cx="1.486" cy="1.421" rx="1.486" ry="1.421" transform="translate(26.743 34.1)" fill="#fd9f81"/>
    <path id="Trazado_99286" data-name="Trazado 99286" d="M442.525,126.724a1.487,1.487,0,1,1-1.487-1.422A1.454,1.454,0,0,1,442.525,126.724Z" transform="translate(-399.438 -91.202)" fill="#fd9f81"/>
    <path id="Trazado_99287" data-name="Trazado 99287" d="M450.971,126.724a1.487,1.487,0,1,1-1.485-1.422A1.454,1.454,0,0,1,450.971,126.724Z" transform="translate(-394.512 -91.202)" fill="#fd9f81"/>
    <ellipse id="Elipse_3985" data-name="Elipse 3985" cx="1.486" cy="1.421" rx="1.486" ry="1.421" transform="translate(0 45.467)" fill="#fd9f81"/>
    <path id="Trazado_99291" data-name="Trazado 99291" d="M425.632,134.232a1.487,1.487,0,1,1-1.485-1.422A1.454,1.454,0,0,1,425.632,134.232Z" transform="translate(-409.289 -87.343)" fill="#fd9f81"/>
    <ellipse id="Elipse_3986" data-name="Elipse 3986" cx="1.486" cy="1.421" rx="1.486" ry="1.421" transform="translate(26.743 45.467)" fill="#fd9f81"/>
    <path id="Trazado_99292" data-name="Trazado 99292" d="M442.525,134.232a1.487,1.487,0,1,1-1.487-1.422A1.454,1.454,0,0,1,442.525,134.232Z" transform="translate(-399.438 -87.343)" fill="#fd9f81"/>
    <path id="Trazado_99293" data-name="Trazado 99293" d="M450.971,134.232a1.487,1.487,0,1,1-1.485-1.422A1.454,1.454,0,0,1,450.971,134.232Z" transform="translate(-394.512 -87.343)" fill="#fd9f81"/>
  </g>
</svg>
