<svg xmlns="http://www.w3.org/2000/svg" xmlns:xlink="http://www.w3.org/1999/xlink" width="416.192" height="297.491" viewBox="0 0 416.192 297.491">
  <defs>
    <clipPath id="clip-path">
      <rect id="Rectángulo_404562" data-name="Rectángulo 404562" width="373" height="297" rx="19" transform="translate(-2135 -8826)" fill="#feece6" opacity="0.41"/>
    </clipPath>
  </defs>
  <g id="Grupo_1107030" data-name="Grupo 1107030" transform="translate(3074 9421.491)">
    <g id="Enmascarar_grupo_1099788" data-name="Enmascarar grupo 1099788" transform="translate(-939 -595)" clip-path="url(#clip-path)">
      <g id="Grupo_1107027" data-name="Grupo 1107027" transform="translate(-312.592 51.335)">
        <rect id="Rectángulo_404561" data-name="Rectángulo 404561" width="416.336" height="309.634" transform="translate(-1844.076 -8889.969)" fill="#e5f0fc"/>
        <g id="BACKGROUND" transform="translate(-2012.403 -8276.038)">
          <path id="Trazado_885345" data-name="Trazado 885345" d="M328.166,226.639c-1.115-16.608-8.957-32.4-20.379-44.508s-26.249-20.687-41.961-26.183c-31.539-11.033-67.807-9.522-97.117,6.523s-50.565,47.078-52.353,80.444c-1.123,20.958,5.095,41.775,14.44,60.568,2.021,4.063,4.235,8.211,4.508,12.741.318,5.276-2.034,10.31-2.934,15.517-1.975,11.428,3.364,23.26,11.722,31.3s19.372,12.766,30.516,15.978c13.278,3.829,27.038,5.738,40.8,6.967,27.063,2.417,55.635,1.94,79.607-10.851a85.687,85.687,0,0,0,43.835-63.069,35.015,35.015,0,0,0-.228-13.073c-2.6-10.495-12.873-19.939-13.244-31.239C324.943,254.307,329.093,240.436,328.166,226.639Z" transform="translate(139.704 -745.709)" fill="#d5e6fd" opacity="0.5" style="mix-blend-mode: multiply;isolation: isolate"/>
        </g>
        <g id="Grupo_1107026" data-name="Grupo 1107026" transform="translate(-1782.815 -8858.915)">
          <g id="Grupo_1106405" data-name="Grupo 1106405" transform="translate(0 222.462)" style="mix-blend-mode: multiply;isolation: isolate">
            <path id="Trazado_885099" data-name="Trazado 885099" d="M301.486,211.559c0,9.594-61.743,17.368-137.9,17.368S25.672,221.152,25.672,211.559,87.415,194.19,163.581,194.19,301.486,201.967,301.486,211.559Z" transform="translate(-25.672 -194.19)" fill="#c1deef"/>
          </g>
          <g id="Grupo_1106555" data-name="Grupo 1106555" transform="translate(18.178 0)">
            <g id="Grupo_1106477" data-name="Grupo 1106477" transform="translate(93.019)">
              <g id="Grupo_1106414" data-name="Grupo 1106414" transform="translate(0 175.646)">
                <g id="Grupo_1106411" data-name="Grupo 1106411" transform="translate(3.763 36.591)">
                  <g id="Grupo_1106410" data-name="Grupo 1106410">
                    <g id="Grupo_1106409" data-name="Grupo 1106409">
                      <path id="Trazado_885103" data-name="Trazado 885103" d="M134.159,213.712l-.532-13.025A12.124,12.124,0,0,0,109.659,197l.686,16.707Z" transform="translate(-109.659 -186.72)" fill="#f1a786"/>
                    </g>
                  </g>
                </g>
                <g id="Grupo_1106413" data-name="Grupo 1106413">
                  <g id="Grupo_1106412" data-name="Grupo 1106412">
                    <path id="Trazado_885104" data-name="Trazado 885104" d="M145.537,223.571l2.484-35.259s1.523-21.91-19.059-28.323c0,0-15.964-.9-22.052,35.655l.041,27.926Z" transform="translate(-106.91 -159.988)" fill="#1f2329"/>
                  </g>
                </g>
              </g>
              <g id="Grupo_1106419" data-name="Grupo 1106419" transform="translate(95.823 81.801)">
                <g id="Grupo_1106416" data-name="Grupo 1106416">
                  <g id="Grupo_1106415" data-name="Grupo 1106415">
                    <path id="Trazado_885105" data-name="Trazado 885105" d="M177.818,116.245a5.178,5.178,0,0,0,3.868,3.117c2.965.587,5.63-1.578,7.7-3.4a13.657,13.657,0,0,0,1.591-1.618,17.476,17.476,0,0,0,4.131-11.168c.023-2.961-.408-7.532-2.839-9.7-5.68-5.049-10.7.464-12.241,3.351a29,29,0,0,0-2.8,10.106C176.878,109.577,176.564,113.491,177.818,116.245Z" transform="translate(-176.916 -91.426)" fill="#f1a786"/>
                  </g>
                </g>
                <g id="Grupo_1106418" data-name="Grupo 1106418" transform="translate(5.41 3.627)">
                  <g id="Grupo_1106417" data-name="Grupo 1106417">
                    <path id="Trazado_885106" data-name="Trazado 885106" d="M188.825,94.722a5.661,5.661,0,0,0-2.66-.645c-3.974-.084-6.843,6.648-2.833,7.63,1.57,1.495.111,3.378.111,3.378-1.284,1.655-3,4.032-2.477,6.257.309,1.326,1.716,1.982,2.977,2.25,1.007.214,1.165-.63.35-1a4.5,4.5,0,0,1-1.566-1.251c-.041-.079-.089-.155-.129-.223a.77.77,0,0,1-.1-.162,1.576,1.576,0,0,1-.094-.977c.921.642,2.42.727,3.067-.2.7-1.006.063-2.5.267-3.62a9.06,9.06,0,0,1,.808-2.246c1.659-3.355-1.64-3.748-1.64-3.748a10.908,10.908,0,0,0-1.2.159c-1.706-.858.016-3.614,1.009-4.091a2.993,2.993,0,0,1,3.481.48,5.571,5.571,0,0,1,1.281,3.708,13.163,13.163,0,0,1-.86,4.565c-.316.823-.725,1.792-1.053,2.617-.368.932.639,1.283,1.007.35.776-1.974,2.254-4.881,2.461-7.565C191.21,98.16,190.735,96.058,188.825,94.722Z" transform="translate(-180.868 -94.076)" fill="#da9579"/>
                  </g>
                </g>
              </g>
              <g id="Grupo_1106421" data-name="Grupo 1106421" transform="translate(43.452 153.164)">
                <g id="Grupo_1106420" data-name="Grupo 1106420">
                  <path id="Trazado_885107" data-name="Trazado 885107" d="M142.6,143.563H154v10.957H138.655Z" transform="translate(-138.655 -143.563)" fill="#6a9fba"/>
                </g>
              </g>
              <g id="Grupo_1106423" data-name="Grupo 1106423" transform="translate(68.132 153.164)">
                <g id="Grupo_1106422" data-name="Grupo 1106422">
                  <path id="Trazado_885108" data-name="Trazado 885108" d="M160.339,143.563h11.69v10.957H156.686Z" transform="translate(-156.686 -143.563)" fill="#6a9fba"/>
                </g>
              </g>
              <g id="Grupo_1106425" data-name="Grupo 1106425" transform="translate(12.94 160.723)">
                <g id="Grupo_1106424" data-name="Grupo 1106424">
                  <path id="Trazado_885109" data-name="Trazado 885109" d="M118.808,227.592H231.524c1.381-12.045,2.432-21.953,2.844-27.461,1.834-24.575-11.517-32.691-11.517-32.691-14.5-11.323-38.659-18.355-38.659-18.355H153.456l-27.131,13.049c-11.892,6.895-9.824,27.143-9.824,27.143Z" transform="translate(-116.363 -149.085)" fill="#f1a786"/>
                </g>
              </g>
              <g id="Grupo_1106427" data-name="Grupo 1106427" transform="translate(50.032 131.145)">
                <g id="Grupo_1106426" data-name="Grupo 1106426">
                  <rect id="Rectángulo_404536" data-name="Rectángulo 404536" width="30.738" height="29.579" fill="#f1a786"/>
                </g>
              </g>
              <g id="Grupo_1106429" data-name="Grupo 1106429" transform="translate(50.032 131.145)">
                <g id="Grupo_1106428" data-name="Grupo 1106428">
                  <path id="Trazado_885110" data-name="Trazado 885110" d="M164.4,150.077a34.949,34.949,0,0,1-20.938-9.891v-12.71H174.2v22.889A55.793,55.793,0,0,1,164.4,150.077Z" transform="translate(-143.462 -127.476)" fill="#d78874"/>
                </g>
              </g>
              <g id="Grupo_1106431" data-name="Grupo 1106431" transform="translate(22.324 28.734)">
                <g id="Grupo_1106430" data-name="Grupo 1106430">
                  <path id="Trazado_885111" data-name="Trazado 885111" d="M166.642,52.816c-10.2-.3-26.079-.868-34.072,5.835a16.919,16.919,0,0,0-2.439,2.528,29.241,29.241,0,0,0-5.047,11.494c-.055.112-.127.209-.181.322-1.849,3.733-.617,10.449-1.478,14.531-.021.576-.04,1.135-.057,1.68-.156,4.7-.231,11.461-.01,16.164.252,5.144,1.5,14.354,1.659,19.583a70.892,70.892,0,0,0,8.036,29.889c8.849,16.91,32.117,10.511,45.661,3.867,11.454-5.62,16.966-12.074,19.325-24.665,0,0,1.369-7.311,3.054-16.317,1.581-8.451,3.444-18.409,4.726-25.26h0c.92-4.922,1.545-8.252,1.545-8.252S213.148,54.181,166.642,52.816Z" transform="translate(-123.22 -52.657)" fill="#f1a786"/>
                </g>
              </g>
              <g id="Grupo_1106433" data-name="Grupo 1106433" transform="translate(24.024 83.046)">
                <g id="Grupo_1106432" data-name="Grupo 1106432">
                  <path id="Trazado_885112" data-name="Trazado 885112" d="M195,94.719a133.711,133.711,0,0,1-2.345,14.3c-1.656,7.7-4.539,21.536-14.727,17.341-4.6-1.9-5.559-6.739-8.567-10.178-4.41-5.037-13.179-.793-18.179-.812-2.556-.01-8.685-2.547-11.372.853-2.082,2.639-2.612,7.463-3.38,10.546a.87.87,0,0,1-1.273.515c-4.856-3.032-7.445-8.782-9.206-13.993q-.819-2.443-1.488-4.933c.042.69.1,1.356.1,1.957-.1,10.768,5.789,29.011,10.523,38.071,8.848,16.909,28.772,8.651,42.315,2.005,11.457-5.619,17.826-18.4,20.184-30.987,0,0,1.369-7.311,3.054-16.317.645-3.438,1.335-7.129,2.013-10.756C200.374,93.105,195.249,91.788,195,94.719Z" transform="translate(-124.461 -92.336)" fill="#341200"/>
                </g>
              </g>
              <g id="Grupo_1106445" data-name="Grupo 1106445" transform="translate(40.888 110.303)">
                <g id="Grupo_1106435" data-name="Grupo 1106435">
                  <g id="Grupo_1106434" data-name="Grupo 1106434">
                    <path id="Trazado_885113" data-name="Trazado 885113" d="M162.1,112.249c-1.148,9.654-6.833,12.444-13.243,12.444-7.79,0-10.76-3.7-12.075-12.444Z" transform="translate(-136.782 -112.249)" fill="#d0816f"/>
                  </g>
                </g>
                <g id="Grupo_1106437" data-name="Grupo 1106437" transform="translate(1.169 0.456)">
                  <g id="Grupo_1106436" data-name="Grupo 1106436">
                    <path id="Trazado_885114" data-name="Trazado 885114" d="M161.785,112.582c-1.148,9.655-5.665,12.44-12.077,12.44-7.788,0-10.757-3.693-12.073-12.44Z" transform="translate(-137.636 -112.582)" fill="#fff"/>
                  </g>
                </g>
                <g id="Grupo_1106439" data-name="Grupo 1106439" transform="translate(1.169 4.117)">
                  <g id="Grupo_1106438" data-name="Grupo 1106438">
                    <path id="Trazado_885115" data-name="Trazado 885115" d="M137.636,115.257l5.09.834-4.74.531Z" transform="translate(-137.636 -115.257)" fill="#d0816f"/>
                  </g>
                </g>
                <g id="Grupo_1106444" data-name="Grupo 1106444" transform="translate(20.24 4.117)">
                  <g id="Grupo_1106441" data-name="Grupo 1106441" transform="translate(3.99)">
                    <g id="Grupo_1106440" data-name="Grupo 1106440">
                      <path id="Trazado_885116" data-name="Trazado 885116" d="M154.889,115.275a.8.8,0,0,1,.1-.018l-.353,1.365c-.047-.005-.1-.01-.148-.018C154.63,116.185,154.765,115.739,154.889,115.275Z" transform="translate(-154.484 -115.257)" fill="#d0816f"/>
                    </g>
                  </g>
                  <g id="Grupo_1106443" data-name="Grupo 1106443" transform="translate(0 0.018)">
                    <g id="Grupo_1106442" data-name="Grupo 1106442">
                      <path id="Trazado_885117" data-name="Trazado 885117" d="M151.569,116.154v-.166c1.466-.24,2.931-.483,4.4-.719-.125.464-.259.91-.405,1.329Q153.563,116.381,151.569,116.154Z" transform="translate(-151.569 -115.27)" fill="#d0816f"/>
                    </g>
                  </g>
                </g>
              </g>
              <g id="Grupo_1106450" data-name="Grupo 1106450" transform="translate(67.615 75.17)">
                <g id="Grupo_1106447" data-name="Grupo 1106447">
                  <g id="Grupo_1106446" data-name="Grupo 1106446">
                    <path id="Trazado_885118" data-name="Trazado 885118" d="M163.579,91.866c-.016,2.9-1.66,5.247-3.667,5.24s-3.623-2.376-3.6-5.282,1.659-5.253,3.667-5.241S163.6,88.957,163.579,91.866Z" transform="translate(-156.308 -86.582)" fill="#29180d"/>
                  </g>
                </g>
                <g id="Grupo_1106449" data-name="Grupo 1106449" transform="translate(5.081 2.044)">
                  <g id="Grupo_1106448" data-name="Grupo 1106448">
                    <path id="Trazado_885119" data-name="Trazado 885119" d="M160.02,89.638a1.572,1.572,0,1,0,1.573-1.563A1.566,1.566,0,0,0,160.02,89.638Z" transform="translate(-160.02 -88.075)" fill="#fff"/>
                  </g>
                </g>
              </g>
              <g id="Grupo_1106455" data-name="Grupo 1106455" transform="translate(33.071 75.17)">
                <g id="Grupo_1106452" data-name="Grupo 1106452" transform="translate(0.954)">
                  <g id="Grupo_1106451" data-name="Grupo 1106451">
                    <path id="Trazado_885120" data-name="Trazado 885120" d="M131.768,91.866c.021,2.9,1.66,5.247,3.67,5.24s3.625-2.376,3.6-5.282-1.663-5.253-3.667-5.241S131.753,88.957,131.768,91.866Z" transform="translate(-131.768 -86.582)" fill="#29180d"/>
                  </g>
                </g>
                <g id="Grupo_1106454" data-name="Grupo 1106454" transform="translate(0 2.044)">
                  <g id="Grupo_1106453" data-name="Grupo 1106453">
                    <path id="Trazado_885121" data-name="Trazado 885121" d="M134.221,89.638a1.575,1.575,0,1,1-1.575-1.563A1.57,1.57,0,0,1,134.221,89.638Z" transform="translate(-131.071 -88.075)" fill="#fff"/>
                  </g>
                </g>
              </g>
              <g id="Grupo_1106457" data-name="Grupo 1106457" transform="translate(11.009 160.723)">
                <g id="Grupo_1106456" data-name="Grupo 1106456">
                  <path id="Trazado_885122" data-name="Trazado 885122" d="M117.611,227.592h114.41c1.4-12.082,2.46-21.985,2.868-27.461,1.834-24.575-11.517-32.691-11.517-32.691-14.5-11.323-38.659-18.355-38.659-18.355l-21.974,25.2-8.763-25.2-33.554,16.137c-7.545,4.717-5.085,17.853-5.085,17.853Z" transform="translate(-114.953 -149.085)" fill="#282e37"/>
                </g>
              </g>
              <g id="Grupo_1106462" data-name="Grupo 1106462" transform="translate(27.841 153.164)">
                <g id="Grupo_1106459" data-name="Grupo 1106459" transform="translate(9.759 7.559)">
                  <g id="Grupo_1106458" data-name="Grupo 1106458">
                    <path id="Trazado_885123" data-name="Trazado 885123" d="M155.575,174.28l-.938-18.186-7.825-7.01-12.431,4.364Z" transform="translate(-134.38 -149.085)" fill="#bbe4fb"/>
                  </g>
                </g>
                <g id="Grupo_1106461" data-name="Grupo 1106461">
                  <g id="Grupo_1106460" data-name="Grupo 1106460">
                    <path id="Trazado_885124" data-name="Trazado 885124" d="M146.8,143.563,127.25,158.372l14.209,17.945,15.806-18.186Z" transform="translate(-127.25 -143.563)" fill="#89d1f7"/>
                  </g>
                </g>
              </g>
              <g id="Grupo_1106467" data-name="Grupo 1106467" transform="translate(58.795 153.164)">
                <g id="Grupo_1106464" data-name="Grupo 1106464" transform="translate(0 3.136)">
                  <g id="Grupo_1106463" data-name="Grupo 1106463">
                    <path id="Trazado_885125" data-name="Trazado 885125" d="M149.864,175.472l4.318-17.9,17.9-11.72,10.263,9.584Z" transform="translate(-149.864 -145.854)" fill="#bbe4fb"/>
                  </g>
                </g>
                <g id="Grupo_1106466" data-name="Grupo 1106466" transform="translate(4.318)">
                  <g id="Grupo_1106465" data-name="Grupo 1106465">
                    <path id="Trazado_885126" data-name="Trazado 885126" d="M173.381,143.563l15.873,13.323-20.636,17.483-15.6-15.949Z" transform="translate(-153.019 -143.563)" fill="#89d1f7"/>
                  </g>
                </g>
              </g>
              <g id="Grupo_1106470" data-name="Grupo 1106470" transform="translate(112.006 229.628)">
                <g id="Grupo_1106469" data-name="Grupo 1106469">
                  <g id="Grupo_1106468" data-name="Grupo 1106468">
                    <path id="Trazado_885127" data-name="Trazado 885127" d="M212.842,209.027l-1.269-2.679a12.16,12.16,0,0,0-16.123-5.779,12.019,12.019,0,0,0-6.711,8.458Z" transform="translate(-188.739 -199.425)" fill="#f1a786"/>
                  </g>
                </g>
              </g>
              <g id="Grupo_1106472" data-name="Grupo 1106472" transform="translate(89.443 175.912)">
                <g id="Grupo_1106471" data-name="Grupo 1106471">
                  <path id="Trazado_885128" data-name="Trazado 885128" d="M173.343,223.5H220.31l-3.893-42.672s-6.184-23.236-29.7-20.407c0,0-15.3-.567-14.427,26.854Z" transform="translate(-172.255 -160.181)" fill="#1f2329"/>
                </g>
              </g>
              <g id="Grupo_1106473" data-name="Grupo 1106473" transform="translate(16.366)">
                <path id="Trazado_885129" data-name="Trazado 885129" d="M125.9,97.118s.193-3.344,2.933-4.35l5.084-1.339s1.671-1.336.333-2.509L129.894,83.4s-2.583-3.01.9-7.278l6.651-8.782s3.126-3.162,6.11-1.826c0,0,20.459,10.206,37.73.716,0,0,1.6-1.719,5.7.623,0,0,6.088,5.585,8.677,10.239,0,0,2.629,3.733-.927,9L191.9,89.6s-.5.839,1.17,2.011l2.6,1.46s3.733,1.05,3.408,4.4L196.6,121.6h4.925s1.445-8.133,7.676-8.128A263.954,263.954,0,0,0,213.931,80.1s.344-9.77-6.513-16.167c-2.538-2.363-7.976-4.958-8.675-8.429-.5-2.483.526-4.977-.133-7.372-1.949-7.051-9.947-14.914-17.488-14.914,0,0-29.753-5.69-35.978,4.685a11.863,11.863,0,0,1-7.485,6.02S125.08,48.111,125.08,59.154c0,5.957-7.813,6.53-5.917,12.211,0,0-1.767,28.309,6.309,47.966A142.743,142.743,0,0,1,125.9,97.118Z" transform="translate(-118.866 -31.665)" fill="#341200"/>
              </g>
              <g id="Grupo_1106474" data-name="Grupo 1106474" transform="translate(29.001 65.286)">
                <path id="Trazado_885130" data-name="Trazado 885130" d="M129.83,85.894a1.731,1.731,0,0,1-1.109-3.063c.334-.279.626-.539.9-.787a8.008,8.008,0,0,1,5.229-2.491,31.043,31.043,0,0,1,9.234.327,1.732,1.732,0,1,1-.794,3.371,27.744,27.744,0,0,0-8.08-.253,4.668,4.668,0,0,0-3.266,1.618c-.3.272-.628.568-1,.88A1.722,1.722,0,0,1,129.83,85.894Z" transform="translate(-128.098 -79.361)" fill="#341200"/>
              </g>
              <g id="Grupo_1106475" data-name="Grupo 1106475" transform="translate(64.476 65.285)">
                <path id="Trazado_885131" data-name="Trazado 885131" d="M169.6,85.895a1.727,1.727,0,0,1-1.106-.4c-.375-.312-.7-.608-1-.88A4.667,4.667,0,0,0,164.226,83a27.773,27.773,0,0,0-8.084.253,1.732,1.732,0,0,1-.792-3.371,30.967,30.967,0,0,1,9.235-.327,8,8,0,0,1,5.229,2.491c.271.246.563.508.9.787a1.731,1.731,0,0,1-1.11,3.063Z" transform="translate(-154.015 -79.36)" fill="#341200"/>
              </g>
              <g id="Grupo_1106476" data-name="Grupo 1106476" transform="translate(44.292 80.432)">
                <path id="Trazado_885132" data-name="Trazado 885132" d="M153.886,110c-.5.327-1,.652-1.517.935a15.015,15.015,0,0,1-1.71.691,10.19,10.19,0,0,1-1.818.415,8.729,8.729,0,0,1-1.914.1,11.2,11.2,0,0,1-1.948-.275,9.46,9.46,0,0,1-1.885-.693,8.8,8.8,0,0,1-1.738-1.066,9.73,9.73,0,0,1-.78-.69,6.006,6.006,0,0,1-.762-.887l-.546-.756.435-.951c.261-.569.532-1.259.794-1.9l.753-1.987.72-2.011.653-2.044c.24-.676.423-1.367.631-2.061.192-.694.427-1.388.593-2.094.205-.7.391-1.411.572-2.127.208-.719.363-1.444.589-2.182a20.363,20.363,0,0,1,.626,4.516,27.329,27.329,0,0,1-.244,4.562,32.775,32.775,0,0,1-.95,4.481c-.209.736-.454,1.463-.723,2.183s-.557,1.411-.928,2.179l-.111-1.71c.042.056.212.279.353.43a6.6,6.6,0,0,0,.476.485,9.4,9.4,0,0,0,1.113.866,6.34,6.34,0,0,0,1.273.672,9.122,9.122,0,0,0,1.4.52c.5.105,1,.241,1.525.309.528.112,1.062.083,1.615.151.553.045,1.091-.012,1.674.021C152.693,110.045,153.294,110.017,153.886,110Z" transform="translate(-139.269 -90.426)" fill="#e59174"/>
              </g>
            </g>
            <g id="Grupo_1106551" data-name="Grupo 1106551" transform="translate(9.681 108.189)">
              <rect id="Rectángulo_404537" data-name="Rectángulo 404537" width="99.833" height="131.386" transform="translate(2.744 3.529)" fill="#d2d1d1" style="mix-blend-mode: multiply;isolation: isolate"/>
              <rect id="Rectángulo_404538" data-name="Rectángulo 404538" width="99.832" height="131.385" fill="#ebe3de"/>
              <g id="Grupo_1106550" data-name="Grupo 1106550" transform="translate(8.213 9.349)">
                <rect id="Rectángulo_404539" data-name="Rectángulo 404539" width="30.592" height="34.512" transform="translate(1.1 8.634)" fill="#77c7df"/>
                <rect id="Rectángulo_404540" data-name="Rectángulo 404540" width="83.406" height="2.615" fill="#00a4b7"/>
                <g id="Grupo_1106478" data-name="Grupo 1106478" transform="translate(35.024 8.634)">
                  <rect id="Rectángulo_404541" data-name="Rectángulo 404541" width="47.282" height="1.902" fill="#d2d1d1" style="mix-blend-mode: multiply;isolation: isolate"/>
                  <rect id="Rectángulo_404542" data-name="Rectángulo 404542" width="47.282" height="1.902" transform="translate(0 5.335)" fill="#d2d1d1" style="mix-blend-mode: multiply;isolation: isolate"/>
                  <rect id="Rectángulo_404543" data-name="Rectángulo 404543" width="47.282" height="1.903" transform="translate(0 10.672)" fill="#d2d1d1" style="mix-blend-mode: multiply;isolation: isolate"/>
                  <rect id="Rectángulo_404544" data-name="Rectángulo 404544" width="47.282" height="1.903" transform="translate(0 16.008)" fill="#d2d1d1" style="mix-blend-mode: multiply;isolation: isolate"/>
                  <rect id="Rectángulo_404545" data-name="Rectángulo 404545" width="47.282" height="1.902" transform="translate(0 21.347)" fill="#d2d1d1" style="mix-blend-mode: multiply;isolation: isolate"/>
                  <rect id="Rectángulo_404546" data-name="Rectángulo 404546" width="47.282" height="1.902" transform="translate(0 26.682)" fill="#d2d1d1" style="mix-blend-mode: multiply;isolation: isolate"/>
                  <rect id="Rectángulo_404547" data-name="Rectángulo 404547" width="47.282" height="1.903" transform="translate(0 32.019)" fill="#d2d1d1" style="mix-blend-mode: multiply;isolation: isolate"/>
                </g>
                <g id="Grupo_1106479" data-name="Grupo 1106479" transform="translate(1.1 51.045)">
                  <rect id="Rectángulo_404548" data-name="Rectángulo 404548" width="81.206" height="1.902" fill="#d2d1d1" style="mix-blend-mode: multiply;isolation: isolate"/>
                  <rect id="Rectángulo_404549" data-name="Rectángulo 404549" width="81.206" height="1.902" transform="translate(0 5.237)" fill="#d2d1d1" style="mix-blend-mode: multiply;isolation: isolate"/>
                  <rect id="Rectángulo_404550" data-name="Rectángulo 404550" width="81.206" height="1.902" transform="translate(0 10.473)" fill="#d2d1d1" style="mix-blend-mode: multiply;isolation: isolate"/>
                  <rect id="Rectángulo_404551" data-name="Rectángulo 404551" width="81.206" height="1.902" transform="translate(0 15.71)" fill="#d2d1d1" style="mix-blend-mode: multiply;isolation: isolate"/>
                  <rect id="Rectángulo_404552" data-name="Rectángulo 404552" width="81.206" height="1.904" transform="translate(0 20.945)" fill="#d2d1d1" style="mix-blend-mode: multiply;isolation: isolate"/>
                  <rect id="Rectángulo_404553" data-name="Rectángulo 404553" width="46.594" height="1.903" transform="translate(0 26.182)" fill="#d2d1d1" style="mix-blend-mode: multiply;isolation: isolate"/>
                </g>
                <g id="Grupo_1106480" data-name="Grupo 1106480" transform="translate(1.1 84.603)">
                  <rect id="Rectángulo_404554" data-name="Rectángulo 404554" width="81.206" height="1.902" fill="#d2d1d1" style="mix-blend-mode: multiply;isolation: isolate"/>
                  <rect id="Rectángulo_404555" data-name="Rectángulo 404555" width="81.206" height="1.903" transform="translate(0 5.235)" fill="#d2d1d1" style="mix-blend-mode: multiply;isolation: isolate"/>
                  <rect id="Rectángulo_404556" data-name="Rectángulo 404556" width="81.206" height="1.903" transform="translate(0 10.472)" fill="#d2d1d1" style="mix-blend-mode: multiply;isolation: isolate"/>
                  <rect id="Rectángulo_404557" data-name="Rectángulo 404557" width="81.206" height="1.902" transform="translate(0 15.708)" fill="#d2d1d1" style="mix-blend-mode: multiply;isolation: isolate"/>
                  <rect id="Rectángulo_404558" data-name="Rectángulo 404558" width="81.206" height="1.902" transform="translate(0 20.945)" fill="#d2d1d1" style="mix-blend-mode: multiply;isolation: isolate"/>
                  <rect id="Rectángulo_404559" data-name="Rectángulo 404559" width="46.594" height="1.902" transform="translate(0 26.181)" fill="#d2d1d1" style="mix-blend-mode: multiply;isolation: isolate"/>
                </g>
                <g id="Grupo_1106549" data-name="Grupo 1106549" transform="translate(7.108 10.821)">
                  <g id="Grupo_1106486" data-name="Grupo 1106486" transform="translate(0 23.733)">
                    <g id="Grupo_1106483" data-name="Grupo 1106483" transform="translate(0.508 4.944)">
                      <g id="Grupo_1106482" data-name="Grupo 1106482">
                        <g id="Grupo_1106481" data-name="Grupo 1106481">
                          <path id="Trazado_885133" data-name="Trazado 885133" d="M60.9,150.04l-.071-1.762a1.638,1.638,0,0,0-3.239-.5l.09,2.26Z" transform="translate(-57.589 -146.392)" fill="#f1a786"/>
                        </g>
                      </g>
                    </g>
                    <g id="Grupo_1106485" data-name="Grupo 1106485">
                      <g id="Grupo_1106484" data-name="Grupo 1106484">
                        <path id="Trazado_885134" data-name="Trazado 885134" d="M62.434,151.372l.338-4.765A3.8,3.8,0,0,0,60.2,142.78s-2.159-.122-2.98,4.815l.005,3.776Z" transform="translate(-57.218 -142.78)" fill="#1f2329"/>
                      </g>
                    </g>
                  </g>
                  <g id="Grupo_1106491" data-name="Grupo 1106491" transform="translate(12.947 11.052)">
                    <g id="Grupo_1106488" data-name="Grupo 1106488">
                      <g id="Grupo_1106487" data-name="Grupo 1106487">
                        <path id="Trazado_885135" data-name="Trazado 885135" d="M66.8,136.87a.7.7,0,0,0,.523.42,1.31,1.31,0,0,0,1.039-.46,1.712,1.712,0,0,0,.215-.219,2.371,2.371,0,0,0,.56-1.508,1.863,1.863,0,0,0-.385-1.311c-.769-.682-1.445.064-1.655.454a3.874,3.874,0,0,0-.379,1.365A2.525,2.525,0,0,0,66.8,136.87Z" transform="translate(-66.677 -133.515)" fill="#f1a786"/>
                      </g>
                    </g>
                    <g id="Grupo_1106490" data-name="Grupo 1106490" transform="translate(0.731 0.491)">
                      <g id="Grupo_1106489" data-name="Grupo 1106489">
                        <path id="Trazado_885136" data-name="Trazado 885136" d="M68.286,133.962a.765.765,0,0,0-.36-.088c-.537-.012-.924.9-.385,1.029a.346.346,0,0,1,.016.457,1.133,1.133,0,0,0-.334.846.477.477,0,0,0,.4.3c.137.029.157-.085.047-.135a.614.614,0,0,1-.211-.168c-.005-.012-.012-.019-.016-.03a.041.041,0,0,1-.014-.021.2.2,0,0,1-.014-.134.307.307,0,0,0,.413-.026c.094-.137.008-.335.037-.491a1.192,1.192,0,0,1,.108-.3c.224-.454-.222-.506-.222-.506-.066,0-.116.012-.163.019-.23-.116,0-.487.137-.552a.407.407,0,0,1,.471.064.754.754,0,0,1,.174.5,1.752,1.752,0,0,1-.118.616c-.041.109-.1.244-.14.353-.052.126.085.174.136.047a3.76,3.76,0,0,0,.333-1.021A.79.79,0,0,0,68.286,133.962Z" transform="translate(-67.211 -133.874)" fill="#da9579"/>
                      </g>
                    </g>
                  </g>
                  <g id="Grupo_1106493" data-name="Grupo 1106493" transform="translate(5.871 20.695)">
                    <g id="Grupo_1106492" data-name="Grupo 1106492">
                      <path id="Trazado_885137" data-name="Trazado 885137" d="M62.039,140.561h1.54v1.48H61.507Z" transform="translate(-61.507 -140.561)" fill="#6a9fba"/>
                    </g>
                  </g>
                  <g id="Grupo_1106495" data-name="Grupo 1106495" transform="translate(9.206 20.695)">
                    <g id="Grupo_1106494" data-name="Grupo 1106494">
                      <path id="Trazado_885138" data-name="Trazado 885138" d="M64.437,140.561h1.58v1.48H63.943Z" transform="translate(-63.943 -140.561)" fill="#6a9fba"/>
                    </g>
                  </g>
                  <g id="Grupo_1106497" data-name="Grupo 1106497" transform="translate(1.747 21.716)">
                    <g id="Grupo_1106496" data-name="Grupo 1106496">
                      <path id="Trazado_885139" data-name="Trazado 885139" d="M58.824,151.915h15.23c.188-1.629.33-2.966.386-3.712.246-3.321-1.556-4.418-1.556-4.418a18.64,18.64,0,0,0-5.225-2.479H63.5l-3.664,1.763c-1.606.934-1.328,3.668-1.328,3.668Z" transform="translate(-58.495 -141.306)" fill="#f1a786"/>
                    </g>
                  </g>
                  <g id="Grupo_1106499" data-name="Grupo 1106499" transform="translate(6.758 17.72)">
                    <g id="Grupo_1106498" data-name="Grupo 1106498">
                      <rect id="Rectángulo_404560" data-name="Rectángulo 404560" width="4.155" height="3.995" fill="#f1a786"/>
                    </g>
                  </g>
                  <g id="Grupo_1106501" data-name="Grupo 1106501" transform="translate(6.758 17.72)">
                    <g id="Grupo_1106500" data-name="Grupo 1106500">
                      <path id="Trazado_885140" data-name="Trazado 885140" d="M64.986,141.441a4.739,4.739,0,0,1-2.831-1.336v-1.718h4.154v3.092A7.773,7.773,0,0,1,64.986,141.441Z" transform="translate(-62.155 -138.387)" fill="#d78874"/>
                    </g>
                  </g>
                  <g id="Grupo_1106503" data-name="Grupo 1106503" transform="translate(3.015 3.882)">
                    <g id="Grupo_1106502" data-name="Grupo 1106502">
                      <path id="Trazado_885141" data-name="Trazado 885141" d="M65.289,128.3c-1.38-.04-3.525-.116-4.606.79a2.28,2.28,0,0,0-.329.341,3.939,3.939,0,0,0-.682,1.554c-.008.016-.016.029-.025.042-.249.5-.083,1.414-.2,1.966,0,.077,0,.152-.007.227-.022.634-.033,1.548,0,2.182.033.7.2,1.938.224,2.647a9.54,9.54,0,0,0,1.085,4.037c1.195,2.287,4.339,1.421,6.169.524a4.152,4.152,0,0,0,2.612-3.333s.183-.987.412-2.205c.215-1.142.465-2.486.639-3.414h0c.123-.664.209-1.113.209-1.113S71.572,128.482,65.289,128.3Z" transform="translate(-59.421 -128.277)" fill="#f1a786"/>
                    </g>
                  </g>
                  <g id="Grupo_1106505" data-name="Grupo 1106505" transform="translate(3.245 11.22)">
                    <g id="Grupo_1106504" data-name="Grupo 1106504">
                      <path id="Trazado_885142" data-name="Trazado 885142" d="M69.118,133.961a17.4,17.4,0,0,1-.318,1.931c-.223,1.042-.612,2.911-1.989,2.343-.621-.255-.751-.91-1.158-1.374-.6-.68-1.779-.108-2.454-.109-.346,0-1.174-.344-1.537.115a4.056,4.056,0,0,0-.457,1.425.119.119,0,0,1-.172.07,3.431,3.431,0,0,1-1.244-1.892c-.074-.219-.14-.442-.2-.667.005.094.014.183.014.266a13.854,13.854,0,0,0,1.421,5.143c1.2,2.286,3.889,1.169,5.717.271a5.675,5.675,0,0,0,2.728-4.186s.183-.987.412-2.205c.088-.467.179-.964.272-1.454C69.845,133.742,69.153,133.565,69.118,133.961Z" transform="translate(-59.589 -133.638)" fill="#341200"/>
                    </g>
                  </g>
                  <g id="Grupo_1106517" data-name="Grupo 1106517" transform="translate(5.523 14.903)">
                    <g id="Grupo_1106507" data-name="Grupo 1106507">
                      <g id="Grupo_1106506" data-name="Grupo 1106506">
                        <path id="Trazado_885143" data-name="Trazado 885143" d="M64.674,136.329a1.656,1.656,0,0,1-1.79,1.682c-1.05,0-1.451-.5-1.63-1.682Z" transform="translate(-61.253 -136.329)" fill="#d0816f"/>
                      </g>
                    </g>
                    <g id="Grupo_1106509" data-name="Grupo 1106509" transform="translate(0.159 0.063)">
                      <g id="Grupo_1106508" data-name="Grupo 1106508">
                        <path id="Trazado_885144" data-name="Trazado 885144" d="M64.631,136.375c-.153,1.3-.765,1.68-1.63,1.68-1.054,0-1.455-.5-1.632-1.68Z" transform="translate(-61.369 -136.375)" fill="#fff"/>
                      </g>
                    </g>
                    <g id="Grupo_1106511" data-name="Grupo 1106511" transform="translate(0.159 0.558)">
                      <g id="Grupo_1106510" data-name="Grupo 1106510">
                        <path id="Trazado_885145" data-name="Trazado 885145" d="M61.369,136.736l.687.112-.64.071Z" transform="translate(-61.369 -136.736)" fill="#d0816f"/>
                      </g>
                    </g>
                    <g id="Grupo_1106516" data-name="Grupo 1106516" transform="translate(2.736 0.557)">
                      <g id="Grupo_1106513" data-name="Grupo 1106513" transform="translate(0.538)">
                        <g id="Grupo_1106512" data-name="Grupo 1106512">
                          <path id="Trazado_885146" data-name="Trazado 885146" d="M63.7,136.737h.011l-.047.183h-.021C63.666,136.861,63.683,136.8,63.7,136.737Z" transform="translate(-63.645 -136.736)" fill="#d0816f"/>
                        </g>
                      </g>
                      <g id="Grupo_1106515" data-name="Grupo 1106515" transform="translate(0 0.001)">
                        <g id="Grupo_1106514" data-name="Grupo 1106514">
                          <path id="Trazado_885147" data-name="Trazado 885147" d="M63.252,136.856v-.022l.594-.1c-.018.063-.036.123-.056.181Z" transform="translate(-63.252 -136.737)" fill="#d0816f"/>
                        </g>
                      </g>
                    </g>
                  </g>
                  <g id="Grupo_1106522" data-name="Grupo 1106522" transform="translate(9.135 10.156)">
                    <g id="Grupo_1106519" data-name="Grupo 1106519">
                      <g id="Grupo_1106518" data-name="Grupo 1106518">
                        <path id="Trazado_885148" data-name="Trazado 885148" d="M64.873,133.574c0,.393-.224.709-.5.709s-.487-.322-.486-.714.226-.71.5-.708S64.876,133.181,64.873,133.574Z" transform="translate(-63.892 -132.861)" fill="#29180d"/>
                      </g>
                    </g>
                    <g id="Grupo_1106521" data-name="Grupo 1106521" transform="translate(0.686 0.277)">
                      <g id="Grupo_1106520" data-name="Grupo 1106520">
                        <path id="Trazado_885149" data-name="Trazado 885149" d="M64.393,133.274a.213.213,0,0,0,.426,0,.213.213,0,0,0-.426,0Z" transform="translate(-64.393 -133.063)" fill="#fff"/>
                      </g>
                    </g>
                  </g>
                  <g id="Grupo_1106527" data-name="Grupo 1106527" transform="translate(4.469 10.156)">
                    <g id="Grupo_1106524" data-name="Grupo 1106524" transform="translate(0.127)">
                      <g id="Grupo_1106523" data-name="Grupo 1106523">
                        <path id="Trazado_885150" data-name="Trazado 885150" d="M60.576,133.574c0,.393.223.709.5.709s.49-.322.487-.714-.224-.71-.494-.708S60.572,133.181,60.576,133.574Z" transform="translate(-60.576 -132.861)" fill="#29180d"/>
                      </g>
                    </g>
                    <g id="Grupo_1106526" data-name="Grupo 1106526" transform="translate(0 0.277)">
                      <g id="Grupo_1106525" data-name="Grupo 1106525">
                        <path id="Trazado_885151" data-name="Trazado 885151" d="M60.906,133.274a.211.211,0,1,1-.212-.211A.212.212,0,0,1,60.906,133.274Z" transform="translate(-60.483 -133.063)" fill="#fff"/>
                      </g>
                    </g>
                  </g>
                  <g id="Grupo_1106529" data-name="Grupo 1106529" transform="translate(1.486 21.716)">
                    <g id="Grupo_1106528" data-name="Grupo 1106528">
                      <path id="Trazado_885152" data-name="Trazado 885152" d="M58.661,151.915h15.46c.188-1.634.333-2.973.389-3.712.246-3.321-1.556-4.418-1.556-4.418a18.64,18.64,0,0,0-5.225-2.479l-2.97,3.406-1.184-3.406-4.533,2.18c-1.018.636-.687,2.412-.687,2.412Z" transform="translate(-58.303 -141.306)" fill="#282e37"/>
                    </g>
                  </g>
                  <g id="Grupo_1106534" data-name="Grupo 1106534" transform="translate(3.761 20.695)">
                    <g id="Grupo_1106531" data-name="Grupo 1106531" transform="translate(1.318 1.02)">
                      <g id="Grupo_1106530" data-name="Grupo 1106530">
                        <path id="Trazado_885153" data-name="Trazado 885153" d="M63.792,144.712l-.127-2.457-1.057-.949-1.679.59Z" transform="translate(-60.929 -141.306)" fill="#bbe4fb"/>
                      </g>
                    </g>
                    <g id="Grupo_1106533" data-name="Grupo 1106533">
                      <g id="Grupo_1106532" data-name="Grupo 1106532">
                        <path id="Trazado_885154" data-name="Trazado 885154" d="M62.607,140.561l-2.641,2,1.918,2.425,2.136-2.457Z" transform="translate(-59.966 -140.561)" fill="#89d1f7"/>
                      </g>
                    </g>
                  </g>
                  <g id="Grupo_1106539" data-name="Grupo 1106539" transform="translate(7.942 20.695)">
                    <g id="Grupo_1106536" data-name="Grupo 1106536" transform="translate(0 0.422)">
                      <g id="Grupo_1106535" data-name="Grupo 1106535">
                        <path id="Trazado_885155" data-name="Trazado 885155" d="M63.021,144.873l.584-2.418,2.419-1.585,1.388,1.3Z" transform="translate(-63.021 -140.869)" fill="#bbe4fb"/>
                      </g>
                    </g>
                    <g id="Grupo_1106538" data-name="Grupo 1106538" transform="translate(0.584)">
                      <g id="Grupo_1106537" data-name="Grupo 1106537">
                        <path id="Trazado_885156" data-name="Trazado 885156" d="M66.2,140.561l2.143,1.8-2.788,2.362-2.107-2.155Z" transform="translate(-63.447 -140.561)" fill="#89d1f7"/>
                      </g>
                    </g>
                  </g>
                  <g id="Grupo_1106542" data-name="Grupo 1106542" transform="translate(15.133 31.027)">
                    <g id="Grupo_1106541" data-name="Grupo 1106541">
                      <g id="Grupo_1106540" data-name="Grupo 1106540">
                        <path id="Trazado_885157" data-name="Trazado 885157" d="M71.53,149.407l-.172-.363a1.642,1.642,0,0,0-2.176-.782,1.621,1.621,0,0,0-.908,1.144Z" transform="translate(-68.274 -148.109)" fill="#f1a786"/>
                      </g>
                    </g>
                  </g>
                  <g id="Grupo_1106544" data-name="Grupo 1106544" transform="translate(12.086 23.768)">
                    <g id="Grupo_1106543" data-name="Grupo 1106543">
                      <path id="Trazado_885158" data-name="Trazado 885158" d="M66.195,151.362h6.344l-.527-5.767A3.732,3.732,0,0,0,68,142.838s-2.068-.077-1.949,3.627Z" transform="translate(-66.047 -142.806)" fill="#1f2329"/>
                    </g>
                  </g>
                  <g id="Grupo_1106545" data-name="Grupo 1106545" transform="translate(2.21)">
                    <path id="Trazado_885159" data-name="Trazado 885159" d="M59.782,134.283a.7.7,0,0,1,.4-.586l.686-.181s.227-.182.048-.339l-.589-.746a.75.75,0,0,1,.12-.984l.9-1.187s.423-.428.825-.248c0,0,2.765,1.38,5.1.1,0,0,.215-.231.771.083a7.194,7.194,0,0,1,1.172,1.385,1.074,1.074,0,0,1-.126,1.217l-.383.474s-.068.112.156.271l.353.2s.5.142.46.6l-.334,3.259H70s.2-1.1,1.038-1.1a35.876,35.876,0,0,0,.642-4.51,3.125,3.125,0,0,0-.88-2.186c-.345-.318-1.08-.669-1.173-1.137-.068-.335.07-.673-.019-1a2.87,2.87,0,0,0-2.361-2.012s-4.021-.769-4.862.631a1.6,1.6,0,0,1-1.012.814s-1.7.567-1.7,2.057c0,.8-1.055.883-.8,1.651a17.605,17.605,0,0,0,.853,6.48A19.09,19.09,0,0,1,59.782,134.283Z" transform="translate(-58.833 -125.441)" fill="#341200"/>
                  </g>
                  <g id="Grupo_1106546" data-name="Grupo 1106546" transform="translate(3.918 8.821)">
                    <path id="Trazado_885160" data-name="Trazado 885160" d="M60.314,132.766a.22.22,0,0,1-.179-.083.233.233,0,0,1,.03-.329c.045-.037.083-.073.12-.107a1.087,1.087,0,0,1,.706-.337,4.218,4.218,0,0,1,1.247.045.23.23,0,0,1,.174.281.233.233,0,0,1-.281.174,3.729,3.729,0,0,0-1.094-.033.626.626,0,0,0-.438.216c-.042.038-.085.078-.137.12A.223.223,0,0,1,60.314,132.766Z" transform="translate(-60.08 -131.886)" fill="#341200"/>
                  </g>
                  <g id="Grupo_1106547" data-name="Grupo 1106547" transform="translate(8.71 8.821)">
                    <path id="Trazado_885161" data-name="Trazado 885161" d="M65.688,132.766a.222.222,0,0,1-.148-.052c-.052-.042-.1-.082-.137-.12a.63.63,0,0,0-.439-.216,3.729,3.729,0,0,0-1.094.033.238.238,0,0,1-.283-.174.236.236,0,0,1,.177-.281,4.227,4.227,0,0,1,1.248-.045,1.091,1.091,0,0,1,.706.337c.037.033.077.07.12.107a.231.231,0,0,1,.03.329A.229.229,0,0,1,65.688,132.766Z" transform="translate(-63.581 -131.886)" fill="#341200"/>
                  </g>
                  <g id="Grupo_1106548" data-name="Grupo 1106548" transform="translate(5.983 10.868)">
                    <path id="Trazado_885162" data-name="Trazado 885162" d="M63.564,136.027c-.067.042-.134.086-.2.125a2.432,2.432,0,0,1-.233.094,1.436,1.436,0,0,1-.246.055,1.231,1.231,0,0,1-.256.015,1.717,1.717,0,0,1-.266-.036,1.436,1.436,0,0,1-.253-.094,1.24,1.24,0,0,1-.339-.237.9.9,0,0,1-.105-.122l-.074-.1.06-.129c.033-.077.073-.17.107-.257l.1-.268.1-.271.089-.276c.031-.092.056-.185.085-.279s.056-.188.079-.282.055-.19.079-.287.047-.2.077-.294a2.613,2.613,0,0,1,.085.608,3.467,3.467,0,0,1-.033.619,4,4,0,0,1-.127.605c-.029.1-.062.2-.1.294a2.679,2.679,0,0,1-.126.294l-.015-.231a.705.705,0,0,0,.048.059.72.72,0,0,0,.064.066,1.151,1.151,0,0,0,.149.118,1,1,0,0,0,.174.09,1.16,1.16,0,0,0,.189.07c.067.014.134.033.205.042s.145.012.218.021.149,0,.229,0S63.485,136.028,63.564,136.027Z" transform="translate(-61.589 -133.381)" fill="#e59174"/>
                  </g>
                </g>
              </g>
            </g>
            <g id="Grupo_1106554" data-name="Grupo 1106554" transform="translate(0 161.441)">
              <g id="Grupo_1106552" data-name="Grupo 1106552" transform="translate(0 7.594)">
                <path id="Trazado_885163" data-name="Trazado 885163" d="M49.03,177.571c-5.357.324-5.283-2.725-5.283-2.725-5.8-2.009-2.087-5.16-2.087-5.16-5.958-3.941-.222-7.018-.222-7.018-4.851-4.043,2.624-6.674,2.624-6.674a14.911,14.911,0,0,1,6.637-.7s4.375,3.189-.327,5.925c0,0,5.686,2.863,1.614,7.572,0,0,3.266,1.808.359,4.815,0,0,3.054,2.363-.405,3.945Z" transform="translate(-38.952 -155.157)" fill="#f1a786"/>
              </g>
              <g id="Grupo_1106553" data-name="Grupo 1106553" transform="translate(5.717)">
                <path id="Trazado_885164" data-name="Trazado 885164" d="M49.725,149.744c2.168.527,2.962,2.378,1.8,4.141a6,6,0,0,1-6.046,2.245c-2.171-.532-2.983-2.373-1.811-4.139A6.07,6.07,0,0,1,49.725,149.744Z" transform="translate(-43.129 -149.609)" fill="#f1a786"/>
              </g>
            </g>
          </g>
        </g>
        <circle id="Elipse_11979" data-name="Elipse 11979" cx="17" cy="17" r="17" transform="translate(-1796.601 -8843.538)" fill="#d2e3fb"/>
        <circle id="Elipse_11980" data-name="Elipse 11980" cx="12" cy="12" r="12" transform="translate(-1509.601 -8735.538)" fill="#d2e3fb"/>
        <circle id="Elipse_11981" data-name="Elipse 11981" cx="12" cy="12" r="12" transform="translate(-1538.601 -8833.538)" fill="#d2e3fb"/>
      </g>
    </g>
    <path id="Rectángulo_400911" data-name="Rectángulo 400911" d="M0,0H297a0,0,0,0,1,0,0V41a19,19,0,0,1-19,19H19A19,19,0,0,1,0,41V0A0,0,0,0,1,0,0Z" transform="translate(-2717.808 -9124.491) rotate(-90)" fill="#59836b"/>
    <g id="Grupo_1107028" data-name="Grupo 1107028" transform="translate(-1399 -209)">
      <g id="Grupo_1098761" data-name="Grupo 1098761" transform="translate(-2580.808 -10521.491)">
        <line id="Línea_557" data-name="Línea 557" y2="128" transform="translate(1273.5 1470.5)" fill="none" stroke="#fff" stroke-linecap="round" stroke-width="2" stroke-dasharray="5"/>
        <circle id="Elipse_11447" data-name="Elipse 11447" cx="33.5" cy="33.5" r="33.5" transform="translate(1238 1511)" fill="#fd9f81"/>
      </g>
      <rect id="Rectángulo_400898" data-name="Rectángulo 400898" width="47" height="47" rx="23.5" transform="translate(-1355.808 -9017.492)" fill="#fff"/>
    </g>
    <path id="Rectángulo_400898_-_Contorno" data-name="Rectángulo 400898 - Contorno" d="M23.485,1.3a22.187,22.187,0,0,0-8.633,42.619A22.187,22.187,0,0,0,32.119,3.047,22.041,22.041,0,0,0,23.485,1.3m0-1.3A23.485,23.485,0,1,1,0,23.485,23.485,23.485,0,0,1,23.485,0Z" transform="translate(-2755.159 -9226.463)" fill="#fff"/>
  </g>
</svg>
