<svg xmlns="http://www.w3.org/2000/svg" xmlns:xlink="http://www.w3.org/1999/xlink" width="415" height="297" viewBox="0 0 415 297">
  <defs>
    <clipPath id="clip-path">
      <rect id="Rectángulo_404562" data-name="Rectángulo 404562" width="373" height="297" rx="19" transform="translate(-2292.422 -8647.533)" fill="#feece6" opacity="0.41"/>
    </clipPath>
    <clipPath id="clip-path-2">
      <rect id="Rectángulo_404650" data-name="Rectángulo 404650" width="476.587" height="288.714" fill="none"/>
    </clipPath>
    <clipPath id="clip-path-4">
      <path id="Trazado_886999" data-name="Trazado 886999" d="M1684.227,194.753c-2.637.443-5.649,3.858-7.009,5.976a10.192,10.192,0,0,0-.7,1.267c.64,1.786,1.8,3.544,2.305,5.324l.769.319c2.744-4.141,6.06-7.024,9.879-10.159-1.274-.912-3.18-2.758-4.882-2.757a2.2,2.2,0,0,0-.364.03" transform="translate(-1676.52 -194.723)" fill="none"/>
    </clipPath>
    <linearGradient id="linear-gradient" x1="-8.128" y1="15.347" x2="-8.123" y2="15.347" gradientUnits="objectBoundingBox">
      <stop offset="0" stop-color="#2f72bd"/>
      <stop offset="1" stop-color="#5f9be5"/>
    </linearGradient>
  </defs>
  <g id="Grupo_1107211" data-name="Grupo 1107211" transform="translate(2292.308 8411.998)">
    <g id="Enmascarar_grupo_1099791" data-name="Enmascarar grupo 1099791" transform="translate(0.114 235.535)" clip-path="url(#clip-path)">
      <g id="Grupo_1107131" data-name="Grupo 1107131">
        <g id="Grupo_1107027" data-name="Grupo 1107027" transform="translate(-470.014 236.118)">
          <rect id="Rectángulo_404561" data-name="Rectángulo 404561" width="416.336" height="309.634" transform="translate(-1844.076 -8889.969)" fill="#e5f0fc"/>
        </g>
        <g id="Grupo_1107222" data-name="Grupo 1107222" transform="translate(-2344.215 -8639.735)">
          <g id="Grupo_1107213" data-name="Grupo 1107213" transform="translate(0 0.004)">
            <g id="Grupo_1107212" data-name="Grupo 1107212" transform="translate(0 0)" clip-path="url(#clip-path-2)">
              <path id="Trazado_886904" data-name="Trazado 886904" d="M3256.595,617.328a8.177,8.177,0,0,1-2.484,0,3.246,3.246,0,0,1-2.049-1.2,2.441,2.441,0,0,1,.462-.893c1-1.021,2.437-.748,3.734-.851.74-.612.184-2.528.915-3.562a2.765,2.765,0,0,1,1.784-.308c1.491.9.662,2.225,1.1,3.661.959.6,2.426-.065,3.594.345a1.7,1.7,0,0,1,.513,1.465,1.638,1.638,0,0,1-.481,1.022c-.866.795-2.649.444-3.715.37a14.216,14.216,0,0,1-.226,3.989l-1.735.674a3.425,3.425,0,0,1-.915-.675c-.792-.919-.525-2.88-.5-4.039" transform="translate(-2965.587 -556.715)" fill="#f06754"/>
              <path id="Trazado_886905" data-name="Trazado 886905" d="M3816.309,1680.748l13.75.016c.96,1.636.424,5.84.375,7.763h-.217c-1.4-.6-12.144-.412-13.882-.011a15.492,15.492,0,0,0,.269-7.186,3.639,3.639,0,0,0-.3-.582" transform="translate(-3480.13 -1532.691)" fill="#d7dce7"/>
              <path id="Trazado_886906" data-name="Trazado 886906" d="M3776.4,2025.818c23.241-.4,46.54-.079,69.784-.1q8.334-.009,16.665.072c2.922.032,5.926.229,8.844.075.547-.029,1.462-.011,1.841-.456,1.269-1.489,1.438-2.662,3.685-2.966a3.005,3.005,0,0,1,2.313.587,3.685,3.685,0,0,1,1.321,2.615,3.935,3.935,0,0,1-.846,2.871,2.885,2.885,0,0,1-.22.232,3.094,3.094,0,0,1-.244.206q-.127.1-.261.18a3.091,3.091,0,0,1-.282.15,2.947,2.947,0,0,1-.3.119,3.021,3.021,0,0,1-.623.138,2.963,2.963,0,0,1-.32.019,4.176,4.176,0,0,1-3.107-1.2,15.6,15.6,0,0,0-1.112-1.159q-11.479.134-22.958.119c-4.759,0-9.552-.169-14.3.087-1.868-.508-14.311-.065-17.05-.055-15.808.057-31.7.308-47.5-.159a2.268,2.268,0,0,1,.412-1.058c1.177-.516,2.736-.141,4.026-.289Z" transform="translate(-3439.485 -1844.257)" fill="#343e8d"/>
              <path id="Trazado_886907" data-name="Trazado 886907" d="M4516.425,1335.417c.176-.635.365-1.254.589-1.872,3.933-.634,8.957-.137,13.01-.129.626,1.3.747,13.519.179,14.953a2.4,2.4,0,0,1-.279.478c-2.55.529-10.392.07-13.447.053a3.07,3.07,0,0,0,.433-1.187c.217-1.8.348-11.171-.485-12.295" transform="translate(-4118.572 -1215.779)" fill="#4979cd"/>
              <path id="Trazado_886908" data-name="Trazado 886908" d="M4053.065,1573.615q6.772.057,13.544.019a5.388,5.388,0,0,1,.179.562c.409,1.9.451,13.553-.427,14.833q-6.607-.088-13.214-.066c.93,1.461.74,8.01.361,9.846a2.468,2.468,0,0,1-.371.852c.591-1.862.581-24.248-.073-26.047" transform="translate(-3696.029 -1434.995)" fill="#fcce7d"/>
              <path id="Trazado_886909" data-name="Trazado 886909" d="M3816.336,1765.073c1.738-.4,12.48-.587,13.881.011h.217c.076,2.915.582,15.422-.4,17.2l-13.729.024c.843-1.576.657-12.419.137-14.289a2.292,2.292,0,0,0-.134-.39,2.98,2.98,0,0,0,.024-2.56" transform="translate(-3480.13 -1609.249)" fill="#e3813d"/>
              <path id="Trazado_886910" data-name="Trazado 886910" d="M3816.372,1765.073c1.738-.4,12.48-.587,13.881.011.035,2.146.623,6.764-.409,8.5l-13.372.016c.819-1.382.527-3.737.347-5.285l-.471-.685a2.98,2.98,0,0,0,.024-2.56" transform="translate(-3480.165 -1609.249)" fill="#f06754"/>
              <path id="Trazado_886911" data-name="Trazado 886911" d="M4051.974,1747.8q6.606-.022,13.213.066a2.231,2.231,0,0,1,.444,1.1c.244,2.337.375,15.178-.021,17.08a2.94,2.94,0,0,1-.323.836c-4.488-.225-9.02-.167-13.51-.1.822-1.438.792-6.2.362-7.84a4.3,4.3,0,0,0-.176-.446,2.474,2.474,0,0,0,.372-.852c.378-1.836.567-8.385-.361-9.846" transform="translate(-3694.856 -1593.829)" fill="#fbb957"/>
              <path id="Trazado_886912" data-name="Trazado 886912" d="M3730.409,1059.516a2.078,2.078,0,0,1,.74-.987c1.755-1.17,4.47-1.882,6.442-2.71l13.64-5.889c21.878-9.324,44.008-18.06,65.786-27.605,2.491-1.091,22.446-9.957,23.375-9.766.451.592.637.671.606,1.435a6.346,6.346,0,0,1-2.588,1.743c-26.675,11.718-53.728,22.653-80.575,33.975-3.558,1.5-24.077,10.619-25.835,10.826a1.429,1.429,0,0,1-.678-.1Z" transform="translate(-3401.797 -923.36)" fill="#79b7f3"/>
              <path id="Trazado_886913" data-name="Trazado 886913" d="M4515.392,1358.131c.832,1.123.7,10.492.484,12.3a3.061,3.061,0,0,1-.434,1.187c3.056.016,10.9.476,13.448-.053a2.57,2.57,0,0,1,.437,1.168c.244,2.4.423,15.356-.02,17.314a2.653,2.653,0,0,1-.413.917c.891,1.325.616,17.183.385,19.724l-.5.692c-1.617.577-10.958.17-13.492.2.024-.042.052-.082.076-.125a2.862,2.862,0,0,0,.348-1.37c.32-7.239,0-14.617,0-21.869l-.031-20.56c-.014-2.811.489-6.846-.295-9.516" transform="translate(-4117.539 -1238.493)" fill="#79b7f3"/>
              <path id="Trazado_886914" data-name="Trazado 886914" d="M4517.44,1729.247c4.428.049,9.005-.288,13.413.041.892,1.325.617,17.183.385,19.724l-.5.691c-4.3-.434-8.922-.077-13.251-.055a2.669,2.669,0,0,0,.375-.883c.43-1.93.265-15.931.007-18.356a2.631,2.631,0,0,0-.434-1.162" transform="translate(-4119.499 -1576.822)" fill="#5798e2"/>
              <path id="Trazado_886915" data-name="Trazado 886915" d="M0,2187.457a82.565,82.565,0,0,1,8.457.284c10.207,1.033,20.239,5.124,26.846,13.187a5.533,5.533,0,0,0,1.054,1.634c.806,1.725,1.256,4.038,2.2,5.606l-.1,1.747c-.171,2.307-.327,4.606-.39,6.919a1.376,1.376,0,0,0-1.254.589A8.925,8.925,0,0,0,36,2218.9c.77,2.455.779,5.475.991,8.042a2.614,2.614,0,0,1-.886,1.358,90.347,90.347,0,0,0-1-9.311,20,20,0,0,1-4.957-.151c-8.531-1.824-11.481-12.558-15.868-18.889A40.664,40.664,0,0,0,0,2187.457" transform="translate(0 -1994.763)" fill="#f8a747"/>
              <path id="Trazado_886916" data-name="Trazado 886916" d="M253.688,2311.176c-3.074-7.313-5.068-13.159-10.489-19.147-1.092-1.207-2.324-2.245-3.447-3.41a.62.62,0,0,1-.05-.07l.069.267.357-.241c4.27,2.816,9.094,9.89,11.07,14.606,1.039,2.481,1.839,5.475,3.273,7.731.037.059.077.116.115.174.77,2.455.779,5.475.991,8.042a2.617,2.617,0,0,1-.886,1.358,90.382,90.382,0,0,0-1-9.311" transform="translate(-218.588 -2086.95)" fill="#142254"/>
              <path id="Trazado_886917" data-name="Trazado 886917" d="M4282.443,1462.909c4.318-.461,8.988-.147,13.349-.149a3.081,3.081,0,0,1,.371.966c.362,1.943.258,41.164-.041,42.423a3.4,3.4,0,0,1-.42.645c-4.236.57-9.118.112-13.417.1a3.551,3.551,0,0,0,.417-1.655c.444-8.156.042-16.588.038-24.762,0-3.929.479-14.218-.3-17.564" transform="translate(-3905.058 -1333.812)" fill="#79b7f3"/>
              <path id="Trazado_886918" data-name="Trazado 886918" d="M3598.847,190.462q.038-.568.086-1.134t.113-1.132q.065-.565.141-1.129t.169-1.125q.089-.562.193-1.121t.217-1.116q.116-.557.248-1.111t.271-1.1q.141-.551.3-1.1t.323-1.091q.169-.544.348-1.083t.375-1.075q.192-.535.4-1.065t.427-1.056q.216-.525.447-1.046t.472-1.035q.244-.514.5-1.023t.52-1.011q.265-.5.543-1t.568-.986q.289-.49.592-.972t.612-.958q.311-.475.633-.944t.658-.928q.337-.46.681-.913t.7-.9q.354-.444.723-.88t.74-.863q.375-.427.76-.845t.781-.827q.4-.409.8-.808t.819-.789c8.248-7.9,20.281-13.4,31.83-13.157.588,2.239,2.619,8.832,2.388,10.573a3.068,3.068,0,0,1,.358,2.467,6.113,6.113,0,0,1-.306.641c-9.735-.733-18.034.75-25.684,7.336a25.485,25.485,0,0,0-4.618,4.781,42.867,42.867,0,0,1-2.791,3.666c-.014.046-.031.092-.048.139-1.122,3.014-3.042,5.691-4.008,8.812-.74,2.386-.9,8.114-1.817,9.652-3.492-.625-6.889-1.7-10.354-2.456Z" transform="translate(-3281.824 -132.348)" fill="#5798e2"/>
              <path id="Trazado_886919" data-name="Trazado 886919" d="M4748.391,1172.407l13.32-.007a3.558,3.558,0,0,1,.223.492c.564,1.858.162,11.715.159,14.13l-.021,38.1c0,2.472.509,15.088-.43,16.72-1,.539-11.852.191-13.771.191a3.1,3.1,0,0,0,.45-1.477c.172-2.425.031-4.966.035-7.4l0-14.533Z" transform="translate(-4329.631 -1069.123)" fill="#343e8d"/>
              <path id="Trazado_886920" data-name="Trazado 886920" d="M4923.926,2046.957c-2.87-9.17-3.922-18.066.737-26.963,3.1-5.924,9.066-11.7,15.566-13.685a14.1,14.1,0,0,1,10.647.585,9.128,9.128,0,0,1,4.625,5.626,13.52,13.52,0,0,1-1.7,10.286c-3.7,6.472-19.449,22.271-26.489,24.14a14,14,0,0,1-2.178.415c.217,2.228-2.8,11.423-3.365,14.437-.64,3.394-1.387,14.171-2.233,16.092.024.513.124.761-.237,1.189a2.582,2.582,0,0,1-1,.576c.785-2.453.633-5.809.874-8.407q.489-5.364,1.483-10.657c.464-2.49,3.492-11.846,3.269-13.633" transform="translate(-4485.046 -1828.88)" fill="#f8a747"/>
              <path id="Trazado_886921" data-name="Trazado 886921" d="M4923.926,2165.31c.038-.036.08-.07.118-.107,1.317-1.3,3.492-8.5,4.559-10.792a57.553,57.553,0,0,1,10.856-16.462c.647-.655,2.147-2.4,3-2.614-.616,1.356-3,3.126-4.053,4.383-4.532,5.39-7.822,11.919-10.372,18.447-.933,2.381-1.648,5.386-2.9,7.55.217,2.228-2.8,11.424-3.365,14.437-.64,3.394-1.387,14.171-2.233,16.092.024.513.124.761-.237,1.188a2.58,2.58,0,0,1-1,.576c.785-2.452.633-5.809.874-8.407q.489-5.364,1.483-10.657c.464-2.49,3.492-11.845,3.269-13.632" transform="translate(-4485.046 -1947.232)" fill="#343e8d"/>
            </g>
          </g>
          <g id="Grupo_1107217" data-name="Grupo 1107217" transform="translate(0 0.004)">
            <g id="Grupo_1107216" data-name="Grupo 1107216" transform="translate(0 0)" clip-path="url(#clip-path-2)">
              <path id="Trazado_886924" data-name="Trazado 886924" d="M4778.546,2632.243c1.865-.526,3.964-4.021,5.386-5.507a45.391,45.391,0,0,1,7.976-6.33c9.163-5.96,17.944-7.8,28.736-6.608-.984,1.484-4,2.848-5.52,3.993a60.741,60.741,0,0,0-8.967,8.522,114.249,114.249,0,0,0-9.942,13.427c-1.5,2.31-3.72,6.7-5.526,8.47a3.408,3.408,0,0,1,1.924.4c-.082,2.338-1.648,14.41-2.588,15.854l.01.713c-.95.764-20.759.6-23.206.277a3.935,3.935,0,0,1-.7-.171c.437-1.6-1.607-14.868-2.44-16.922,3.51-.155,7.429.449,10.86-.169.021-.04.041-.082.065-.122s.055-.089.08-.135c.678-1.275.578-8.123.178-9.478a3.6,3.6,0,0,0,.331-.3c.87-.909,2.158-2.948,2.106-4.153a2.567,2.567,0,0,0,1-.576c.362-.428.262-.675.238-1.189" transform="translate(-4344.057 -2383.234)" fill="#35b1aa"/>
              <path id="Trazado_886925" data-name="Trazado 886925" d="M4778.66,2688.29c.038-.032.076-.063.114-.1,1.569-1.419,4.022-6.857,5.439-9,4.439-6.689,17.873-21.423,26.166-21.875-2.206,1.356-4.721,2.15-6.909,3.53-7.248,4.573-13.7,11.783-18.286,18.973-1.47,2.307-3.379,6.841-5.331,8.468,2.945.035,8.193.506,10.835-.079a3.408,3.408,0,0,1,1.924.4c-.082,2.338-1.648,14.41-2.588,15.854l.01.713c-.95.763-20.759.6-23.206.277a3.994,3.994,0,0,1-.7-.171c.438-1.6-1.607-14.869-2.439-16.922,3.51-.156,7.429.449,10.86-.17,1.37.045,2.739.106,4.109.093" transform="translate(-4344.057 -2423.238)" fill="#142254"/>
              <path id="Trazado_886926" data-name="Trazado 886926" d="M2868.1,39.369c.172-.55.634-1.451.283-1.972-.779-1.158-1.942-2.158-2.806-3.275a20.222,20.222,0,0,1-4.29-14.418,22.312,22.312,0,0,1,7.965-14.884q.408-.333.831-.646t.862-.6q.439-.291.891-.56t.918-.516q.465-.247.941-.47t.964-.423q.487-.2.983-.375t1-.326q.505-.151,1.016-.277T2878.687.4q.516-.1,1.038-.175T2880.77.1q.524-.049,1.05-.072T2882.872,0q.526,0,1.052.031t1.049.083A21.673,21.673,0,0,1,2899.258,8q.326.415.63.845t.588.875q.283.445.545.9t.5.928q.24.47.455.951t.408.972q.193.491.36.991t.311,1.007q.144.507.262,1.021t.212,1.033q.094.519.162,1.042t.11,1.048q.042.525.059,1.053t.008,1.054q-.009.527-.044,1.053t-.094,1.05a20.917,20.917,0,0,1-8.2,14.233c-4.089,3.131-10.2,5.227-15.379,4.46-1.76-.26-4.811-1.421-6.427-.807-.044.017-.089.03-.133.045-1.374,1.292-5.107,2.045-6.911,2.631Z" transform="translate(-2609.159 -0.005)" fill="#f06754"/>
              <path id="Trazado_886927" data-name="Trazado 886927" d="M2970.138,156.314a3.119,3.119,0,0,1,2,.347,1.63,1.63,0,0,1,.714,1.23,2.928,2.928,0,0,1-.991,2.223,3.212,3.212,0,0,1-2.009-.456,1.767,1.767,0,0,1-.75-1.455,2.948,2.948,0,0,1,1.034-1.889" transform="translate(-2707.554 -142.53)" fill="#fefefe"/>
              <path id="Trazado_886928" data-name="Trazado 886928" d="M3132.082,155.955a3.6,3.6,0,0,1,2.045.363,1.834,1.834,0,0,1,.823,1.413,2.883,2.883,0,0,1-1.083,2.106,3,3,0,0,1-2.061-.491,1.691,1.691,0,0,1-.663-1.247,2.946,2.946,0,0,1,.939-2.144" transform="translate(-2855.315 -142.217)" fill="#fefefe"/>
              <path id="Trazado_886929" data-name="Trazado 886929" d="M3214.278,153.4a2.815,2.815,0,0,1,1.827,1,2.082,2.082,0,0,1,.282,1.77c-.223.8-.877,1.165-1.559,1.536a2.9,2.9,0,0,1-1.667-.856,1.969,1.969,0,0,1-.379-1.686,3.081,3.081,0,0,1,1.5-1.764" transform="translate(-2929.721 -139.884)" fill="#fefefe"/>
              <path id="Trazado_886930" data-name="Trazado 886930" d="M3052.52,153.5a3.069,3.069,0,0,1,1.984.821,1.966,1.966,0,0,1,.449,1.669,1.76,1.76,0,0,1-3.3.9,1.962,1.962,0,0,1-.433-1.634,3.069,3.069,0,0,1,1.3-1.757" transform="translate(-2782.413 -139.98)" fill="#fefefe"/>
              <path id="Trazado_886931" data-name="Trazado 886931" d="M3019.441,257.235c1.845-.3,14.8-.521,15.81.054.292.166.341.773.423,1.088-2.248.266-14.226.494-15.795-.113Z" transform="translate(-2753.458 -234.298)" fill="#fefefe"/>
              <path id="Trazado_886932" data-name="Trazado 886932" d="M4522.657,2231.177l31.654-.05a2.7,2.7,0,0,1,.438,1.5c.158,4.2.006,8.469,0,12.677l.027,23.145.011,14.261a38.407,38.407,0,0,1-.193,7.1c.4,1.356.5,8.2-.179,9.479-.024.046-.055.09-.079.135s-.045.082-.065.122c-3.431.619-7.35.014-10.86.169.833,2.053,2.878,15.317,2.44,16.921-1.091.559-20.873.185-23.719.025.051-.056.1-.11.15-.169a1.608,1.608,0,0,0,.368-1.062c.222-5.463.079-10.981.1-16.452l.014-35.691.049-21.257a89.934,89.934,0,0,0-.148-10.853" transform="translate(-4123.773 -2034.587)" fill="#cc6c2d"/>
              <path id="Trazado_886933" data-name="Trazado 886933" d="M4632.676,2743.541c2.367-.294,11.888-.441,13.936.222a1.427,1.427,0,0,1,1.066.817,3.285,3.285,0,0,1-1.411.92c-1.765.284-11.692.488-13.121.048a3.587,3.587,0,0,1-.647-.43c-.234-.706-.062-.892.176-1.578" transform="translate(-4224.32 -2501.635)" fill="#c1ada2"/>
              <path id="Trazado_886934" data-name="Trazado 886934" d="M4631.342,2691.908c2.1-.321,13.22-.1,14.727.784l.151.763.1-.4-.819.819.413-.141-1.256.435c-2.492.011-11.944.652-13.6-.8-.217-.777-.094-.784.279-1.462" transform="translate(-4223.015 -2454.65)" fill="#c1ada2"/>
              <path id="Trazado_886935" data-name="Trazado 886935" d="M4575.126,2422.048c3.073-.02,19.975-.531,21.313.344.341.223.265.285.336.656a2.425,2.425,0,0,1-.368.624c-.636.665-1.272.546-2.112.571-3.913-.014-7.828-.053-11.744-.011a66.711,66.711,0,0,1-7.467-.011,2.192,2.192,0,0,1-1.823-.849l.152-.488a2.279,2.279,0,0,1,1.713-.834" transform="translate(-4170.402 -2208.538)" fill="#c1ada2"/>
              <path id="Trazado_886936" data-name="Trazado 886936" d="M4572.8,2369.845c3.39.014,20.753-.551,22.466.718l.055.674c-.35.636-.546.638-1.19.932-1.686.16-20.515.029-21.559-.427a1.534,1.534,0,0,1-1.066-1.05,2.266,2.266,0,0,1,1.293-.847" transform="translate(-4168.798 -2160.982)" fill="#c1ada2"/>
              <path id="Trazado_886937" data-name="Trazado 886937" d="M4587.12,2313.97c2.773.021,5.554-.189,8.323-.118a3.744,3.744,0,0,1,2.691.73c.2.579.248.562,0,1.11-2.05,1.469-10.253.761-13.011.733-1.864-.025-3.729.031-5.594.043-1.477.009-3.6.25-4.7-.834a1.4,1.4,0,0,1,.365-1.306c1.239-.713,9.93-.346,11.93-.357" transform="translate(-4171.807 -2110.011)" fill="#c1ada2"/>
              <path id="Trazado_886938" data-name="Trazado 886938" d="M3947.583,2166.47c1.969.066,12.746-.31,13.557.332.785,1.194.568,3.98.337,5.368a89.828,89.828,0,0,1,.148,10.853l-.048,21.257-.014,35.691c-.017,5.471.124,10.989-.1,16.452a1.626,1.626,0,0,1-.369,1.062c-.048.059-.1.113-.151.169-5.238.333-10.629.093-15.884.093-5.784,0-11.651.207-17.425-.1-1.487.533-18.42.278-20.9.031a5.7,5.7,0,0,0,2.257-1.544,6.808,6.808,0,0,0,1.883-4.838c-.079-.754-.148-.748-.709-1.2a1.8,1.8,0,0,0,.131-.153c.709-1.045,6.427-28.837,6.916-31.918a2.738,2.738,0,0,0-.083-1.147c2.047-.192,8.62-.538,10.347-.026a2.35,2.35,0,0,0,.327-.725c.568-2.376.131-10.288.138-13.289.017-11.391.5-23.019-.144-34.383a3.685,3.685,0,0,0-.472-1.928c6.73.026,13.527.205,20.254-.058" transform="translate(-3562.593 -1975.58)" fill="#f8a747"/>
              <path id="Trazado_886939" data-name="Trazado 886939" d="M4218.6,3076.173c-1.99-.06-7.244.457-8.771-.38-.547-.3-.609-.328-.785-.925a1.582,1.582,0,0,1,.19-.194c1.235-.885,9.239-.367,11.127-.321-.172.79-.96,1.253-1.559,1.743Z" transform="translate(-3838.266 -2803.357)" fill="#fefefe"/>
              <path id="Trazado_886940" data-name="Trazado 886940" d="M4224.362,3036.136c-3.662-.2-9.982.738-13.248-.432l-.2-.483.283-.572a1.712,1.712,0,0,1,.611-.234c.868-.118,12.151-.156,12.729.142a3.067,3.067,0,0,1,.471.378l-.13.715Z" transform="translate(-3839.977 -2767.034)" fill="#fefefe"/>
              <path id="Trazado_886941" data-name="Trazado 886941" d="M4208.976,2475.964a140.621,140.621,0,0,1,17.453-.125,1.4,1.4,0,0,1,1.3.626,1.815,1.815,0,0,1-.619,1.289c-.84.516-16.235.325-17.825.011a2.855,2.855,0,0,1-.31-1.8" transform="translate(-3838.201 -2257.551)" fill="#fefefe"/>
              <path id="Trazado_886942" data-name="Trazado 886942" d="M4206.5,2534.013c2.322-.662,15.628-.328,18.65-.088l.2.443a2.265,2.265,0,0,1-.675,1.455c-1.8.448-15.067.3-17.538-.029-.585-.606-.527-.989-.636-1.78" transform="translate(-3835.952 -2310.438)" fill="#fefefe"/>
              <path id="Trazado_886943" data-name="Trazado 886943" d="M4207.474,2417.488c3.7-.539,11.327-.265,15.247-.153,1.252.035,2.653-.069,3.561.886-.114.75-.258.743-.822,1.208-1.287.567-15.984.269-17.708-.093a2.543,2.543,0,0,1-.278-1.848" transform="translate(-3836.798 -2204.237)" fill="#fefefe"/>
              <path id="Trazado_886944" data-name="Trazado 886944" d="M3917.133,2736.2c2.047-.191,8.62-.538,10.347-.025a2.6,2.6,0,0,1,.434,1.382c.406,7.367.038,14.931.042,22.317,0,2.944.451,11.132-.152,13.577a1.763,1.763,0,0,1-.12.375,4.086,4.086,0,0,1-.045,3.14c-1.487.533-18.42.278-20.9.031a5.694,5.694,0,0,0,2.257-1.544,6.807,6.807,0,0,0,1.883-4.838c-.079-.754-.148-.747-.709-1.2a1.789,1.789,0,0,0,.131-.153c.709-1.045,6.427-28.837,6.916-31.918a2.743,2.743,0,0,0-.083-1.148" transform="translate(-3562.593 -2494.901)" fill="#fefefe"/>
              <path id="Trazado_886945" data-name="Trazado 886945" d="M4163.861,2247.942a2.411,2.411,0,0,0,.568-.146,8.365,8.365,0,0,0,2.274-1.884c4.655-4.64,8.992-13.5,9.181-20.113.165-5.68-1.494-11.515-2.392-17.095-1.628-10.152-2.285-28.239,1.51-37.865a4.813,4.813,0,0,1,2.5-.292c.784,1.194.568,3.98.337,5.369a89.829,89.829,0,0,1,.148,10.853l-.048,21.257-.015,35.691c-.017,5.471.125,10.989-.1,16.452a1.622,1.622,0,0,1-.368,1.062c-.048.059-.1.113-.151.169-5.237.333-10.63.093-15.884.092-5.784,0-11.651.208-17.425-.1a4.087,4.087,0,0,0,.045-3.14c5.667-1.5,10.3-2.809,15.24-6.111l.2-.077c.6-.49,1.387-.954,1.559-1.743l1.555-.215c-.189-.117-.083-.027-.252-.338a2.671,2.671,0,0,0,.988-1.34Z" transform="translate(-3778.957 -1979.325)" fill="#e3813d"/>
              <path id="Trazado_886946" data-name="Trazado 886946" d="M4322.938,3072.394c1.852-.019,4.821-.411,6.521.178a1.072,1.072,0,0,1,.269,1.132,3.732,3.732,0,0,1-2.846.806,41.971,41.971,0,0,1-7.058-.158c.6-.49,1.387-.954,1.56-1.743Z" transform="translate(-3939.29 -2801.615)" fill="#c1ada2"/>
              <path id="Trazado_886947" data-name="Trazado 886947" d="M259.4,2332.927q2.273-13.4,4.927-26.724c.734-3.809,1.126-8.162,2.413-11.812a5.092,5.092,0,0,1,1.722-2.32,4.429,4.429,0,0,1,2.027-1c3.381-.655,14.365-.363,18.087-.013l.313-.14c2.872.013,5.756-.025,8.626.08,7.423.352,15,.519,22.428.455l34.594.212c4.81.016,11.152-.511,15.791.057a4.311,4.311,0,0,1,2.742,1.31,4.918,4.918,0,0,1,1.1,3.884c-.169,3.277-6.641,32.063-7.574,33.279a2.753,2.753,0,0,1,.083,1.148c-.489,3.081-6.208,30.873-6.916,31.918a1.7,1.7,0,0,1-.131.153c.561.449.63.443.709,1.2a6.808,6.808,0,0,1-1.882,4.838,5.7,5.7,0,0,1-2.257,1.544c2.481.247,19.414.5,20.9-.031,5.774.308,11.641.1,17.425.1,5.254,0,10.647.24,15.884-.092,2.846.16,22.628.534,23.719-.025a3.931,3.931,0,0,0,.7.172c2.447.318,22.257.487,23.206-.277l-.01-.713a1.706,1.706,0,0,0,.73.672c1.008.364,2.99.129,4.109.124,4.14-.019,15.911-.628,19.173.176a3.667,3.667,0,0,1,2.433,1.614,3.006,3.006,0,0,1,.107,2.336,3.427,3.427,0,0,1-1.741,2.118c-1.862.79-88.063.26-95.943.266l-367.908.177a10.065,10.065,0,0,1-3.977-.512,3.037,3.037,0,0,1-.275-.141,2.973,2.973,0,0,1-.259-.168,3.008,3.008,0,0,1-.24-.193c-.077-.069-.15-.141-.219-.217s-.135-.156-.2-.239-.118-.169-.171-.257a3,3,0,0,1-.258-.56,3.5,3.5,0,0,1,.286-2.787c.05-.091.1-.178.164-.263a3.064,3.064,0,0,1,.189-.246q.1-.118.212-.226t.233-.2a3.087,3.087,0,0,1,.521-.334c.092-.047.186-.09.283-.127s.194-.07.294-.1a18.939,18.939,0,0,1,4.507-.124c3.578.012,16.441.57,18.932-.109l.239-.563.24.857c2.49.689,20.722.349,24.347.092a1.522,1.522,0,0,0,.417-.974c.618-5.329,1-10.7,1.479-16.044q-4.416.036-8.831-.043l-1.051-.328-.007-1.261-.128.069-.089.917c-.37-.2-.309-.2-.478-.545-1.134-.933-2.342-6.779-2.8-8.469-.092-.053-.19-.1-.277-.159-.986-.7-1.309-2.414-1.5-3.53a5.487,5.487,0,0,1-.248.9,4.215,4.215,0,0,1-.8-2.218l-.121-1.791c-.927-3.906-1-11.043-1.236-15.281a2.62,2.62,0,0,0,.886-1.358c-.212-2.567-.222-5.587-.991-8.042a8.924,8.924,0,0,1,.813-1.477,1.378,1.378,0,0,1,1.254-.589l.114.442a2.976,2.976,0,0,0,.959.272l.056,1.954c.078,2.585-.031,5.334.285,7.893a12.276,12.276,0,0,1,1.82,3.358,7.716,7.716,0,0,1,2.587,1.563l.13-.1.947.029,1.355-.157c3.292,2.084,12.138,7.067,15.845,7.1a6.254,6.254,0,0,0,.29,2.906c1.135.994,2.432.753,3.875.74q12.075-.122,24.15-.1l2.612-.031,6.458-.089a16.774,16.774,0,0,1,2.7.209c3.5,4.168,20.219,12.314,25.861,13.831,2.3,3.169,5.317,8.042,8.392,10.39a18.978,18.978,0,0,0,6.542,4.687,18.628,18.628,0,0,0,14.739-.081c9.325-3.807,14.71-13.156,18.38-22.034,2.355.347,8.324.721,10.135,1.948l.412,1.9c.115,4.592.319,9.2.312,13.794,3.2.05,6.76.386,9.92-.02a5.69,5.69,0,0,1-.158-1.086c-.011-1.378,1.958-3.059,2.87-4a21.635,21.635,0,0,1,2.808-3.061c3.986-4.089,7.851-7.728,13.055-10.209,4.741-2.436,7.68-3.817,13-2.139,5.577,1.762,10.622,4.146,16.577,4.426.835-4.1,1.461-8.261,2.251-12.374" transform="translate(-12.059 -2088.894)" fill="#975167"/>
              <path id="Trazado_886948" data-name="Trazado 886948" d="M2240.743,3115.014c.561.449.63.443.709,1.2a6.809,6.809,0,0,1-1.883,4.838,5.706,5.706,0,0,1-2.257,1.543c-2.2.986-21.644.512-25.911.518l-80.658-.353-36.151.009c-6.122,0-12.445.323-18.546-.116,5.484-.417,11.178-.134,16.689-.13h30.1c4.224,0,10.672.608,14.677-.165a5.147,5.147,0,0,0,3.487-2.637,4.581,4.581,0,0,0,.2-.473c.534-1.59-.091-2.744-.813-4.117,7.765-.508,16.373-.054,24.239-.056l50.2-.015c8.6,0,17.336.332,25.925-.042" transform="translate(-1893.168 -2840.495)" fill="#0f6f7c"/>
              <path id="Trazado_886949" data-name="Trazado 886949" d="M1089.439,2813.685a16.805,16.805,0,0,1,2.7.209c3.5,4.168,20.219,12.313,25.861,13.831,2.3,3.169,5.317,8.042,8.392,10.389a18.972,18.972,0,0,0,6.542,4.688,18.629,18.629,0,0,0,14.739-.081c9.325-3.808,14.71-13.156,18.38-22.034,2.355.347,8.324.721,10.135,1.949l.411,1.9c.115,4.592.319,9.2.312,13.794-2.06-.042-6.856-.694-8.378.687-.069.063-.14.124-.209.186a4.962,4.962,0,0,0-.491,4.006,6.354,6.354,0,0,0,1.141,2.175,22.768,22.768,0,0,0,3.523,2.593c-3.034.28-6.213.124-9.261.126l-16.211.006c-20.477-.007-41.049-.444-61.515.041a162.658,162.658,0,0,0,3.928-34.462" transform="translate(-989.888 -2565.827)" fill="#fefefe"/>
              <path id="Trazado_886950" data-name="Trazado 886950" d="M2087.167,2332.927q2.273-13.4,4.927-26.724c.735-3.809,1.126-8.162,2.413-11.812a5.092,5.092,0,0,1,1.722-2.32,4.428,4.428,0,0,1,2.027-1c3.382-.655,14.365-.363,18.087-.013-3.581,1.324-10.708.418-14.813.673a7.26,7.26,0,0,0-3.873,5.088c-.722,2.782-1.089,5.759-1.6,8.593l-2.856,15.5q-3.174,16.745-6.048,33.544c-.352,2.073-.917,4.127-1.233,6.195a4.843,4.843,0,0,0,.092,2.378,2.505,2.505,0,0,0,1.022.5c.723,1.374,1.347,2.527.813,4.117a4.491,4.491,0,0,1-.2.473,5.147,5.147,0,0,1-3.487,2.637c-4.005.772-10.453.162-14.677.164h-30.1c-5.511,0-11.205-.286-16.689.13l-.268-.008a22.736,22.736,0,0,1-3.524-2.593,6.343,6.343,0,0,1-1.141-2.175,4.962,4.962,0,0,1,.491-4.007c.07-.062.14-.123.209-.185,1.521-1.381,6.318-.729,8.378-.687,3.2.05,6.76.386,9.92-.02a5.643,5.643,0,0,1-.157-1.086c-.012-1.378,1.958-3.059,2.87-4a21.6,21.6,0,0,1,2.808-3.061c3.986-4.089,7.851-7.728,13.055-10.209,4.741-2.436,7.68-3.817,13-2.139,5.577,1.762,10.623,4.146,16.577,4.426.835-4.1,1.461-8.261,2.251-12.374" transform="translate(-1839.822 -2088.894)" fill="#61cccc"/>
              <path id="Trazado_886951" data-name="Trazado 886951" d="M2410.531,3068.091c.71.045,1.9-.01,2.417.55a5.565,5.565,0,0,1,.606.849l-.618,1.38a4.464,4.464,0,0,1-.553.321c-1.539.768-2.737.136-4.258-.375a14.651,14.651,0,0,1,2.406-2.724" transform="translate(-2195.993 -2797.823)" fill="#f1ac88"/>
              <path id="Trazado_886952" data-name="Trazado 886952" d="M2325.746,3062.834a3.1,3.1,0,0,1,2.1,1.746,6.849,6.849,0,0,1,.362,1.837l-1.114.483a3.314,3.314,0,0,1-1.151.376,3.376,3.376,0,0,1-2.674-1.061l.221-.645a11.458,11.458,0,0,1,2.259-2.737" transform="translate(-2118.609 -2793.029)" fill="#f1ac88"/>
              <path id="Trazado_886953" data-name="Trazado 886953" d="M2323.487,3093.9c.447.463.464.614,1.126.664.642-.451.746-.622,1.553-.611l.924,1.276a3.312,3.312,0,0,1-1.151.376,3.375,3.375,0,0,1-2.674-1.06Z" transform="translate(-2118.609 -2821.362)" fill="#f1ac88"/>
              <path id="Trazado_886954" data-name="Trazado 886954" d="M2044.136,3091.43l1.267.071a2.413,2.413,0,0,1-1.981.979c-3.491.26-14.661.423-17.794-.158.07-.062.141-.123.21-.186,1.521-1.381,6.318-.729,8.378-.687,3.2.05,6.76.386,9.92-.02" transform="translate(-1847.191 -2818.95)" fill="#43bcc4"/>
              <path id="Trazado_886955" data-name="Trazado 886955" d="M2463.356,3023.694c2.754-1.758,9.223-5.56,12.349-5.812.453-.036.452.022.8.31l-.006,1.036c1.011,1.5,5.736,2.158,7.539,2.517l4.445-.167q-.355,1.718-.658,3.445l-6.986,0-13.982-.014-4.115.067Z" transform="translate(-2245.795 -2752.028)" fill="#e58166"/>
              <path id="Trazado_886956" data-name="Trazado 886956" d="M2505.6,3054.4a2.111,2.111,0,0,1-.373-.421c.971-1.487,5.909-3.331,7.65-3.875l7.267,1.635a1.684,1.684,0,0,1,.089,1.607,4.741,4.741,0,0,1-.651,1.068Z" transform="translate(-2284.541 -2781.417)" fill="#f06754"/>
              <path id="Trazado_886957" data-name="Trazado 886957" d="M2101.746,3169.724a5.148,5.148,0,0,1-3.487,2.637c-4.005.772-10.453.162-14.676.164h-30.1c-5.511,0-11.205-.286-16.689.13l-.268-.008a22.706,22.706,0,0,1-3.524-2.593c2.771-.58,15.109-.087,18.78-.089q24.982,0,49.962-.244" transform="translate(-1853.916 -2890.502)" fill="#35b1aa"/>
              <path id="Trazado_886958" data-name="Trazado 886958" d="M2252.67,2854.985c4.74-2.436,7.68-3.817,13-2.138,5.577,1.762,10.622,4.146,16.577,4.426q-1.285,6.557-2.41,13.144l-4.445.167c-1.8-.359-6.527-1.02-7.539-2.517l.006-1.036c-.344-.288-.344-.347-.8-.311-3.126.253-9.595,4.054-12.349,5.813a5.567,5.567,0,0,0-.606-.848c-.514-.561-1.706-.5-2.416-.55a14.672,14.672,0,0,0-2.406,2.724l-2.283.046-.254.35a6.841,6.841,0,0,0-.362-1.837,3.1,3.1,0,0,0-2.1-1.746,11.46,11.46,0,0,0-2.259,2.737l-.221.645-.656-.7-.1.035a4.27,4.27,0,0,1-3.634.745l-.908-.946-1.148.227-1.267-.071a5.674,5.674,0,0,1-.158-1.085c-.011-1.379,1.958-3.059,2.87-4.005a21.647,21.647,0,0,1,2.808-3.061c3.986-4.089,7.851-7.728,13.055-10.209" transform="translate(-2037.149 -2600.866)" fill="#f1ac88"/>
              <path id="Trazado_886959" data-name="Trazado 886959" d="M2382.207,2956.1a.921.921,0,0,1,.142-.346c2-2.94,13.683-12.592,16.943-13.426a1.091,1.091,0,0,1,1.092.14c-.416,1.257-6.049,4.445-7.577,5.627a50.976,50.976,0,0,0-5.909,5.235,14.663,14.663,0,0,0-2.407,2.724Z" transform="translate(-2172.358 -2683.062)" fill="#e58166"/>
              <path id="Trazado_886960" data-name="Trazado 886960" d="M2315.816,2923.232a6.029,6.029,0,0,1,1.158-2.293c2.522-3.669,12.17-13.341,16.58-14.137l.283.344a3.229,3.229,0,0,1-.2.678c-.426.526-6.563,4.676-7.819,5.763a76.684,76.684,0,0,0-6.863,6.959,11.464,11.464,0,0,0-2.259,2.737l-.221.645Z" transform="translate(-2111.815 -2650.741)" fill="#e58166"/>
              <path id="Trazado_886961" data-name="Trazado 886961" d="M2253.3,2895.8a2.073,2.073,0,0,1-.2.475c-.635.836-2.886,1.995-3.823,2.663-3.457,2.463-7.829,6.352-9.879,10.141.573.366.66.339.862,1.021q-.372.762-.717,1.538a7.476,7.476,0,0,1-2.123,2.341l-.908-.946-1.149.227-1.267-.071a5.671,5.671,0,0,1-.158-1.085c-.011-1.379,1.958-3.059,2.87-4l.472.916c3.321-3.28,11.566-12.806,16.02-13.215" transform="translate(-2037.148 -2640.708)" fill="#e58166"/>
              <path id="Trazado_886962" data-name="Trazado 886962" d="M2236.807,3035.416l.472.917a10.83,10.83,0,0,0-.811,3.609c.5-1.869,1.4-2.461,2.928-3.545.573.366.66.339.862,1.02q-.371.763-.717,1.538a7.477,7.477,0,0,1-2.123,2.342l-.908-.946-1.148.227-1.267-.071a5.672,5.672,0,0,1-.158-1.085c-.011-1.379,1.958-3.059,2.87-4.005" transform="translate(-2037.149 -2768.026)" fill="#f1ac88"/>
              <path id="Trazado_886963" data-name="Trazado 886963" d="M408.672,2523.01a8.949,8.949,0,0,1,.813-1.477,1.379,1.379,0,0,1,1.254-.589l.114.442a2.969,2.969,0,0,0,.959.272l.056,1.954c.078,2.585-.031,5.335.284,7.893a12.275,12.275,0,0,1,1.82,3.358,7.708,7.708,0,0,1,2.587,1.562l.13-.1.947.029,1.355-.157c3.292,2.083,12.138,7.067,15.845,7.1a6.254,6.254,0,0,0,.29,2.906c1.135.994,2.432.753,3.875.74q12.075-.121,24.15-.1l2.612-.031,6.458-.089a162.662,162.662,0,0,1-3.928,34.462c-5.265.223-10.589.062-15.86.048-3.879-.01-7.879.2-11.737-.155-2.342.233-14.021.457-15.623-.209l-.206-.683c.618-5.328,1-10.7,1.479-16.043q-4.416.036-8.831-.042l-1.051-.328-.007-1.26-.128.069-.089.917c-.37-.2-.309-.2-.478-.545-1.134-.933-2.342-6.779-2.8-8.47-.092-.053-.19-.1-.277-.159-.986-.7-1.309-2.414-1.5-3.53a5.5,5.5,0,0,1-.248.9,4.215,4.215,0,0,1-.8-2.218l-.121-1.791c-.927-3.906-1-11.043-1.236-15.281a2.617,2.617,0,0,0,.886-1.358c-.212-2.567-.222-5.587-.991-8.042" transform="translate(-372.672 -2298.874)" fill="#f06754"/>
              <path id="Trazado_886964" data-name="Trazado 886964" d="M677.591,2867.455a.426.426,0,0,1,.106.043c.867.713.886,14.186.93,16.253a17.588,17.588,0,0,1-4.622-1.808,9.215,9.215,0,0,1-2.558-3.562c-.047-.119-.092-.24-.133-.36s-.08-.244-.115-.367-.068-.247-.1-.372-.055-.25-.078-.376-.042-.253-.059-.38-.03-.254-.04-.382-.017-.256-.021-.383,0-.257,0-.385.008-.256.017-.384.021-.255.036-.382.034-.254.055-.38.046-.252.074-.376.059-.25.093-.373.071-.247.112-.369.083-.242.13-.361.1-.238.147-.354c1.207-2.722,3.382-3.9,6.024-4.942" transform="translate(-611.801 -2614.861)" fill="#fefefe"/>
              <path id="Trazado_886965" data-name="Trazado 886965" d="M797.293,2813.773l6.458-.089a162.658,162.658,0,0,1-3.928,34.462c-5.266.224-10.589.062-15.86.048-3.879-.011-7.879.2-11.737-.155,2.734-1.98,7.751-.339,13.251-5.437,7.84-7.267,8.786-18.807,9.2-28.8Z" transform="translate(-704.2 -2565.827)" fill="#cc4439"/>
              <path id="Trazado_886966" data-name="Trazado 886966" d="M408.672,2523.01a8.949,8.949,0,0,1,.813-1.477,1.379,1.379,0,0,1,1.254-.589l.114.442a2.969,2.969,0,0,0,.959.272l.056,1.954c.078,2.585-.031,5.335.284,7.893a12.275,12.275,0,0,1,1.82,3.358,7.708,7.708,0,0,1,2.587,1.562l.13-.1.947.029,1.355-.157c3.292,2.083,12.138,7.067,15.845,7.1a6.254,6.254,0,0,0,.29,2.906c1.135.994,2.432.753,3.875.74l-.167.085c-1.038.512-2.15.722-3.209,1.169a12.324,12.324,0,0,0-7.018,7.3q-.1.279-.184.564t-.156.573q-.071.288-.128.579t-.1.585q-.042.294-.07.589t-.041.592q-.013.3-.012.593t.017.593q.016.3.046.592t.075.588q.045.293.1.584c.039.194.084.387.132.579s.1.382.161.571.121.376.188.563.139.37.215.552.157.363.243.541a11.876,11.876,0,0,0,6.96,6.118,13.785,13.785,0,0,0,3.631.61c.274,3.212.5,6.438,1.008,9.623-2.342.233-14.021.457-15.623-.209l-.206-.683c.618-5.328,1-10.7,1.479-16.043q-4.416.036-8.831-.042l-1.051-.328-.007-1.26-.128.069-.089.917c-.37-.2-.309-.2-.478-.545-1.134-.933-2.342-6.779-2.8-8.47-.092-.053-.19-.1-.277-.159-.986-.7-1.309-2.414-1.5-3.53a5.5,5.5,0,0,1-.248.9,4.215,4.215,0,0,1-.8-2.218l-.121-1.791c-.927-3.906-1-11.043-1.236-15.281a2.617,2.617,0,0,0,.886-1.358c-.212-2.567-.222-5.587-.991-8.042" transform="translate(-372.672 -2298.874)" fill="#fefefe"/>
              <path id="Trazado_886967" data-name="Trazado 886967" d="M492.749,2695.583l.947.029c-.424,4.761-.71,9.475-.735,14.259-.706-2.285.465-5.1-.883-7.1.1-2.373.322-4.73.542-7.094Z" transform="translate(-448.731 -2458.13)" fill="#343e8d"/>
              <path id="Trazado_886968" data-name="Trazado 886968" d="M490.592,2777.213c1.348,2,.177,4.812.883,7.1.077,2.99.645,7.5.327,10.321l.288,3.173-1.051-.327-.006-1.261-.128.069a163.725,163.725,0,0,1-.313-19.07" transform="translate(-447.245 -2532.568)" fill="#142254"/>
              <path id="Trazado_886969" data-name="Trazado 886969" d="M408.672,2523.01a8.949,8.949,0,0,1,.813-1.477,1.379,1.379,0,0,1,1.254-.589l.114.442a2.969,2.969,0,0,0,.959.272l.056,1.954c.078,2.585-.031,5.335.284,7.893a12.275,12.275,0,0,1,1.82,3.358,7.708,7.708,0,0,1,2.587,1.562c-.219,2.363-.445,4.721-.542,7.093a163.718,163.718,0,0,0,.313,19.07l-.089.917c-.37-.2-.309-.2-.478-.545-1.134-.933-2.342-6.779-2.8-8.47-.092-.053-.19-.1-.277-.159-.986-.7-1.309-2.414-1.5-3.53a5.5,5.5,0,0,1-.248.9,4.215,4.215,0,0,1-.8-2.218l-.121-1.791c-.927-3.906-1-11.043-1.236-15.281a2.617,2.617,0,0,0,.886-1.358c-.212-2.567-.222-5.587-.991-8.042" transform="translate(-372.672 -2298.874)" fill="#fefefe"/>
              <path id="Trazado_886970" data-name="Trazado 886970" d="M443.352,2764.126a3.459,3.459,0,0,1,.829-2.085c.385,4.18.712,8.393,1.455,12.527.484,2.693,1.538,5.561,1.755,8.253-1.134-.933-2.342-6.779-2.8-8.47-.432-3.413-.925-6.795-1.235-10.224" transform="translate(-404.297 -2518.733)" fill="#142254"/>
              <path id="Trazado_886971" data-name="Trazado 886971" d="M408.672,2523.01a8.949,8.949,0,0,1,.813-1.477,1.379,1.379,0,0,1,1.254-.589l.114.442a2.969,2.969,0,0,0,.959.272l.056,1.954c.078,2.585-.031,5.335.284,7.893l-.017,1.867.135,3.426a38.119,38.119,0,0,1,.284,5.384,3.458,3.458,0,0,0-.829,2.085c.31,3.43.8,6.811,1.235,10.224-.092-.053-.19-.1-.277-.159-.986-.7-1.309-2.414-1.5-3.53a5.5,5.5,0,0,1-.248.9,4.215,4.215,0,0,1-.8-2.218l-.121-1.791c-.927-3.906-1-11.043-1.236-15.281a2.617,2.617,0,0,0,.886-1.358c-.212-2.567-.222-5.587-.991-8.042" transform="translate(-372.672 -2298.874)" fill="#fefefe"/>
              <path id="Trazado_886972" data-name="Trazado 886972" d="M423.891,2789.534q.01-.415.032-.83c.046-.887.01-1.958.671-2.555l.466,6.5a5.5,5.5,0,0,1-.248.9,4.214,4.214,0,0,1-.8-2.218Z" transform="translate(-386.55 -2540.718)" fill="#142254"/>
              <path id="Trazado_886973" data-name="Trazado 886973" d="M410.75,2635.689c.444,4.41.6,8.85,1.052,13.254-.66.6-.625,1.668-.671,2.555-.014.276-.025.552-.032.829-.927-3.906-1-11.043-1.236-15.281a2.619,2.619,0,0,0,.886-1.358" transform="translate(-373.759 -2403.511)" fill="#343e8d"/>
              <path id="Trazado_886974" data-name="Trazado 886974" d="M433.273,2525.959a2.981,2.981,0,0,0,.959.272l.056,1.954c.078,2.585-.031,5.335.285,7.893l-.017,1.866.135,3.427a38.147,38.147,0,0,1,.284,5.384,3.457,3.457,0,0,0-.829,2.085,38.534,38.534,0,0,1-.174-4.006,32.843,32.843,0,0,1-.268-5c-.617-4.177-.408-9.588-.432-13.871" transform="translate(-395.092 -2303.447)" fill="#343e8d"/>
              <path id="Trazado_886975" data-name="Trazado 886975" d="M2823.387,2293.381c2.872.013,5.756-.025,8.626.08,7.423.352,15,.519,22.427.454l34.594.212c4.81.016,11.152-.51,15.791.057a4.31,4.31,0,0,1,2.743,1.31,4.92,4.92,0,0,1,1.1,3.884c-.169,3.277-6.641,32.063-7.574,33.279a2.744,2.744,0,0,1,.083,1.148c-.489,3.082-6.208,30.874-6.916,31.918a1.752,1.752,0,0,1-.131.153c-8.589.373-17.322.041-25.925.041l-50.2.015c-7.867,0-16.474-.453-24.239.055a2.5,2.5,0,0,1-1.022-.5,4.848,4.848,0,0,1-.092-2.377c.317-2.068.881-4.122,1.233-6.195q2.874-16.8,6.048-33.544l2.856-15.5c.511-2.834.878-5.812,1.6-8.593a7.259,7.259,0,0,1,3.872-5.088c4.105-.255,11.232.65,14.813-.674Z" transform="translate(-2546.552 -2091.357)" fill="#35b1aa"/>
              <path id="Trazado_886976" data-name="Trazado 886976" d="M3387.692,2656.909a7.476,7.476,0,0,1,3.486.492,6.07,6.07,0,0,1,3.42,3.482,7.61,7.61,0,0,1-.359,5.895c-1.129,2.409-2.922,3.545-5.349,4.407a6.9,6.9,0,0,1-3.8-.482,5.868,5.868,0,0,1-3.153-3.42,7.7,7.7,0,0,1,.371-5.975,8.506,8.506,0,0,1,5.383-4.4" transform="translate(-3083.624 -2422.839)" fill="#fefefe"/>
              <path id="Trazado_886977" data-name="Trazado 886977" d="M3241.182,144.664a48.476,48.476,0,0,1,34.5,12.688,47.366,47.366,0,0,1,13.677,22.2,30.628,30.628,0,0,1,1.422,6.688,2.921,2.921,0,0,1-.093.79,48.452,48.452,0,0,1,11.269,3.878c11.108,4.972,20.7,11.68,27.793,21.734q.42.6.829,1.209t.8,1.229q.389.619.765,1.248t.736,1.267q.361.638.705,1.285t.671,1.3q.33.655.64,1.319t.606,1.334q.3.67.575,1.348t.54,1.362q.262.684.506,1.375t.472,1.387q.227.7.437,1.4t.4,1.409q.189.707.364,1.418t.334,1.427q.154.716.3,1.435t.258,1.442q.121.723.224,1.448t.189,1.453q.086.728.152,1.457t.117,1.461q.048.731.079,1.463t.045,1.465q.014.732.007,1.465t-.031,1.465q-.021.732-.066,1.464t-.1,1.462q-.063.73-.141,1.459t-.172,1.455q-.1.726-.21,1.45t-.248,1.445c-2.157,12.433-7.921,23.449-15.512,33.394-1.345,1.76-3.31,4.682-5.158,5.884a4.985,4.985,0,0,1-.6.335,4.89,4.89,0,0,0,.406-1.8c.282-7.072,0-14.235.048-21.319q.3-18.732.021-37.464c-.117-4.8.468-10.164-.193-14.874a2.35,2.35,0,0,0-1.793-.53,4.7,4.7,0,0,0-.973.19c-.929-.192-20.884,8.675-23.375,9.766-21.778,9.545-43.907,18.281-65.785,27.605l-13.641,5.889c-1.971.829-4.687,1.541-6.442,2.71a2.078,2.078,0,0,0-.74.987c-.172,5.2-.644,40.232.144,41.785,3.052.617,2.833,3,4.508,3.471a24.3,24.3,0,0,0,3.654.15l-.227.028c-1.29.148-2.849-.227-4.026.289a2.268,2.268,0,0,0-.413,1.057c15.8.467,31.688.216,47.5.159,2.738-.01,15.181-.453,17.05.055-.612,2.085-7.064,5.179-8.974,6.224-.929.507-1.944.957-2.835,1.516-6.727.263-13.523.084-20.254.058a3.687,3.687,0,0,1,.472,1.928c.643,11.364.161,22.993.144,34.383-.007,3,.43,10.913-.138,13.289a2.341,2.341,0,0,1-.327.726c-1.727-.513-8.3-.166-10.347.026.932-1.216,7.4-30,7.574-33.279a4.919,4.919,0,0,0-1.1-3.884,4.313,4.313,0,0,0-2.743-1.31c-4.639-.567-10.981-.041-15.791-.057l-34.595-.212c-3.876-12.787-10.826-26.4-20.312-35.927.778-.591,1.535-1.223,2.279-1.855q.452-.38.886-.781t.845-.825q.413-.423.8-.866t.76-.9q.368-.462.713-.942t.665-.976q.32-.5.615-1.008t.564-1.038q.27-.526.512-1.065t.458-1.089q.215-.55.4-1.111c.125-.373.241-.75.347-1.129s.2-.761.291-1.145.165-.77.233-1.158.126-.778.175-1.168.087-.783.116-1.176c1-14-7.84-16.327-15.017-24.811-4.458-5.27-4.618-12.059-4.123-18.606a25.226,25.226,0,0,0,6.438-14.564c.793-8.525-2.268-15.83-7.6-22.265,3.9-1.355,10.279-2.047,14.486-2.819l1.735-.674c2.735.348,18.691-2.816,22.627-3.474a12.551,12.551,0,0,1,.241-3.065l.1.289c3.465.758,6.862,1.831,10.354,2.456.919-1.538,1.077-7.266,1.817-9.652.967-3.121,2.887-5.8,4.009-8.812.017-.046.034-.093.048-.139a42.807,42.807,0,0,0,2.79-3.666,25.522,25.522,0,0,1,4.618-4.781c7.649-6.585,15.949-8.069,25.684-7.335a6.216,6.216,0,0,0,.306-.641,3.069,3.069,0,0,0-.357-2.467c.23-1.741-1.8-8.334-2.388-10.573" transform="translate(-2877.179 -131.872)" fill="#d0e3f4"/>
              <path id="Trazado_886978" data-name="Trazado 886978" d="M3519.977,1127.849a4.9,4.9,0,0,1,2.039,1.851c.236.45.091.715-.021,1.167a4,4,0,0,1-1.8.3c-.013-1.109-.126-2.214-.219-3.318" transform="translate(-3209.902 -1028.497)" fill="#fefefe"/>
              <path id="Trazado_886979" data-name="Trazado 886979" d="M3453.348,1125.2l1.867.233c.094,1.1.207,2.209.22,3.319a6.156,6.156,0,0,1,2.858.558,1.63,1.63,0,0,1,.255,1.489,1.341,1.341,0,0,1-.847.927,5.655,5.655,0,0,1-1.954-.041c-.862,1.2-.007,2.612-1.223,3.6a4.079,4.079,0,0,1-1.634-.138,10.361,10.361,0,0,1-.5-3.037c-.578-.463-1.062-.314-1.77-.364a1.806,1.806,0,0,1-1.543-.829,2.152,2.152,0,0,1,.1-1.639,5.724,5.724,0,0,1,3.01-.6c.768-.842.281-2.342,1.168-3.472" transform="translate(-3145.14 -1026.082)" fill="#5798e2"/>
              <path id="Trazado_886980" data-name="Trazado 886980" d="M3691.967,2024.515a7.153,7.153,0,0,1-.971,1.228,4.4,4.4,0,0,1-3.148,1.606,3.506,3.506,0,0,1-2.247-1.2,4.821,4.821,0,0,1-1.318-3.746,3.223,3.223,0,0,1,1.139-2.231,4.1,4.1,0,0,1,3.048-.655c3.052.617,2.832,3,4.508,3.471a24.252,24.252,0,0,0,3.655.15l-.227.028c-1.29.148-2.849-.227-4.026.289a2.267,2.267,0,0,0-.413,1.057" transform="translate(-3359.714 -1841.579)" fill="#4453b1"/>
              <path id="Trazado_886981" data-name="Trazado 886981" d="M3384.283,1114.622a3.747,3.747,0,0,1-1.151,1.13,4.819,4.819,0,0,1-3.741.665,7.419,7.419,0,0,1-4.5-3.277,6.46,6.46,0,0,1,2.172-9.4,7.8,7.8,0,0,1,6.019-.764,4.063,4.063,0,0,1,2.532,1.471l-.874.229c-.887,1.131-.4,2.631-1.168,3.472a5.721,5.721,0,0,0-3.01.6,2.149,2.149,0,0,0-.1,1.639,1.8,1.8,0,0,0,1.543.829c.707.051,1.191-.1,1.77.364a10.361,10.361,0,0,0,.5,3.037" transform="translate(-3076.534 -1005.56)" fill="#fefefe"/>
              <path id="Trazado_886982" data-name="Trazado 886982" d="M3645.991,144.664a48.475,48.475,0,0,1,34.5,12.688,47.369,47.369,0,0,1,13.678,22.2,30.612,30.612,0,0,1,1.421,6.688,2.911,2.911,0,0,1-.093.79c2.3,5.02-.757,17.766-2.619,22.817a49.641,49.641,0,0,1-25.247,26.96q-.547.248-1.1.483t-1.108.456q-.557.221-1.118.428t-1.129.4q-.568.194-1.142.373t-1.146.345q-.578.165-1.156.316t-1.163.288q-.585.136-1.17.259t-1.177.23q-.588.107-1.184.2t-1.184.171q-.6.079-1.19.142t-1.194.113q-.6.049-1.194.083t-1.2.054q-.6.02-1.2.024t-1.2-.005q-.6-.01-1.2-.035t-1.2-.065q-.6-.039-1.194-.094t-1.191-.124q-.6-.069-1.19-.153t-1.184-.182q-.592-.1-1.18-.211t-1.173-.24q-.585-.127-1.167-.269t-1.163-.3q-.578-.156-1.153-.326t-1.146-.354q-.568-.184-1.136-.383t-1.125-.41q-.554-.205-1.1-.425t-1.087-.452q-.544-.233-1.081-.479t-1.063-.505q-.53-.26-1.053-.532t-1.039-.558q-.516-.286-1.026-.584t-1.011-.609q-.5-.311-.995-.634t-.978-.659q-.485-.336-.963-.683t-.943-.707q-.468-.359-.929-.73t-.909-.753q-.447-.382-.887-.775t-.871-.8q-.43-.4-.85-.819t-.829-.84q-.406-.425-.805-.86t-.788-.88q-.386-.445-.764-.9t-.74-.918q-.364-.464-.719-.936t-.7-.954q-.341-.481-.668-.971t-.647-.987q-.316-.5-.623-1t-.6-1.018q-.293-.512-.571-1.032t-.544-1.046q-.268-.527-.52-1.06t-.492-1.072a48.084,48.084,0,0,1-4.391-22.576c3.465.758,6.861,1.831,10.354,2.456.919-1.538,1.077-7.266,1.817-9.652.967-3.121,2.887-5.8,4.009-8.812.017-.046.034-.093.048-.139a42.866,42.866,0,0,0,2.791-3.666,25.512,25.512,0,0,1,4.618-4.781c7.65-6.585,15.949-8.069,25.684-7.335a6.22,6.22,0,0,0,.306-.641,3.067,3.067,0,0,0-.358-2.467c.231-1.741-1.8-8.334-2.388-10.573" transform="translate(-3281.988 -131.872)" fill="#4979cd"/>
              <path id="Trazado_886983" data-name="Trazado 886983" d="M4159.277,262.814c3.764-1.179,13.361,2.366,17,4.28a38.565,38.565,0,0,1,18.467,22.364c.933,3.025,2.784,12.25,1.383,14.805a2.017,2.017,0,0,1-.3.411c-2.257-1-6.737-1.518-9.342-2.065q-13.451-2.873-26.964-5.451l-.079-.214a4.817,4.817,0,0,0,.165-.529c.541-2.514.431-25.5.186-29.118a2.641,2.641,0,0,0-.467-1.376,6.224,6.224,0,0,0,.306-.641,3.072,3.072,0,0,0-.357-2.467" transform="translate(-3792.885 -239.448)" fill="#f06754"/>
              <path id="Trazado_886984" data-name="Trazado 886984" d="M3929.98,655.119q13.513,2.578,26.964,5.451c2.6.546,7.085,1.063,9.342,2.065.981,2.217-1.276,7.656-2.154,9.939a38.029,38.029,0,0,1-19.49,20.242q-.437.193-.877.375t-.888.353q-.443.171-.894.331t-.9.309q-.454.149-.909.286t-.918.264q-.46.126-.922.241t-.929.218q-.468.1-.936.2t-.936.172q-.471.08-.943.148t-.946.125q-.475.057-.949.1c-.317.03-.633.056-.95.078s-.636.04-.953.054-.637.024-.954.031-.637.009-.956.007-.634-.007-.953-.017-.635-.023-.953-.04-.633-.038-.95-.064-.636-.054-.953-.087-.632-.07-.946-.111-.632-.086-.946-.135-.628-.1-.94-.157-.624-.117-.936-.181-.623-.132-.933-.2-.618-.148-.926-.227-.617-.163-.922-.25-.61-.178-.915-.273-.6-.193-.906-.3-.6-.208-.9-.318-.595-.223-.891-.34a49.039,49.039,0,0,1-7.35-3.77c.75-.428,20.154-28.943,20.44-29.841.155-.421.134-.4-.038-.821a1.1,1.1,0,0,0,.489-.262,6.365,6.365,0,0,0,1.531-3.592" transform="translate(-3563.341 -597.41)" fill="#fcce7d"/>
              <path id="Trazado_886985" data-name="Trazado 886985" d="M3726.183,310.877a25.516,25.516,0,0,1,4.618-4.781c7.65-6.585,15.949-8.069,25.684-7.336a2.628,2.628,0,0,1,.468,1.376c.245,3.617.355,26.6-.186,29.118a5.094,5.094,0,0,1-.165.529l.079.214a6.372,6.372,0,0,1-1.531,3.592,1.1,1.1,0,0,1-.489.262c.172.42.193.4.038.821-.286.9-19.69,29.414-20.439,29.841-5.079-3.65-8.4-7.681-11.855-12.842-.375-2.391-2.6-5.626-3.259-8.307-.6-2.439-.664-8.39-1.442-9.9a2.5,2.5,0,0,0-.186-.32c.919-1.538,1.077-7.266,1.817-9.652.966-3.121,2.886-5.8,4.009-8.812.017-.046.034-.093.048-.139a42.838,42.838,0,0,0,2.791-3.666" transform="translate(-3390.042 -272.287)" fill="#f8a747"/>
              <path id="Trazado_886986" data-name="Trazado 886986" d="M3786.99,438.076c2.788.98,5.627,3.252,8.1,4.869,5.059,3.3,10.165,6.5,15.289,9.7a65.712,65.712,0,0,0,7.03,4.335l.079.214a6.375,6.375,0,0,1-1.531,3.592,1.1,1.1,0,0,1-.489.262c-.816-.97-28.829-18.3-31.269-19.308a42.7,42.7,0,0,0,2.79-3.666" transform="translate(-3450.849 -399.486)" fill="#fefefe"/>
              <path id="Trazado_886987" data-name="Trazado 886987" d="M3772.989,725.152c4.339-1.374,31.224-17.273,32.294-17-.286.9-19.69,29.414-20.44,29.841-5.079-3.65-8.4-7.681-11.854-12.842" transform="translate(-3440.625 -645.769)" fill="#0f6f7c"/>
              <path id="Trazado_886988" data-name="Trazado 886988" d="M3815.879,310.877a25.507,25.507,0,0,1,4.617-4.781c7.649-6.585,15.949-8.069,25.684-7.336a2.627,2.627,0,0,1,.468,1.376c.245,3.617.355,26.6-.186,29.118a4.979,4.979,0,0,1-.165.529,65.693,65.693,0,0,1-7.03-4.335c-5.124-3.2-10.23-6.4-15.289-9.7-2.474-1.617-5.312-3.889-8.1-4.869" transform="translate(-3479.738 -272.287)" fill="#0f6f7c"/>
              <path id="Trazado_886989" data-name="Trazado 886989" d="M138.053,259.8a73.054,73.054,0,0,1-6.908-9.216c-9.419-13.982-15.762-29.448-17.64-46.282q-.131-1.279-.23-2.56t-.168-2.565q-.068-1.284-.1-2.568t-.042-2.57q0-1.285.022-2.57t.084-2.569q.058-1.284.147-2.566t.21-2.562q.121-1.279.273-2.556t.335-2.548q.183-1.272.4-2.539t.46-2.529q.245-1.262.521-2.517t.583-2.5q.307-1.248.644-2.489t.7-2.472q.367-1.232.765-2.454t.825-2.434q.427-1.212.884-2.414t.943-2.391q.486-1.19,1-2.367t1.059-2.342q.544-1.165,1.116-2.316t1.173-2.287q.6-1.136,1.228-2.258t1.283-2.227q.655-1.106,1.337-2.2t1.391-2.162q.709-1.072,1.444-2.127t1.495-2.091q.76-1.036,1.545-2.054t1.6-2.015c22.993-28.625,58.51-43.387,92.916-53.152,12.886-3.657,25.76-6.87,39.107-8.312,45.32-4.9,59.908,5.445,93.5,32.479l-1.416,5.021c1.8-.586,5.537-1.339,6.911-2.631.035.065.069.132.1.2,2.46,4.437,7.781,8.5,6.234,14.3a7.673,7.673,0,0,1-2.274,3.724,55.61,55.61,0,0,1,9.433,8.174c5.337,6.435,8.4,13.74,7.605,22.265a25.232,25.232,0,0,1-6.438,14.564c-.5,6.546-.335,13.335,4.123,18.606,7.177,8.484,16.017,10.809,15.017,24.811q-.043.589-.116,1.176t-.175,1.169q-.1.582-.232,1.158t-.29,1.145q-.159.569-.347,1.129t-.4,1.111q-.215.55-.458,1.089t-.512,1.065q-.269.526-.565,1.038t-.615,1.009q-.32.5-.665.976t-.713.942q-.369.462-.759.905t-.8.866q-.413.423-.846.825t-.886.781c-.744.632-1.5,1.265-2.279,1.855,9.486,9.528,16.436,23.141,20.313,35.927-7.432.065-15-.1-22.428-.454-2.87-.1-5.754-.066-8.626-.08l-.313.139c-3.722-.349-14.706-.642-18.087.013a4.435,4.435,0,0,0-2.027,1,5.093,5.093,0,0,0-1.722,2.321c-1.287,3.65-1.679,8-2.413,11.812q-2.654,13.327-4.927,26.725c-.79,4.113-1.416,8.274-2.251,12.374-5.955-.28-11-2.664-16.578-4.425-5.316-1.679-8.255-.3-13,2.139-5.2,2.481-9.069,6.12-13.055,10.209a21.65,21.65,0,0,0-2.808,3.061c-.912.946-2.881,2.626-2.87,4.005a5.684,5.684,0,0,0,.158,1.085c-3.16.406-6.72.07-9.92.02.007-4.592-.2-9.2-.312-13.794l-.412-1.9c-1.811-1.227-7.78-1.6-10.135-1.949-3.67,8.878-9.055,18.227-18.38,22.035a18.63,18.63,0,0,1-14.739.081,18.972,18.972,0,0,1-6.542-4.687c-3.075-2.347-6.092-7.22-8.392-10.389-5.642-1.517-22.366-9.663-25.861-13.831a16.831,16.831,0,0,0-2.7-.209l-6.458.089-2.612.031q-12.076-.024-24.15.1c-1.442.013-2.74.254-3.875-.74a6.252,6.252,0,0,1-.29-2.906c-3.707-.036-12.553-5.019-15.845-7.1l-1.355.157-.947-.029-.13.1a7.713,7.713,0,0,0-2.587-1.562,12.28,12.28,0,0,0-1.82-3.358c-.316-2.558-.206-5.308-.285-7.893l-.056-1.954a2.973,2.973,0,0,1-.959-.273l-.114-.442c.063-2.313.218-4.612.39-6.919l.1-1.747c-.94-1.567-1.39-3.881-2.2-5.606a5.533,5.533,0,0,1-1.054-1.634c.016-1.826-.158-3.676-.261-5.5" transform="translate(-103.01 -59.13)" fill="#d0e3f4"/>
              <path id="Trazado_886990" data-name="Trazado 886990" d="M437.065,2385.607a15.192,15.192,0,0,1,.5,4.1c-.05,1.017-.063,2.058-.174,3.068a3.222,3.222,0,0,0-.82-2.164l.1-1.747c.1-1.089.257-2.172.4-3.256" transform="translate(-398.11 -2175.458)" fill="#142254"/>
              <path id="Trazado_886991" data-name="Trazado 886991" d="M432.53,2442.4a3.222,3.222,0,0,1,.82,2.164c-.108,1.829-.141,3.639-.137,5.469a2.958,2.958,0,0,1-.959-.272l-.114-.441c.063-2.313.219-4.612.39-6.919" transform="translate(-394.073 -2227.245)" fill="#142254"/>
              <path id="Trazado_886992" data-name="Trazado 886992" d="M707.44,1099.6l.75-.452c0-.09-.022-.429-.035-.507s-.044-.182-.066-.273c.675-.958,1.963-1.219,3.02-1.589l-.011,4.063c-1.231.123-2.493.314-3.728.365Z" transform="translate(-645.059 -1000.167)" fill="#d0e3f4"/>
              <path id="Trazado_886993" data-name="Trazado 886993" d="M443.864,2251.978l1.026.244-.016.251c-1.291,5.056-1.777,10.221-2.5,15.375a15.187,15.187,0,0,0-.5-4.1c-.28-3,1.284-8.757,1.99-11.772" transform="translate(-402.919 -2053.601)" fill="#343e8d"/>
              <path id="Trazado_886994" data-name="Trazado 886994" d="M383.164,1979.012l.91-.221c.078,4.685.427,9.354.74,14.028a4.8,4.8,0,0,1-.835,2.269c-.451-5.333-.875-10.721-.815-16.076" transform="translate(-349.406 -1804.479)" fill="#142254"/>
              <path id="Trazado_886995" data-name="Trazado 886995" d="M393.307,2138.037q.737,9.716.949,19.458a5.526,5.526,0,0,1-1.054-1.634c.016-1.826-.158-3.676-.261-5.5.047-3.324-.322-6.73-.47-10.056a4.8,4.8,0,0,0,.835-2.269" transform="translate(-357.899 -1949.698)" fill="#343e8d"/>
              <path id="Trazado_886996" data-name="Trazado 886996" d="M847.437,2491.18c1.833-2,3.781-2.294,6.287-3.061,2.9,6.025,3.422,14.635,4.388,21.274l-.9.026c-.589-4.275-.907-9.007-2.015-13.152-2.566-1.733-5.465-2.978-7.757-5.087" transform="translate(-772.786 -2268.94)" fill="#35b1aa"/>
              <path id="Trazado_886997" data-name="Trazado 886997" d="M998.454,2406.107c1.549.356,3.738.408,5.067,1.211a1.69,1.69,0,0,1-.2,1.556c-1.346,2.705-4.173,5.269-6.235,7.44-1.351,6.028-2.09,12.059-3.119,18.133,3.528-.025,7.186-.258,10.7.022-3.731.333-7.626.144-11.375.112l-.187-.014c.723-2.407.813-5.264,1.208-7.764,1.083-6.852,2.071-14.075,4.145-20.7" transform="translate(-905.618 -2194.153)" fill="#35b1aa"/>
              <path id="Trazado_886998" data-name="Trazado 886998" d="M1533.187,1042.453c2.664-.332,23.646-.332,25.576.081.545.116.756.474,1.019.922a2.943,2.943,0,0,1-.489,1.881,77.592,77.592,0,0,1-8.923.041c-4.994-.011-10.069.162-15.052-.109a2.639,2.639,0,0,1-2.284-.85,3.279,3.279,0,0,1,.153-1.968" transform="translate(-1397.904 -950.405)" fill="#4979cd"/>
            </g>
          </g>
          <g id="Grupo_1107219" data-name="Grupo 1107219" transform="translate(147.685 17.157)">
            <g id="Grupo_1107218" data-name="Grupo 1107218" clip-path="url(#clip-path-4)">
              <rect id="Rectángulo_404653" data-name="Rectángulo 404653" width="17.867" height="17.856" transform="translate(-5.856 3.736) rotate(-32.535)" fill="url(#linear-gradient)"/>
            </g>
          </g>
          <g id="Grupo_1107221" data-name="Grupo 1107221" transform="translate(0 0.004)">
            <g id="Grupo_1107220" data-name="Grupo 1107220" transform="translate(0 0)" clip-path="url(#clip-path-2)">
              <path id="Trazado_887000" data-name="Trazado 887000" d="M1533.656,1244.387c4.3-.034,31.7-.238,33.471.478.547.221.646.51.813,1.035a2.608,2.608,0,0,1-.869,1.627q-11.4-.142-22.792-.1c-2.61,0-8.257.475-10.514-.221-.652-.2-.8-.489-1.078-1.072a2.565,2.565,0,0,1,.968-1.744" transform="translate(-1397.673 -1134.721)" fill="#5798e2"/>
              <path id="Trazado_887001" data-name="Trazado 887001" d="M1533.125,1144.552c8.962-.2,17.989.076,26.957.109,5.745.021,11.885-.4,17.588.21a1.909,1.909,0,0,1,.978,1.051,2.476,2.476,0,0,1-.8,1.747c-10.7-.132-21.4-.056-32.1-.068-2.559,0-10.33.466-12.308-.188-.692-.229-.808-.523-1.082-1.125a2.81,2.81,0,0,1,.766-1.735" transform="translate(-1397.373 -1043.661)" fill="#5798e2"/>
              <path id="Trazado_887002" data-name="Trazado 887002" d="M949.3,1050.095c3.082,3.4,9.73,5.624,14.325,5.866l.006,4.956c-4.192,1.061-11.485,3.693-13.8,7.4-.024.039-.043.082-.064.123l-.577.118Z" transform="translate(-865.57 -957.592)" fill="#cc4439"/>
              <path id="Trazado_887003" data-name="Trazado 887003" d="M1598.875,342.866a21.167,21.167,0,0,1,2.421-5.141l.77.319c-3.454,7.227-4.744,14.685-1.97,22.439a27.877,27.877,0,0,0,6.044,9.547c.939,1,5.3,3.973,5.574,4.8-1.516.672-2.761,2.053-4.337,2.566a3.644,3.644,0,0,1-2.926-.537c-1.948-1.054-5.48-4.034-6.021-6.268-.525-2.167,1.181-4.356,2.26-6.08A51.3,51.3,0,0,1,1598,357.6c-1.521-.3-3.445-.521-4.745-1.4a3.929,3.929,0,0,1-1.583-2.917c-.3-2.24-.339-6.605,1.135-8.408,1.421-1.738,4.016-1.789,6.07-2.007" transform="translate(-1451.305 -307.975)" fill="#4979cd"/>
              <path id="Trazado_887004" data-name="Trazado 887004" d="M730.859,2728.192c3.749.032,7.644.22,11.375-.112.018,1.248-.031,2.543.092,3.784l.2.211,3.54.023a8.082,8.082,0,0,1-.129,3.286l-.5.445a16.774,16.774,0,0,0-2.7-.209l-6.459.089-2.612.031q-12.076-.025-24.151.1c-1.442.013-2.74.254-3.875-.74a6.257,6.257,0,0,1-.29-2.906,21.164,21.164,0,0,1,3.634-.1l-.04-3.915q9.332-.047,18.663.066l.9-.026,2.157-.038Z" transform="translate(-643.19 -2487.763)" fill="#595667"/>
              <path id="Trazado_887005" data-name="Trazado 887005" d="M1063.033,2773.435l3.54.023a8.081,8.081,0,0,1-.129,3.286l-.5.445a16.8,16.8,0,0,0-2.7-.209l-6.458.089v-3.581Z" transform="translate(-963.696 -2529.123)" fill="#142254"/>
              <path id="Trazado_887006" data-name="Trazado 887006" d="M992.587,2728.192c3.749.032,7.644.22,11.375-.112.018,1.248-.031,2.543.092,3.784l-11.722-.1c0-1.2.139-2.385.255-3.576" transform="translate(-904.917 -2487.763)" fill="#142254"/>
              <path id="Trazado_887007" data-name="Trazado 887007" d="M1311.361,675.713l8.207.048c.036,5.8.483,47.43-.245,48.686a46.17,46.17,0,0,0-7.782-3.671c-.392-14.992-.15-30.062-.18-45.063" transform="translate(-1195.8 -616.19)" fill="#fefefe"/>
              <path id="Trazado_887008" data-name="Trazado 887008" d="M544.293,998.978l14.364.034q-.067,5.7.071,11.4l-.069,1.606.083,15.81-14.446-.043,0-14.629Z" transform="translate(-496.346 -910.978)" fill="#f06754"/>
              <path id="Trazado_887009" data-name="Trazado 887009" d="M454.471,1158.643l0,14.629,14.446.043,3.617-.023,12.5-.053a34.837,34.837,0,0,0-4.442,10.622q-9.624-.208-19.25-.16c-4.046.035-8.206.292-12.24.07a3.319,3.319,0,0,1-1.807-.443c-1.391-1.367-1.383-3.93-1.394-5.738-.018-2.848-.543-16.9.842-18.309,2.156-1.144,5.328-.678,7.73-.639" transform="translate(-406.517 -1056.463)" fill="#fefefe"/>
              <path id="Trazado_887010" data-name="Trazado 887010" d="M241.6,1648a15.488,15.488,0,0,1-2.673-.637c-3.6-1.372-5.952-5.032-7.446-8.387-2.144-4.815-4.876-12.778-2.852-17.882a8.09,8.09,0,0,1,4.384-4.526,9.483,9.483,0,0,1,7.126-.132c3.952,1.675,6.648,5.745,8.2,9.581,1.9,4.7,2.947,10.418.834,15.221a11.785,11.785,0,0,1-6.572,6.416l-.095.124Z" transform="translate(-207.843 -1473.466)" fill="#f06754"/>
              <path id="Trazado_887011" data-name="Trazado 887011" d="M378.557,1806.223a106.739,106.739,0,0,0,.318-11.074c-.11-1.952-.58-3.887-.769-5.838,2.363,3.6,1.622,12.317,1.455,16.567l-.095.124Z" transform="translate(-344.798 -1631.691)" fill="#142254"/>
              <path id="Trazado_887012" data-name="Trazado 887012" d="M950.227,625.729h14.31l.036,43.249c-4.6-.242-11.243-2.462-14.325-5.866Z" transform="translate(-866.521 -570.608)" fill="#f06754"/>
              <path id="Trazado_887013" data-name="Trazado 887013" d="M711.149,819.1l14.056.007-.016,42.363-1.614,2.253-12.5.053-3.617.023-.083-15.809c1.234-.051,2.5-.242,3.728-.365l.011-4.062Z" transform="translate(-645.059 -746.945)" fill="#f06754"/>
              <path id="Trazado_887014" data-name="Trazado 887014" d="M711.1,1142.9c-.012,5.372-.169,10.784-.028,16.152l-3.617.023-.083-15.809c1.234-.051,2.5-.242,3.728-.365" transform="translate(-645.059 -1042.222)" fill="#d7dce7"/>
              <path id="Trazado_887017" data-name="Trazado 887017" d="M1150.945,469.717l14.174.041v18.105c.03,15-.213,30.071.18,45.063a42.065,42.065,0,0,0-14.293-1.708Z" transform="translate(-1049.558 -428.34)" fill="#f06754"/>
              <path id="Trazado_887020" data-name="Trazado 887020" d="M1025.007,1926.615a17.911,17.911,0,0,1,8.189,4.567l.416.165.279-.265c1.412-.584,2.569-1,4.092-.421,2.957,1.118,5.137,4.686,6.28,7.461,2.107,5.115.789,10.578.739,15.9a16.659,16.659,0,0,0,2.1,3.053,24.608,24.608,0,0,1,1.966,3.97c-2.639,4.62-7.582,7.292-12.587,8.65a29.728,29.728,0,0,1-4.413.789,60.806,60.806,0,0,1-2.69-5.454l-.3-1.062-.479-.938c-.966-1.143-7.748-2.461-9.56-3.06-2.471-.816-5.568-1.931-6.748-4.473-1.053-2.269-.469-4.659.323-6.892a16.332,16.332,0,0,1-.956-1.56,5.542,5.542,0,0,1-.437-3.995c.536-1.469,1.816-1.979,3.131-2.572a8.261,8.261,0,0,1-1.523-4.36,2.355,2.355,0,0,1,.844-1.815,6.546,6.546,0,0,1,4.352-.888l.409-.4a6.932,6.932,0,0,1-.595-.639,4.388,4.388,0,0,1-.833-2.735c.624-3.314,5.993-2.039,7.052-2.4a5.791,5.791,0,0,0,.945-.624" transform="translate(-921.957 -1756.899)" fill="#f1ac88"/>
              <path id="Trazado_887021" data-name="Trazado 887021" d="M1210.629,2266.453c2.506-.361,5.411.3,7.192-2.088.838-1.123,1.8-4.514,2.506-5.016a5.329,5.329,0,0,1-.2,4.221,7.715,7.715,0,0,1-4.527,3.745,9.267,9.267,0,0,1-4.491.076Z" transform="translate(-1103.984 -2060.323)" fill="#e58166"/>
              <path id="Trazado_887022" data-name="Trazado 887022" d="M1025.007,1926.615a17.911,17.911,0,0,1,8.189,4.567l.416.165c-.354.432-1.093,1.073-1.054,1.645.135,1.961,1.877,3.317.281,5.407-.054.071-.115.138-.172.208l-.319-.092a22.8,22.8,0,0,1-2.292.453c1.189.025,1.885.821,2.823,1.433a5.184,5.184,0,0,1,3.035,3.141,3.939,3.939,0,0,1-.588,3.045c-1.224,2.11-3.04,1.978-2.455,4.4a22.744,22.744,0,0,0,1.937,4.345,25.952,25.952,0,0,1-.884,3.446,6.167,6.167,0,0,1-4.143,1.986,3.212,3.212,0,0,1-2.3-1.093c-1.358-1.444-1.4-3.042-1.378-4.89-3.348-1.343-10.2-3.459-12.783-5.773-.18-.267-.41-.285-.7-.4a16.332,16.332,0,0,1-.956-1.56,5.542,5.542,0,0,1-.437-3.995c.536-1.469,1.816-1.979,3.131-2.572a8.261,8.261,0,0,1-1.523-4.36,2.355,2.355,0,0,1,.844-1.815,6.546,6.546,0,0,1,4.352-.888l.409-.4a6.932,6.932,0,0,1-.595-.639,4.388,4.388,0,0,1-.833-2.735c.624-3.314,5.993-2.039,7.052-2.4a5.791,5.791,0,0,0,.945-.624" transform="translate(-921.957 -1756.899)" fill="#e58166"/>
              <path id="Trazado_887023" data-name="Trazado 887023" d="M1202.9,2007.9c-.139-.1-.277-.192-.411-.3a4.409,4.409,0,0,1-1.925-2.884,2.277,2.277,0,0,1,.694-1.795,2.574,2.574,0,0,1,1.8-.72,2.2,2.2,0,0,1,1.67.843c1.028,1.26.672,2.931.461,4.4a22.486,22.486,0,0,1-2.292.454" transform="translate(-1094.798 -1825.832)" fill="#f8caba"/>
              <path id="Trazado_887024" data-name="Trazado 887024" d="M1198.427,2243.63a2.768,2.768,0,0,1,1.451.232,1.881,1.881,0,0,1,.962,1.118,3.466,3.466,0,0,1-.488,2.577,4.145,4.145,0,0,1-2.992,2,2.873,2.873,0,0,1-.456-.138,4.723,4.723,0,0,1-2.3-2.133,2.106,2.106,0,0,1,.181-1.8c.756-1.354,2.261-1.5,3.639-1.858" transform="translate(-1089.26 -2045.978)" fill="#f1ac88"/>
              <path id="Trazado_887025" data-name="Trazado 887025" d="M1200.853,2094.472a7.1,7.1,0,0,1-.809-2.4,2.331,2.331,0,0,1,.533-1.906c1.032-1.1,2.455-1.2,3.856-1.223,1.37.994,2.645,2.008,2.9,3.809a3.116,3.116,0,0,1-.608,2.457,2.757,2.757,0,0,1-2.052.968,6.118,6.118,0,0,1-3.821-1.709" transform="translate(-1094.313 -1904.932)" fill="#f1ac88"/>
              <path id="Trazado_887026" data-name="Trazado 887026" d="M1086.78,1926.615a17.911,17.911,0,0,1,8.189,4.567l-.632.687c-2.016,0-4.241-2.131-6.268-.643-.7,1.134-.392,2.238-.1,3.458a13.77,13.77,0,0,0,1.224,3.055c-2.975-1.584-5.94-3.277-8.983-4.72a6.968,6.968,0,0,1-.6-.639,4.391,4.391,0,0,1-.833-2.735c.624-3.314,5.993-2.039,7.052-2.4a5.781,5.781,0,0,0,.945-.624" transform="translate(-983.731 -1756.899)" fill="#f1ac88"/>
              <path id="Trazado_887027" data-name="Trazado 887027" d="M1012.618,2018.641a16.235,16.235,0,0,1-.956-1.56,5.541,5.541,0,0,1-.437-3.995c.536-1.469,1.816-1.979,3.131-2.571a8.265,8.265,0,0,1-1.523-4.36,2.354,2.354,0,0,1,.844-1.815,6.545,6.545,0,0,1,4.352-.888c3.447,2.1,7.058,3.942,10.65,5.783-1.051,1-2.043,1.876-2.066,3.441-.019,1.355.6,2.482.861,3.769-1.586-.661-11.724-5.363-12.262-5.447l.288.007-.633-.1-.049.311c2.992,2.521,11.992,5.552,16.036,7.754-.243,1.683-.311,3.657-1.6,4.905-2.643,1.136-12.041-3.245-15.1-4.474q-.423-.17-.841-.353c-.18-.267-.41-.285-.7-.4" transform="translate(-921.958 -1826.936)" fill="#f1ac88"/>
              <path id="Trazado_887028" data-name="Trazado 887028" d="M1690.577,133.248c.919-2.175,1.743-4.854,4.146-5.8,2.347-.925,5.637-.3,8.091-.122,1.983,1.82,2.658,3.635,3.412,6.171,1.557.663,3.117,1.317,4.635,2.067,1.632-1.012,2.858-1.741,4.851-1.285a11.651,11.651,0,0,1,6.556,5.042,5.15,5.15,0,0,1,.7,3.74,10.417,10.417,0,0,1-1.3,2.771c.956,2,1.868,4,2.7,6.06,2.449.881,3.87,1.466,5.141,3.853.066,2.736.7,6.591-1.278,8.788a9.227,9.227,0,0,1-3.971,2.162c-.724,1.862-1.425,3.736-2.259,5.552a14.628,14.628,0,0,1,2.46,5.154,14.927,14.927,0,0,1-6.272,7.02,5.161,5.161,0,0,1-4.08.1,13.461,13.461,0,0,1-2.6-1.583,36.424,36.424,0,0,1-6.341,2.741c-.625,1.846-1.3,3.956-3.192,4.884-1.722.847-6.225.922-8.019.238-1.486-.565-2.123-2.03-2.665-3.4q-.386-.992-.729-2c-1.876-.7-3.989-1.4-5.479-2.778-.273-.826-4.635-3.8-5.574-4.8a27.878,27.878,0,0,1-6.044-9.547c-2.775-7.754-1.485-15.212,1.97-22.439,2.744-4.141,6.06-7.023,9.879-10.159,1.734-.894,3.452-1.71,5.266-2.43" transform="translate(-1524.673 -115.767)" fill="#79b7f3"/>
              <path id="Trazado_887029" data-name="Trazado 887029" d="M1830.271,338.1a13.364,13.364,0,0,1,8.826,1.83q.289.182.569.379t.55.406q.27.21.529.433t.507.459q.248.236.484.483t.46.506q.223.259.434.529t.407.549q.2.28.38.569t.351.586q.169.3.322.6t.292.618q.138.313.261.632t.23.644q.107.325.2.655t.165.663q.078.339.138.682t.1.688q.043.345.069.692t.034.695q.008.347,0,.7t-.036.694q-.027.347-.072.692t-.106.688q-.062.342-.141.681t-.175.673q-.1.334-.208.663t-.242.652q-.129.323-.274.639t-.307.625q-.161.308-.337.608t-.368.59c-2.219,3.375-5.274,4.981-9.134,5.814a13.741,13.741,0,0,1-8.671-1.559,13.444,13.444,0,0,1-6.166-8.458q-.085-.331-.154-.665t-.12-.672q-.052-.338-.086-.677t-.051-.681q-.017-.341-.017-.682t.018-.682q.017-.341.052-.681t.086-.677q.052-.338.12-.672t.154-.665q.085-.331.188-.657t.22-.646q.118-.32.253-.634t.284-.621q.15-.307.316-.605t.346-.589a14.263,14.263,0,0,1,9.317-6.491" transform="translate(-1658.688 -308.22)" fill="#fefefe"/>
              <path id="Trazado_887030" data-name="Trazado 887030" d="M1911.184,410.482c2.31.353,7.051,4.07,9.117,5.528.892.63,2.349,1.573,2.547,2.7-1.132,1.195-3.187,2.03-4.637,2.837-1.531.97-5.146,3.795-6.846,3.678-.759-2.057-.987-12.831-.18-14.74" transform="translate(-1742.365 -374.323)" fill="#79b7f3"/>
              <path id="Trazado_887031" data-name="Trazado 887031" d="M860.813,1167.595a42.058,42.058,0,0,1,14.293,1.708,46.179,46.179,0,0,1,7.782,3.672c8.3,5.714,14.248,13.661,16.076,23.7q.076.4.143.8t.122.8q.056.4.1.805t.083.807q.036.4.062.809t.042.811q.016.405.022.812t0,.812q0,.406-.019.811t-.039.811q-.024.405-.059.81t-.079.808q-.045.4-.1.806t-.119.8q-.065.4-.139.8t-.159.8q-.084.4-.179.792t-.2.787q-.1.393-.218.782t-.237.776q-.124.386-.257.77t-.276.763q-.143.38-.295.756t-.314.748q-.161.372-.332.741t-.351.732q-.18.363-.369.723t-.386.713q-.2.354-.4.7t-.422.693q-.215.344-.439.682t-.456.672q-.252.36-.514.712a17.07,17.07,0,0,0,3.718,3.444c1.115-.47,2.083-.937,3.287-.408a9.77,9.77,0,0,1,3.217,3.477l-1.514,1.744-4.266,4.512-4.51,4.6-.644.174c-.865-.088-1.6-.974-2.214-1.539-.89-.815-2.453-2.047-2.511-3.341.728-1.405,2.26-2.609,3.384-3.716l-3.4-3.377a32.179,32.179,0,0,1-16.428,5.661l0,5.551-.279.265L870.6,1239a17.913,17.913,0,0,0-8.189-4.567c-9.908-2.507-17.863-6.912-23.661-15.61q-.245-.361-.481-.729t-.463-.741q-.227-.374-.445-.752t-.426-.764q-.208-.384-.406-.774t-.387-.784q-.189-.394-.367-.793t-.347-.8q-.169-.4-.327-.81t-.307-.818q-.148-.411-.286-.826t-.266-.833q-.128-.418-.245-.839t-.224-.845q-.106-.424-.2-.85t-.181-.855q-.085-.429-.16-.859t-.138-.863q-.064-.433-.117-.866t-.1-.869q-.042-.435-.073-.871t-.052-.873q-.02-.437-.03-.873t-.008-.874q0-.437.014-.874t.036-.874q.023-.436.057-.872t.079-.87q.045-.435.1-.868t.122-.865q.067-.432.144-.862t.166-.858a34.832,34.832,0,0,1,4.442-10.622l1.614-2.253,3.484-3.555.577-.118c.021-.041.04-.084.064-.123,2.317-3.71,9.61-6.342,13.8-7.4Z" transform="translate(-759.366 -1064.717)" fill="#4453b1"/>
              <path id="Trazado_887032" data-name="Trazado 887032" d="M843.556,1258.381c-5.71,9.79-9.58,19.653-6.6,31.087a34.975,34.975,0,0,0,16.61,21.606,36.648,36.648,0,0,0,17.528,4.934l-.076,5.97-.416-.164a17.91,17.91,0,0,0-8.189-4.567c-9.908-2.507-17.863-6.912-23.661-15.61q-.245-.361-.481-.729t-.463-.741q-.227-.373-.445-.752t-.426-.764q-.208-.384-.406-.773t-.387-.784q-.188-.394-.367-.793t-.347-.8q-.169-.4-.327-.81t-.307-.818q-.148-.411-.286-.826t-.266-.833q-.128-.418-.245-.839t-.224-.845q-.106-.424-.2-.85t-.181-.855q-.085-.429-.16-.859t-.138-.863q-.064-.432-.117-.866t-.1-.869q-.042-.435-.073-.871t-.052-.873q-.02-.437-.03-.873t-.008-.874q0-.437.014-.874t.036-.874q.023-.436.057-.872t.079-.871q.045-.434.1-.868t.122-.865q.067-.432.144-.862t.166-.858a34.832,34.832,0,0,1,4.442-10.622l1.614-2.253,3.484-3.554Z" transform="translate(-759.366 -1147.53)" fill="#142254"/>
              <path id="Trazado_887033" data-name="Trazado 887033" d="M924.7,1490.24a4.393,4.393,0,0,0,.221,2.228c4.835,1.349,19.842-2.208,22.354,2.53.762,1.437.656,3.578.713,5.172,1.36,1.533,2.125,2.13,4.218,2.244,8.053.441,16.2-.139,24.285.192-1.823,5.978-5.151,11.435-10.4,15q-.49.326-1,.628t-1.026.578q-.52.277-1.054.527t-1.078.474q-.545.224-1.1.421t-1.12.365q-.564.17-1.137.31t-1.15.254q-.578.113-1.161.2t-1.17.139q-.587.055-1.175.081t-1.178.023q-.589,0-1.177-.035t-1.174-.093q-.586-.062-1.168-.151t-1.159-.208a29.907,29.907,0,0,1-18.7-12.746c-3.139-4.715-5.863-12.345-4.671-18.127" transform="translate(-842.981 -1358.965)" fill="#79b7f3"/>
              <path id="Trazado_887034" data-name="Trazado 887034" d="M946.69,1234.864c8.268-.891,15.979.526,22.643,5.826q.533.431,1.045.887t1,.937q.488.481.953.985t.9,1.03q.44.526.853,1.073t.8,1.113q.386.566.745,1.151t.688,1.186q.33.6.629,1.218t.57,1.247q.27.63.508,1.273t.446,1.3q.207.654.382,1.317t.318,1.334q.143.671.252,1.348t.186,1.358a33.879,33.879,0,0,1-.508,10.056c-8.08-.33-16.232.249-24.285-.192-2.093-.115-2.857-.711-4.218-2.244-.057-1.594.049-3.734-.713-5.172-2.513-4.739-17.52-1.181-22.354-2.53a4.392,4.392,0,0,1-.221-2.228,26.454,26.454,0,0,1,.647-4.306,27.151,27.151,0,0,1,5.971-10.865,26.356,26.356,0,0,1,9.2-6.074c1.177-.366,2.37-.687,3.555-1.026" transform="translate(-845.598 -1125.859)" fill="#d0e3f4"/>
              <path id="Trazado_887035" data-name="Trazado 887035" d="M950.173,1238.454c1.177-.366,2.37-.687,3.555-1.026l.428.67c2.531,2.379,5.074,4.764,7.809,6.911l14.45-.022,0,10.64c-3.236.015-40.469.449-41.282-.094a.912.912,0,0,1-.136-.14,27.152,27.152,0,0,1,5.971-10.865,26.358,26.358,0,0,1,9.2-6.074" transform="translate(-852.636 -1128.423)" fill="#fefefe"/>
              <path id="Trazado_887036" data-name="Trazado 887036" d="M1151.381,1245.029c2.532,2.379,5.074,4.765,7.809,6.911-2.643-.12-5.268-.114-7.913-.07Z" transform="translate(-1049.861 -1135.354)" fill="#d7dce7"/>
              <path id="Trazado_887037" data-name="Trazado 887037" d="M1002.785,1255.146a26.353,26.353,0,0,1,9.2-6.074c.158,2.128.168,4.264.2,6.4a69.544,69.544,0,0,1-9.406-.323" transform="translate(-914.449 -1139.042)" fill="#d7dce7"/>
              <path id="Trazado_887038" data-name="Trazado 887038" d="M1904.08,688.654c-4.637-3.182-7.6-8.466-8.823-13.887a30.054,30.054,0,0,1,.5-14.445c5.768-20.384,25.454-13.892,32.117-25.134,3.106-5.241,3.145-12.047,4.021-17.952,1.165-7.845,3.274-15.072,7.575-21.784,5.113-7.977,13.153-14.845,22.571-16.893,12.112-2.634,24.08,1.858,34.171,8.307a55.614,55.614,0,0,1,9.433,8.174c5.337,6.435,8.4,13.74,7.605,22.265a25.232,25.232,0,0,1-6.438,14.564c-.5,6.546-.335,13.335,4.123,18.606,7.177,8.485,16.017,10.809,15.017,24.812q-.043.589-.116,1.176t-.174,1.168q-.1.582-.232,1.158t-.291,1.145q-.159.569-.347,1.129t-.4,1.111q-.216.55-.458,1.089t-.512,1.065q-.269.526-.565,1.038t-.615,1.009q-.32.5-.665.976t-.713.942q-.369.462-.76.905t-.8.866q-.413.423-.846.825t-.886.781c-.744.633-1.5,1.265-2.279,1.855-8.251-7.314-15.466-11.135-26.147-14.138l-.736-.893c-3.693-4.437-7.317-6.591-13.131-7.125a25.026,25.026,0,0,1-6.457-.214c-9.684-1.568-16.777-7.665-22.317-15.4-1.17,5.024-2.592,9.9-4.215,14.79-6.421,1.374-10.055,3.231-13.908,8.66-8.827,1.812-16.8,4.341-24.29,9.448" transform="translate(-1727.705 -526.895)" fill="#142254"/>
              <path id="Trazado_887039" data-name="Trazado 887039" d="M2592.467,848.732l.066.036.067.341a18.756,18.756,0,0,1-2.347,3.7,24.665,24.665,0,0,1-16.906,8.743c-6.471.656-11.91-1.627-16.863-5.633a17.517,17.517,0,0,1-2.082-2.359c4.218,3.474,8.758,5.534,14.285,5.609,9.062.123,17.447-4.2,23.78-10.439" transform="translate(-2329.384 -773.967)" fill="#79412d"/>
              <path id="Trazado_887040" data-name="Trazado 887040" d="M3018.968,865.888c6.075,6.078,9.255,12.864,9.266,21.562a45.317,45.317,0,0,1-.673,7.563,5.367,5.367,0,0,0-1.7-.659,4.287,4.287,0,0,0,.179-.584c.213-.991-.479-1.819-.994-2.6a5.769,5.769,0,0,0,.313-2.521c-.02-6.281-3.46-15.519-7.993-19.974Z" transform="translate(-2751.565 -789.612)" fill="#e58166"/>
              <path id="Trazado_887041" data-name="Trazado 887041" d="M3112.195,1220.524c1.263-.486,2.222-2.54,2.908-3.643-1.339,5.446-1.648,11.1,1.38,16.083,4.686,7.712,14.086,10.583,16.191,20.28a17.383,17.383,0,0,1-7.1,18.163c3.656-5.826,6.662-11.465,5-18.584-2.384-10.188-13.745-12.587-17.394-21.682-1.555-3.876-.488-6.66-1.281-10.047Z" transform="translate(-2837.764 -1109.686)" fill="#79412d"/>
              <path id="Trazado_887042" data-name="Trazado 887042" d="M2004.639,613.981c6.745-.793,12.959,1.817,18.261,5.737a32.785,32.785,0,0,0-21.917-2.444c-15.231,3.267-25.568,13.774-28.541,29.015-1.7,8.714-1.372,19.051-7.26,26.276-7.942,9.745-21.029,6.335-28.642,18.091q-.124.224-.242.451c-2.85,5.425-2.742,10.549-.948,16.27a18.084,18.084,0,0,1-2.633-7.641q-.05-.54-.068-1.082t0-1.084q.013-.542.058-1.082t.121-1.077q.076-.537.184-1.068t.245-1.056q.139-.524.307-1.04t.367-1.02c5.5-14.221,21.967-10.161,29.953-20.273,5.865-7.426,4.85-20.7,7.417-29.769q.284-.969.617-1.921t.714-1.887q.381-.934.809-1.848t.9-1.8q.474-.891.993-1.756t1.081-1.7q.561-.838,1.166-1.646t1.248-1.585c6.738-8.1,15.455-12.079,25.814-13.053" transform="translate(-1762.392 -559.766)" fill="#79412d"/>
              <path id="Trazado_887043" data-name="Trazado 887043" d="M2447.993,897.552c4.532,4.456,7.973,13.694,7.993,19.975a5.786,5.786,0,0,1-.313,2.521c.514.779,1.207,1.607.994,2.6a4.323,4.323,0,0,1-.179.584,5.356,5.356,0,0,1,1.7.659,54.681,54.681,0,0,1-1.565,5.437l-.3.569c-5.094,9.533-9.406,21.591-20.785,25.1a22.459,22.459,0,0,1-4.823.986c-.736.152-1.225.1-1.685.738-.337,2.109.348,4.176.727,6.245a25.025,25.025,0,0,1-6.456-.214c-9.685-1.568-16.777-7.665-22.317-15.4a107.2,107.2,0,0,0,2.119-18.789c-.066-.43-.158-.86-.239-1.288a2.971,2.971,0,0,0-1.758-.472,8.39,8.39,0,0,1-6.123-3.378q-.146-.188-.281-.383t-.262-.4q-.126-.2-.242-.409t-.221-.421c-.071-.142-.137-.286-.2-.432s-.123-.292-.178-.441-.108-.3-.156-.449-.092-.3-.133-.456-.077-.308-.11-.463-.062-.311-.087-.467-.046-.314-.063-.471-.03-.316-.04-.474-.014-.317-.016-.475,0-.317.008-.475.017-.317.032-.474.033-.315.055-.472a8,8,0,0,1,3.048-5.412q.267-.191.551-.355t.584-.3q.3-.135.61-.24t.631-.178q.32-.074.646-.115a6.516,6.516,0,0,1,.654-.05q.327-.009.655.014t.651.078a7.84,7.84,0,0,1,5.185,3.683,14.511,14.511,0,0,0,3.468-4.9c6.9,1.729,13.207,2.694,20.276,1.238a27.083,27.083,0,0,0,17.948-12.175" transform="translate(-2182.193 -818.487)" fill="#f1ac88"/>
              <path id="Trazado_887044" data-name="Trazado 887044" d="M3033.837,1137.456l-.39.162c-.957-.236-1.254-1.668-2.048-2.209-1.477-1.007-3.708-.894-5.166-2.212-.176-.159-.107-.077-.113-.392a1.912,1.912,0,0,1,.918-.273,7.258,7.258,0,0,1,5.983,1.742c.515.779,1.207,1.607.995,2.6a4.433,4.433,0,0,1-.179.584" transform="translate(-2759.542 -1032.713)" fill="#142254"/>
              <path id="Trazado_887045" data-name="Trazado 887045" d="M2757.765,1065.818a18.1,18.1,0,0,1,3.515.05,4.962,4.962,0,0,1,3.188,1.652c.249.355.186.413.123.84a2.551,2.551,0,0,1-.424.246c-.966.427-2.351-.3-3.272-.647-2.047-.363-6.383.543-7.789-.221l.086-.416a9.694,9.694,0,0,1,4.574-1.5" transform="translate(-2510.583 -971.875)" fill="#142254"/>
              <path id="Trazado_887046" data-name="Trazado 887046" d="M2999.385,1223.8a3.122,3.122,0,0,1,2.206,1.089,2.651,2.651,0,0,1,.346,1.978,3.148,3.148,0,0,1-4.048,3.715,2.14,2.14,0,0,1-1.311-1.136,3.628,3.628,0,0,1,.1-2.914,4.57,4.57,0,0,1,2.7-2.731" transform="translate(-2732.369 -1115.997)" fill="#142254"/>
              <path id="Trazado_887047" data-name="Trazado 887047" d="M2856.061,1219.885c.707,2.082-.786,5.232-.775,7.463.009,1.883,1.146,5,.448,6.686a1.617,1.617,0,0,1-.983.988c-1.465.579-4.367-.533-5.79-1.086a3.99,3.99,0,0,1-.586-.625l.24-.329c1.785-.166,3.874.432,5.723.484a18.96,18.96,0,0,1,1.724-13.582" transform="translate(-2597.461 -1112.425)" fill="#cc4439"/>
              <path id="Trazado_887048" data-name="Trazado 887048" d="M2460.019,1100.9a5.6,5.6,0,0,0-1.092-.99,1.9,1.9,0,0,0-1.456.386c-.389.948.1,1.824.144,2.806a1.686,1.686,0,0,1-.218-.022,4.822,4.822,0,0,1-2.222-1.77,3.659,3.659,0,0,1-.756-2.886,3.88,3.88,0,0,1,1.9-2.609,3.025,3.025,0,0,1,2.42-.291,2.569,2.569,0,0,1,1.576,1.529,5.977,5.977,0,0,1,.258,3.635l-.4.26Z" transform="translate(-2238.154 -998.899)" fill="#f06754"/>
              <path id="Trazado_887049" data-name="Trazado 887049" d="M2470.832,1107.33a1.817,1.817,0,0,0-.265-1.245,2.09,2.09,0,0,0-1.395-1.244,3.929,3.929,0,0,0-1.509.869,2.159,2.159,0,0,0-.543,1.847c0,.285.057.163-.123.356a3.836,3.836,0,0,1-.781-2.294,4.029,4.029,0,0,1,1.363-2.877c.509-.4.8-.321,1.379-.221,1.432,1.044,1.887,2.991,2.426,4.6l-.4.26Z" transform="translate(-2248.968 -1005.326)" fill="#e58166"/>
              <path id="Trazado_887050" data-name="Trazado 887050" d="M2762.674,1149.951c.187,0,.374.01.561.025a2.449,2.449,0,0,1,2,.933,3.429,3.429,0,0,1,.587,2.53,5.987,5.987,0,0,1-2.584,4.2,2.84,2.84,0,0,1-2.385-.873,3.269,3.269,0,0,1-.638-2.359,6.14,6.14,0,0,1,2.461-4.459" transform="translate(-2517.053 -1048.652)" fill="#142254"/>
              <path id="Trazado_887051" data-name="Trazado 887051" d="M2747.125,1386.588c4.725,2.927,6.313,4.585,12.19,5.251-.615.551-1.312,1.028-1.973,1.525a8.936,8.936,0,0,1-1.66.876,4.5,4.5,0,0,1-3.778-.056c-2.734-1.384-3.9-4.9-4.778-7.6" transform="translate(-2505.13 -1264.443)" fill="#cc4439"/>
              <path id="Trazado_887052" data-name="Trazado 887052" d="M2485.8,1249.541c2.809,9.659,7.444,19.822,16.639,24.934a19.5,19.5,0,0,0,10.973,2.486c-.736.152-1.225.1-1.685.738-.336,2.109.349,4.176.728,6.245a25.038,25.038,0,0,1-6.457-.214c-9.684-1.568-16.777-7.665-22.316-15.4a107.27,107.27,0,0,0,2.119-18.789" transform="translate(-2264.895 -1139.469)" fill="#f06754"/>
              <path id="Trazado_887053" data-name="Trazado 887053" d="M1292.669,1462.834c5.54,7.735,12.632,13.833,22.317,15.4a25.027,25.027,0,0,0,6.457.214c5.814.533,9.439,2.688,13.131,7.125l.736.892c10.681,3,17.9,6.825,26.147,14.138,9.486,9.528,16.436,23.141,20.313,35.927-7.432.065-15-.1-22.427-.454-2.87-.1-5.754-.066-8.626-.08l-.313.139c-3.722-.349-14.706-.642-18.087.013a4.436,4.436,0,0,0-2.027,1,5.093,5.093,0,0,0-1.722,2.321c-1.287,3.65-1.679,8-2.413,11.812q-2.654,13.327-4.927,26.725c-.791,4.113-1.417,8.274-2.251,12.374-5.955-.28-11-2.664-16.578-4.426-5.316-1.679-8.255-.3-13,2.139-5.2,2.481-9.069,6.12-13.055,10.208a21.657,21.657,0,0,0-2.808,3.061c-.912.946-2.881,2.626-2.87,4a5.684,5.684,0,0,0,.157,1.085c-3.16.406-6.72.07-9.92.02.006-4.592-.2-9.2-.312-13.794l-.412-1.9c-1.811-1.227-7.78-1.6-10.135-1.949-3.67,8.878-9.055,18.227-18.38,22.035a18.631,18.631,0,0,1-14.739.081,18.973,18.973,0,0,1-6.542-4.687c-3.075-2.347-6.093-7.22-8.392-10.389-9.193-13.57-16.433-28.631-22.7-43.732-.737-1.625-1.833-3.515-1.655-5.346.2-2.08,2.2-3.436,3.667-4.691.75,1.878,1.757,3.662,2.691,5.454a29.76,29.76,0,0,0,4.413-.789c5-1.358,9.947-4.03,12.586-8.65a24.622,24.622,0,0,0-1.966-3.97,16.663,16.663,0,0,1-2.1-3.053c.051-5.321,1.368-10.783-.739-15.9-1.143-2.775-3.323-6.343-6.28-7.461-1.524-.576-2.681-.164-4.092.42l0-5.551a32.176,32.176,0,0,0,16.428-5.661l3.4,3.377c-1.125,1.107-2.657,2.311-3.384,3.716.057,1.293,1.621,2.526,2.51,3.341.616.565,1.349,1.451,2.214,1.539l.644-.174,4.51-4.6,4.266-4.512,1.514-1.744c2.745,3.547,6.545,6.766,9.7,9.992,2.545,2.606,5.052,5.711,7.809,8.042,2.012-6.435,9.524-16.082,14.832-20.189,7.488-5.107,15.464-7.636,24.29-9.448,3.853-5.429,7.487-7.286,13.908-8.66,1.623-4.894,3.045-9.766,4.215-14.79" transform="translate(-1073.881 -1333.973)" fill="#4453b1"/>
              <path id="Trazado_887054" data-name="Trazado 887054" d="M1694.622,2608.193c2.574.506,6.833,5.968,8.345,8.226a41.937,41.937,0,0,1,5.646,13.631q-3.15-5.5-6.7-10.762t-7.477-10.236Z" transform="translate(-1545.174 -2378.437)" fill="#142254"/>
              <path id="Trazado_887055" data-name="Trazado 887055" d="M3080.2,1909.605q.271-2.274.364-4.561t.008-4.576q-.085-2.288-.347-4.562t-.7-4.522c-.544-2.867-5.4-18.555-5.355-18.851,1.249,1.393,5.314,15.244,6.364,17.917,2.564,6.53,6.178,12.494,8.293,19.235-2.87-.1-5.754-.066-8.626-.08" transform="translate(-2803.361 -1707.582)" fill="#343e8d"/>
              <path id="Trazado_887056" data-name="Trazado 887056" d="M1199.029,2272.384c1.749.058,3.286.125,4.56,1.517a8.329,8.329,0,0,1,1.553,3.345,13.518,13.518,0,0,1-5.517,9.767,22.748,22.748,0,0,1-16.028,4.771,11.032,11.032,0,0,1-4.305-1.408c-.737-1.625-1.833-3.515-1.655-5.346.2-2.08,2.2-3.435,3.667-4.69a60.817,60.817,0,0,0,2.691,5.455,29.741,29.741,0,0,0,4.413-.79c5-1.358,9.948-4.03,12.587-8.65a24.614,24.614,0,0,0-1.966-3.971" transform="translate(-1073.881 -2072.21)" fill="#142254"/>
              <path id="Trazado_887057" data-name="Trazado 887057" d="M2284.276,1815.248c-.753-1.452-1.438-2.894-2.063-4.406a38.381,38.381,0,0,1,2.749,5.117q-5.81,1.685-11.589,3.476a38.753,38.753,0,0,1,2.661,3.659,21.946,21.946,0,0,1,4.3,7.129c-2.133,13.535-14.308,34.483-21.837,45.959-1.5,2.282-3.49,5.916-5.616,7.641a3.783,3.783,0,0,1-.886.506c-12.861-9.357-29.606-34.928-35.413-49.816-.695-1.781-1.285-3-.481-4.84,1.339-3.688,4.05-6.7,6.51-9.689-2.817-.7-9.1-1.749-11.293-3.33l-.034-.744.249-.251.028.592c.326.2,13.885,2.795,15.425,3.1-5.123,1.533-6.456,4.812-9.206,8.891l-.175.256a8.59,8.59,0,0,0-.3,1.248c-.106,1.747,7.908,15.059,9.322,17.351,4.08,6.611,21.086,33.25,25.5,36.288l.224.217.458-1.236c3.242-2.723,22.573-45.853,25.629-52.8-.584-1.53-1.669-2.843-2.157-4.408-1.514-1.633-2.77-3.841-4.155-5.629l-3.959-.009c5.15-1.978,10.737-3.016,16.1-4.275" transform="translate(-2016.496 -1651.325)" fill="#142254"/>
              <path id="Trazado_887058" data-name="Trazado 887058" d="M1528.6,1860.752c2.745,3.547,6.544,6.766,9.7,9.992,2.545,2.606,5.052,5.711,7.809,8.042,2.525,2.355,9.14,8.634,10.594,11.422a7.49,7.49,0,0,1,.809,3.1q.009.179.01.358t-.008.358c-.006.119-.014.238-.026.357s-.026.237-.044.355-.038.236-.061.353-.05.234-.079.35-.061.231-.1.345-.073.228-.113.34-.084.224-.13.334-.095.219-.146.327-.105.214-.162.32-.116.209-.178.311-.126.2-.193.3-.136.2-.208.292-.146.189-.222.281-.155.181-.236.27a7.96,7.96,0,0,1-5.661,2.439,8.468,8.468,0,0,1-5.99-2.493c-.638-.625-1.242-1.29-1.845-1.949-2.269-2.64-4.851-5.126-7.259-7.648l-16.551-17.3,4.51-4.6,4.266-4.512Z" transform="translate(-1384.565 -1696.838)" fill="#f8a747"/>
              <path id="Trazado_887059" data-name="Trazado 887059" d="M1573.773,1880.545a4.935,4.935,0,0,1,.993.732c5.036,5.178,9.945,10.47,15.017,15.615,3.307,3.355,7.434,6.822,10.192,10.618a6.036,6.036,0,0,1,1.313,3.518,3.7,3.7,0,0,1-.855,2.489,2.235,2.235,0,0,1-1.8.6,4.5,4.5,0,0,1-2.479-1.057c-2.87-2.362-5.493-5.72-8.056-8.452q-8.806-9.515-17.773-18.878l-.82-.676Z" transform="translate(-1431.249 -1714.888)" fill="#fbb957"/>
              <path id="Trazado_887060" data-name="Trazado 887060" d="M1573.773,1880.545a4.935,4.935,0,0,1,.993.732,23.884,23.884,0,0,1-4.439,4.455l-.82-.676Z" transform="translate(-1431.249 -1714.888)" fill="#f8a747"/>
              <path id="Trazado_887061" data-name="Trazado 887061" d="M1270.676,1855.706a32.173,32.173,0,0,0,16.428-5.661l3.4,3.377c-1.125,1.107-2.657,2.311-3.384,3.716.057,1.293,1.621,2.526,2.511,3.341.616.565,1.349,1.451,2.214,1.539l.644-.174,16.551,17.3c2.408,2.522,4.99,5.008,7.259,7.648q-2.979,9.017-5.278,18.231c-.935,3.832-1.564,8.1-2.831,11.809l-.185.858c-6.266-8.314-12.021-17.056-18-25.577a8.327,8.327,0,0,0-1.553-3.345c-1.274-1.392-2.812-1.459-4.56-1.517a16.639,16.639,0,0,1-2.1-3.053c.051-5.321,1.368-10.783-.739-15.9-1.143-2.775-3.323-6.343-6.28-7.461-1.523-.576-2.681-.164-4.092.421Z" transform="translate(-1158.738 -1687.074)" fill="#d0e3f4"/>
              <path id="Trazado_887062" data-name="Trazado 887062" d="M1549.609,2072.278c.9-.562,5.767.061,7.111-.03a26.873,26.873,0,0,0,15.544-6.355c17.014-14.808,30.652-69.054,32.111-92.023.814,2.795.158,6.985.027,9.928-.624,14.042-1.766,28.423,4.733,41.411,8.241,16.47,24.181,21.532,41.619,19.881,1.972-.187,8.272-1.535,9.695-1.064-.791,4.113-1.417,8.274-2.251,12.373-5.955-.28-11-2.664-16.578-4.425-5.316-1.679-8.255-.3-13,2.139-5.2,2.481-9.069,6.12-13.055,10.208a21.66,21.66,0,0,0-2.807,3.061c-.912.946-2.881,2.626-2.87,4.005a5.686,5.686,0,0,0,.157,1.085c-3.16.406-6.72.07-9.92.02.007-4.593-.2-9.2-.312-13.794l-.411-1.9c-1.811-1.227-7.78-1.6-10.135-1.948-3.67,8.878-9.055,18.227-18.38,22.035a18.631,18.631,0,0,1-14.739.081,18.979,18.979,0,0,1-6.542-4.687" transform="translate(-1413.104 -1799.991)" fill="#142254"/>
              <path id="Trazado_887063" data-name="Trazado 887063" d="M2009.072,2569.478a127.828,127.828,0,0,1,.783,14.043c.222,6.091.569,12.224.54,18.318l-.412-1.9c-1.811-1.228-7.78-1.6-10.135-1.949a230.961,230.961,0,0,0,9.224-28.513" transform="translate(-1823.681 -2343.133)" fill="#d0e3f4"/>
              <path id="Trazado_887064" data-name="Trazado 887064" d="M2422.149,1462.834c5.54,7.735,12.632,13.833,22.317,15.4a25.023,25.023,0,0,0,6.457.214c.6,3.934,1.313,7.9,1.574,11.872.71,13.18-2.1,25.772-4.808,38.576-2.549,12.07-5.392,24.066-8.007,36.117l-.458,1.237-.223-.217c-.815-4.056-3.83-11.018-5.374-15.243-7.189-19.674-17.361-41.539-17.414-62.637a31.948,31.948,0,0,1,1.721-10.529c1.623-4.894,3.045-9.766,4.215-14.79" transform="translate(-2203.361 -1333.973)" fill="#fefefe"/>
              <path id="Trazado_887065" data-name="Trazado 887065" d="M2631.892,2159.427l1.015.3a1.725,1.725,0,0,1,.725,1.409,3.558,3.558,0,0,1-1.1,2.127,4.439,4.439,0,0,1-.627-.349,2.042,2.042,0,0,1-.91-1.486,3.838,3.838,0,0,1,.9-2" transform="translate(-2399.23 -1969.203)" fill="#b7dad6"/>
              <path id="Trazado_887066" data-name="Trazado 887066" d="M2629.413,2403.615a4.874,4.874,0,0,1,1.4.381c.407.458.633.625.7,1.255a2.9,2.9,0,0,1-1.047,2.208,7.125,7.125,0,0,1-1.169-.294c-.379-.381-.676-.578-.78-1.14a3.076,3.076,0,0,1,.89-2.41" transform="translate(-2396.945 -2191.88)" fill="#b7dad6"/>
              <path id="Trazado_887067" data-name="Trazado 887067" d="M2659.966,1899.514c1.5,3.279,1.985,52.912,1.49,59.532l-.1-.015a.867.867,0,0,1-.243-.76c-.294-13.824-.228-27.661-.463-41.488-.1-5.743-.739-11.544-.688-17.269" transform="translate(-2425.646 -1732.186)" fill="#d0e3f4"/>
              <path id="Trazado_887068" data-name="Trazado 887068" d="M2422.149,1462.834c5.54,7.735,12.632,13.833,22.317,15.4a25.023,25.023,0,0,0,6.457.214c.6,3.934,1.313,7.9,1.574,11.872a19.468,19.468,0,0,1-5.726,6.549,19.86,19.86,0,0,1-14.519,3.1c-7-1.339-12.194-6.07-16.039-11.819a31.948,31.948,0,0,1,1.721-10.529c1.623-4.894,3.045-9.766,4.215-14.79" transform="translate(-2203.361 -1333.973)" fill="#f1ac88"/>
            </g>
          </g>
        </g>
      </g>
    </g>
    <path id="Rectángulo_400911" data-name="Rectángulo 400911" d="M0,0H297a0,0,0,0,1,0,0V41a19,19,0,0,1-19,19H19A19,19,0,0,1,0,41V0A0,0,0,0,1,0,0Z" transform="translate(-1937.308 -8114.999) rotate(-90)" fill="#59836b"/>
    <g id="Grupo_1098761" data-name="Grupo 1098761" transform="translate(-3199.308 -9720.998)">
      <line id="Línea_557" data-name="Línea 557" y2="128" transform="translate(1273.5 1470.5)" fill="none" stroke="#fff" stroke-linecap="round" stroke-width="2" stroke-dasharray="5"/>
      <circle id="Elipse_11447" data-name="Elipse 11447" cx="33.5" cy="33.5" r="33.5" transform="translate(1238 1511)" fill="#fd9f81"/>
    </g>
    <g id="Grupo_1098820" data-name="Grupo 1098820" transform="translate(-2955.659 -9475.916)">
      <rect id="Rectángulo_400898" data-name="Rectángulo 400898" width="47" height="47" rx="23.5" transform="translate(981.351 1258.917)" fill="#fff"/>
      <path id="Rectángulo_400898_-_Contorno" data-name="Rectángulo 400898 - Contorno" d="M23.485,1.3a22.187,22.187,0,0,0-8.633,42.619A22.187,22.187,0,0,0,32.119,3.047,22.041,22.041,0,0,0,23.485,1.3m0-1.3A23.485,23.485,0,1,1,0,23.485,23.485,23.485,0,0,1,23.485,0Z" transform="translate(981 1258.947)" fill="#fff"/>
    </g>
  </g>
</svg>
