<svg xmlns="http://www.w3.org/2000/svg" width="90" height="90" viewBox="0 0 90 90">
  <g id="Grupo_1107312" data-name="Grupo 1107312" transform="translate(-1175 -3599.663)">
    <g id="Rectángulo_400898" data-name="Rectángulo 400898" transform="translate(1175 3599.663)" fill="#fd9f81" stroke="#fff" stroke-width="3" opacity="0.859">
      <rect width="90" height="90" rx="45" stroke="none"/>
      <rect x="1.5" y="1.5" width="87" height="87" rx="43.5" fill="none"/>
    </g>
    <g id="chat-en-linea" transform="translate(1191.028 3615.144)">
      <path id="Trazado_874729" data-name="Trazado 874729" d="M33.154,23H27.731A7.231,7.231,0,0,0,20.5,30.23H40.385A7.231,7.231,0,0,0,33.154,23Z" transform="translate(-1.923 -2.115)" fill="#6dab94"/>
      <path id="Trazado_874730" data-name="Trazado 874730" d="M35.179,25H29.756a7.227,7.227,0,0,0-6.994,5.423H40.6a7.192,7.192,0,0,0-1.3-4.126A7.191,7.191,0,0,0,35.179,25Z" transform="translate(-2.14 -2.307)" fill="#5ba187"/>
      <path id="Trazado_874731" data-name="Trazado 874731" d="M40.218,43.461H20.333L18.78,31.031A1.808,1.808,0,0,1,20.573,29h19.4a1.808,1.808,0,0,1,1.794,2.032Z" transform="translate(-1.756 -2.692)" fill="#858489"/>
      <path id="Trazado_874732" data-name="Trazado 874732" d="M41.964,31.223a1.773,1.773,0,0,0,0-.224H22.573a1.808,1.808,0,0,0-1.794,2.032l1.328,10.622h18.3Z" transform="translate(-1.948 -2.884)" fill="#717075"/>
      <ellipse id="Elipse_11621" data-name="Elipse 11621" cx="2.382" cy="2.859" rx="2.382" ry="2.859" transform="translate(25.997 30.54)" fill="#858489"/>
      <path id="Trazado_874733" data-name="Trazado 874733" d="M30.587,4A8.587,8.587,0,0,0,22,12.587v2.26H39.173v-2.26A8.587,8.587,0,0,0,30.587,4Z" transform="translate(-2.067 -0.288)" fill="#a17a4e"/>
      <path id="Trazado_874734" data-name="Trazado 874734" d="M32.587,6A8.587,8.587,0,0,0,24,14.587v.452H39.366v-2.26A8.537,8.537,0,0,0,37.68,7.684,8.536,8.536,0,0,0,32.587,6Z" transform="translate(-2.259 -0.481)" fill="#956938"/>
      <path id="Trazado_874735" data-name="Trazado 874735" d="M37.5,14v3.615h1.356a1.808,1.808,0,0,0,0-3.615Z" transform="translate(-3.557 -1.25)" fill="#edb27c"/>
      <path id="Trazado_874736" data-name="Trazado 874736" d="M22,15.808a1.808,1.808,0,0,0,1.808,1.808h1.356V14H23.808A1.808,1.808,0,0,0,22,15.808Z" transform="translate(-2.067 -1.25)" fill="#edb27c"/>
      <path id="Trazado_874737" data-name="Trazado 874737" d="M34.022,10a10.354,10.354,0,0,1-7.861,3.615H25.5v2.712a5.423,5.423,0,1,0,10.846,0V13.615Z" transform="translate(-2.404 -0.865)" fill="#efc599"/>
      <path id="Trazado_874738" data-name="Trazado 874738" d="M1.5,45H55.732v4.519H1.5Z" transform="translate(-0.096 -4.23)" fill="#becdf0"/>
      <path id="Trazado_874739" data-name="Trazado 874739" d="M4.5,50H53.308V60.846H4.5Z" transform="translate(-0.385 -4.711)" fill="#becdf0"/>
      <path id="Trazado_874740" data-name="Trazado 874740" d="M4.5,50H53.308v1.808H4.5Z" transform="translate(-0.385 -4.711)" fill="#a6bbe8"/>
      <path id="Trazado_874741" data-name="Trazado 874741" d="M46.5,3.808V16.462l3.615-3.615h9.039a1.808,1.808,0,0,0,1.808-1.808V3.808A1.808,1.808,0,0,0,59.154,2H48.308A1.808,1.808,0,0,0,46.5,3.808Z" transform="translate(-4.423 -0.096)" fill="#eff2fa"/>
      <path id="Trazado_874742" data-name="Trazado 874742" d="M55.635,40.058H39.486l1.426-11.414A2.684,2.684,0,0,0,38.927,25.7a8.126,8.126,0,0,0-6.155-5.376,6.331,6.331,0,0,0,1.808-2.864H35.3A2.715,2.715,0,0,0,38.01,14.75v-2.26a9.491,9.491,0,1,0-18.981,0v2.26a2.715,2.715,0,0,0,2.712,2.712h.718a6.331,6.331,0,0,0,1.809,2.864A8.126,8.126,0,0,0,18.112,25.7a2.684,2.684,0,0,0-1.985,2.943l1.426,11.414H1.4a.9.9,0,0,0-.9.9v4.519a.9.9,0,0,0,.9.9H3.212v9.942a.9.9,0,0,0,.9.9H52.924a.9.9,0,0,0,.9-.9V46.385h1.808a.9.9,0,0,0,.9-.9V40.962A.9.9,0,0,0,55.635,40.058ZM24,13.844a11.242,11.242,0,0,0,7.479-3.062l1.56,2.427v2.446a4.519,4.519,0,1,1-9.039,0Zm11.3,1.81h-.452V13.846H35.3a.9.9,0,0,1,0,1.808ZM28.52,4.808A7.686,7.686,0,0,1,36.188,12.2a2.678,2.678,0,0,0-.889-.162h-.863l-2.057-3.2a.9.9,0,0,0-.7-.413.919.919,0,0,0-.748.313,9.441,9.441,0,0,1-7.176,3.3H21.741a2.678,2.678,0,0,0-.889.162A7.686,7.686,0,0,1,28.52,4.808ZM21.741,15.654a.9.9,0,1,1,0-1.808h.452v1.808Zm4.067,6.327h5.423a6.315,6.315,0,0,1,5.7,3.615H20.1A6.315,6.315,0,0,1,25.808,21.981ZM17.92,28.42a.9.9,0,0,1,.9-1.016H38.223a.9.9,0,0,1,.9,1.016L37.664,40.058H19.375Zm34.1,27h-47V46.385h47Zm2.712-10.846H2.308V41.866H54.732Z" transform="translate(0 -0.192)"/>
      <path id="Trazado_874743" data-name="Trazado 874743" d="M59.058,1H48.212A2.715,2.715,0,0,0,45.5,3.712V16.366A.9.9,0,0,0,47.043,17l3.351-3.351h8.664a2.715,2.715,0,0,0,2.712-2.712V3.712A2.715,2.715,0,0,0,59.058,1Zm.9,9.942a.9.9,0,0,1-.9.9H50.019a.9.9,0,0,0-.639.265l-2.072,2.072V3.712a.9.9,0,0,1,.9-.9H59.058a.9.9,0,0,1,.9.9Z" transform="translate(-4.326)"/>
      <path id="Trazado_874744" data-name="Trazado 874744" d="M57.635,5H50.4a.9.9,0,1,0,0,1.808h7.231a.9.9,0,1,0,0-1.808Z" transform="translate(-4.711 -0.385)"/>
      <path id="Trazado_874745" data-name="Trazado 874745" d="M57.635,9H50.4a.9.9,0,1,0,0,1.808h7.231a.9.9,0,1,0,0-1.808Z" transform="translate(-4.711 -0.769)"/>
      <path id="Trazado_874746" data-name="Trazado 874746" d="M31.115,33a3.615,3.615,0,1,0,3.615,3.615A3.615,3.615,0,0,0,31.115,33Zm0,5.423a1.808,1.808,0,1,1,1.808-1.808,1.808,1.808,0,0,1-1.808,1.808Z" transform="translate(-2.596 -3.077)"/>
    </g>
  </g>
</svg>
