<svg xmlns="http://www.w3.org/2000/svg" width="73.744" height="73.74" viewBox="0 0 73.744 73.74">
  <g id="Grupo_1103642" data-name="Grupo 1103642" transform="translate(0 0)">
    <g id="cinta-adhesiva-azul-aislado-sobre-fondo-blanco_457211-2103" transform="translate(0 0)" fill="#fff">
      <path d="M 36.8721923828125 72.23999786376953 C 32.0963020324707 72.23999786376953 27.46406936645508 71.30502319335938 23.10416984558105 69.46105194091797 C 18.89225959777832 67.67966461181641 15.10924816131592 65.12914276123047 11.86024761199951 61.88033294677734 C 8.611248016357422 58.63153076171875 6.060581207275391 54.8487663269043 4.279092311859131 50.63711166381836 C 2.435025691986084 46.27750015258789 1.500003457069397 41.64556503295898 1.500003457069397 36.86999893188477 C 1.500003457069397 32.09443283081055 2.435025691986084 27.46250915527344 4.279092311859131 23.1028881072998 C 6.060581207275391 18.89123153686523 8.611248016357422 15.10846519470215 11.86024761199951 11.8596658706665 C 15.10924816131592 8.610854148864746 18.89225959777832 6.060332298278809 23.10416984558105 4.278943538665771 C 27.46406936645508 2.434976816177368 32.0963020324707 1.499998927116394 36.8721923828125 1.499998927116394 C 41.6480827331543 1.499998927116394 46.28031539916992 2.434976816177368 50.64021301269531 4.278943538665771 C 54.85213851928711 6.060332298278809 58.63513565063477 8.610854148864746 61.88413619995117 11.8596658706665 C 65.13314056396484 15.10846519470215 67.68379974365234 18.89123153686523 69.46529388427734 23.1028881072998 C 71.30935668945312 27.46250915527344 72.244384765625 32.09443283081055 72.244384765625 36.86999893188477 C 72.244384765625 41.64556503295898 71.30935668945312 46.27750015258789 69.46529388427734 50.63711166381836 C 67.68379974365234 54.8487663269043 65.13314056396484 58.63153076171875 61.88413619995117 61.88033294677734 C 58.63513565063477 65.12914276123047 54.85213851928711 67.67966461181641 50.64021301269531 69.46105194091797 C 46.28031539916992 71.30502319335938 41.6480827331543 72.23999786376953 36.8721923828125 72.23999786376953 Z" stroke="none"/>
      <path d="M 36.8721923828125 3 C 32.29813003540039 3 27.86248016357422 3.895111083984375 23.68846893310547 5.66046142578125 C 19.65534210205078 7.366233825683594 16.0326042175293 9.808811187744141 12.92086791992188 12.92036056518555 C 9.809154510498047 16.03188705444336 7.366439819335938 19.65439987182617 5.66058349609375 23.68724822998047 C 3.8951416015625 27.8609619140625 2.999992370605469 32.29627227783203 2.999992370605469 36.86999893188477 C 2.999992370605469 41.4437255859375 3.8951416015625 45.87903594970703 5.66058349609375 50.05276107788086 C 7.366439819335938 54.08560943603516 9.809154510498047 57.70811080932617 12.92086791992188 60.81964874267578 C 16.0325927734375 63.93118667602539 19.65534210205078 66.37377166748047 23.68846893310547 68.07953643798828 C 27.86248016357422 69.84488677978516 32.29813003540039 70.73999786376953 36.8721923828125 70.73999786376953 C 41.44625473022461 70.73999786376953 45.88190460205078 69.84488677978516 50.05591583251953 68.07953643798828 C 54.08904266357422 66.37377166748047 57.7117805480957 63.93118667602539 60.82350540161133 60.81964874267578 C 63.93523025512695 57.70811080932617 66.37794494628906 54.08560943603516 68.08379364013672 50.05276107788086 C 69.84922790527344 45.87905120849609 70.74437713623047 41.4437255859375 70.74437713623047 36.86999893188477 C 70.74437713623047 32.29627227783203 69.84922790527344 27.8609619140625 68.08379364013672 23.68724822998047 C 66.37794494628906 19.65439987182617 63.93523025512695 16.03188705444336 60.82350540161133 12.92036056518555 C 57.7117805480957 9.808811187744141 54.08904266357422 7.366233825683594 50.05591583251953 5.66046142578125 C 45.88189315795898 3.895111083984375 41.44625473022461 3 36.8721923828125 3 M 36.8721923828125 0 C 57.23614501953125 0 73.74437713623047 16.50726318359375 73.74437713623047 36.86999893188477 C 73.74437713623047 57.23274993896484 57.23614501953125 73.73999786376953 36.8721923828125 73.73999786376953 C 16.50824356079102 73.73999786376953 -7.62939453125e-06 57.23274993896484 -7.62939453125e-06 36.86999893188477 C -7.62939453125e-06 16.50726318359375 16.50824356079102 0 36.8721923828125 0 Z" stroke="none" fill="#7bb5f2"/>
    </g>
    <g id="use-case_10604865" transform="translate(14.335 12.853)">
      <g id="Grupo_1106311" data-name="Grupo 1106311" transform="translate(0.655 0.655)">
        <path id="Trazado_885020" data-name="Trazado 885020" d="M184.189,56.88H169V48.936a.437.437,0,0,1,.436-.436h14.316a.437.437,0,0,1,.436.436Z" transform="translate(-154.902 -45.881)" fill="#4a80aa"/>
        <path id="Trazado_885021" data-name="Trazado 885021" d="M310.619,48.5H308a.437.437,0,0,1,.436.436V56.88h2.619V48.936A.437.437,0,0,0,310.619,48.5Z" transform="translate(-281.768 -45.881)" fill="#407093"/>
        <path id="Trazado_885022" data-name="Trazado 885022" d="M161.078,84.887V94.954a1.037,1.037,0,0,1-1.037,1.037h-18A1.037,1.037,0,0,1,141,94.954V82.537a1.037,1.037,0,0,1,1.037-1.037h7.528a1.88,1.88,0,0,1,1.141.386l2.069,1.579a1.88,1.88,0,0,0,1.141.386h6.126a1.037,1.037,0,0,1,1.037,1.037Z" transform="translate(-129.346 -76)" fill="#ffd064"/>
        <g id="Grupo_1106307" data-name="Grupo 1106307" transform="translate(28.076 7.85)">
          <path id="Trazado_885023" data-name="Trazado 885023" d="M331.742,108.422h-2.619a1.037,1.037,0,0,1,1.037,1.037v10.067a1.037,1.037,0,0,1-1.037,1.037h2.619a1.037,1.037,0,0,0,1.037-1.037V109.459A1.037,1.037,0,0,0,331.742,108.422Z" transform="translate(-329.123 -108.422)" fill="#ffc250"/>
        </g>
        <path id="Trazado_885024" data-name="Trazado 885024" d="M204.769,202.1H193.854v-3.209a1.133,1.133,0,0,1,1.133-1.133h8.649a1.133,1.133,0,0,1,1.133,1.133V202.1Z" transform="translate(-177.586 -182.112)" fill="#9d66d5"/>
        <path id="Trazado_885025" data-name="Trazado 885025" d="M19.2,376.888v6.052a1.037,1.037,0,0,1-1.037,1.037H8.537A1.037,1.037,0,0,1,7.5,382.939v-8.4A1.037,1.037,0,0,1,8.537,373.5H10.9a1.88,1.88,0,0,1,1.141.386l2.069,1.579a1.88,1.88,0,0,0,1.141.386h2.906A1.037,1.037,0,0,1,19.2,376.888Z" transform="translate(-7.5 -342.511)" fill="#ffd064"/>
        <g id="Grupo_1106308" data-name="Grupo 1106308" transform="translate(8.042 33.34)">
          <path id="Trazado_885026" data-name="Trazado 885026" d="M102.242,400.422H99.623a1.037,1.037,0,0,1,1.037,1.037v6.052a1.037,1.037,0,0,1-1.037,1.037h2.619a1.037,1.037,0,0,0,1.037-1.037v-6.051A1.037,1.037,0,0,0,102.242,400.422Z" transform="translate(-99.623 -400.422)" fill="#ffc250"/>
        </g>
        <path id="Trazado_885027" data-name="Trazado 885027" d="M43.96,451.059H37.5v-3.4a.662.662,0,0,1,.662-.662H43.3a.662.662,0,0,1,.662.662v3.4Z" transform="translate(-34.881 -409.594)" fill="#9d66d5"/>
        <path id="Trazado_885028" data-name="Trazado 885028" d="M200.7,376.888v6.052a1.037,1.037,0,0,1-1.037,1.037h-9.624A1.037,1.037,0,0,1,189,382.939v-8.4a1.037,1.037,0,0,1,1.037-1.037H192.4a1.88,1.88,0,0,1,1.141.386l2.069,1.579a1.88,1.88,0,0,0,1.141.386h2.906A1.037,1.037,0,0,1,200.7,376.888Z" transform="translate(-173.156 -342.511)" fill="#ffd064"/>
        <g id="Grupo_1106309" data-name="Grupo 1106309" transform="translate(23.886 33.34)">
          <path id="Trazado_885029" data-name="Trazado 885029" d="M283.742,400.422h-2.619a1.037,1.037,0,0,1,1.037,1.037v6.052a1.037,1.037,0,0,1-1.037,1.037h2.619a1.037,1.037,0,0,0,1.037-1.037v-6.051A1.037,1.037,0,0,0,283.742,400.422Z" transform="translate(-281.123 -400.422)" fill="#ffc250"/>
        </g>
        <path id="Trazado_885030" data-name="Trazado 885030" d="M225.46,451.059H219v-3.4a.662.662,0,0,1,.662-.662H224.8a.662.662,0,0,1,.662.662v3.4Z" transform="translate(-200.537 -409.594)" fill="#9d66d5"/>
        <path id="Trazado_885031" data-name="Trazado 885031" d="M382.2,376.888v6.052a1.037,1.037,0,0,1-1.037,1.037h-9.624a1.037,1.037,0,0,1-1.037-1.037v-8.4a1.037,1.037,0,0,1,1.037-1.037H373.9a1.88,1.88,0,0,1,1.141.386l2.069,1.579a1.88,1.88,0,0,0,1.141.386h2.906A1.037,1.037,0,0,1,382.2,376.888Z" transform="translate(-338.812 -342.511)" fill="#ffd064"/>
        <g id="Grupo_1106310" data-name="Grupo 1106310" transform="translate(39.73 33.34)">
          <path id="Trazado_885032" data-name="Trazado 885032" d="M465.242,400.422h-2.619a1.037,1.037,0,0,1,1.037,1.037v6.052a1.037,1.037,0,0,1-1.037,1.037h2.619a1.037,1.037,0,0,0,1.037-1.037v-6.051A1.037,1.037,0,0,0,465.242,400.422Z" transform="translate(-462.623 -400.422)" fill="#ffc250"/>
        </g>
        <path id="Trazado_885033" data-name="Trazado 885033" d="M406.96,451.059H400.5v-3.4a.662.662,0,0,1,.662-.662H406.3a.662.662,0,0,1,.662.662v3.4Z" transform="translate(-366.193 -409.594)" fill="#9d66d5"/>
        <path id="Trazado_885034" data-name="Trazado 885034" d="M105.547,21.119h-5.238a1.309,1.309,0,0,1,0-2.619h5.238a1.309,1.309,0,1,1,0,2.619Z" transform="translate(-91.013 -18.5)" fill="#90d8f9"/>
        <path id="Trazado_885035" data-name="Trazado 885035" d="M146.619,18.5H144a1.309,1.309,0,0,1,0,2.619h2.619a1.309,1.309,0,0,0,0-2.619Z" transform="translate(-132.084 -18.5)" fill="#75cef9"/>
        <path id="Trazado_885036" data-name="Trazado 885036" d="M114,58.8V48.5h5.238V58.8a2.617,2.617,0,0,1-2.617,2.617h0A2.617,2.617,0,0,1,114,58.8Z" transform="translate(-104.703 -45.881)" fill="#b1e4f9"/>
        <path id="Trazado_885037" data-name="Trazado 885037" d="M130.309,48.5V58.8A2.614,2.614,0,0,1,129,61.069a2.619,2.619,0,0,0,3.928-2.265V48.5Z" transform="translate(-118.394 -45.881)" fill="#90d8f9"/>
        <path id="Trazado_885038" data-name="Trazado 885038" d="M114,100.283v5.783a2.619,2.619,0,0,0,5.238,0v-5.783Z" transform="translate(-104.703 -93.144)" fill="#aad540"/>
        <path id="Trazado_885039" data-name="Trazado 885039" d="M130.309,100.283v5.783A2.614,2.614,0,0,1,129,108.331a2.619,2.619,0,0,0,3.928-2.265v-5.783Z" transform="translate(-118.394 -93.144)" fill="#9dc63d"/>
      </g>
      <g id="Grupo_1106312" data-name="Grupo 1106312">
        <path id="Trazado_885040" data-name="Trazado 885040" d="M11.315,315.108H8.409a1.232,1.232,0,0,1-.743-.251l-.484-.369v-5.512h2.3a.655.655,0,0,0,0-1.309H6.527a.655.655,0,0,0-.655.655v5.168l-.275-.21a2.549,2.549,0,0,0-1.538-.52H1.692A1.693,1.693,0,0,0,0,314.45v8.4a1.694,1.694,0,0,0,1.692,1.692h9.624a1.693,1.693,0,0,0,1.692-1.691V316.8a1.694,1.694,0,0,0-1.692-1.692Zm-7.387,8.125v-2.743a.007.007,0,0,1,.007-.007H9.071a.007.007,0,0,1,.007.007v2.743Zm7.769-.382a.383.383,0,0,1-.382.382h-.927v-2.743a1.318,1.318,0,0,0-1.317-1.317H3.936a1.318,1.318,0,0,0-1.317,1.317v2.743H1.692a.383.383,0,0,1-.382-.382v-8.4a.383.383,0,0,1,.382-.382H4.059a1.232,1.232,0,0,1,.743.251L6.871,315.9a2.549,2.549,0,0,0,1.538.52h2.906a.383.383,0,0,1,.382.382Z" transform="translate(0 -281.769)"/>
        <path id="Trazado_885041" data-name="Trazado 885041" d="M126.516,44.34H123.61a1.232,1.232,0,0,1-.743-.251l-.532-.406V37.552a.655.655,0,0,0-.655-.655H106.515V32.3h8.347a1.693,1.693,0,0,0,1.692-1.692V20.541a1.693,1.693,0,0,0-1.692-1.692h-.753V14.71a1.092,1.092,0,0,0-1.091-1.091H111.35a.655.655,0,0,0,0,1.309h1.45V18.85h-4.064a1.232,1.232,0,0,1-.743-.251l-2.069-1.579a2.549,2.549,0,0,0-1.538-.52H99.357V14.928h8.956a.655.655,0,0,0,0-1.309h-7.76A1.963,1.963,0,0,0,98.7,11H93.464a1.964,1.964,0,0,0-.655,3.816v9.76a3.277,3.277,0,0,0,2.357,3.14v2.892A1.693,1.693,0,0,0,96.858,32.3h8.347v4.6H96.083a.655.655,0,0,0,0,1.309h9.122V42.7l-.252-.192a2.549,2.549,0,0,0-1.538-.52h-2.368a1.693,1.693,0,0,0-1.692,1.692v8.4a1.693,1.693,0,0,0,1.692,1.692h9.624a1.693,1.693,0,0,0,1.692-1.692V46.031a1.693,1.693,0,0,0-1.692-1.692h-2.906a1.232,1.232,0,0,1-.743-.251l-.508-.388V38.207h14.511v4.476l-.228-.174a2.549,2.549,0,0,0-1.538-.52h-2.368a1.693,1.693,0,0,0-1.692,1.692v8.4a1.693,1.693,0,0,0,1.692,1.692h9.624a1.694,1.694,0,0,0,1.692-1.692V46.031a1.694,1.694,0,0,0-1.692-1.692Zm-32.4-29.411h3.928v3.211H94.119Zm-.655-2.619H98.7a.655.655,0,1,1,0,1.309H93.464a.655.655,0,0,1,0-1.309Zm.655,12.266V19.449h3.928v5.127a1.964,1.964,0,0,1-3.928,0Zm2.357,6.033V27.824a3.276,3.276,0,0,0,2.881-3.248V17.809h5.029a1.232,1.232,0,0,1,.743.251l2.069,1.579a2.549,2.549,0,0,0,1.538.52h6.126a.383.383,0,0,1,.382.382V30.608a.383.383,0,0,1-.382.382H112V28.436a1.79,1.79,0,0,0-1.788-1.788h-8.649a1.79,1.79,0,0,0-1.788,1.788V30.99H96.858A.383.383,0,0,1,96.476,30.608Zm4.614-2.172a.479.479,0,0,1,.478-.478h8.649a.479.479,0,0,1,.478.478V30.99H101.09Zm2.2,24.029V49.722a.007.007,0,0,1,.007-.007h5.136a.007.007,0,0,1,.007.007v2.743Zm4.481-6.816h2.906a.383.383,0,0,1,.382.382v6.052a.383.383,0,0,1-.382.382h-.927V49.722a1.318,1.318,0,0,0-1.317-1.317h-5.136a1.318,1.318,0,0,0-1.317,1.317v2.743h-.927a.383.383,0,0,1-.382-.382v-8.4a.383.383,0,0,1,.382-.382h2.368a1.232,1.232,0,0,1,.743.251l2.069,1.579a2.549,2.549,0,0,0,1.538.52Zm11.363,6.816V49.722a.007.007,0,0,1,.007-.007h5.136a.007.007,0,0,1,.007.007v2.743Zm7.769-.382a.383.383,0,0,1-.382.382h-.927V49.722a1.318,1.318,0,0,0-1.317-1.317h-5.136a1.318,1.318,0,0,0-1.317,1.317v2.743h-.927a.383.383,0,0,1-.382-.382v-8.4a.383.383,0,0,1,.382-.382h2.368a1.232,1.232,0,0,1,.743.251l2.069,1.579a2.549,2.549,0,0,0,1.538.52h2.906a.383.383,0,0,1,.382.382Z" transform="translate(-83.513 -11)"/>
      </g>
    </g>
  </g>
</svg>
