<svg xmlns="http://www.w3.org/2000/svg" width="90" height="90" viewBox="0 0 90 90">
  <g id="Grupo_1107235" data-name="Grupo 1107235" transform="translate(-756.051 -3599.663)">
    <g id="Grupo_1098742" data-name="Grupo 1098742" transform="translate(-447.27 3210.921)">
      <g id="Rect치ngulo_400898" data-name="Rect치ngulo 400898" transform="translate(1203.32 388.742)" fill="#fd9f81" stroke="#fff" stroke-width="3" opacity="0.859">
        <rect width="90" height="90" rx="45" stroke="none"/>
        <rect x="1.5" y="1.5" width="87" height="87" rx="43.5" fill="none"/>
      </g>
      <g id="Rect치ngulo_400907" data-name="Rect치ngulo 400907" transform="translate(1203.32 388.742)" fill="none" stroke="#fff" stroke-width="3">
        <rect width="90" height="90" rx="45" stroke="none"/>
        <rect x="1.5" y="1.5" width="87" height="87" rx="43.5" fill="none"/>
      </g>
    </g>
    <g id="discusion" transform="translate(772.444 3614.819)">
      <path id="Trazado_874783" data-name="Trazado 874783" d="M56.386,447.922v1.28a1.63,1.63,0,0,1-1.631,1.63H15.6a1.523,1.523,0,0,1-1.523-1.523v-1.387H8v2.224a4.373,4.373,0,0,0,4.374,4.372H58.09a4.373,4.373,0,0,0,4.374-4.372v-2.224Zm0,0" transform="translate(-6.626 -395.705)" fill="#4f7693"/>
      <path id="Trazado_874784" data-name="Trazado 874784" d="M126.983,451.242H97.761a2.542,2.542,0,0,1-2.542-2.542v-.568a.211.211,0,0,1,.211-.21h33.885a.21.21,0,0,1,.21.21v.568A2.542,2.542,0,0,1,126.983,451.242Zm0,0" transform="translate(-83.676 -395.705)" fill="#ffae85"/>
      <path id="Trazado_874785" data-name="Trazado 874785" d="M129.314,447.922H95.429a.211.211,0,0,0-.211.21v.568a2.543,2.543,0,0,0,.046.471H124.9a1.543,1.543,0,0,1,1.517,1.873.731.731,0,0,1-.071.2h.632a2.542,2.542,0,0,0,2.542-2.541v-.568a.21.21,0,0,0-.21-.21Zm0,0" transform="translate(-83.676 -395.705)" fill="#ea9e7d"/>
      <path id="Trazado_874786" data-name="Trazado 874786" d="M29.738,333.647H25.727l.325-2.384.2-1.5,3.111.19.127,1.26Zm0,0" transform="translate(-22.285 -291.323)" fill="#fedfc5"/>
      <path id="Trazado_874787" data-name="Trazado 874787" d="M23.993,365.653l-4.072.014-5.548-6.642a3.879,3.879,0,0,0-4.307-.2l-.5.3a1.984,1.984,0,0,0-.952,1.551L8,368.721h6.077v-4.284l4.09,4.294h8.126v-.189a2.963,2.963,0,0,0-2.3-2.889Zm0,0" transform="translate(-6.626 -316.504)" fill="#ff84a7"/>
      <path id="Trazado_874788" data-name="Trazado 874788" d="M31.954,331.215a3.4,3.4,0,0,1-3.442.047l.2-1.5,3.111.19Zm0,0" transform="translate(-24.746 -291.323)" fill="#fecbaa"/>
      <path id="Trazado_874789" data-name="Trazado 874789" d="M22.971,260.93v3.236a3.4,3.4,0,1,1-6.8,0V260.93a2.453,2.453,0,0,1,2.454-2.453h1.889a2.451,2.451,0,0,1,2.421,2.061,2.412,2.412,0,0,1,.032.391Zm0,0" transform="translate(-13.848 -228.345)" fill="#fedfc5"/>
      <path id="Trazado_874790" data-name="Trazado 874790" d="M22.939,260.538l-3.6,1.423a.8.8,0,0,0-.507.745v.854a.8.8,0,0,1-.342.657l-1.992,1.4a3.384,3.384,0,0,1-.325-1.451v-3.236a2.453,2.453,0,0,1,2.454-2.453h1.889A2.451,2.451,0,0,1,22.939,260.538Zm0,0" transform="translate(-13.848 -228.344)" fill="#c97f4c"/>
      <path id="Trazado_874791" data-name="Trazado 874791" d="M427.067,333.647h-4.012l.188-1.868.183-1.823,3.111-.19.238,1.738Zm0,0" transform="translate(-373.295 -291.323)" fill="#fedfc5"/>
      <path id="Trazado_874792" data-name="Trazado 874792" d="M336.559,368.721l-.616-8.041a1.983,1.983,0,0,0-.952-1.551l-.5-.3a3.879,3.879,0,0,0-4.307.2l-5.547,6.642-4.072-.014a2.964,2.964,0,0,0-2.3,2.889v.189h8.126l4.09-4.294v4.284Zm0,0" transform="translate(-280.721 -316.504)" fill="#83d9ff"/>
      <path id="Trazado_874793" data-name="Trazado 874793" d="M428.2,331.5a3.386,3.386,0,0,1-1.993.645,3.347,3.347,0,0,1-1.539-.37l.184-1.823,3.111-.19Zm0,0" transform="translate(-374.72 -291.323)" fill="#fecbaa"/>
      <path id="Trazado_874794" data-name="Trazado 874794" d="M415.526,260.93v3.236a3.4,3.4,0,0,1-6.8,0V260.93a2.354,2.354,0,0,1,.032-.391,2.451,2.451,0,0,1,2.421-2.062h1.89A2.452,2.452,0,0,1,415.526,260.93Zm0,0" transform="translate(-360.641 -228.345)" fill="#fedfc5"/>
      <path id="Trazado_874795" data-name="Trazado 874795" d="M415.768,260.93v3.236a3.384,3.384,0,0,1-.325,1.451l-1.991-1.4a.8.8,0,0,1-.342-.657v-.854a.8.8,0,0,0-.507-.745l-3.6-1.424a2.451,2.451,0,0,1,2.421-2.061h1.89A2.452,2.452,0,0,1,415.768,260.93Zm0,0" transform="translate(-360.882 -228.345)" fill="#c97f4c"/>
      <path id="Trazado_874796" data-name="Trazado 874796" d="M38.826,71.435V85.176a1.62,1.62,0,0,1-1.619,1.618H24.551a.709.709,0,0,0-.651.423,2.839,2.839,0,0,1-5.207,0,.709.709,0,0,0-.65-.423h-.252a1.619,1.619,0,0,1-1.619-1.618V71.435a1.618,1.618,0,0,1,1.619-1.618H37.207a1.618,1.618,0,0,1,1.619,1.618Zm0,0" transform="translate(-13.844 -61.678)" fill="#a7c7d3"/>
      <path id="Trazado_874797" data-name="Trazado 874797" d="M295.647,71.435V85.176a1.619,1.619,0,0,1-1.619,1.618h-.252a.709.709,0,0,0-.65.423,2.839,2.839,0,0,1-5.207,0,.708.708,0,0,0-.65-.423H274.612a1.617,1.617,0,0,1-1.619-1.618V71.435a1.618,1.618,0,0,1,1.619-1.618h19.416a1.618,1.618,0,0,1,1.619,1.618Zm0,0" transform="translate(-240.726 -61.678)" fill="#a7c7d3"/>
      <path id="Trazado_874798" data-name="Trazado 874798" d="M143.732,7.5H119.387a2.031,2.031,0,0,0-2.031,2.031V26.215a2.031,2.031,0,0,0,2.031,2.031h8.092a.888.888,0,0,1,.816.531,3.561,3.561,0,0,0,6.529,0,.888.888,0,0,1,.816-.531h8.092a2.031,2.031,0,0,0,2.031-2.031V9.531A2.03,2.03,0,0,0,143.732,7.5Zm0,0" transform="translate(-103.232 -6.626)" fill="#e9edf1"/>
      <path id="Trazado_874799" data-name="Trazado 874799" d="M114.777,71.435V85.176a1.612,1.612,0,0,1-.383,1.044,5.316,5.316,0,0,1-.893-1.149H105.95a3.808,3.808,0,0,1-3.805-3.8V69.816h11.013a1.618,1.618,0,0,1,1.619,1.618Zm0,0" transform="translate(-89.795 -61.677)" fill="#89b4c9"/>
      <path id="Trazado_874800" data-name="Trazado 874800" d="M285.03,69.816V81.267a3.808,3.808,0,0,1-3.805,3.8h-7.551a5.308,5.308,0,0,1-.54.769,1.615,1.615,0,0,1-.142-.664V71.435a1.618,1.618,0,0,1,1.619-1.618Zm0,0" transform="translate(-240.726 -61.678)" fill="#89b4c9"/>
      <path id="Trazado_874801" data-name="Trazado 874801" d="M143.732,7.5H119.387a2.031,2.031,0,0,0-2.031,2.031V26.215a2.031,2.031,0,0,0,2.031,2.031h8.092a.888.888,0,0,1,.816.531,3.561,3.561,0,0,0,6.529,0,.888.888,0,0,1,.816-.531h8.092a2.031,2.031,0,0,0,2.031-2.031V9.531A2.03,2.03,0,0,0,143.732,7.5Zm0,0" transform="translate(-103.232 -6.626)" fill="#e9edf1"/>
      <path id="Trazado_874802" data-name="Trazado 874802" d="M210.145,334.439a2.473,2.473,0,0,0,1.687-2.35V329.8h4.138v2.292a2.477,2.477,0,0,0,.688,1.716,2.447,2.447,0,0,0,1,.634Zm0,0" transform="translate(-185.205 -291.35)" fill="#fedfc5"/>
      <path id="Trazado_874803" data-name="Trazado 874803" d="M228.751,329.8v1.472l-.942.574a2.166,2.166,0,0,1-2.254,0l-.942-.574V329.8Zm0,0" transform="translate(-197.986 -291.351)" fill="#fecbaa"/>
      <path id="Trazado_874804" data-name="Trazado 874804" d="M215.766,248.493v5.02a2.172,2.172,0,0,1-1.04,1.854l-1.876,1.143a2.166,2.166,0,0,1-2.254,0l-1.876-1.143a2.169,2.169,0,0,1-1.04-1.854v-5.02a2.5,2.5,0,0,1,2.5-2.5h3.092a2.5,2.5,0,0,1,2.5,2.5Zm0,0" transform="translate(-183.027 -217.316)" fill="#fedfc5"/>
      <path id="Trazado_874805" data-name="Trazado 874805" d="M236.734,245.992h-1.892a2.5,2.5,0,0,1,2.5,2.5v5.02a2.172,2.172,0,0,1-1.04,1.854l-1.876,1.143a2.045,2.045,0,0,1-.181.1,2.166,2.166,0,0,0,2.073-.1l1.876-1.143a2.172,2.172,0,0,0,1.041-1.854v-5.02a2.5,2.5,0,0,0-2.5-2.5Zm0,0" transform="translate(-206.493 -217.315)" fill="#fecbaa"/>
      <path id="Trazado_874806" data-name="Trazado 874806" d="M215.766,248.489v2.332L210.4,249.1l-2.723,1.421v-2.028a2.5,2.5,0,0,1,2.5-2.5h3.092A2.5,2.5,0,0,1,215.766,248.489Zm0,0" transform="translate(-183.027 -217.312)" fill="#618aaa"/>
      <path id="Trazado_874807" data-name="Trazado 874807" d="M241.232,245.992H239.34a2.5,2.5,0,0,1,2.5,2.5v1.723l1.892.609v-2.332A2.5,2.5,0,0,0,241.232,245.992Zm0,0" transform="translate(-210.996 -217.315)" fill="#4f7693"/>
      <path id="Trazado_874808" data-name="Trazado 874808" d="M169.984,373.943v-4.2a4.66,4.66,0,0,1,3.172-4.418l1.51-.508a2.466,2.466,0,0,0,.9-.532,7.841,7.841,0,0,0,5.617-.1,2.459,2.459,0,0,0,1,.634l1.51.508a4.661,4.661,0,0,1,3.172,4.418v4.2Zm0,0" transform="translate(-149.726 -321.725)" fill="#69d998"/>
      <path id="Trazado_874809" data-name="Trazado 874809" d="M227.925,369.191l-1.776,6.274a.49.49,0,0,0,.107.461l1.322,1.473a.491.491,0,0,0,.714.018l1.47-1.482a.49.49,0,0,0,.12-.492Zm0,0" transform="translate(-199.328 -326.152)" fill="#3dc5a1"/>
      <path id="Trazado_874810" data-name="Trazado 874810" d="M56.71,262.54c0-.01,0-.021,0-.031l-.616-8.038a2.862,2.862,0,0,0-1.372-2.235l-.14-.085-.366-2.687a4.293,4.293,0,0,0,1.128-1.448c.01-.02.019-.039.027-.059a4.242,4.242,0,0,0,.389-1.777v-3.236a3.331,3.331,0,0,0-3.328-3.327H50.543a3.334,3.334,0,0,0-3.228,2.517.886.886,0,0,0-.039.084.871.871,0,0,0-.05.459c-.007.088-.011.177-.011.266v3.237a4.27,4.27,0,0,0,1.959,3.588l-.243,2.421a.87.87,0,0,0-.138.131l-5.284,6.327-3.661-.013a.817.817,0,0,0-.2.022,3.845,3.845,0,0,0-1.694.87v-1.2a5.534,5.534,0,0,0-3.768-5.247l-1.511-.509a1.582,1.582,0,0,1-.645-.409,1.6,1.6,0,0,1-.445-1.112v-1.628l.514-.313a3.063,3.063,0,0,0,1.46-2.6v-5.021a3.377,3.377,0,0,0-3.372-3.375H27.1a3.377,3.377,0,0,0-3.372,3.375v5.02a3.062,3.062,0,0,0,1.46,2.6l.515.314v1.627a1.616,1.616,0,0,1-.512,1.178,1.575,1.575,0,0,1-.58.344l-1.51.508a5.533,5.533,0,0,0-3.768,5.248v1.262a3.843,3.843,0,0,0-1.768-.937.835.835,0,0,0-.2-.022l-3.661.013L8.419,252.32a.853.853,0,0,0-.138-.131l-.243-2.421A4.27,4.27,0,0,0,10,246.179v-3.236c0-.09-.005-.179-.012-.267a.873.873,0,0,0-.05-.459.838.838,0,0,0-.039-.084,3.333,3.333,0,0,0-3.228-2.517H4.781a3.331,3.331,0,0,0-3.328,3.327v3.236a4.241,4.241,0,0,0,.389,1.777c.008.02.017.04.027.06A4.3,4.3,0,0,0,3,249.463l-.366,2.688-.14.085a2.86,2.86,0,0,0-1.372,2.232L.5,262.509c0,.01,0,.021,0,.031s0,.023,0,.036V264.8a5.253,5.253,0,0,0,5.248,5.246H51.464a5.253,5.253,0,0,0,5.248-5.246v-2.224c0-.012,0-.024,0-.036Zm-6.168-21.175h1.889a1.581,1.581,0,0,1,1.579,1.578v3.234l-.91-.638v-.817a1.667,1.667,0,0,0-1.06-1.559l-2.8-1.109A1.578,1.578,0,0,1,50.543,241.365Zm-1.579,2.461,2.389.945v.805a1.678,1.678,0,0,0,.714,1.373l1.3.912a2.523,2.523,0,0,1-4.4-1.681Zm2.524,6.625a4.259,4.259,0,0,0,1.079-.138l.141,1.032a4.726,4.726,0,0,0-1.935.01l.1-.949a4.285,4.285,0,0,0,.62.046Zm-11.536,9.932,3.962.014h0a.873.873,0,0,0,.671-.314l5.476-6.556a2.994,2.994,0,0,1,3.256-.1l.5.3a1.114,1.114,0,0,1,.533.87l.544,7.1h-4.26v-3.06l.526-.552a.874.874,0,0,0-1.266-1.206L45.306,261.7H38.536a2.078,2.078,0,0,1,1.415-1.319Zm-6.323-5.643a3.786,3.786,0,0,1,2.577,3.59V261.7H30.022l1.189-1.2a.874.874,0,0,0,.214-.877l-1.722-5.5a8.682,8.682,0,0,0,1.514-.359,3.341,3.341,0,0,0,.9.466Zm-6.181-4.285a3.021,3.021,0,0,0,2.39,0v.6a3.364,3.364,0,0,0,.23,1.224,6.864,6.864,0,0,1-2.881.072,3.362,3.362,0,0,0,.262-1.3Zm1.139,5.961,1.011,3.23-1.021,1.029-.908-1.012Zm-1.49-16.55h3.092a1.627,1.627,0,0,1,1.623,1.626v1.132l-4.221-1.358a.877.877,0,0,0-.673.057l-1.444.754v-.585a1.626,1.626,0,0,1,1.623-1.626Zm-1.623,4.184,1.929-1.007,4.408,1.418v2.051a1.3,1.3,0,0,1-.621,1.107l-1.876,1.143a1.288,1.288,0,0,1-1.344,0L26.1,247.619a1.3,1.3,0,0,1-.621-1.107Zm-1.817,10.69,1.507-.507a3.3,3.3,0,0,0,.79-.386,8.7,8.7,0,0,0,1.457.306l-1.556,5.5a.873.873,0,0,0,.19.822l1.1,1.229H21.08v-3.371A3.784,3.784,0,0,1,23.657,254.74ZM5.725,248.7a2.518,2.518,0,0,1-1.879-.841l1.3-.912a1.679,1.679,0,0,0,.714-1.372v-.805l2.389-.945v2.354A2.526,2.526,0,0,1,5.725,248.7Zm-.944-7.337H6.67a1.579,1.579,0,0,1,1.3.689l-2.8,1.109a1.667,1.667,0,0,0-1.06,1.559v.817l-.91.638v-3.234a1.58,1.58,0,0,1,1.579-1.578Zm.944,9.086a4.277,4.277,0,0,0,.62-.046l.1.949a4.727,4.727,0,0,0-1.935-.01l.141-1.032a4.279,4.279,0,0,0,1.079.138ZM2.863,254.6a1.111,1.111,0,0,1,.533-.867l.5-.3a3,3,0,0,1,3.256.1l5.476,6.556a.874.874,0,0,0,.671.314h0l3.962-.014a2.077,2.077,0,0,1,1.415,1.319H11.908l-4.59-4.819a.874.874,0,1,0-1.266,1.206l.526.552v3.06H2.319Zm52.1,10.2a3.5,3.5,0,0,1-3.5,3.5H5.749a3.5,3.5,0,0,1-3.5-3.5v-1.349H6.578v.214a3.524,3.524,0,0,0,.959,2.42.874.874,0,1,0,1.275-1.2,1.779,1.779,0,0,1-.485-1.223v-3.187l2.342,2.458v.419a3.42,3.42,0,0,0,3.417,3.416h3.683a.874.874,0,1,0,0-1.749H14.085a1.669,1.669,0,0,1-1.664-1.561h7.248a.889.889,0,0,0,.126-.01H37.418a.884.884,0,0,0,.126.01h7.426a1.67,1.67,0,0,1-1.664,1.561h-21.8a.874.874,0,1,0,0,1.749h21.8a3.42,3.42,0,0,0,3.417-3.416v-.568c0-.012,0-.024,0-.036l2.165-2.273v3.187a1.778,1.778,0,0,1-.484,1.223.874.874,0,0,0,1.275,1.2,3.524,3.524,0,0,0,.958-2.42v-.214h4.329Zm0,0" transform="translate(0 -210.358)"/>
      <path id="Trazado_874811" data-name="Trazado 874811" d="M11.166,25.991h.147a3.714,3.714,0,0,0,6.718,0H30.582a2.5,2.5,0,0,0,2.354-1.679,4.426,4.426,0,0,0,5.71-.415A2.5,2.5,0,0,0,41.1,25.991H53.657a3.713,3.713,0,0,0,6.717,0h.147A2.5,2.5,0,0,0,63.014,23.5V9.757a2.5,2.5,0,0,0-2.494-2.493H53.434a.874.874,0,1,0,0,1.749h7.087a.746.746,0,0,1,.745.745V23.5a.745.745,0,0,1-.745.744h-.252a1.581,1.581,0,0,0-1.452.949,1.965,1.965,0,0,1-3.6,0,1.582,1.582,0,0,0-1.452-.948H41.1a.745.745,0,0,1-.745-.744v-1h7.359a2.908,2.908,0,0,0,2.905-2.9V2.9A2.908,2.908,0,0,0,47.719,0H23.373a2.909,2.909,0,0,0-2.906,2.9V7.264h-9.3A2.5,2.5,0,0,0,8.672,9.757V11a.874.874,0,0,0,1.749,0V9.757a.746.746,0,0,1,.745-.745h9.3V19.59a2.909,2.909,0,0,0,2.906,2.9h7.953v1a.745.745,0,0,1-.745.744H17.926a1.583,1.583,0,0,0-1.453.949,1.965,1.965,0,0,1-3.6,0,1.582,1.582,0,0,0-1.452-.948h-.252a.745.745,0,0,1-.745-.744V14.68a.874.874,0,0,0-1.749,0V23.5a2.5,2.5,0,0,0,2.494,2.493Zm11.051-6.4V2.9a1.158,1.158,0,0,1,1.157-1.156H47.719A1.158,1.158,0,0,1,48.875,2.9V19.59a1.158,1.158,0,0,1-1.157,1.156H39.626a1.766,1.766,0,0,0-.3.026l-.025,0A1.758,1.758,0,0,0,38.009,21.8a2.686,2.686,0,0,1-4.925,0,1.761,1.761,0,0,0-1.617-1.056H23.373a1.158,1.158,0,0,1-1.157-1.156Zm0,0" transform="translate(-7.219)"/>
      <path id="Trazado_874812" data-name="Trazado 874812" d="M149.429,44.5h18.91a.874.874,0,1,0,0-1.749h-18.91a.874.874,0,0,0,0,1.749Zm0,0" transform="translate(-130.795 -37.77)"/>
      <path id="Trazado_874813" data-name="Trazado 874813" d="M149.429,83.038h18.91a.874.874,0,1,0,0-1.749h-18.91a.874.874,0,0,0,0,1.749Zm0,0" transform="translate(-130.795 -71.813)"/>
      <path id="Trazado_874814" data-name="Trazado 874814" d="M160.508,120.7a.874.874,0,0,0-.874-.874h-10.2a.874.874,0,0,0,0,1.749h10.2A.875.875,0,0,0,160.508,120.7Zm0,0" transform="translate(-130.795 -105.859)"/>
    </g>
  </g>
</svg>
