<svg xmlns="http://www.w3.org/2000/svg" xmlns:xlink="http://www.w3.org/1999/xlink" width="514" height="377.79" viewBox="0 0 514 377.79">
  <defs>
    <clipPath id="clip-path">
      <rect id="Rectángulo_404387" data-name="Rectángulo 404387" width="505" height="370" transform="translate(915 522)" fill="#fff" stroke="#707070" stroke-width="1"/>
    </clipPath>
    <clipPath id="clip-path-2">
      <path id="Trazado_884583" data-name="Trazado 884583" d="M867.362,782.714c-1.051-9.622-12.728-15.629-13.292-25.288-.542-9.281,9.344-15.9,11.5-24.944,2.884-12.1-8.7-23.283-8.7-35.721a19.676,19.676,0,0,1,38.441-5.927c4.035,12.783-5.174,28.176,2.068,39.458,6.776,10.559,23.939,10.412,30.341,21.2,4.716,7.949,1.4,18.033-1.828,26.692s-6.066,19.055-.681,26.566c2.993,4.174,7.915,6.44,11.883,9.7a28.568,28.568,0,0,1-12.354,50.06l-18.117,13.023c-6.141,7.613-19.059,6.562-26.062-.269s-9-17.419-8.327-27.18c.429-6.255,1.7-13.006-1.421-18.449-3.455-6.036-11.48-8.756-13.893-15.28-2.1-5.679.912-11.883,4.149-17s6.944-10.626,6.284-16.642Z" transform="translate(-854.049 -677.102)" fill="#79c0ff"/>
    </clipPath>
    <clipPath id="clip-path-3">
      <path id="Trazado_884586" data-name="Trazado 884586" d="M744.094,958.3c-4.922-5.561-2.312-15.288-7.507-20.593-4.994-5.095-13.851-2.892-20.1-6.335-8.361-4.6-8.735-16.949-15.8-23.367a15.1,15.1,0,0,0-23.195,18.777c5.179,8.886,18.672,11.593,21.341,21.526,2.5,9.294-6.436,18.966-3.607,28.168,2.085,6.78,9.521,10.093,16.1,12.728s13.947,6.381,15.44,13.317c.828,3.855-.425,7.814-.622,11.753a21.917,21.917,0,0,0,34.8,18.807l16.743-3.573c7.491.437,13.556-7.44,13.287-14.939s-5.254-14.094-11.144-18.748c-3.775-2.985-8.26-5.746-9.744-10.32-1.648-5.074.946-11.038-1.513-15.772-2.14-4.12-7.222-5.612-11.8-6.415s-9.614-1.539-12.695-5.015Z" transform="translate(-675.567 -904.232)" fill="#4f95ff"/>
    </clipPath>
    <clipPath id="clip-path-4">
      <path id="Trazado_884590" data-name="Trazado 884590" d="M1828.792,831.014c1.051-9.622,12.728-15.629,13.292-25.288.542-9.281-9.344-15.9-11.5-24.944-2.884-12.1,8.7-23.283,8.7-35.721a19.676,19.676,0,0,0-38.441-5.927c-4.035,12.783,5.175,28.176-2.068,39.458-6.776,10.559-23.939,10.412-30.341,21.2-4.716,7.949-1.4,18.033,1.828,26.692s6.066,19.055.681,26.566c-2.993,4.174-7.915,6.44-11.883,9.7a28.568,28.568,0,0,0,12.354,50.06l18.117,13.022c6.141,7.613,19.059,6.562,26.062-.269s9-17.419,8.327-27.18c-.429-6.255-1.7-13.006,1.421-18.449,3.455-6.036,11.48-8.756,13.892-15.28,2.1-5.679-.912-11.883-4.149-17s-6.944-10.626-6.284-16.642Z" transform="translate(-1748.667 -725.402)" fill="#79c0ff"/>
    </clipPath>
    <clipPath id="clip-path-5">
      <rect id="Rectángulo_404439" data-name="Rectángulo 404439" width="259.257" height="359.237" transform="translate(0 0)" fill="none"/>
    </clipPath>
    <clipPath id="clip-path-6">
      <rect id="Rectángulo_404389" data-name="Rectángulo 404389" width="19.956" height="19.955" fill="none"/>
    </clipPath>
    <clipPath id="clip-path-7">
      <rect id="Rectángulo_404389-2" data-name="Rectángulo 404389" width="19.956" height="19.955" fill="none" stroke="#2e53f0" stroke-width="1"/>
    </clipPath>
    <clipPath id="clip-path-8">
      <rect id="Rectángulo_404437" data-name="Rectángulo 404437" width="41.76" height="32.387" transform="translate(0 0)" fill="none"/>
    </clipPath>
    <clipPath id="clip-path-9">
      <rect id="Rectángulo_404437-2" data-name="Rectángulo 404437" width="37.211" height="28.859" fill="none"/>
    </clipPath>
    <clipPath id="clip-path-10">
      <rect id="Rectángulo_404437-3" data-name="Rectángulo 404437" width="41.76" height="32.387" fill="none"/>
    </clipPath>
    <filter id="Trazado_884927" x="0" y="72.817" width="75.179" height="56.801" filterUnits="userSpaceOnUse">
      <feOffset dy="3" input="SourceAlpha"/>
      <feGaussianBlur stdDeviation="3" result="blur"/>
      <feFlood flood-opacity="0.161"/>
      <feComposite operator="in" in2="blur"/>
      <feComposite in="SourceGraphic"/>
    </filter>
    <clipPath id="clip-path-11">
      <rect id="Rectángulo_404476" data-name="Rectángulo 404476" width="57.179" height="44.785" fill="none"/>
    </clipPath>
    <clipPath id="clip-path-12">
      <rect id="Rectángulo_404477" data-name="Rectángulo 404477" width="41.544" height="44.784" fill="none"/>
    </clipPath>
    <clipPath id="clip-path-13">
      <rect id="Rectángulo_404449" data-name="Rectángulo 404449" width="131.792" height="89.429" fill="none"/>
    </clipPath>
    <clipPath id="clip-path-16">
      <rect id="Rectángulo_404491" data-name="Rectángulo 404491" width="128.431" height="100.294" fill="none"/>
    </clipPath>
  </defs>
  <g id="Grupo_1102348" data-name="Grupo 1102348" transform="translate(-906 -513.914)">
    <g id="Grupo_1103849" data-name="Grupo 1103849" transform="translate(10898 10778.467)">
      <path id="Trazado_884579" data-name="Trazado 884579" d="M2509.925,781.4c46.479-44.368,57.583-134.954,14.532-197.938-35.883-52.5-101.976-106.5-185.26-122.236s-156.25-15.723-187.805,5.072c-25.823,17.018-13.819,40.718-5.72,60.859,10.811,26.886,12.4,48.233-32.069,87.291-50.769,44.585-64.51,61.323-67.054,104.436-2.07,35.064,27.205,82.231,65.618,88.988,53.478,9.409,73.326-15.443,125.646-32.2,41.97-13.44,71.081-7.156,109.134,18.6s94.773,52.232,162.981-12.88Z" transform="translate(-12029.445 -10714.55)" fill="#a3caff" opacity="0.5"/>
      <g id="Enmascarar_grupo_1099700" data-name="Enmascarar grupo 1099700" transform="translate(-10898 -10785.5)" clip-path="url(#clip-path)">
        <g id="Grupo_1103859" data-name="Grupo 1103859" transform="translate(25.099)">
          <path id="Trazado_884580" data-name="Trazado 884580" d="M905.59,961.341a70.928,70.928,0,0,0,36.188-34.868c4.309-9.21,6-21.509-1.438-28.437-4.956-4.615-12.64-5.233-19.126-3.287S909.142,900.8,903.7,904.837c3.918-8.739,7.911-17.8,7.97-27.373s-4.914-19.874-13.973-22.972c-8.256-2.825-17.688,1.148-23.443,7.709s-8.474,15.221-10.294,23.754c-2.03-10.072-4.254-20.555-10.652-28.592s-18.34-12.669-27.251-7.558c-6.612,3.792-9.786,11.9-9.761,19.517s2.707,14.96,5.355,22.11A70.511,70.511,0,0,0,791.4,867.909c-8-3.237-18.626-4.321-23.973,2.459-3.632,4.607-3.287,11.4-.7,16.671s7.016,9.357,11.349,13.313c-7.314-5.082-14.931-10.294-23.7-11.866s-19.05,1.555-23,9.538c-5.25,10.605,2.716,22.888,11.089,31.249,30.755,30.717,81.789,68.392,125.434,69.527,5.181.135,2.476-19.58,7.889-19.976" transform="translate(162.958 -94.325)" fill="#2e53f0"/>
          <g id="Grupo_1103856" data-name="Grupo 1103856" transform="translate(919.926 722.642)">
            <path id="Trazado_884581" data-name="Trazado 884581" d="M867.362,782.714c-1.051-9.622-12.728-15.629-13.292-25.288-.542-9.281,9.344-15.9,11.5-24.944,2.884-12.1-8.7-23.283-8.7-35.721a19.676,19.676,0,0,1,38.441-5.927c4.035,12.783-5.174,28.176,2.068,39.458,6.776,10.559,23.939,10.412,30.341,21.2,4.716,7.949,1.4,18.033-1.828,26.692s-6.066,19.055-.681,26.566c2.993,4.174,7.915,6.44,11.883,9.7a28.568,28.568,0,0,1-12.354,50.06l-18.117,13.023c-6.141,7.613-19.059,6.562-26.062-.269s-9-17.419-8.327-27.18c.429-6.255,1.7-13.006-1.421-18.449-3.455-6.036-11.48-8.756-13.893-15.28-2.1-5.679.912-11.883,4.149-17s6.944-10.626,6.284-16.642Z" transform="translate(-854.049 -677.102)" fill="#79c0ff"/>
            <g id="Grupo_1103855" data-name="Grupo 1103855" clip-path="url(#clip-path-2)">
              <path id="Trazado_884582" data-name="Trazado 884582" d="M909.041,868.583c-15.91-19.706-17.062-47.083-25.4-71-5.057-14.5-12.88-27.953-17.373-42.64C860,734.453,860.5,712.616,858.393,691.3s-7.554-43.649-22.846-58.656m-.492,26.318a273.588,273.588,0,0,0,23.17,32.871M830.843,686a78.04,78.04,0,0,0,29.42,29.278m-34.78-15.637A91.621,91.621,0,0,0,860.831,722m-2.3-29.858a53.293,53.293,0,0,0,10.614-29.82m-10.223,37.327a85.509,85.509,0,0,0,13.086-14.809m-1,82.965c15.688-12.161,25.162-28.269,30.913-43.1m-35.385,31.11a83.722,83.722,0,0,0,27.23-41.644M822,727.984a98,98,0,0,0,42.628,19.408M808.77,754.7a184,184,0,0,0,70.262,31.291M835.862,765.1c13.321,6.5,25.44,10.042,39.87,13.426m8.344,19.694a80.688,80.688,0,0,0,16.7-26.6M890.31,818.683a77.929,77.929,0,0,0,29.5-34.612M819.216,803.828a352.385,352.385,0,0,0,68.967,9.428m-54.776.37a226.015,226.015,0,0,0,57.319,8.743" transform="translate(-827.803 -651.33)" fill="none" stroke="#4f95ff" stroke-miterlimit="10" stroke-width="5.71" opacity="0.53"/>
            </g>
          </g>
          <g id="Grupo_1103858" data-name="Grupo 1103858" transform="translate(894.901 831.115)">
            <path id="Trazado_884584" data-name="Trazado 884584" d="M744.094,958.3c-4.922-5.561-2.312-15.288-7.507-20.593-4.994-5.095-13.851-2.892-20.1-6.335-8.361-4.6-8.735-16.949-15.8-23.367a15.1,15.1,0,0,0-23.195,18.777c5.179,8.886,18.672,11.593,21.341,21.526,2.5,9.294-6.436,18.966-3.607,28.168,2.085,6.78,9.521,10.093,16.1,12.728s13.947,6.381,15.44,13.317c.828,3.855-.425,7.814-.622,11.753a21.917,21.917,0,0,0,34.8,18.807l16.743-3.573c7.491.437,13.556-7.44,13.287-14.939s-5.254-14.094-11.144-18.748c-3.775-2.985-8.26-5.746-9.744-10.32-1.648-5.074.946-11.038-1.513-15.772-2.14-4.12-7.222-5.612-11.8-6.415s-9.614-1.539-12.695-5.015Z" transform="translate(-675.567 -904.232)" fill="#4f95ff"/>
            <g id="Grupo_1103857" data-name="Grupo 1103857" clip-path="url(#clip-path-3)">
              <path id="Trazado_884585" data-name="Trazado 884585" d="M676.821,872.81c.639,16.423,10.509,31.035,21.53,43.229s23.687,23.17,32.09,37.3c6.024,10.126,9.626,21.509,15.255,31.858,9.281,17.071,24.237,31.846,27.226,51.047M698.738,916.215a210.247,210.247,0,0,0-6.717-30.114m18.987,43.363a59.914,59.914,0,0,0-1.454-31.808m4.981,35.6a70.26,70.26,0,0,0,5.528-31.61M676.35,907.2a40.916,40.916,0,0,0,22.409,9.353m-11.093,3.888a65.535,65.535,0,0,0,15.158.206m-7.953,37.34c11.392,4.384,25.427,7.314,40.425,4.674m-42.2-14.737a64.235,64.235,0,0,0,37.7,6.011m-3.8-5.431a75.179,75.179,0,0,0,10.963-34.221m3.531,62.309a141.285,141.285,0,0,0,18.466-56.045m-21,50.324c5.523-9.941,9.76-18.651,12.938-29.568m-29.778,40.232a61.92,61.92,0,0,0,23.72,4.233m-26.465,13a59.774,59.774,0,0,0,34.872,1.1m-1.984-4.006a270.082,270.082,0,0,0,30.215-44.032M756.116,1002a173.646,173.646,0,0,0,24.6-37.067" transform="translate(-676.021 -886.018)" fill="none" stroke="#fefefe" stroke-miterlimit="10" stroke-width="4.38" opacity="0.23"/>
            </g>
          </g>
        </g>
        <g id="Grupo_1103862" data-name="Grupo 1103862" transform="translate(499.869)">
          <path id="Trazado_884587" data-name="Trazado 884587" d="M1680.776,919.757c-16.1,1.9-33.208-2.6-47.075-12.4-8.23-5.813-15.978-15.553-13.615-25.1,1.572-6.36,7.4-10.614,13.607-12.085s12.808-.651,19.256.177c-7.676-5.6-15.574-11.442-20.593-19.635s-6.385-19.437-.74-26.486c5.145-6.423,14.759-7.583,22.775-4.737s14.687,8.958,20.576,15.4c-3.6-9.626-7.268-19.7-6.318-29.7s8.1-19.757,17.894-19.685c7.264.055,14.01,5.469,17.949,12.026s5.6,14.149,7.192,21.568a66.854,66.854,0,0,1,12.009-34.843c4.729-6.654,12.669-12.732,20.467-9.5,5.3,2.194,8.55,8.2,9.218,13.968s-.761,11.429-2.173,16.923c3.22-7.907,6.612-16.066,12.812-21.665s16.057-7.89,23.367-2.951c9.71,6.562,9.71,20.959,7.348,32.191-9.761,46.415-40.118,86.546-81.018,107.1" transform="translate(-875.905 -10.548)" fill="#2e53f0"/>
          <g id="Grupo_1103861" data-name="Grupo 1103861" transform="translate(809.98 742.944)">
            <path id="Trazado_884588" data-name="Trazado 884588" d="M1828.792,831.014c1.051-9.622,12.728-15.629,13.292-25.288.542-9.281-9.344-15.9-11.5-24.944-2.884-12.1,8.7-23.283,8.7-35.721a19.676,19.676,0,0,0-38.441-5.927c-4.035,12.783,5.175,28.176-2.068,39.458-6.776,10.559-23.939,10.412-30.341,21.2-4.716,7.949-1.4,18.033,1.828,26.692s6.066,19.055.681,26.566c-2.993,4.174-7.915,6.44-11.883,9.7a28.568,28.568,0,0,0,12.354,50.06l18.117,13.022c6.141,7.613,19.059,6.562,26.062-.269s9-17.419,8.327-27.18c-.429-6.255-1.7-13.006,1.421-18.449,3.455-6.036,11.48-8.756,13.892-15.28,2.1-5.679-.912-11.883-4.149-17s-6.944-10.626-6.284-16.642Z" transform="translate(-1748.667 -725.402)" fill="#79c0ff"/>
            <g id="Grupo_1103860" data-name="Grupo 1103860" clip-path="url(#clip-path-4)">
              <path id="Trazado_884589" data-name="Trazado 884589" d="M1836.339,680.95c-15.288,15.007-20.74,37.336-22.846,58.656s-1.6,43.162-7.873,63.645c-4.494,14.683-12.321,28.138-17.373,42.64-8.335,23.918-9.491,51.3-25.4,71m50.816-176.758a273.587,273.587,0,0,0,23.17-32.871m-25.2,56.323a78.1,78.1,0,0,0,29.42-29.277m-29.992,36a91.62,91.62,0,0,0,35.347-22.363m-43.662-37.315a53.293,53.293,0,0,0,10.614,29.82m-13.476-7.3a85.651,85.651,0,0,0,13.085,14.809m-43,25.049c5.75,14.834,15.225,30.942,30.913,43.1m-22.758-53.637a83.767,83.767,0,0,0,27.23,41.644m1.917-8.424a97.977,97.977,0,0,0,42.628-19.408M1792.858,834.3a184.091,184.091,0,0,0,70.262-31.291m-66.962,23.826c14.435-3.38,26.549-6.923,39.87-13.426m-64.919,6.524a80.717,80.717,0,0,0,16.7,26.6m-35.73-14.149a77.876,77.876,0,0,0,29.5,34.612m2.127-5.427a352.064,352.064,0,0,0,68.967-9.429m-71.514,18.542a226.361,226.361,0,0,0,57.319-8.743" transform="translate(-1750.646 -699.635)" fill="none" stroke="#4f95ff" stroke-miterlimit="10" stroke-width="5.71" opacity="0.53"/>
            </g>
          </g>
        </g>
      </g>
      <g id="Grupo_1106182" data-name="Grupo 1106182" transform="translate(-9924.064 -10246.003)">
        <g id="Grupo_1106181" data-name="Grupo 1106181" transform="translate(0 0.003)" clip-path="url(#clip-path-5)">
          <path id="Trazado_884874" data-name="Trazado 884874" d="M259.257,1360.336c0,7.471-58.037,13.526-129.628,13.526S0,1367.807,0,1360.336s58.037-13.526,129.629-13.526,129.628,6.057,129.628,13.526" transform="translate(0 -1014.625)" fill="#006eab"/>
          <path id="Trazado_884875" data-name="Trazado 884875" d="M611.3,1303.563c.063-4.056.348-8.716,1.477-10.426,1.76-2.978,3.076,1.6,6.749,1.316l2.825-3.914c-.564,3.738,2.068,8.368,5.088,10.692a19.023,19.023,0,0,0,2.94,2.332Z" transform="translate(-460.523 -972.234)" fill="#f18c6e"/>
          <path id="Trazado_884881" data-name="Trazado 884881" d="M291.588,1303.563c-.064-4.056-.349-8.716-1.477-10.426-1.76-2.978-3.076,1.6-6.75,1.316l-2.825-3.914c.565,3.738-2.066,8.368-5.087,10.692a18.976,18.976,0,0,1-2.941,2.332Z" transform="translate(-205.295 -972.234)" fill="#f18c6e"/>
          <path id="Trazado_884882" data-name="Trazado 884882" d="M225.688,1331.713c-4.863,1.806-11.365,1.646-15.87-.856a12.541,12.541,0,0,1-1.131.99,19.206,19.206,0,0,1-9.1,5.01c-2.759.689-5.932-1.059-9.013-.093-6.782,2.181-8.072,11.1-1.679,14,5.791,2.852,12.85.993,18.966-.342,7.057-1.859,20.912,1.285,19.342-10.6-.232-1.76-1.365-4.7-1.51-8.112" transform="translate(-139.165 -1002.607)" fill="#e02f35"/>
          <path id="Trazado_884883" data-name="Trazado 884883" d="M209.079,1388.3c-6.643,1.331-14.308,3.192-20.6.34a8.123,8.123,0,0,1-2.338-1.458,6.852,6.852,0,0,0,3.814,4.11c5.791,2.852,12.85.992,18.966-.342,6.026-1.588,17,.465,19.1-6.3-4.2,3.542-13.463,2.314-18.946,3.645" transform="translate(-140.23 -1043.135)" fill="#fff"/>
          <path id="Trazado_884884" data-name="Trazado 884884" d="M217.356,1350.147q.177-.038.356-.066c-.2.032.151-.012.2-.014a4.686,4.686,0,0,1,.68.007c.007,0,.226.023.088.007s.078.013.086.014q.147.025.291.06a5.944,5.944,0,0,1,.66.207c.036.013.146.064-.017-.009l.151.069q.135.064.267.135a6.128,6.128,0,0,1,.6.373c.044.031.276.207.133.094q.136.108.267.221.267.231.513.485c.168.172.328.352.482.536l.093.113c0-.005.145.183.071.088s.073.1.069.091q.066.089.131.18a12.878,12.878,0,0,1,.8,1.273c.238.432.453.876.647,1.329.058.135-.072-.181.018.044l.056.14q.069.174.134.35.129.347.241.7a14.773,14.773,0,0,1,.4,1.51c.052.25.087.5.132.754.024.132-.023-.208,0,0,.007.062.015.125.021.187.013.122.023.244.032.366a.858.858,0,0,0,.837.837.845.845,0,0,0,.838-.837,15.29,15.29,0,0,0-1.8-6.023,9.654,9.654,0,0,0-4.285-4.459,5.809,5.809,0,0,0-3.632-.375.838.838,0,1,0,.445,1.615" transform="translate(-162.949 -1015.82)" fill="#002c4f"/>
          <path id="Trazado_884885" data-name="Trazado 884885" d="M254.283,1347.1a5.247,5.247,0,0,1,.7.151q.169.049.335.111c.047.017.093.038.14.054-.244-.082-.028-.011.028.015a4.547,4.547,0,0,1,.559.31q.081.053.16.11c.057.04.139.148-.015-.015.075.079.174.144.254.219s.159.155.233.237c.032.035.062.071.092.107l.059.073q-.117-.152-.06-.076a5.847,5.847,0,0,1,.326.542l.039.085c-.053-.128-.063-.151-.03-.07.016.044.033.088.049.133a3.158,3.158,0,0,1,.092.321c.011.047.021.094.029.142.043.234-.007-.133,0,.02.009.117.017.233.018.35a.838.838,0,0,0,1.675,0,4.233,4.233,0,0,0-1.31-3.018,5.424,5.424,0,0,0-2.934-1.418.918.918,0,0,0-.645.084.837.837,0,0,0,.2,1.531" transform="translate(-191.109 -1013.614)" fill="#002c4f"/>
          <path id="Trazado_884886" data-name="Trazado 884886" d="M264.659,1339.183c.116,0,.231.009.347.018.2.016-.191-.037,0,0,.054.011.108.021.161.033a3.021,3.021,0,0,1,.309.09c.049.017.1.041.148.057l-.1-.043.095.045a4.178,4.178,0,0,1,.514.314c.064.044-.149-.122,0,0,.041.034.081.068.121.1q.12.107.233.222a2.32,2.32,0,0,1,.412.474c-.093-.179-.035-.044,0,.008s.065.091.1.137c.065.093.127.187.188.282a13.4,13.4,0,0,1,.666,1.195.843.843,0,0,0,1.146.3.858.858,0,0,0,.3-1.146,9.24,9.24,0,0,0-1.7-2.51,4.217,4.217,0,0,0-2.928-1.254.837.837,0,0,0,0,1.675" transform="translate(-198.751 -1007.617)" fill="#002c4f"/>
          <path id="Trazado_884887" data-name="Trazado 884887" d="M305.1,804.992c3.226-13.985,22.25-79.74,26.087-97.023,2.76-12.677,32.248-76.69.842-72.862l-22.285,1.3c-10.008,10.264-12.1,30.774-13.336,43.938-1.485,17.043-2.581,34.11-4.063,51.153-1.9,17.408-3.019,67.563-1.842,73.5Z" transform="translate(-218.491 -478.337)" fill="#f58b34"/>
          <path id="Trazado_884888" data-name="Trazado 884888" d="M477.2,805.016h14.708c1.18-5.935-3.42-56.09-5.316-73.5-1.483-17.043-2.578-34.11-4.062-51.153-1.235-13.164-3.33-33.674-13.337-43.938l-22.284-1.3c-31.407-3.828,4.47,63.591,7.231,76.267,3.837,17.283,17.019,83.812,23.06,93.617" transform="translate(-327.028 -478.362)" fill="#f58b34"/>
          <path id="Trazado_884889" data-name="Trazado 884889" d="M475.41,714.607a75.406,75.406,0,0,0-1.44,11.728c-.147,3.534-.046,7.072.039,10.606.054,2.267.1,4.534.1,6.8a.875.875,0,0,0,1.749,0c0-3.813-.144-7.623-.2-11.435a88.192,88.192,0,0,1,.4-10.571c.237-2.225.592-4.434,1.041-6.665a.9.9,0,0,0-.611-1.076.883.883,0,0,0-1.076.611" transform="translate(-357.01 -537.871)" fill="#002c4f"/>
          <path id="Trazado_884890" data-name="Trazado 884890" d="M337.205,724.178a16.19,16.19,0,0,1-2.1,7.081,29.048,29.048,0,0,1-4.551,5.964c-.969,1.018-1.98,1.994-3,2.956a.875.875,0,0,0,1.237,1.237c3.818-3.584,7.618-7.561,9.32-12.629a16.879,16.879,0,0,0,.849-4.608.875.875,0,1,0-1.749,0" transform="translate(-246.57 -544.904)" fill="#002c4f"/>
          <path id="Trazado_884891" data-name="Trazado 884891" d="M357.236.559C345.095-2.2,336.35,5.67,332.042,16.593c-4.7,11.908-9.448,25.192-10.879,37.791-1.432,12.309-1.718,25.479-2,37.79,0,4.581-2.291,14.6.285,18.322,2.291,4.009,12.311,2.291,17.178,2.291,7.157,0,16.033-1.146,22.9-.286h-.286c1.146-16.89,5.184-42.163,4.324-59.054,2.919-5.583,8.373-9.018,8.979-22.442.375-8.3-13.875-10.978-14.161-18.994,0-1.718.286-3.436.286-5.155Z" transform="translate(-239.733 -0.003)" fill="#00102e"/>
          <path id="Trazado_884892" data-name="Trazado 884892" d="M374.962,293.227c-1.4-13.056,1.624-22.675,5.927-34.661,3.995-11.678,9.58-17.485,3.433-29.779-3.074-6.147-10.7-13.2-18.082-12.274-6.454.921-7.48,1.487-13.628,3.637-1.536.615-3.38.306-4.3.92-.922-.613-2.766-.305-4.3-.92-6.146-2.151-11.676-8.034-18.131-8.954-7.377-.923-11.679,4.609-14.752,10.756-6.148,12.294.614,24.935,4.609,36.614,4.3,11.986,5.136,24.752,5.136,37.881,0,12.026-5.211,19.384-3.133,25.337,3.133,8.979,6.752,8.979,30.843,8.979s30.611-1.156,30.9-9.407c.311-8.848-3.3-16.748-4.519-28.129" transform="translate(-232.522 -159.03)" fill="#e02f35"/>
          <path id="Trazado_884893" data-name="Trazado 884893" d="M321.431,273.807c4.457-7.73,5.595-10.5,6.14-17.336-2.413,3.13-5.921,5.182-9.207,7.606a56.453,56.453,0,0,0-8.236,7.4c.79,5.281,2.752,10.525,4.666,15.632,2.6-3.538,4.432-9.484,6.636-13.306" transform="translate(-233.637 -193.214)" fill="#002c4f"/>
          <path id="Trazado_884894" data-name="Trazado 884894" d="M394.588,83.4c-2.278.349-3.723,2.656-2.3,5.893,1.206,2.739,1.484,5.311,3.76,4.961s3.793-3.061,3.39-6.059-2.578-5.142-4.854-4.794" transform="translate(-295.107 -62.803)" fill="#f18c6e"/>
          <path id="Trazado_884895" data-name="Trazado 884895" d="M522.716,83.4c-2.277-.348-4.448,1.8-4.853,4.794s1.112,5.71,3.389,6.059,2.552-2.222,3.761-4.961c1.425-3.237-.02-5.544-2.3-5.893" transform="translate(-390.085 -62.803)" fill="#f18c6e"/>
          <path id="Trazado_884896" data-name="Trazado 884896" d="M430.817,151.642l-3.53,22.245c0,3.616-1.937,10.882,10.587,10.882s10.586-7.265,10.586-10.882l-3.53-22.245Z" transform="translate(-321.816 -114.241)" fill="#f18c6e"/>
          <path id="Trazado_884897" data-name="Trazado 884897" d="M437.074,159.194c3.9,4.523,11.106,5.985,17.176,4.2l-1.866-11.755H438.272s-1.2,7.546-1.2,7.551" transform="translate(-329.271 -114.242)" fill="#002c4f"/>
          <path id="Trazado_884898" data-name="Trazado 884898" d="M405.653,31.433a16.18,16.18,0,0,0-.587,4.315V45.873a16.148,16.148,0,1,0,32.3,0V35.749a16.18,16.18,0,0,0-.588-4.315L415.614,19.685Z" transform="translate(-305.158 -14.83)" fill="#f18c6e"/>
          <path id="Trazado_884899" data-name="Trazado 884899" d="M499.7,98.249c0,1.017-.515,1.843-1.15,1.843s-1.148-.826-1.148-1.843.516-1.841,1.148-1.841,1.15.826,1.15,1.841" transform="translate(-374.717 -72.63)" fill="#003e6f"/>
          <path id="Trazado_884900" data-name="Trazado 884900" d="M436.658,98.249c0,1.017-.515,1.843-1.149,1.843s-1.148-.826-1.148-1.843.513-1.841,1.148-1.841,1.149.826,1.149,1.841" transform="translate(-327.227 -72.63)" fill="#003e6f"/>
          <path id="Trazado_884901" data-name="Trazado 884901" d="M466.967,108.546h-2.5a.331.331,0,0,1-.33-.332,49.24,49.24,0,0,1,1.258-5.868.331.331,0,0,1,.64.17c-.31,1.169-1.066,4.163-1.213,5.369h2.141a.331.331,0,0,1,0,.662" transform="translate(-349.662 -76.918)" fill="#003e6f"/>
          <path id="Trazado_884902" data-name="Trazado 884902" d="M423.283,73.946a3.94,3.94,0,0,0-2.11.178,15.091,15.091,0,0,0-2.744,1.051,10.64,10.64,0,0,0-1.449.855c-.466.333-1.309.9-1.458,1.471-.034.133,0,.2.077.223.2.067.7-.178.847-.24a14.8,14.8,0,0,1,2.8-1.009,6.59,6.59,0,0,1,2.522.022c.537.1,1.5.589,1.833-.062a2.487,2.487,0,0,0,.188-1.37c-.035-.35-.084-.974-.512-1.121" transform="translate(-313.026 -55.641)" fill="#003e6f"/>
          <path id="Trazado_884903" data-name="Trazado 884903" d="M500.186,77.5c-.147-.568-.992-1.138-1.457-1.471a10.621,10.621,0,0,0-1.45-.855,15.054,15.054,0,0,0-2.743-1.051,3.946,3.946,0,0,0-2.112-.178c-.426.147-.475.771-.51,1.121a2.507,2.507,0,0,0,.187,1.37c.338.651,1.3.164,1.833.062a6.6,6.6,0,0,1,2.523-.022,14.788,14.788,0,0,1,2.8,1.009c.148.062.643.306.847.24.076-.024.113-.091.077-.223" transform="translate(-370.571 -55.641)" fill="#003e6f"/>
          <path id="Trazado_884904" data-name="Trazado 884904" d="M427.492,116.153c0,1.082-1.483,1.958-3.308,1.958s-3.306-.875-3.306-1.958,1.479-1.96,3.306-1.96,3.308.878,3.308,1.96" transform="translate(-317.071 -86.028)" fill="#e9748a"/>
          <path id="Trazado_884905" data-name="Trazado 884905" d="M500,116.153c0,1.082-1.479,1.958-3.3,1.958s-3.307-.875-3.307-1.958,1.48-1.96,3.307-1.96,3.3.878,3.3,1.96" transform="translate(-371.694 -86.028)" fill="#e9748a"/>
          <path id="Trazado_884906" data-name="Trazado 884906" d="M426.941,97.436a.326.326,0,0,1-.176-.052.33.33,0,0,1-.1-.456c1.9-2.972,5.13-1.431,5.164-1.417a.331.331,0,0,1-.291.6,3.337,3.337,0,0,0-4.315,1.177.332.332,0,0,1-.279.152" transform="translate(-321.389 -71.644)" fill="#003e6f"/>
          <path id="Trazado_884907" data-name="Trazado 884907" d="M497.637,97.434a.332.332,0,0,1-.278-.152,3.338,3.338,0,0,0-4.316-1.177.331.331,0,0,1-.289-.6c.032-.014,3.263-1.555,5.162,1.417a.331.331,0,0,1-.278.508" transform="translate(-371.078 -71.643)" fill="#003e6f"/>
          <path id="Trazado_884908" data-name="Trazado 884908" d="M484.339,140.459a.329.329,0,0,0-.314.228,2,2,0,0,1-1.671,1.294,1.925,1.925,0,0,1-2.073-1.012.331.331,0,0,0-.619.233,2.563,2.563,0,0,0,2.771,1.434,2.617,2.617,0,0,0,2.22-1.746.332.332,0,0,0-.212-.416.313.313,0,0,0-.1-.016" transform="translate(-361.339 -105.816)" fill="#003e6f"/>
          <path id="Trazado_884909" data-name="Trazado 884909" d="M400.11,31.011S401.52,26,405.4,23.4s7.781-7.693,6.288-14.436a7.709,7.709,0,0,0-8.723,2.046c-3.882,4.269-6.3,11.707-2.856,20" transform="translate(-300.178 -6.318)" fill="#00102e"/>
          <path id="Trazado_884910" data-name="Trazado 884910" d="M442.349,12.635A13.976,13.976,0,0,0,453.993,21.3c9.03,1,10.517,4.034,10.517,4.034s2.6-9.449-3.186-17.4S442.64-.5,441.07,2.721Z" transform="translate(-332.282 -0.647)" fill="#00102e"/>
          <path id="Trazado_884911" data-name="Trazado 884911" d="M361.128,382.383a16.139,16.139,0,0,0,6.815,2.052,10.406,10.406,0,0,0,6.961-2.207,13.6,13.6,0,0,0,3.261-3.863.922.922,0,1,0-1.592-.931c-.189.321-.387.638-.6.945-.227.332-.412.578-.6.8a11.489,11.489,0,0,1-1.4,1.432c-.1.089-.21.175-.316.26.159-.126-.051.037-.07.051q-.1.071-.194.139-.35.245-.721.458t-.737.378q-.1.046-.2.09c.21-.09-.018.005-.052.018-.136.053-.273.1-.411.149a9.911,9.911,0,0,1-1.6.379c.257-.041-.125.014-.177.019q-.211.021-.423.033-.389.022-.778.016t-.777-.041c-.141-.012-.282-.028-.423-.044-.172-.02.005,0,.034,0-.094-.014-.187-.027-.281-.043a13.734,13.734,0,0,1-1.6-.364,16.924,16.924,0,0,1-1.685-.594c-.224-.092.179.08-.042-.018l-.228-.1q-.21-.095-.419-.2c-.276-.132-.548-.273-.817-.418a.922.922,0,1,0-.931,1.592" transform="translate(-271.717 -284.001)" fill="#002c4f"/>
          <path id="Trazado_884912" data-name="Trazado 884912" d="M495.136,376.858a9,9,0,0,0,2.614,3.331,13.96,13.96,0,0,0,3.055,2.2,13.559,13.559,0,0,0,8.528,1.153,7.318,7.318,0,0,0,4.145-2.382.948.948,0,0,0,0-1.3.929.929,0,0,0-1.3,0,5.8,5.8,0,0,1-.645.669c-.057.051-.117.1-.176.148-.193.162.152-.1-.056.041-.147.1-.292.2-.445.293-.131.078-.265.151-.4.22q-.1.052-.207.1c-.029.013-.265.111-.062.029a8.021,8.021,0,0,1-.958.317c-.307.08-.617.138-.929.189-.039.006-.181.021.008,0l-.239.027q-.281.028-.563.042a12.419,12.419,0,0,1-2.031-.073c-.029,0-.3-.04-.077-.008l-.241-.036q-.239-.038-.477-.084-.507-.1-1.005-.233-.409-.111-.811-.247-.213-.072-.423-.152l-.206-.08-.135-.055q.164.07.022.009a8.718,8.718,0,0,1-1.285-.7c-.233-.155-.461-.318-.686-.486l-.183-.138c.141.108.029.023,0,0-.147-.117-.295-.235-.44-.355a16.159,16.159,0,0,1-1.688-1.6c-.123-.136-.239-.277-.357-.417-.163-.193.105.15-.04-.05-.057-.078-.114-.155-.168-.235-.089-.13-.173-.264-.249-.4-.031-.055-.059-.111-.087-.168-.018-.037-.035-.073-.051-.11q.081.195.027.058a.949.949,0,0,0-1.134-.644.929.929,0,0,0-.644,1.134" transform="translate(-372.979 -283.028)" fill="#002c4f"/>
          <path id="Trazado_884913" data-name="Trazado 884913" d="M226.192,211.205a11.032,11.032,0,0,0-3.915.625c-2.888,1.015-5.44,3.118-7.776,5.033a66.673,66.673,0,0,0-6.369,6.13c-.577.614-1.152,1.232-1.731,1.846-1.034,1.1-2.076,2.186-3.173,3.219-7.317,6.892-17.274,10.947-23.371,18.85-5.486,7.3-3.047,19.863,6.3,22.7,9.754,2.838,15.443-6.688,20.525-13.376,6.908-8.717,16.46-14.594,21.54-24.729.553-1.1,1.062-2.239,1.556-3.368a42.642,42.642,0,0,0,1.913-5.193,34.762,34.762,0,0,0,1.13-5.334,9.173,9.173,0,0,0-.01-3.107c-.4-1.783-2.11-2.322-3.645-2.8a11.177,11.177,0,0,0-2.317-.465c-.22-.018-.439-.032-.659-.036" transform="translate(-133.318 -159.11)" fill="#e02f35"/>
          <path id="Trazado_884914" data-name="Trazado 884914" d="M170.084,133.559c-4.55-6.431-3.91-13.727-6.053-21.022-.489-1.543-1.806-5.266-4.211-4.4-2.22.6-1.542,4.662-1.505,6.28.225,4.137,1.579,8.085,1.993,11.958-2.144-3.12-5.3-1.2-5.228,2.032-2.445-.753-3.2,1.692-2.671,3.458-4.437-1.578-1.729,9.1-.94,11.058,2.444,4.926,6.055,5.716,6.356,11.694.487,9.891-2.595,19.217,2.669,28.543,2.333,4.251,6.731,8.388,11.7,4.777,4.514-3.534,3.5-9.626,3.348-14.7a70.845,70.845,0,0,0-2.069-13.8c-1.014-4.7-2.669-7.671-4.323-12.034-1.956-4.776,1.39-8.348.827-13.123Z" transform="translate(-112.949 -81.368)" fill="#f18c6e"/>
          <path id="Trazado_884915" data-name="Trazado 884915" d="M206.358,208.55c-.938-3.464.091-6.417,1.671-9.463,3.121-6.318-1.053-7.709-5.641-11.583-1.88-1.542-3.948-4.212-4.624.075-.226,2.821,2.293,4.023,3.119,6.2,1.919,4.551-4.024,7.861.414,12.222.527.377.564.6.829.789Z" transform="translate(-148.976 -139.565)" fill="#f18c6e"/>
          <path id="Trazado_884916" data-name="Trazado 884916" d="M205.47,190.154a5.571,5.571,0,0,1-1.289-.781c-.534-.387-1.054-.794-1.6-1.172-1.019-.714-2.164-1.405-3.438-.928a1.752,1.752,0,0,0-1.126,1.264,5.022,5.022,0,0,0,.029,2.647,13.246,13.246,0,0,0,1.35,2.637,5.545,5.545,0,0,1,.854,3.151c-.156,2.446-2.426,5.073-.88,7.478.222.345,1.423-.139,1.29-.346a3.886,3.886,0,0,1-.36-3.045c.248-1.094.767-2.095,1.04-3.182a5.4,5.4,0,0,0-.1-3.287,21.239,21.239,0,0,0-1.324-2.442,5.258,5.258,0,0,1-.755-2.625,3.077,3.077,0,0,1,.419-1.829c.029-.036.064-.065.095-.1-.045.051.094-.021-.03.018.072-.023-.066.024-.068.025s-.221.052-.136.036-.14.027-.032,0c.086-.018-.088-.011.032,0l.079.009c.07.009-.062-.013.008,0a2.4,2.4,0,0,1,.34.1,6.411,6.411,0,0,1,1.407.8c.576.4,1.127.83,1.693,1.241a6.038,6.038,0,0,0,1.449.857,1.291,1.291,0,0,0,.9-.153c.139-.072.422-.281.146-.38" transform="translate(-149.058 -140.965)" fill="#b26753"/>
          <path id="Trazado_884917" data-name="Trazado 884917" d="M171.294,175.582a3.94,3.94,0,0,0-1.368,1.67,5.555,5.555,0,0,0-.384,1.949c-.029.693.009,1.386.039,2.078.031.71.043,1.42.111,2.128a15.755,15.755,0,0,0,1.012,4.42,6.06,6.06,0,0,0,2.385,3.178,2.431,2.431,0,0,0,3.591-1.115c.09-.282-.4-.3-.559-.284-.261.031-.642.161-.732.442a1.287,1.287,0,0,1-.352.586c.05-.047-.028.013-.032.016.108-.106-.1.1.043-.018-.1.082.036,0-.028.007-.044,0-.039.006.013,0-.041,0-.082,0-.123,0a1.971,1.971,0,0,1-.49-.121,2.909,2.909,0,0,1-.647-.363,6.71,6.71,0,0,1-1.943-3.108,16.311,16.311,0,0,1-.839-3.9c-.12-1.2-.167-2.436-.168-3.644,0-1.255.175-2.735,1.274-3.532.174-.126.381-.36.111-.512a1.018,1.018,0,0,0-.914.118" transform="translate(-127.718 -132.138)" fill="#b26753"/>
          <path id="Trazado_884918" data-name="Trazado 884918" d="M158.623,190.161c-1.742,1.289-1.706,3.946-1.547,5.887a15.32,15.32,0,0,0,.483,2.8,10.265,10.265,0,0,0,1.481,3.912c.922,1.124,2.573,1.864,3.8.712a.277.277,0,0,0-.134-.5,1.054,1.054,0,0,0-.912.244l-.058.055c-.011.006-.006.006.014,0-.018.03-.119.021-.028.013.139-.012-.023-.01-.065-.018a1.777,1.777,0,0,1-.64-.3,3.593,3.593,0,0,1-1-1.029,6.767,6.767,0,0,1-.7-1.735c-.19-.638-.349-1.285-.522-1.928a13.522,13.522,0,0,1-.37-5.3,5.724,5.724,0,0,1,.368-1.447,3.169,3.169,0,0,1,.316-.57,1.223,1.223,0,0,1,.157-.194c.026-.027.053-.054.081-.08s.177-.145.1-.09c.185-.137.368-.385.1-.547a.97.97,0,0,0-.916.109" transform="translate(-118.281 -143.121)" fill="#b26753"/>
          <path id="Trazado_884919" data-name="Trazado 884919" d="M598.494,462.043c3.149,13.026,1.573,26.768-3.293,39.222-2.719,7.445-12.74,24.193-12.74,25.337a15.267,15.267,0,0,0,1.51,4.954c1.573,2.863,2.248,3.814,5.275,5.5,5.44-4.867,9.964-15.464,13.113-21.761a89.187,89.187,0,0,0,7.587-20.613c.858-3.863,5.868-37.218.858-36.789a3.751,3.751,0,0,0-1.144.429Z" transform="translate(-438.799 -344.952)" fill="#f18c6e"/>
          <path id="Trazado_884920" data-name="Trazado 884920" d="M575.866,294.772a5.476,5.476,0,0,0,4,1.8,20.23,20.23,0,0,0,6.567-.528,25.113,25.113,0,0,0,6-2.444c-.249-1.916-.525-3.834-.854-5.753a143.207,143.207,0,0,0-3.753-16.37c-3.417-11.6-10.5-21.261-18.15-30.311-1.765-2.088-9.875-7.094-14.918-6.686-1.621.131,2.958,4.5,2.618,6.014-1.2,5.383.491,10.622,3.041,15.34,1.2,2.218,2.751,4.221,3.974,6.414a18.469,18.469,0,0,1,1.523,3.942c.283.985.545,1.976.872,2.956,1.538,4.634,3.076,9.215,5,13.708a88.167,88.167,0,0,1,4.087,11.923" transform="translate(-417.664 -176.626)" fill="#e02f35"/>
          <path id="Trazado_884921" data-name="Trazado 884921" d="M573.99,722.223a63.263,63.263,0,0,0,2.125,6.531,15.077,15.077,0,0,0,3.905,5.892,9.087,9.087,0,0,0,3.617,1.892.875.875,0,1,0,.465-1.687,8.387,8.387,0,0,1-.816-.251c-.043-.016-.384-.156-.213-.081-.137-.06-.273-.123-.406-.191a7.965,7.965,0,0,1-.7-.4q-.154-.1-.3-.2l-.148-.107c-.178-.129.046.043-.084-.064a10.521,10.521,0,0,1-1.166-1.116q-.123-.139-.242-.282c-.034-.041-.252-.317-.142-.173-.176-.229-.343-.465-.5-.706a18.512,18.512,0,0,1-1.569-2.974c.076.177-.026-.063-.034-.081l-.059-.146q-.089-.219-.174-.439-.156-.4-.3-.811c-.192-.538-.371-1.08-.543-1.625-.359-1.14-.681-2.291-1.017-3.438a.875.875,0,1,0-1.687.465" transform="translate(-432.393 -543.257)" fill="#002c4f"/>
        </g>
      </g>
    </g>
    <g id="Grupo_1103867" data-name="Grupo 1103867" transform="translate(1047.96 582.96)">
      <g id="Grupo_1103866" data-name="Grupo 1103866" transform="translate(0 0)" clip-path="url(#clip-path-6)">
        <path id="Trazado_884594" data-name="Trazado 884594" d="M1.206,10.253A9.048,9.048,0,1,1,10.254,19.3,9.048,9.048,0,0,1,1.206,10.253Z" transform="translate(-0.276 -0.276)" fill="none" stroke="#fff" stroke-miterlimit="10" stroke-width="2.412"/>
      </g>
    </g>
    <g id="Grupo_1103870" data-name="Grupo 1103870" transform="translate(1386.884 513.914)">
      <g id="Grupo_1103866-2" data-name="Grupo 1103866" transform="translate(0 0)" clip-path="url(#clip-path-7)">
        <path id="Trazado_884594-2" data-name="Trazado 884594" d="M1.206,10.253A9.048,9.048,0,1,1,10.254,19.3,9.048,9.048,0,0,1,1.206,10.253Z" transform="translate(-0.276 -0.276)" fill="none" stroke="#2e53f0" stroke-miterlimit="10" stroke-width="2.412"/>
      </g>
    </g>
    <g id="Grupo_1103968" data-name="Grupo 1103968" transform="translate(1150.68 523.892)">
      <path id="Trazado_884872" data-name="Trazado 884872" d="M26.668,0,11.576,26.141H41.76Z" fill="#71bff3"/>
      <g id="Grupo_1103963" data-name="Grupo 1103963">
        <g id="Grupo_1103962" data-name="Grupo 1103962" clip-path="url(#clip-path-8)">
          <path id="Trazado_884873" data-name="Trazado 884873" d="M1.444,30.943,16.536,4.8l15.092,26.14Z" fill="none" stroke="#1d71b8" stroke-linecap="round" stroke-linejoin="round" stroke-width="2.888"/>
        </g>
      </g>
    </g>
    <g id="Grupo_1103969" data-name="Grupo 1103969" transform="translate(920.774 684.031)">
      <path id="Trazado_884872-2" data-name="Trazado 884872" d="M25.024,0,11.576,23.294h26.9Z" transform="translate(-1.261 0)" fill="#71bff3"/>
      <g id="Grupo_1103963-2" data-name="Grupo 1103963" transform="translate(0 0)">
        <g id="Grupo_1103962-2" data-name="Grupo 1103962" clip-path="url(#clip-path-9)">
          <path id="Trazado_884873-2" data-name="Trazado 884873" d="M1.444,28.1,14.892,4.8,28.34,28.1Z" transform="translate(-0.157 -0.523)" fill="none" stroke="#1d71b8" stroke-linecap="round" stroke-linejoin="round" stroke-width="2.888"/>
        </g>
      </g>
    </g>
    <g id="Grupo_1103970" data-name="Grupo 1103970" transform="translate(1378.24 698.461)">
      <path id="Trazado_884872-3" data-name="Trazado 884872" d="M26.668,0,41.76,26.141H11.576Z" transform="translate(-11.576 0)" fill="#71bff3"/>
      <g id="Grupo_1103963-3" data-name="Grupo 1103963" transform="translate(0 0)">
        <g id="Grupo_1103962-3" data-name="Grupo 1103962" clip-path="url(#clip-path-10)">
          <path id="Trazado_884873-3" data-name="Trazado 884873" d="M31.628,30.943,16.536,4.8,1.444,30.943Z" transform="translate(8.688 0)" fill="none" stroke="#1d71b8" stroke-linecap="round" stroke-linejoin="round" stroke-width="2.888"/>
        </g>
      </g>
    </g>
    <g id="Grupo_1106205" data-name="Grupo 1106205" transform="translate(915 522.176)">
      <g id="Grupo_1106207" data-name="Grupo 1106207">
        <g id="Grupo_1106203" data-name="Grupo 1106203">
          <g id="Grupo_1106208" data-name="Grupo 1106208">
            <g id="Grupo_1106201" data-name="Grupo 1106201" opacity="0.7">
              <g id="Grupo_1106200" data-name="Grupo 1106200">
                <g id="Grupo_1106209" data-name="Grupo 1106209">
                  <rect id="Rectángulo_404450" data-name="Rectángulo 404450" width="90.363" height="133.167" rx="45.181" transform="translate(35.231 0.593)" fill="#b5e2fb"/>
                  <rect id="Rectángulo_404451" data-name="Rectángulo 404451" width="45.542" height="3.588" transform="translate(70.323 9.863)" fill="#23b5ee"/>
                  <rect id="Rectángulo_404452" data-name="Rectángulo 404452" width="20.041" height="3.588" transform="translate(43.751 9.863)" fill="#23b5ee"/>
                  <rect id="Rectángulo_404453" data-name="Rectángulo 404453" width="5.909" height="3.587" transform="translate(109.957 18.517)" fill="#23b5ee"/>
                  <rect id="Rectángulo_404454" data-name="Rectángulo 404454" width="59.674" height="3.587" transform="translate(43.751 18.517)" fill="#23b5ee"/>
                  <rect id="Rectángulo_404455" data-name="Rectángulo 404455" width="72.114" height="3.588" transform="translate(43.751 27.17)" fill="#23b5ee"/>
                  <rect id="Rectángulo_404456" data-name="Rectángulo 404456" width="19.744" height="3.587" transform="translate(96.121 35.824)" fill="#23b5ee"/>
                  <rect id="Rectángulo_404457" data-name="Rectángulo 404457" width="45.839" height="3.587" transform="translate(43.751 35.824)" fill="#23b5ee"/>
                  <rect id="Rectángulo_404458" data-name="Rectángulo 404458" width="45.542" height="3.588" transform="translate(70.323 44.477)" fill="#23b5ee"/>
                  <rect id="Rectángulo_404459" data-name="Rectángulo 404459" width="20.041" height="3.588" transform="translate(43.751 44.477)" fill="#23b5ee"/>
                  <rect id="Rectángulo_404460" data-name="Rectángulo 404460" width="59.674" height="3.588" transform="translate(43.751 53.131)" fill="#23b5ee"/>
                  <rect id="Rectángulo_404461" data-name="Rectángulo 404461" width="5.909" height="3.588" transform="translate(109.957 53.131)" fill="#23b5ee"/>
                  <rect id="Rectángulo_404462" data-name="Rectángulo 404462" width="72.114" height="3.587" transform="translate(43.751 61.784)" fill="#23b5ee"/>
                  <rect id="Rectángulo_404463" data-name="Rectángulo 404463" width="19.744" height="3.589" transform="translate(96.121 70.437)" fill="#23b5ee"/>
                  <rect id="Rectángulo_404464" data-name="Rectángulo 404464" width="45.839" height="3.589" transform="translate(43.751 70.437)" fill="#23b5ee"/>
                  <rect id="Rectángulo_404465" data-name="Rectángulo 404465" width="45.542" height="3.588" transform="translate(70.323 79.091)" fill="#23b5ee"/>
                  <rect id="Rectángulo_404466" data-name="Rectángulo 404466" width="20.041" height="3.588" transform="translate(43.751 79.091)" fill="#23b5ee"/>
                  <rect id="Rectángulo_404467" data-name="Rectángulo 404467" width="59.674" height="3.589" transform="translate(43.751 87.744)" fill="#23b5ee"/>
                  <rect id="Rectángulo_404468" data-name="Rectángulo 404468" width="5.909" height="3.589" transform="translate(109.957 87.744)" fill="#23b5ee"/>
                  <rect id="Rectángulo_404469" data-name="Rectángulo 404469" width="72.114" height="3.587" transform="translate(43.751 96.399)" fill="#23b5ee"/>
                  <rect id="Rectángulo_404470" data-name="Rectángulo 404470" width="19.744" height="3.588" transform="translate(96.121 105.052)" fill="#23b5ee"/>
                  <rect id="Rectángulo_404471" data-name="Rectángulo 404471" width="45.839" height="3.588" transform="translate(43.751 105.052)" fill="#23b5ee"/>
                  <rect id="Rectángulo_404472" data-name="Rectángulo 404472" width="20.041" height="3.587" transform="translate(43.751 113.706)" fill="#23b5ee"/>
                  <rect id="Rectángulo_404473" data-name="Rectángulo 404473" width="45.542" height="3.587" transform="translate(70.323 113.706)" fill="#23b5ee"/>
                  <rect id="Rectángulo_404474" data-name="Rectángulo 404474" width="72.114" height="3.588" transform="translate(43.751 122.358)" fill="#23b5ee"/>
                  <g id="Grupo_1106192" data-name="Grupo 1106192" transform="translate(0 70.555)" opacity="0.8">
                    <g id="Grupo_1106191" data-name="Grupo 1106191">
                      <g id="Grupo_1106206" data-name="Grupo 1106206">
                        <g transform="matrix(1, 0, 0, 1, -9, -78.82)" filter="url(#Trazado_884927)">
                          <path id="Trazado_884927-2" data-name="Trazado 884927" d="M0,337.151a6.315,6.315,0,0,1,6.314-6.315h44.55a6.316,6.316,0,0,1,6.314,6.315v26.171a6.316,6.316,0,0,1-6.314,6.315H6.314A6.315,6.315,0,0,1,0,363.322Z" transform="translate(9 -252.02)" fill="#fff"/>
                        </g>
                        <path id="Trazado_884928" data-name="Trazado 884928" d="M146.555,496.976l20.786,9.353-1.176-5.984Z" transform="translate(-115.3 -461.545)" fill="#fff"/>
                      </g>
                    </g>
                  </g>
                  <g id="Grupo_1106195" data-name="Grupo 1106195" transform="translate(103.967 22.392)" opacity="0.8">
                    <g id="Grupo_1106194" data-name="Grupo 1106194">
                      <g id="Grupo_1106193" data-name="Grupo 1106193" clip-path="url(#clip-path-11)">
                        <path id="Trazado_884929" data-name="Trazado 884929" d="M544.687,111.312A6.315,6.315,0,0,0,538.373,105H493.823a6.316,6.316,0,0,0-6.315,6.316v26.171a6.315,6.315,0,0,0,6.315,6.314h44.549a6.314,6.314,0,0,0,6.314-6.314Z" transform="translate(-487.508 -104.996)" fill="#fff"/>
                        <path id="Trazado_884930" data-name="Trazado 884930" d="M532.391,271.137l-20.786,9.353,1.176-5.984Z" transform="translate(-506.466 -235.705)" fill="#fff"/>
                      </g>
                    </g>
                  </g>
                  <g id="Grupo_1106198" data-name="Grupo 1106198" transform="translate(22.276)" opacity="0.8">
                    <g id="Grupo_1106197" data-name="Grupo 1106197">
                      <g id="Grupo_1106196" data-name="Grupo 1106196" clip-path="url(#clip-path-12)">
                        <path id="Trazado_884931" data-name="Trazado 884931" d="M104.453,6.315A6.315,6.315,0,0,1,110.767,0h28.914A6.316,6.316,0,0,1,146,6.315V32.486a6.315,6.315,0,0,1-6.316,6.314H110.767a6.314,6.314,0,0,1-6.314-6.314Z" transform="translate(-104.453)" fill="#fff"/>
                        <path id="Trazado_884932" data-name="Trazado 884932" d="M177.691,166.137l20.786,9.353-1.176-5.984Z" transform="translate(-162.072 -130.706)" fill="#fff"/>
                      </g>
                    </g>
                  </g>
                  <path id="Trazado_884933" data-name="Trazado 884933" d="M172.564,21.909a11.011,11.011,0,0,1,9.216,17.058c1.133.372,2.267.718,3.4,1.058a14.468,14.468,0,0,0-19.64-19.748,29.913,29.913,0,0,0,1.024,3.421,10.953,10.953,0,0,1,6-1.789" transform="translate(-130.236 -14.515)" fill="#23b5ee"/>
                  <path id="Trazado_884934" data-name="Trazado 884934" d="M154.262,45.71a11.017,11.017,0,1,1-15.217-15.27,29.843,29.843,0,0,1-1.024-3.421,14.477,14.477,0,1,0,19.64,19.749c-1.132-.34-2.266-.686-3.4-1.058" transform="translate(-102.718 -21.257)" fill="#82cff6"/>
                </g>
              </g>
            </g>
          </g>
        </g>
      </g>
    </g>
    <g id="Grupo_1106211" data-name="Grupo 1106211" transform="translate(1150.938 530.106)">
      <g id="Grupo_1106219" data-name="Grupo 1106219" transform="translate(0 0.001)">
        <path id="Trazado_884935" data-name="Trazado 884935" d="M255.9,1388.941c0,7.374-57.285,13.351-127.952,13.351S0,1396.315,0,1388.941s57.286-13.351,127.951-13.351,127.952,5.979,127.952,13.351" transform="translate(0 -1040.696)" fill="#006eab"/>
        <path id="Trazado_884936" data-name="Trazado 884936" d="M324.578,1316.513c-.067-4.442-.38-9.548-1.618-11.42-1.928-3.263-3.37,1.751-7.394,1.441l-3.093-4.288c.615,4.1-2.265,9.168-5.576,11.714a20.715,20.715,0,0,1-3.221,2.553Z" transform="translate(-229.744 -985.208)" fill="#f18c6e"/>
        <path id="Trazado_884937" data-name="Trazado 884937" d="M245.246,1342.653c.89,3.212.12,6.646.163,9.911.034,2.667.206,5.655-3.077,6.7-.676.215-8.274,1.376-8.339.907a3.45,3.45,0,0,1,.066-1.174,2.948,2.948,0,0,1,.246-1.011c-2.144,1.368-4.771,1.74-7.3,2-2.782.289-5.554.5-8.353.511a96.2,96.2,0,0,1-10.163-.361,48.27,48.27,0,0,1-5.63-.9c-1.533-.345-3.444-.809-4.371-2.21a4.984,4.984,0,0,1-.5-3.611c.618-3.254,3.72-4.043,6.48-4.881,3.074-.935,11.37-.511,20.071-6.266,1.963-1.3,3.716-4.74,6.589-4.219,2.478.446,3.111,3.139,5.045,4.294,1.9,1.134,4.653-.14,6.522-.762.4-.133,1.435-.7,1.8-.35a3.094,3.094,0,0,1,.75,1.417" transform="translate(-149.693 -1012.257)" fill="#945a3b"/>
        <path id="Trazado_884938" data-name="Trazado 884938" d="M204.234,1410.473a48.069,48.069,0,0,0,5.629.9,95.432,95.432,0,0,0,10.163.364c2.8-.011,5.573-.223,8.355-.51,2.528-.264,5.157-.636,7.3-2a2.963,2.963,0,0,0-.246,1.01,3.434,3.434,0,0,0-.065,1.176c.064.467,7.663-.692,8.337-.909a4.43,4.43,0,0,0,1.7-.952,4.03,4.03,0,0,1-2.955,3.516c-.676.215-8.274,1.376-8.339.907a3.457,3.457,0,0,1,.065-1.174,2.953,2.953,0,0,1,.246-1.011c-2.143,1.367-4.771,1.739-7.3,2a83.676,83.676,0,0,1-8.354.51,96.136,96.136,0,0,1-10.163-.361,48.33,48.33,0,0,1-5.63-.9c-1.533-.345-3.443-.809-4.371-2.21a3.917,3.917,0,0,1-.586-1.72,38.465,38.465,0,0,0,6.218,1.367" transform="translate(-149.808 -1066.052)" fill="#6e412b"/>
        <path id="Trazado_884939" data-name="Trazado 884939" d="M308.253,1350.189c.172,0,.345.007.517.02.073.006.146.014.22.021q.157.019-.023,0l.144.023a6.388,6.388,0,0,1,.914.224c.08.026.158.054.237.083.044.016.289.121.082.029.14.062.279.128.415.2s.266.149.394.232c.069.044.135.092.2.138.193.13-.07-.067.067.049a5.487,5.487,0,0,1,.647.631l.088.107q-.1-.137-.015-.017c.04.058.081.115.12.173a4.535,4.535,0,0,1,.249.427c.033.063.062.129.093.193.091.186-.042-.131.02.05.056.163.113.324.157.492a5.035,5.035,0,0,1,.105.523c-.033-.217,0,.045,0,.072.009.108.014.215.017.323a.906.906,0,0,0,1.812,0,5.66,5.66,0,0,0-2.017-4.255,7.074,7.074,0,0,0-4.449-1.544.906.906,0,1,0,0,1.811" transform="translate(-232.521 -1020.109)" fill="#002c4f"/>
        <path id="Trazado_884940" data-name="Trazado 884940" d="M296.01,1359.37a2.23,2.23,0,0,1,.308-.106c.047-.012.1-.017.143-.031.088-.028-.126.014-.121.014.031,0,.065-.007.1-.009a2.161,2.161,0,0,1,.313,0c.038,0,.214.022.048,0s.03.01.071.019a2.661,2.661,0,0,1,.309.09c.034.012.2.079.056.018s.042.022.078.04q.152.075.3.165c.081.05.2.172.287.2,0,0-.149-.121-.076-.059l.084.069q.063.052.124.107.134.119.259.248t.244.268c.036.043.07.087.106.13.063.072-.056-.074-.056-.073.007.027.05.067.067.09a5.433,5.433,0,0,1,.4.632c.051.1.1.193.144.291a.525.525,0,0,0,.033.073s-.072-.185-.04-.094c.023.066.051.13.074.2.039.112.073.226.1.341.014.056.027.112.038.169.006.032.011.064.018.1.025.124-.011-.075-.012-.1,0,.108.02.215.02.324,0,.06,0,.119-.007.179,0,.022-.006.044-.006.066,0,.1.039-.252.01-.09a.927.927,0,0,0,.633,1.114.917.917,0,0,0,1.114-.633,4.608,4.608,0,0,0-.842-3.319,5.344,5.344,0,0,0-2.829-2.243,3.026,3.026,0,0,0-1.965.075,1,1,0,0,0-.541.416.927.927,0,0,0-.091.7.915.915,0,0,0,1.114.633" transform="translate(-223.077 -1026.949)" fill="#002c4f"/>
        <path id="Trazado_884941" data-name="Trazado 884941" d="M661.6,1316.513c.069-4.442.382-9.548,1.619-11.42,1.928-3.263,3.37,1.751,7.394,1.441l3.095-4.288c-.617,4.1,2.264,9.168,5.574,11.714a20.736,20.736,0,0,0,3.223,2.553Z" transform="translate(-500.529 -985.208)" fill="#f18c6e"/>
        <path id="Trazado_884942" data-name="Trazado 884942" d="M657.3,1342.653c-.889,3.212-.118,6.646-.162,9.911-.034,2.667-.206,5.655,3.077,6.7.677.215,8.274,1.376,8.339.907a3.458,3.458,0,0,0-.066-1.174,2.927,2.927,0,0,0-.246-1.011c2.144,1.368,4.772,1.74,7.3,2,2.784.289,5.558.5,8.355.511a96.19,96.19,0,0,0,10.163-.361,48.274,48.274,0,0,0,5.63-.9c1.533-.345,3.445-.809,4.371-2.21a4.989,4.989,0,0,0,.5-3.611c-.618-3.254-3.72-4.043-6.48-4.881-3.072-.935-11.37-.511-20.071-6.266-1.962-1.3-3.715-4.74-6.588-4.219-2.478.446-3.111,3.139-5.046,4.294-1.9,1.134-4.652-.14-6.521-.762-.4-.133-1.435-.7-1.8-.35a3.063,3.063,0,0,0-.753,1.417" transform="translate(-496.951 -1012.257)" fill="#945a3b"/>
        <path id="Trazado_884943" data-name="Trazado 884943" d="M699.644,1410.473a48.107,48.107,0,0,1-5.629.9,95.422,95.422,0,0,1-10.163.364c-2.8-.011-5.572-.223-8.355-.51-2.527-.264-5.157-.636-7.3-2a2.986,2.986,0,0,1,.247,1.01,3.435,3.435,0,0,1,.064,1.176c-.064.467-7.661-.692-8.337-.909a4.418,4.418,0,0,1-1.695-.952,4.028,4.028,0,0,0,2.954,3.516c.677.215,8.274,1.376,8.339.907a3.451,3.451,0,0,0-.066-1.174,2.926,2.926,0,0,0-.246-1.011c2.143,1.367,4.772,1.739,7.3,2,2.785.289,5.558.5,8.356.51a96.127,96.127,0,0,0,10.163-.361,48.333,48.333,0,0,0,5.63-.9c1.533-.345,3.444-.809,4.371-2.21a3.917,3.917,0,0,0,.586-1.72,38.465,38.465,0,0,1-6.218,1.367" transform="translate(-498.167 -1066.052)" fill="#6e412b"/>
        <path id="Trazado_884944" data-name="Trazado 884944" d="M719.966,1348.378a7.076,7.076,0,0,0-4.449,1.544,5.661,5.661,0,0,0-2.017,4.254.914.914,0,0,0,.906.906.924.924,0,0,0,.906-.906c0-.107.008-.215.017-.323,0-.046.034-.282,0-.072a4.854,4.854,0,0,1,.105-.523c.04-.155.093-.306.144-.458.075-.222-.045.076.033-.084.031-.064.061-.129.094-.193a4.487,4.487,0,0,1,.249-.427c.039-.058.08-.115.12-.173.1-.148-.1.109.052-.064a6.441,6.441,0,0,1,.669-.657c.157-.133-.118.078.038-.028.077-.053.152-.108.231-.158q.177-.115.363-.215c.146-.079.295-.15.446-.217-.2.089,0,0,.048-.016q.134-.051.27-.1a6.323,6.323,0,0,1,.914-.224l.144-.023q-.161.021-.059.008c.085,0,.171-.018.256-.025.172-.013.344-.019.517-.02a.906.906,0,1,0,0-1.811" transform="translate(-539.795 -1020.109)" fill="#002c4f"/>
        <path id="Trazado_884945" data-name="Trazado 884945" d="M735.843,1357.618a3.45,3.45,0,0,0-3.3.6,6.244,6.244,0,0,0-2.18,2.968,3.868,3.868,0,0,0-.156,1.925.91.91,0,0,0,1.114.632.931.931,0,0,0,.633-1.114c-.026-.149.012.222.008.069,0-.052-.008-.1-.01-.155a2.6,2.6,0,0,1,.01-.3c0-.023.006-.047.007-.07.005-.1-.02.135-.017.123.016-.053.019-.113.031-.167.022-.106.049-.212.08-.315s.071-.213.11-.318a.541.541,0,0,0,.029-.074c0-.005-.083.182-.039.094.028-.056.052-.114.079-.171a5.379,5.379,0,0,1,.356-.618c.036-.054.073-.108.111-.16.02-.027.132-.18.046-.065s.029-.035.052-.061c.042-.05.084-.1.128-.148a5.092,5.092,0,0,1,.515-.5c.024-.02.19-.168.078-.065s.029-.018.06-.04c.1-.07.205-.136.313-.2.09-.051.185-.091.276-.14s-.105.042-.1.042a.59.59,0,0,0,.07-.027c.063-.022.125-.045.189-.064s.111-.031.167-.044.238-.039.071-.019.031,0,.072,0c.064,0,.129,0,.193,0s.113.01.169.012c.094,0-.128-.019-.121-.016a.506.506,0,0,0,.1.019,2.206,2.206,0,0,1,.38.123.908.908,0,0,0,1.114-.632.935.935,0,0,0-.633-1.114" transform="translate(-552.39 -1026.945)" fill="#002c4f"/>
        <path id="Trazado_884946" data-name="Trazado 884946" d="M341.3,788.173c3.341-14.487,23.044-82.588,27.018-100.486,2.859-13.13,33.4-79.426.872-75.463l-23.082,1.342c-10.364,10.631-12.534,31.873-13.811,45.505-1.537,17.65-2.673,35.329-4.208,52.98-1.964,18.027-3.127,69.973-1.906,76.122Z" transform="translate(-246.396 -463.046)" fill="#26287a"/>
        <path id="Trazado_884947" data-name="Trazado 884947" d="M521.49,788.2h15.234c1.222-6.148-3.543-58.094-5.506-76.122-1.537-17.651-2.67-35.33-4.208-52.98-1.277-13.632-3.447-34.874-13.812-45.505L490.12,612.25c-32.529-3.964,4.628,65.862,7.488,78.99,3.973,17.9,17.626,86.8,23.883,96.959" transform="translate(-360.759 -463.072)" fill="#26287a"/>
        <path id="Trazado_884948" data-name="Trazado 884948" d="M623.632,703.625a66.027,66.027,0,0,0,2.189,6.734,15.6,15.6,0,0,0,4.077,6.146,9.407,9.407,0,0,0,3.726,1.942.906.906,0,0,0,.482-1.747c-.273-.069-.543-.15-.807-.246q-.106-.038-.211-.08c-.03-.012-.259-.113-.059-.023-.135-.061-.269-.122-.4-.189q-.358-.181-.7-.4-.183-.116-.361-.242l-.146-.106c-.188-.136.064.057-.075-.057a10.784,10.784,0,0,1-1.207-1.151q-.134-.151-.262-.306l-.116-.142c-.019-.025-.17-.22-.04-.049q-.271-.356-.517-.728a19.126,19.126,0,0,1-1.636-3.11c.013.032.067.162,0,0l-.088-.216c-.059-.144-.115-.289-.172-.434q-.154-.4-.3-.8c-.2-.555-.385-1.116-.563-1.678-.378-1.2-.715-2.4-1.068-3.606a.906.906,0,1,0-1.747.482" transform="translate(-471.78 -531.457)" fill="#002c4f"/>
        <path id="Trazado_884949" data-name="Trazado 884949" d="M520.176,695.638a78.058,78.058,0,0,0-1.493,12.141c-.154,3.675-.047,7.353.04,11.028.055,2.335.1,4.67.1,7.005a.906.906,0,1,0,1.812,0c0-3.947-.148-7.891-.2-11.838a91.4,91.4,0,0,1,.411-10.943c.245-2.3.611-4.583,1.08-6.912a.929.929,0,0,0-.633-1.114.915.915,0,0,0-1.114.633" transform="translate(-392.348 -525.781)" fill="#002c4f"/>
        <path id="Trazado_884950" data-name="Trazado 884950" d="M375.056,705.678a16.768,16.768,0,0,1-2.156,7.3,29.781,29.781,0,0,1-4.711,6.19c-1.01,1.063-2.065,2.082-3.133,3.084a.906.906,0,0,0,1.281,1.281c3.959-3.715,7.9-7.84,9.658-13.1a17.462,17.462,0,0,0,.873-4.754.906.906,0,1,0-1.811,0" transform="translate(-275.984 -533.192)" fill="#002c4f"/>
        <path id="Trazado_884951" data-name="Trazado 884951" d="M430.575,244.185c4.138-12.095,9.922-18.109,3.556-30.843-3.182-6.365-11.088-13.667-18.728-12.711-6.683.954-7.746,1.538-14.113,3.766-1.591.636-3.5.319-4.455.955-.955-.636-2.864-.318-4.457-.955-6.366-2.228-12.095-8.319-18.777-9.273-7.64-.955-12.1,4.775-15.279,11.14-6.368,12.732.633,25.826,4.773,37.921,4.455,12.413,3.542,53.265,1.556,59.444,12.4,2.742,14.349,4.1,33.773,3.959a76.6,76.6,0,0,0,26.816-4.863c-1.888-8.943.88-46.127,5.336-58.54" transform="translate(-269.147 -147.541)" fill="#fff"/>
        <path id="Trazado_884952" data-name="Trazado 884952" d="M609.13,307.984a29.576,29.576,0,0,0-6.383-10.809c-.728-.815-9.461,5.235-9.982,4.324,2.275,7.193,4.166,9.778,6.832,16.677,2.126,5.5,3.99,10.458,7.509,15.137a74.442,74.442,0,0,1,2.775-11.9c.514-1.5,1.052-2.908,1.592-4.248a66.281,66.281,0,0,0-2.343-9.181" transform="translate(-448.453 -224.77)" fill="#002c4f"/>
        <path id="Trazado_884953" data-name="Trazado 884953" d="M501.361,519.155c-.013,0-.024,0-.036,0,6.256,11.548,20.94,17.913,33.523,14.522.074-2.481.2-5.135.378-7.87a127.651,127.651,0,0,1-13.664-1.842c-3.722-.721-7.472-1.453-11.135-2.436-2.854-.764-6.089-2.486-9.066-2.37" transform="translate(-379.275 -392.76)" fill="#002c4f"/>
        <path id="Trazado_884954" data-name="Trazado 884954" d="M388.041,403.806c-8.006-3.336-13.12-14.455-20.014-2.224-6.228,11.565,9.117,16.457,16.678,8.451a7.543,7.543,0,0,0,2-3.114Z" transform="translate(-277.33 -299.577)" fill="#f18c6e"/>
        <path id="Trazado_884955" data-name="Trazado 884955" d="M494.665,332s-5.063,25.126-5.364,43.2a75.254,75.254,0,0,0,7.552,5.225,26.956,26.956,0,0,0,5.555-5.261s.457-30.543-1.238-43.16Z" transform="translate(-370.178 -251.17)" fill="#de1e45"/>
        <path id="Trazado_884956" data-name="Trazado 884956" d="M496.262,285.25l3.669,5.893h6.5l4.465-6.394s-2.019-5.948-2.185-5.893-5.293-.86-5.293-.86l-6.048,2.917Z" transform="translate(-375.444 -210.317)" fill="#de1e45"/>
        <path id="Trazado_884957" data-name="Trazado 884957" d="M483.89,161.121l-3.657,19.108c0,3.105-2.006,9.346,10.965,9.346s10.963-6.24,10.963-9.346l-3.654-19.108Z" transform="translate(-363.233 -121.896)" fill="#f18c6e"/>
        <path id="Trazado_884958" data-name="Trazado 884958" d="M490.5,167.607c4.043,3.885,11.5,5.141,17.788,3.612l-1.93-10.1H491.745s-1.245,6.482-1.241,6.486" transform="translate(-371.088 -121.896)" fill="#002c4f"/>
        <path id="Trazado_884959" data-name="Trazado 884959" d="M445.889,84c-2.358.361-3.854,2.749-2.377,6.1,1.251,2.838,1.537,5.5,3.9,5.139s3.927-3.172,3.509-6.276-2.67-5.327-5.028-4.965" transform="translate(-335.092 -63.519)" fill="#f18c6e"/>
        <path id="Trazado_884960" data-name="Trazado 884960" d="M580.3,84c-2.359-.362-4.61,1.86-5.029,4.965s1.154,5.914,3.51,6.276,2.645-2.3,3.9-5.139c1.478-3.352-.021-5.74-2.377-6.1" transform="translate(-435.168 -63.519)" fill="#f18c6e"/>
        <path id="Trazado_884961" data-name="Trazado 884961" d="M457.534,24.643a16.742,16.742,0,0,0-.608,4.47V39.6a16.725,16.725,0,0,0,33.449,0V29.113a16.747,16.747,0,0,0-.609-4.47l-25.7-13.669Z" transform="translate(-345.685 -8.303)" fill="#f18c6e"/>
        <path id="Trazado_884962" data-name="Trazado 884962" d="M574.44,63.618a8.722,8.722,0,0,1-1.794-6.549c.448-4.1-4.6-9.268-4.6-9.268L575,52.178s-.235,5.813-.564,11.44" transform="translate(-429.75 -36.164)" fill="#00102e"/>
        <path id="Trazado_884963" data-name="Trazado 884963" d="M556.183,99.17c0,1.053-.532,1.907-1.189,1.907s-1.19-.854-1.19-1.907.534-1.908,1.19-1.908,1.189.855,1.189,1.908" transform="translate(-418.978 -73.583)" fill="#003e6f"/>
        <path id="Trazado_884964" data-name="Trazado 884964" d="M490.039,99.17c0,1.053-.532,1.907-1.19,1.907s-1.189-.854-1.189-1.907.532-1.908,1.189-1.908,1.19.855,1.19,1.908" transform="translate(-368.937 -73.583)" fill="#003e6f"/>
        <path id="Trazado_884965" data-name="Trazado 884965" d="M521.836,109.911h-2.584a.343.343,0,0,1-.343-.343,50.975,50.975,0,0,1,1.3-6.08.343.343,0,0,1,.662.178c-.322,1.209-1.1,4.312-1.254,5.561h2.216a.342.342,0,0,1,0,.684" transform="translate(-392.579 -78.103)" fill="#003e6f"/>
        <path id="Trazado_884966" data-name="Trazado 884966" d="M542.86,71.515c.023-.364.051-1.013.489-1.179a4.294,4.294,0,0,1,2.51-.192,16.123,16.123,0,0,1,2.734.991,12.988,12.988,0,0,1,1.518.821c.4.255.862.614.828,1.143-.015.262-.071.721-.419.71a2.238,2.238,0,0,1-.752-.32,8.874,8.874,0,0,0-1.787-.548,6.817,6.817,0,0,0-1.858-.151,10.023,10.023,0,0,0-1.77.337c-.389.1-.823.238-1.15-.087a2.049,2.049,0,0,1-.344-1.526" transform="translate(-410.689 -52.985)" fill="#003e6f"/>
        <path id="Trazado_884967" data-name="Trazado 884967" d="M483.237,71.515c-.024-.364-.051-1.013-.489-1.179a4.3,4.3,0,0,0-2.511-.192,16.156,16.156,0,0,0-2.734.991,12.9,12.9,0,0,0-1.517.821c-.4.255-.863.614-.828,1.143.014.262.07.721.416.71a2.245,2.245,0,0,0,.755-.32,8.838,8.838,0,0,1,1.785-.548,6.816,6.816,0,0,1,1.857-.151,9.987,9.987,0,0,1,1.771.337c.389.1.824.238,1.148-.087a2.034,2.034,0,0,0,.347-1.526" transform="translate(-359.477 -52.985)" fill="#003e6f"/>
        <path id="Trazado_884968" data-name="Trazado 884968" d="M479.87,98.307a.344.344,0,0,1-.289-.528c1.967-3.077,5.314-1.481,5.347-1.466a.343.343,0,0,1-.3.616,3.454,3.454,0,0,0-4.467,1.219.349.349,0,0,1-.29.158" transform="translate(-362.784 -72.543)" fill="#003e6f"/>
        <path id="Trazado_884969" data-name="Trazado 884969" d="M553.986,98.307a.346.346,0,0,1-.29-.158,3.455,3.455,0,0,0-4.47-1.219.343.343,0,0,1-.3-.616c.033-.015,3.381-1.611,5.348,1.466a.343.343,0,0,1-.106.473.329.329,0,0,1-.183.055" transform="translate(-415.142 -72.543)" fill="#003e6f"/>
        <path id="Trazado_884970" data-name="Trazado 884970" d="M543.206,135.253a.344.344,0,0,0-.22.336,2.069,2.069,0,0,1-1.136,1.871,2,2,0,0,1-2.38-.211.342.342,0,1,0-.511.454,2.658,2.658,0,0,0,3.21.364,2.712,2.712,0,0,0,1.5-2.511.342.342,0,0,0-.358-.325.425.425,0,0,0-.106.023" transform="translate(-407.68 -102.307)" fill="#003e6f"/>
        <path id="Trazado_884971" data-name="Trazado 884971" d="M490.831,16.914a3.256,3.256,0,0,0,2.647-.888s-2.539.122-2.867-2.152v0c-.9-8.117-8.414-18.966-27.86-11.2-5.508.765-6.13,8-6.13,16.22,0,2.936-.221,5.079,0,8.748,0,0,2.569-2.392,2.62-7.7.028-2.743.518-6.539,3.929-6.964,0,0,12.243,9.537,27.623,6.354a8.619,8.619,0,0,0,3.586-.861s-2.8,0-3.547-1.557" transform="translate(-345.38 -0.001)" fill="#00102e"/>
        <path id="Trazado_884972" data-name="Trazado 884972" d="M492.6,87.254l-5.14.113c-.654-.065-1.311-.086-1.924-.086-2.493,0-5.71.315-6.39,2.753a2.4,2.4,0,0,0-1.582-.538,2.337,2.337,0,0,0-1.239.488c-.709-2.394-3.9-2.7-6.376-2.7-.426,0-.875.011-1.328.039v0h-5.832l-.441,2.176s1.054-.107,1.075,1.3l.019-.027c0,.09-.019.175-.019.27,0,2.708,0,5.265,6.526,5.265,3.522,0,6.4-2.267,6.513-5.088a1.782,1.782,0,0,1,1.171-.73,1.839,1.839,0,0,1,1.391.765c.138,2.8,3,5.054,6.511,5.054,6.524,0,6.524-2.556,6.524-5.265,0-.108-.014-.2-.022-.305,0-1.38,1.048-1.3,1.048-1.3Zm-22.652,8.059c-5.54,0-5.54-1.7-5.54-4.279,0-1.913,1.708-2.766,5.54-2.766s5.538.853,5.538,2.766c0,2.36-2.484,4.279-5.538,4.279m15.588,0c-3.054,0-5.54-1.919-5.54-4.279,0-1.913,1.708-2.766,5.54-2.766s5.538.853,5.538,2.766c0,2.577,0,4.279-5.538,4.279" transform="translate(-349.79 -66.012)" fill="#00102e"/>
        <path id="Trazado_884973" data-name="Trazado 884973" d="M482.731,226.98s-7.579,6.141-6.862,11.034c0,0-9.991-5.431-5.966-26.226a4.316,4.316,0,0,1,3.217-1.219s.747,12.829,9.61,16.412" transform="translate(-354.78 -159.301)" fill="#ecf2f6"/>
        <path id="Trazado_884974" data-name="Trazado 884974" d="M525.672,226.98s7.58,6.141,6.863,11.034c0,0,9.99-5.431,5.965-26.226a4.309,4.309,0,0,0-3.215-1.219s-.747,12.829-9.613,16.412" transform="translate(-397.694 -159.301)" fill="#ecf2f6"/>
        <path id="Trazado_884975" data-name="Trazado 884975" d="M455.531,220.737c7.706-4.706,17.9,5.873,22.447,11.1,9.313,10.477,12.855,26.332,11.937,40.105-.816,12.89-5.566,21.072-16.451,28.1-8.937,5.685-20.043,6.866-29.449,1.078-12.346-7.468-22.835-14.349-33.355-24.071,10.3-1.945,7.056-9.726,16.912-5.9,4.069,1.59,17.784,4.952,22.152,5.9,5.25,1.054,15.786.584,16.62-4.691,1.587-9.891-7.432-20.781-11.349-29.517-2.089-5.166-5.607-21.241,2.432-23Z" transform="translate(-310.683 -166.107)" fill="#fff"/>
        <path id="Trazado_884976" data-name="Trazado 884976" d="M312.3,191.7c-7.116-5.56-18.458,3.781-23.572,8.451-10.451,9.34-15.789,24.684-16.456,38.472-.669,12.9,3.113,21.57,13.12,29.8,8.229,6.67,19.124,9.117,29.133,4.448,13.12-6.006,24.53-9.3,36.095-17.752-9.864-11.826-12.125-7.6-22.354-4.932-4.225,1.113-17.911,4.042-22.359,4.486-5.336.446-10.044-7.6-10.265-12.936-.445-10.006,9.765-19.792,14.657-28.02,2.669-4.892,8.006-20.459.222-23.127Z" transform="translate(-205.93 -143.73)" fill="#fff"/>
        <path id="Trazado_884977" data-name="Trazado 884977" d="M556.133,401.485c1.488-.62,2.735-1.654,4.181-2.31a27.831,27.831,0,0,0,4.7-2.6c1.3-.937,2.609-2.7,4.246-3.033,1.523-.31,1.685,1.551,2.8,2.154,1.266.685,3.221-.566,4.275.316.945.792.462,3.037,1.089,4.143.634,1.124,1.653,1.611.718,2.925-1.77,2.49-5.3,3.746-8.081,4.619-2.906.911-6.387,1.418-9.35.493-2.143-.67-2.847-2.578-3.656-4.54-.3-.724-.612-1.442-.921-2.162" transform="translate(-420.74 -297.703)" fill="#f18c6e"/>
        <path id="Trazado_884978" data-name="Trazado 884978" d="M385.381,426.4c1.472,1.644,3.734,2.236,5.85,2.456a27.111,27.111,0,0,0,7.129-.377,41.941,41.941,0,0,0,6.216-1.5c3.15-1.023,6.2-2.334,9.294-3.5,1.708-.643,3.434-1.243,5.2-1.721.877-.238,1.764-.446,2.657-.613.453-.084.9-.165,1.353-.261a4.519,4.519,0,0,1,1.047-.15.906.906,0,0,0,0-1.812,15.721,15.721,0,0,0-2.289.371c-.808.134-1.61.3-2.4.5a47.733,47.733,0,0,0-4.6,1.41c-3.048,1.086-6.019,2.373-9.067,3.46a45.555,45.555,0,0,1-6.708,1.86q-.813.156-1.633.281l-.382.056c-.032,0-.29.039-.068.01l-.233.03q-.429.054-.859.1a25.594,25.594,0,0,1-3.444.13q-.493-.017-.984-.061-.222-.02-.444-.046c-.039,0-.286-.038-.051-.005l-.216-.032a11.075,11.075,0,0,1-1.707-.4c-.128-.041-.254-.085-.38-.132l-.185-.072c-.191-.074.145.068-.025-.011a7.781,7.781,0,0,1-.737-.382q-.16-.1-.314-.2c-.051-.035-.1-.072-.151-.108-.147-.106.137.118-.011-.01a6.253,6.253,0,0,1-.572-.549.906.906,0,0,0-1.281,1.281" transform="translate(-291.362 -316.935)" fill="#002c4f"/>
        <path id="Trazado_884979" data-name="Trazado 884979" d="M408.3,483.247c2.763.622,5.414-.772,7.908-1.761,2.877-1.142,5.7-2.385,8.51-3.677,5.391-2.476,10.9-4.7,16.237-7.285,1.483-.719,2.953-1.468,4.4-2.263q1.065-.586,2.11-1.209c.338-.2.686-.4,1-.628.365-.266.677-.54,1-.763a.929.929,0,0,0,.325-1.239.914.914,0,0,0-1.239-.325c-.634.432-1.086.834-1.733,1.225q-.923.558-1.864,1.084c-1.258.705-2.536,1.374-3.827,2.016-2.614,1.3-5.278,2.5-7.951,3.669s-5.359,2.32-8.017,3.529c-2.735,1.244-5.453,2.542-8.241,3.651-1.384.55-2.756,1.15-4.157,1.654a12.744,12.744,0,0,1-2.125.591s-.311.048-.143.025c-.095.013-.191.022-.286.03-.173.014-.346.022-.52.023s-.341-.012-.513-.023-.078-.008-.035,0c-.122-.018-.243-.043-.363-.07a.926.926,0,0,0-1.114.633.916.916,0,0,0,.633,1.114" transform="translate(-308.395 -351.014)" fill="#002c4f"/>
        <g id="Grupo_1106218" data-name="Grupo 1106218" transform="translate(-177.002 2.359)">
          <path id="Trazado_884876" data-name="Trazado 884876" d="M605.379,1331.713c4.863,1.806,11.366,1.646,15.871-.856a12.409,12.409,0,0,0,1.131.99,19.2,19.2,0,0,0,9.1,5.01c2.759.689,5.931-1.059,9.013-.093,6.781,2.181,8.073,11.1,1.68,14-5.792,2.852-12.851.993-18.968-.342-7.057-1.859-20.911,1.285-19.34-10.6.231-1.76,1.365-4.7,1.509-8.112" transform="translate(-454.835 -1002.606)" fill="#e02f35"/>
          <path id="Trazado_884877" data-name="Trazado 884877" d="M624.159,1388.3c6.642,1.331,14.307,3.192,20.6.34a8.148,8.148,0,0,0,2.34-1.458,6.864,6.864,0,0,1-3.814,4.11c-5.792,2.852-12.851.992-18.968-.342-6.026-1.588-17,.465-19.1-6.3,4.2,3.542,13.461,2.314,18.945,3.645" transform="translate(-455.94 -1043.135)" fill="#fff"/>
          <path id="Trazado_884878" data-name="Trazado 884878" d="M712.7,1348.524c-4.677-1.005-7.8,3.675-9.052,7.526a14.022,14.022,0,0,0-.663,3.331.837.837,0,1,0,1.675,0c.014-.206.036-.411.061-.616-.025.207.01-.059.021-.13q.029-.181.063-.361c.087-.459.2-.913.33-1.361s.292-.916.468-1.363c.017-.043.138-.337.073-.184q.074-.174.152-.346.157-.346.331-.683a13.427,13.427,0,0,1,.765-1.3q.2-.293.409-.575c.087-.114-.122.148.027-.034l.092-.114q.138-.168.284-.33a8.5,8.5,0,0,1,1-.946c.107-.086-.159.113.021-.016l.11-.08q.138-.1.282-.189a5.79,5.79,0,0,1,.584-.325c.06-.029.12-.056.181-.083-.131.059-.03.013.045-.015q.154-.058.312-.106a4.764,4.764,0,0,1,.709-.158c-.22.032,0,0,.042,0,.067-.006.134-.01.2-.013.125,0,.25,0,.375,0s.255.016.383.031c-.176-.02-.048-.007-.011,0,.1.018.19.035.285.055a.857.857,0,0,0,1.03-.585.846.846,0,0,0-.585-1.03" transform="translate(-529.599 -1015.813)" fill="#002c4f"/>
          <path id="Trazado_884879" data-name="Trazado 884879" d="M690.263,1345.508a5.43,5.43,0,0,0-2.935,1.418,4.233,4.233,0,0,0-1.31,3.019.837.837,0,0,0,1.675,0c0-.117.008-.234.018-.351.014-.153-.038.214,0-.02.009-.048.018-.095.029-.142a3.244,3.244,0,0,1,.092-.321c.016-.045.033-.089.049-.133q.05-.122-.03.07l.039-.085a4.012,4.012,0,0,1,.313-.523q.078-.105-.046.057l.059-.073q.045-.054.092-.107.111-.124.233-.238c.081-.075.179-.139.254-.219-.145.152-.076.058-.015.015s.093-.065.14-.1a4.565,4.565,0,0,1,.579-.324l.091-.041q.122-.053-.062.026a.834.834,0,0,0,.14-.055q.166-.061.335-.111a5.3,5.3,0,0,1,.7-.151.837.837,0,0,0,.5-.385.838.838,0,0,0-.946-1.23" transform="translate(-516.814 -1013.634)" fill="#002c4f"/>
          <path id="Trazado_884880" data-name="Trazado 884880" d="M679.484,1337.508a4.215,4.215,0,0,0-2.927,1.254,9.246,9.246,0,0,0-1.7,2.51.838.838,0,0,0,1.446.845,13.4,13.4,0,0,1,.666-1.195c.061-.095.123-.189.187-.282q.048-.069.1-.137c.017-.024.1-.16.035-.049s.036-.044.054-.067q.052-.064.106-.126.107-.123.22-.24t.213-.2q.06-.053.121-.1l.082-.067-.086.067c.185-.1.346-.236.535-.329l.071-.034c.058-.026.031-.016-.079.032.039,0,.112-.044.148-.057a3.1,3.1,0,0,1,.309-.09c.053-.012.107-.021.161-.033.153-.034-.137.011-.03,0,.125-.011.249-.02.374-.021a.837.837,0,1,0,0-1.675" transform="translate(-508.326 -1007.617)" fill="#002c4f"/>
        </g>
      </g>
    </g>
    <g id="Grupo_1106189" data-name="Grupo 1106189" transform="translate(1084.784 602.916)">
      <g id="Grupo_1106188" data-name="Grupo 1106188" clip-path="url(#clip-path-13)">
        <g id="Grupo_1106187" data-name="Grupo 1106187">
          <g id="Grupo_1106186" data-name="Grupo 1106186" clip-path="url(#clip-path-13)">
            <g id="Grupo_1106185" data-name="Grupo 1106185" opacity="0.7">
              <g id="Grupo_1106184" data-name="Grupo 1106184">
                <g id="Grupo_1106183" data-name="Grupo 1106183" clip-path="url(#clip-path-13)">
                  <path id="Trazado_884922" data-name="Trazado 884922" d="M131.792,74.875a14.555,14.555,0,0,1-14.556,14.554H14.555A14.554,14.554,0,0,1,0,74.875V14.556A14.555,14.555,0,0,1,14.555,0H117.236a14.556,14.556,0,0,1,14.556,14.556Z" fill="#fff"/>
                  <path id="Trazado_884923" data-name="Trazado 884923" d="M88.746,40.008a10.9,10.9,0,0,1,9.121,16.883c1.121.369,2.242.711,3.364,1.048A14.319,14.319,0,0,0,81.793,38.394a29.6,29.6,0,0,0,1.013,3.386,10.834,10.834,0,0,1,5.94-1.772" transform="translate(-64.142 -28.691)" fill="#23b5ee"/>
                  <path id="Trazado_884924" data-name="Trazado 884924" d="M71.042,63.462A10.9,10.9,0,1,1,55.981,48.35a29.553,29.553,0,0,1-1.013-3.386A14.327,14.327,0,1,0,74.405,64.509c-1.121-.337-2.242-.678-3.364-1.048" transform="translate(-37.317 -35.261)" fill="#82cff6"/>
                  <path id="Trazado_884925" data-name="Trazado 884925" d="M71.675,202.774a8.638,8.638,0,0,0-5.564,14.155c-.848.4-1.7.773-2.548,1.145a11.35,11.35,0,0,1,13.428-17.236,23.6,23.6,0,0,1-.473,2.761,8.592,8.592,0,0,0-4.843-.826" transform="translate(-48.114 -156.837)" fill="#23b5ee"/>
                  <path id="Trazado_884926" data-name="Trazado 884926" d="M74.137,219.988a8.643,8.643,0,1,0,10.407-13.329,23.644,23.644,0,0,0,.473-2.761,11.357,11.357,0,1,1-13.428,17.236c.851-.373,1.7-.747,2.548-1.146" transform="translate(-56.14 -159.896)" fill="#82cff6"/>
                  <rect id="Rectángulo_404440" data-name="Rectángulo 404440" width="9.4" height="31.181" transform="translate(53.487 49.131)" fill="#82cff6"/>
                  <rect id="Rectángulo_404441" data-name="Rectángulo 404441" width="9.401" height="40.123" transform="translate(66.784 40.188)" fill="#82cff6"/>
                  <rect id="Rectángulo_404442" data-name="Rectángulo 404442" width="9.401" height="49.065" transform="translate(80.082 31.247)" fill="#82cff6"/>
                  <rect id="Rectángulo_404443" data-name="Rectángulo 404443" width="9.401" height="37.143" transform="translate(93.381 43.169)" fill="#82cff6"/>
                  <rect id="Rectángulo_404444" data-name="Rectángulo 404444" width="9.402" height="22.928" transform="translate(106.678 57.383)" fill="#82cff6"/>
                  <rect id="Rectángulo_404445" data-name="Rectángulo 404445" width="2.139" height="54.628" transform="translate(48.495 30.212)" fill="#82cff6"/>
                  <rect id="Rectángulo_404446" data-name="Rectángulo 404446" width="75.024" height="2.139" transform="translate(48.494 82.701)" fill="#82cff6"/>
                </g>
              </g>
            </g>
          </g>
        </g>
      </g>
    </g>
    <g id="Grupo_1106212" data-name="Grupo 1106212" transform="translate(1291.569 575.608)">
      <g id="Grupo_1106217" data-name="Grupo 1106217" clip-path="url(#clip-path-16)">
        <g id="Grupo_1106216" data-name="Grupo 1106216">
          <g id="Grupo_1106215" data-name="Grupo 1106215" clip-path="url(#clip-path-16)">
            <g id="Grupo_1106214" data-name="Grupo 1106214" opacity="0.7">
              <g id="Grupo_1106213" data-name="Grupo 1106213">
                <g id="Grupo_1106212-2" data-name="Grupo 1106212" clip-path="url(#clip-path-16)">
                  <path id="Trazado_884980" data-name="Trazado 884980" d="M128.431,83.972a16.322,16.322,0,0,1-16.322,16.322H16.325A16.324,16.324,0,0,1,0,83.972V16.324A16.325,16.325,0,0,1,16.325,0h95.784a16.323,16.323,0,0,1,16.322,16.323Z" transform="translate(0 -0.001)" fill="#fff"/>
                  <path id="Trazado_884981" data-name="Trazado 884981" d="M78.833,84.209a9.744,9.744,0,0,1,8.153,15.1c1,.331,2.005.635,3.008.937A12.8,12.8,0,0,0,72.617,82.766a26.2,26.2,0,0,0,.9,3.025,9.7,9.7,0,0,1,5.312-1.582" transform="translate(-50.252 -56.155)" fill="#23b5ee"/>
                  <path id="Trazado_884982" data-name="Trazado 884982" d="M72.155,102.94A9.749,9.749,0,1,1,58.69,89.427a26.085,26.085,0,0,1-.9-3.024,12.809,12.809,0,1,0,17.377,17.475c-1-.3-2-.606-3.008-.937" transform="translate(-35.42 -59.792)" fill="#82cff6"/>
                  <path id="Trazado_884983" data-name="Trazado 884983" d="M69.039,186.008a7.722,7.722,0,0,0-4.976,12.656c-.758.356-1.517.692-2.279,1.024a10.15,10.15,0,0,1,12.007-15.411,21.168,21.168,0,0,1-.422,2.469,7.676,7.676,0,0,0-4.33-.738" transform="translate(-41.39 -127.002)" fill="#23b5ee"/>
                  <path id="Trazado_884984" data-name="Trazado 884984" d="M68.5,200.353A7.728,7.728,0,1,0,77.8,188.434a21.1,21.1,0,0,0,.422-2.469,10.155,10.155,0,1,1-12.007,15.411c.761-.332,1.521-.668,2.278-1.024" transform="translate(-45.824 -128.69)" fill="#82cff6"/>
                  <path id="Trazado_884985" data-name="Trazado 884985" d="M180.932,93.149l0,42.918,30.42-21.459Z" transform="translate(-125.205 -64.46)" fill="#82cff6"/>
                  <rect id="Rectángulo_404479" data-name="Rectángulo 404479" width="11.166" height="2.707" transform="translate(11.777 9.254)" fill="#82cff6"/>
                  <rect id="Rectángulo_404480" data-name="Rectángulo 404480" width="2.706" height="11.168" transform="translate(11.777 9.254)" fill="#82cff6"/>
                  <rect id="Rectángulo_404481" data-name="Rectángulo 404481" width="11.166" height="2.707" transform="translate(105.49 9.254)" fill="#82cff6"/>
                  <rect id="Rectángulo_404482" data-name="Rectángulo 404482" width="2.704" height="11.168" transform="translate(113.951 9.254)" fill="#82cff6"/>
                  <rect id="Rectángulo_404483" data-name="Rectángulo 404483" width="11.166" height="2.706" transform="translate(105.49 88.334)" fill="#82cff6"/>
                  <rect id="Rectángulo_404484" data-name="Rectángulo 404484" width="2.704" height="11.167" transform="translate(113.951 79.872)" fill="#82cff6"/>
                  <rect id="Rectángulo_404485" data-name="Rectángulo 404485" width="11.166" height="2.706" transform="translate(11.777 88.334)" fill="#82cff6"/>
                  <rect id="Rectángulo_404486" data-name="Rectángulo 404486" width="2.706" height="11.167" transform="translate(11.777 79.872)" fill="#82cff6"/>
                  <rect id="Rectángulo_404487" data-name="Rectángulo 404487" width="53.041" height="2.399" transform="translate(27.753 79.41)" fill="#82cff6"/>
                  <rect id="Rectángulo_404488" data-name="Rectángulo 404488" width="53.041" height="2.4" transform="translate(27.753 83.441)" fill="#82cff6"/>
                </g>
              </g>
            </g>
          </g>
        </g>
      </g>
    </g>
  </g>
</svg>
