<svg xmlns="http://www.w3.org/2000/svg" width="73.744" height="73.74" viewBox="0 0 73.744 73.74">
  <g id="Grupo_1106306" data-name="Grupo 1106306" transform="translate(0 0)">
    <g id="cinta-adhesiva-azul-aislado-sobre-fondo-blanco_457211-2103" transform="translate(0 0)" fill="#fff">
      <path d="M 36.8721923828125 72.23999786376953 C 32.0963020324707 72.23999786376953 27.46406936645508 71.30502319335938 23.10416984558105 69.46105194091797 C 18.89225959777832 67.67966461181641 15.10924816131592 65.12914276123047 11.86024761199951 61.88033294677734 C 8.611248016357422 58.63153076171875 6.060581207275391 54.8487663269043 4.279092311859131 50.63711166381836 C 2.435025691986084 46.27750015258789 1.500003457069397 41.64556503295898 1.500003457069397 36.86999893188477 C 1.500003457069397 32.09443283081055 2.435025691986084 27.46250915527344 4.279092311859131 23.1028881072998 C 6.060581207275391 18.89123153686523 8.611248016357422 15.10846519470215 11.86024761199951 11.8596658706665 C 15.10924816131592 8.610854148864746 18.89225959777832 6.060332298278809 23.10416984558105 4.278943538665771 C 27.46406936645508 2.434976816177368 32.0963020324707 1.499998927116394 36.8721923828125 1.499998927116394 C 41.6480827331543 1.499998927116394 46.28031539916992 2.434976816177368 50.64021301269531 4.278943538665771 C 54.85213851928711 6.060332298278809 58.63513565063477 8.610854148864746 61.88413619995117 11.8596658706665 C 65.13314056396484 15.10846519470215 67.68379974365234 18.89123153686523 69.46529388427734 23.1028881072998 C 71.30935668945312 27.46250915527344 72.244384765625 32.09443283081055 72.244384765625 36.86999893188477 C 72.244384765625 41.64556503295898 71.30935668945312 46.27750015258789 69.46529388427734 50.63711166381836 C 67.68379974365234 54.8487663269043 65.13314056396484 58.63153076171875 61.88413619995117 61.88033294677734 C 58.63513565063477 65.12914276123047 54.85213851928711 67.67966461181641 50.64021301269531 69.46105194091797 C 46.28031539916992 71.30502319335938 41.6480827331543 72.23999786376953 36.8721923828125 72.23999786376953 Z" stroke="none"/>
      <path d="M 36.8721923828125 3 C 32.29813003540039 3 27.86248016357422 3.895111083984375 23.68846893310547 5.66046142578125 C 19.65534210205078 7.366233825683594 16.0326042175293 9.808811187744141 12.92086791992188 12.92036056518555 C 9.809154510498047 16.03188705444336 7.366439819335938 19.65439987182617 5.66058349609375 23.68724822998047 C 3.8951416015625 27.8609619140625 2.999992370605469 32.29627227783203 2.999992370605469 36.86999893188477 C 2.999992370605469 41.4437255859375 3.8951416015625 45.87903594970703 5.66058349609375 50.05276107788086 C 7.366439819335938 54.08560943603516 9.809154510498047 57.70811080932617 12.92086791992188 60.81964874267578 C 16.0325927734375 63.93118667602539 19.65534210205078 66.37377166748047 23.68846893310547 68.07953643798828 C 27.86248016357422 69.84488677978516 32.29813003540039 70.73999786376953 36.8721923828125 70.73999786376953 C 41.44625473022461 70.73999786376953 45.88190460205078 69.84488677978516 50.05591583251953 68.07953643798828 C 54.08904266357422 66.37377166748047 57.7117805480957 63.93118667602539 60.82350540161133 60.81964874267578 C 63.93523025512695 57.70811080932617 66.37794494628906 54.08560943603516 68.08379364013672 50.05276107788086 C 69.84922790527344 45.87905120849609 70.74437713623047 41.4437255859375 70.74437713623047 36.86999893188477 C 70.74437713623047 32.29627227783203 69.84922790527344 27.8609619140625 68.08379364013672 23.68724822998047 C 66.37794494628906 19.65439987182617 63.93523025512695 16.03188705444336 60.82350540161133 12.92036056518555 C 57.7117805480957 9.808811187744141 54.08904266357422 7.366233825683594 50.05591583251953 5.66046142578125 C 45.88189315795898 3.895111083984375 41.44625473022461 3 36.8721923828125 3 M 36.8721923828125 0 C 57.23614501953125 0 73.74437713623047 16.50726318359375 73.74437713623047 36.86999893188477 C 73.74437713623047 57.23274993896484 57.23614501953125 73.73999786376953 36.8721923828125 73.73999786376953 C 16.50824356079102 73.73999786376953 -7.62939453125e-06 57.23274993896484 -7.62939453125e-06 36.86999893188477 C -7.62939453125e-06 16.50726318359375 16.50824356079102 0 36.8721923828125 0 Z" stroke="none" fill="#7bb5f2"/>
    </g>
    <g id="info_4685312_1_" data-name="info_4685312 (1)" transform="translate(17.88 18.878)">
      <path id="Trazado_885053" data-name="Trazado 885053" d="M35.082,36.824H3.741A1.741,1.741,0,0,1,2,35.082V3.741A1.741,1.741,0,0,1,3.741,2H35.082a1.741,1.741,0,0,1,1.741,1.741V35.082a1.741,1.741,0,0,1-1.741,1.741Z" transform="translate(-0.42 -0.42)" fill="#c9cacc"/>
      <path id="Trazado_885054" data-name="Trazado 885054" d="M35.922,2H4.58a1.731,1.731,0,0,0-.5.081A1.731,1.731,0,0,0,4,2.58V33.922a1.741,1.741,0,0,0,1.741,1.741H37.082a1.731,1.731,0,0,0,.5-.081,1.731,1.731,0,0,0,.081-.5V3.741A1.741,1.741,0,0,0,35.922,2Z" transform="translate(-1.259 -0.42)" fill="#e3e4e6"/>
      <path id="Trazado_885055" data-name="Trazado 885055" d="M35.082,2H3.741A1.741,1.741,0,0,0,2,3.741v.58H36.824v-.58A1.741,1.741,0,0,0,35.082,2Z" transform="translate(-0.42 -0.42)" fill="#69737a"/>
      <path id="Trazado_885056" data-name="Trazado 885056" d="M36.824,10.644H11.867L10.706,8.323H2V6H36.824Z" transform="translate(-0.42 -2.098)" fill="#c9cacc"/>
      <path id="Trazado_885057" data-name="Trazado 885057" d="M50,2h2.322V4.322H50Z" transform="translate(-20.561 -0.42)" fill="#58b15e"/>
      <path id="Trazado_885058" data-name="Trazado 885058" d="M58.58,2H58V4.322h2.322v-.58A1.741,1.741,0,0,0,58.58,2Z" transform="translate(-23.918 -0.42)" fill="#de422c"/>
      <path id="Trazado_885059" data-name="Trazado 885059" d="M54,2h2.322V4.322H54Z" transform="translate(-22.239 -0.42)" fill="#efa661"/>
      <path id="Trazado_885060" data-name="Trazado 885060" d="M24.268,32.782a6.973,6.973,0,0,1-8.7,4.856L10,39.664l1.868-4.67a6.965,6.965,0,0,1,9.4-9.925" transform="translate(-3.776 -9.644)" fill="#4fa04b"/>
      <path id="Trazado_885061" data-name="Trazado 885061" d="M24.155,31.416l-2.466-6.338A6.965,6.965,0,0,0,11.465,33.46a6.954,6.954,0,0,0,12.688-2.047Z" transform="translate(-4.197 -9.651)" fill="#58b15e"/>
      <g id="Grupo_1106315" data-name="Grupo 1106315" transform="translate(9.029 19.78)">
        <circle id="Elipse_11950" data-name="Elipse 11950" cx="1.147" cy="1.147" r="1.147" transform="translate(0 0)" fill="#43525b"/>
        <circle id="Elipse_11951" data-name="Elipse 11951" cx="1.147" cy="1.147" r="1.147" transform="translate(4.588 0)" fill="#43525b"/>
        <circle id="Elipse_11952" data-name="Elipse 11952" cx="1.147" cy="1.147" r="1.147" transform="translate(8.029 0)" fill="#43525b"/>
      </g>
      <path id="Trazado_885062" data-name="Trazado 885062" d="M47.929,54.447V49.224a1.161,1.161,0,1,0-2.322,0,1.161,1.161,0,1,0-2.322,0,1.161,1.161,0,1,0-2.322,0V45.161a1.161,1.161,0,0,0-2.322,0v5.224l-1.424-1.067a3.37,3.37,0,0,0-2.022-.674,1.2,1.2,0,0,0-.791,2.1l4.237,3.706" transform="translate(-13.847 -18.043)" fill="#ecb7ab"/>
      <path id="Trazado_885063" data-name="Trazado 885063" d="M49,53h1.161v2.9H49Z" transform="translate(-20.141 -21.82)" fill="#fde0d3"/>
      <path id="Trazado_885064" data-name="Trazado 885064" d="M45,53h1.161v2.9H45Z" transform="translate(-18.463 -21.82)" fill="#fde0d3"/>
      <path id="Trazado_885065" data-name="Trazado 885065" d="M53,53h1.161v2.9H53Z" transform="translate(-21.82 -21.82)" fill="#fde0d3"/>
      <path id="Trazado_885066" data-name="Trazado 885066" d="M37.954,30.665l5.572,2.026-1.868-4.67a6.95,6.95,0,1,0-3.7,2.645Z" transform="translate(-11.765 -6.734)" fill="#006fbe"/>
      <path id="Trazado_885067" data-name="Trazado 885067" d="M36.385,17a6.952,6.952,0,0,0-5.91,3.292,6.958,6.958,0,0,0,12.41,6.169,6.959,6.959,0,0,0-6.5-9.46Z" transform="translate(-12.169 -6.714)" fill="#007dc8"/>
      <path id="Trazado_885068" data-name="Trazado 885068" d="M38,33.224h3.482l-.58-4.063L41.482,28H38l.58,4.063Z" transform="translate(-15.525 -11.329)" fill="#fff"/>
      <circle id="Elipse_11953" data-name="Elipse 11953" cx="1.147" cy="1.147" r="1.147" transform="translate(22.793 12.898)" fill="#fff"/>
      <path id="Trazado_885069" data-name="Trazado 885069" d="M34.663,1H3.322A2.322,2.322,0,0,0,1,3.322V34.663a2.322,2.322,0,0,0,2.322,2.322H34.663a2.322,2.322,0,0,0,2.322-2.322V3.322A2.322,2.322,0,0,0,34.663,1Zm1.161,2.322H34.663V2.161A1.161,1.161,0,0,1,35.824,3.322Zm-3.482,0V2.161H33.5V3.322Zm-1.161,0H30.02V2.161H31.18Zm4.643,1.161V7.965H11.806l-1-2a.58.58,0,0,0-.522-.321H2.161V4.482ZM3.322,2.161H28.859V3.322H2.161A1.161,1.161,0,0,1,3.322,2.161ZM26.537,31.18v2.9H27.7v-2.9a.58.58,0,0,1,1.161,0v2.9H30.02v-2.9a.58.58,0,0,1,1.161,0v2.9h1.161v-2.9a.58.58,0,1,1,1.161,0v4.643H25.014l-4.07-3.562a.617.617,0,0,1,.406-1.081,2.811,2.811,0,0,1,1.674.558l1.423,1.067a.58.58,0,0,0,.929-.464V27.118a.58.58,0,1,1,1.161,0Zm8.126,4.643V31.18a1.741,1.741,0,0,0-2.9-1.3,1.738,1.738,0,0,0-2.322,0,1.808,1.808,0,0,0-1.741-.345V27.118a1.741,1.741,0,0,0-3.482,0V31.18l-.5-.371a3.975,3.975,0,0,0-2.371-.79,1.778,1.778,0,0,0-1.171,3.116l3.072,2.688H3.322a1.161,1.161,0,0,1-1.161-1.161V6.8H9.928l1,2a.58.58,0,0,0,.519.321H35.824V34.663a1.161,1.161,0,0,1-1.161,1.161Z" transform="translate(0)"/>
      <path id="Trazado_885070" data-name="Trazado 885070" d="M41.554,27.275A.58.58,0,0,0,41.06,27H37.578a.58.58,0,0,0-.575.663l.555,3.883-.5,1a.58.58,0,0,0,.522.84H41.06a.58.58,0,0,0,.575-.663l-.555-3.883.5-1A.58.58,0,0,0,41.554,27.275Zm-3.037,4.948.161-.321a.58.58,0,0,0,.055-.342l-.486-3.4h1.874l-.161.321a.584.584,0,0,0-.055.342l.486,3.4Z" transform="translate(-15.104 -10.91)"/>
      <path id="Trazado_885071" data-name="Trazado 885071" d="M39.741,23.482A1.741,1.741,0,1,0,38,21.741,1.741,1.741,0,0,0,39.741,23.482Zm0-2.322a.58.58,0,1,1-.58.58A.58.58,0,0,1,39.741,21.161Z" transform="translate(-15.525 -7.973)"/>
      <path id="Trazado_885072" data-name="Trazado 885072" d="M33.9,27.651a7.542,7.542,0,1,0-13.379-6.777A7.545,7.545,0,0,0,10.8,31.713L9.041,36.1a.58.58,0,0,0,.738.76L15.173,34.9a7.554,7.554,0,0,0,9.009-4.621,7.516,7.516,0,0,0,5.343.56L34.919,32.8a.58.58,0,0,0,.738-.76ZM21.2,27.558q.2.31.419.6a.573.573,0,0,1-.426-.549C21.188,27.59,21.194,27.575,21.2,27.558Zm-4.07,6.433a6.388,6.388,0,0,1-1.811-.26.587.587,0,0,0-.363.011L10.6,35.324l1.387-3.467a.58.58,0,0,0-.066-.552,6.371,6.371,0,0,1,8.262-9.286,7.5,7.5,0,0,0,.39,4.327,1.734,1.734,0,0,0,1.977,2.81,7.688,7.688,0,0,0,.621.5,6.393,6.393,0,0,1-6.043,4.333Zm12.621-4.312a.584.584,0,0,0-.2-.035.565.565,0,0,0-.164.024,6.387,6.387,0,1,1,3.393-2.425.58.58,0,0,0-.066.552L34.1,31.263Z" transform="translate(-3.357 -6.293)"/>
      <path id="Trazado_885073" data-name="Trazado 885073" d="M15.741,33a1.741,1.741,0,1,0,1.741,1.741A1.741,1.741,0,0,0,15.741,33Zm0,2.322a.58.58,0,1,1,.58-.58A.58.58,0,0,1,15.741,35.322Z" transform="translate(-5.455 -13.427)"/>
      <path id="Trazado_885074" data-name="Trazado 885074" d="M22.741,33a1.741,1.741,0,1,0,1.741,1.741A1.741,1.741,0,0,0,22.741,33Zm0,2.322a.58.58,0,1,1,.58-.58A.58.58,0,0,1,22.741,35.322Z" transform="translate(-8.392 -13.427)"/>
    </g>
  </g>
</svg>
