<svg xmlns="http://www.w3.org/2000/svg" width="73.744" height="73.74" viewBox="0 0 73.744 73.74">
  <g id="Grupo_1107163" data-name="Grupo 1107163" transform="translate(0 0)">
    <g id="cinta-adhesiva-azul-aislado-sobre-fondo-blanco_457211-2103" transform="translate(0 0)" fill="#fff">
      <path d="M 36.8721923828125 72.23999786376953 C 32.0963020324707 72.23999786376953 27.46406936645508 71.30502319335938 23.10416984558105 69.46105194091797 C 18.89225959777832 67.67966461181641 15.10924816131592 65.12914276123047 11.86024761199951 61.88033294677734 C 8.611248016357422 58.63153076171875 6.060581207275391 54.8487663269043 4.279092311859131 50.63711166381836 C 2.435025691986084 46.27750015258789 1.500003457069397 41.64556503295898 1.500003457069397 36.86999893188477 C 1.500003457069397 32.09443283081055 2.435025691986084 27.46250915527344 4.279092311859131 23.1028881072998 C 6.060581207275391 18.89123153686523 8.611248016357422 15.10846519470215 11.86024761199951 11.8596658706665 C 15.10924816131592 8.610854148864746 18.89225959777832 6.060332298278809 23.10416984558105 4.278943538665771 C 27.46406936645508 2.434976816177368 32.0963020324707 1.499998927116394 36.8721923828125 1.499998927116394 C 41.6480827331543 1.499998927116394 46.28031539916992 2.434976816177368 50.64021301269531 4.278943538665771 C 54.85213851928711 6.060332298278809 58.63513565063477 8.610854148864746 61.88413619995117 11.8596658706665 C 65.13314056396484 15.10846519470215 67.68379974365234 18.89123153686523 69.46529388427734 23.1028881072998 C 71.30935668945312 27.46250915527344 72.244384765625 32.09443283081055 72.244384765625 36.86999893188477 C 72.244384765625 41.64556503295898 71.30935668945312 46.27750015258789 69.46529388427734 50.63711166381836 C 67.68379974365234 54.8487663269043 65.13314056396484 58.63153076171875 61.88413619995117 61.88033294677734 C 58.63513565063477 65.12914276123047 54.85213851928711 67.67966461181641 50.64021301269531 69.46105194091797 C 46.28031539916992 71.30502319335938 41.6480827331543 72.23999786376953 36.8721923828125 72.23999786376953 Z" stroke="none"/>
      <path d="M 36.8721923828125 3 C 32.29813003540039 3 27.86248016357422 3.895111083984375 23.68846893310547 5.66046142578125 C 19.65534210205078 7.366233825683594 16.0326042175293 9.808811187744141 12.92086791992188 12.92036056518555 C 9.809154510498047 16.03188705444336 7.366439819335938 19.65439987182617 5.66058349609375 23.68724822998047 C 3.8951416015625 27.8609619140625 2.999992370605469 32.29627227783203 2.999992370605469 36.86999893188477 C 2.999992370605469 41.4437255859375 3.8951416015625 45.87903594970703 5.66058349609375 50.05276107788086 C 7.366439819335938 54.08560943603516 9.809154510498047 57.70811080932617 12.92086791992188 60.81964874267578 C 16.0325927734375 63.93118667602539 19.65534210205078 66.37377166748047 23.68846893310547 68.07953643798828 C 27.86248016357422 69.84488677978516 32.29813003540039 70.73999786376953 36.8721923828125 70.73999786376953 C 41.44625473022461 70.73999786376953 45.88190460205078 69.84488677978516 50.05591583251953 68.07953643798828 C 54.08904266357422 66.37377166748047 57.7117805480957 63.93118667602539 60.82350540161133 60.81964874267578 C 63.93523025512695 57.70811080932617 66.37794494628906 54.08560943603516 68.08379364013672 50.05276107788086 C 69.84922790527344 45.87905120849609 70.74437713623047 41.4437255859375 70.74437713623047 36.86999893188477 C 70.74437713623047 32.29627227783203 69.84922790527344 27.8609619140625 68.08379364013672 23.68724822998047 C 66.37794494628906 19.65439987182617 63.93523025512695 16.03188705444336 60.82350540161133 12.92036056518555 C 57.7117805480957 9.808811187744141 54.08904266357422 7.366233825683594 50.05591583251953 5.66046142578125 C 45.88189315795898 3.895111083984375 41.44625473022461 3 36.8721923828125 3 M 36.8721923828125 0 C 57.23614501953125 0 73.74437713623047 16.50726318359375 73.74437713623047 36.86999893188477 C 73.74437713623047 57.23274993896484 57.23614501953125 73.73999786376953 36.8721923828125 73.73999786376953 C 16.50824356079102 73.73999786376953 -7.62939453125e-06 57.23274993896484 -7.62939453125e-06 36.86999893188477 C -7.62939453125e-06 16.50726318359375 16.50824356079102 0 36.8721923828125 0 Z" stroke="none" fill="#f6de44"/>
    </g>
    <g id="information_11647341" transform="translate(14.248 0.264)">
      <g id="Grupo_1107279" data-name="Grupo 1107279" transform="translate(1.063 17.063)">
        <g id="Grupo_1107275" data-name="Grupo 1107275" transform="translate(0 18.596)">
          <path id="Trazado_887348" data-name="Trazado 887348" d="M7,237.785h7.064v17.337H7Z" transform="translate(-7 -237.785)" fill="#696ead"/>
        </g>
        <g id="Grupo_1107276" data-name="Grupo 1107276" transform="translate(7.064 20.906)">
          <path id="Trazado_887349" data-name="Trazado 887349" d="M88.582,277.176c17.359,9.057,14.03,8.741,31.252.393a3.364,3.364,0,1,0-2.936-6.053l-9.624,4.666a3.375,3.375,0,0,0-.925-4.224q-4.856-3.752-9.718-7.5H88.582v12.717Z" transform="translate(-88.582 -264.459)" fill="#ffcebf"/>
        </g>
        <g id="Grupo_1107277" data-name="Grupo 1107277" transform="translate(16.095)">
          <path id="Trazado_887350" data-name="Trazado 887350" d="M196.064,23.028h20.641a3.2,3.2,0,0,1,3.193,3.193V40.755a3.2,3.2,0,0,1-3.193,3.193h-7.354l-4.362,5.167V43.948h-8.925a3.2,3.2,0,0,1-3.193-3.193V26.221A3.2,3.2,0,0,1,196.064,23.028Z" transform="translate(-192.871 -23.028)" fill="#23a8fe"/>
        </g>
        <path id="Trazado_887351" data-name="Trazado 887351" d="M314.637,59.427l.4.96a14.962,14.962,0,0,1-5.309,2.923.771.771,0,0,1-.948-.908l1.3-6,.233-1.087a.418.418,0,0,0-.157-.425.41.41,0,0,0-.449-.037l-1.323.692-.4-.96a15.006,15.006,0,0,1,5.309-2.926.77.77,0,0,1,.945.908l-1.3,6.006-.233,1.087a.422.422,0,0,0,.606.462ZM313.186,50.2a1.895,1.895,0,1,0-1.895-1.895A1.9,1.9,0,0,0,313.186,50.2Z" transform="translate(-281.924 -44.39)" fill="#d7f1ff"/>
        <g id="Grupo_1107278" data-name="Grupo 1107278" transform="translate(0 18.596)">
          <path id="Trazado_887352" data-name="Trazado 887352" d="M7,237.785h3.532v17.337H7Z" transform="translate(-7 -237.785)" fill="#505795"/>
        </g>
      </g>
      <path id="Trazado_887353" data-name="Trazado 887353" d="M36.152,44.465l-8.374,4.06a3.956,3.956,0,0,0-1.522-3.553q-4.851-3.745-9.7-7.484a.6.6,0,0,0-.369-.126H8.761v-1.7a.605.605,0,0,0-.605-.605H1.105a.605.605,0,0,0,0,1.21H7.55V52.359H1.105a.605.605,0,0,0,0,1.21h7.05a.605.605,0,0,0,.605-.605V51.658c.984.516,1.9,1,2.738,1.443,6.007,3.176,9.022,4.77,12.033,4.868.1,0,.2,0,.3,0,2.915,0,5.741-1.406,11.192-4.118,1.344-.669,2.868-1.427,4.589-2.261a3.962,3.962,0,0,0-3.458-7.13Zm4.325,4.465a2.733,2.733,0,0,1-1.4,1.576c-1.727.837-3.253,1.6-4.6,2.267-5.454,2.713-8.191,4.075-10.91,3.987s-5.664-1.639-11.507-4.728c-.991-.524-2.1-1.112-3.3-1.739V38.572h7.221q4.769,3.678,9.535,7.358a2.748,2.748,0,0,1,.883,3.179l-.007.016a2.759,2.759,0,0,1-.377.664,2.761,2.761,0,0,1-3.86.5L15.823,45.4a.605.605,0,0,0-.739.958l6.332,4.885a3.924,3.924,0,0,0,2.409.823,4.05,4.05,0,0,0,.518-.033,3.9,3.9,0,0,0,2.9-1.9l9.439-4.576a2.748,2.748,0,0,1,3.8,3.376ZM40.953,16.5h-20.6a3.8,3.8,0,0,0-3.792,3.792V34.794a3.8,3.8,0,0,0,3.792,3.792h8.3v4.552a.605.605,0,0,0,1.067.39L33.9,38.587h7.056a3.8,3.8,0,0,0,3.795-3.792V20.289A3.8,3.8,0,0,0,40.953,16.5Zm2.584,18.3a2.586,2.586,0,0,1-2.584,2.582H33.616a.6.6,0,0,0-.462.215l-3.288,3.893v-3.5a.605.605,0,0,0-.605-.605h-8.9a2.585,2.585,0,0,1-2.582-2.582V20.289a2.585,2.585,0,0,1,2.582-2.582h20.6a2.586,2.586,0,0,1,2.584,2.582Zm-9.229-2.919a.605.605,0,0,0-.839-.3l-.971.508.15-.7,1.3-5.993a1.36,1.36,0,0,0-.389-1.281,1.344,1.344,0,0,0-1.306-.339A15.746,15.746,0,0,0,26.741,26.8a.605.605,0,0,0-.185.71l.4.958a.605.605,0,0,0,.839.3l.971-.508-.15.7-1.3,5.992a1.367,1.367,0,0,0,1.695,1.619,15.7,15.7,0,0,0,5.514-3.025.605.605,0,0,0,.185-.71ZM28.693,35.4a.136.136,0,0,1-.145-.041.148.148,0,0,1-.049-.154l1.3-5.994.233-1.085v0a1.029,1.029,0,0,0-1-1.24,1.011,1.011,0,0,0-.476.12l-.281.147a13.236,13.236,0,0,1,4.294-2.213.144.144,0,0,1,.152.042.147.147,0,0,1,.046.151l-1.3,6-.233,1.087a1.026,1.026,0,0,0,1.478,1.122l.286-.15a12.99,12.99,0,0,1-4.3,2.215ZM32.3,18.518a2.5,2.5,0,1,0,2.5,2.5A2.5,2.5,0,0,0,32.3,18.518Zm0,3.782a1.286,1.286,0,1,1,1.286-1.286A1.286,1.286,0,0,1,32.3,22.3Z"/>
    </g>
  </g>
</svg>
