<svg xmlns="http://www.w3.org/2000/svg" xmlns:xlink="http://www.w3.org/1999/xlink" width="417.808" height="297.49" viewBox="0 0 417.808 297.49">
  <defs>
    <clipPath id="clip-path">
      <rect id="Rectángulo_404563" data-name="Rectángulo 404563" width="373" height="297" rx="19" transform="translate(-1914 -8720)" fill="#feece6" opacity="0.53"/>
    </clipPath>
    <clipPath id="clip-path-2">
      <rect id="Rectángulo_404566" data-name="Rectángulo 404566" width="442" height="442" fill="none"/>
    </clipPath>
  </defs>
  <g id="Grupo_1107077" data-name="Grupo 1107077" transform="translate(1743 8444.491)">
    <g id="Enmascarar_grupo_1099789" data-name="Enmascarar grupo 1099789" transform="translate(171 276)" clip-path="url(#clip-path)">
      <g id="Grupo_1107075" data-name="Grupo 1107075" transform="translate(-1948 -8772)">
        <g id="BACKGROUND" transform="translate(0 14.139)">
          <rect id="Rectángulo_404564" data-name="Rectángulo 404564" width="442" height="428" transform="translate(0 -0.139)" fill="#fff"/>
        </g>
        <g id="OBJECTS">
          <g id="Grupo_1107038" data-name="Grupo 1107038">
            <g id="Grupo_1107037" data-name="Grupo 1107037" clip-path="url(#clip-path-2)">
              <rect id="Rectángulo_404565" data-name="Rectángulo 404565" width="441.847" height="76.416" transform="translate(0 365.431)" fill="#cbecfd"/>
              <g id="Grupo_1107035" data-name="Grupo 1107035" transform="translate(94.251 322.386)">
                <path id="Trazado_885166" data-name="Trazado 885166" d="M115.405,404.782c5.985-2.234,12.664-3.512,18.588-1.319q-4.988-4.221-9.881-8.553a3.875,3.875,0,0,1-1.8,1.063c-3.119.879-5.219-1.347-6.545-3.9a43.785,43.785,0,0,1-1.783-4.2c-.387-.984-3.129-5.59-.138-5.035a25.648,25.648,0,0,1,4.115,1.417,11.643,11.643,0,0,1,5.23,3.569,7.864,7.864,0,0,1,1.667,4.477,3.985,3.985,0,0,1-.3,1.952c-.012.027-.029.049-.042.075,3.786,3.37,7.642,6.666,11.524,9.933-.013-.022-.028-.047-.042-.067a17.627,17.627,0,0,1-2.374-5.253,12.111,12.111,0,0,1,1.623-9.3.355.355,0,0,1,.6-.054c.05.082,5.01,6.644,5.146,10.527a9.912,9.912,0,0,1-.778,4.332c-.294.667-.763,1.76-1.546,2.031,4.056,3.4,8.122,6.789,12.138,10.232a13.852,13.852,0,0,1-.927-2.366,11.252,11.252,0,0,1,.528-8.077,7.224,7.224,0,0,1,2.012-2.634,11.541,11.541,0,0,1,3.689,5.754,8.588,8.588,0,0,1,.56,3.744,6.057,6.057,0,0,1-1.444,3.134c-.56.657-1.724,1.837-2.7,1.921,4.874,4.215,9.659,8.528,14.247,13.049a7.1,7.1,0,0,1,.832-4.448,15.862,15.862,0,0,1,2.821-3.646,5.567,5.567,0,0,0,1.717-2.508,14.653,14.653,0,0,0,.852,3.457,10.146,10.146,0,0,1,.13,4.742,6.173,6.173,0,0,1-1.322,2.85,4.538,4.538,0,0,1-2.967,1.615q2.489,2.524,4.891,5.142a136.356,136.356,0,0,1,12.285,15.509c.253.375-.32.779-.573.406a148.276,148.276,0,0,0-18.733-22.174,3.487,3.487,0,0,1-.706,3.57,5.383,5.383,0,0,1-1.639,1.3,8.488,8.488,0,0,1-11.249-2.978c-.126-.2-.242-.478-.1-.668a.654.654,0,0,1,.432-.184,14.166,14.166,0,0,0,4.328-1.773,13.077,13.077,0,0,1,4.349-1.71,4.6,4.6,0,0,1,2.386.3c-4.031-3.886-8.21-7.63-12.454-11.3a3.909,3.909,0,0,1-1.2,2.067,12.205,12.205,0,0,1-17.862.1,16.226,16.226,0,0,1,15.754-4.168c.356.1.889.216,1.422.381-4.186-3.587-8.421-7.114-12.626-10.644-.281,4.905-6.743,6.942-11.021,6.946-5.2,0-10.222-2.953-11.356-8.271A.353.353,0,0,1,115.405,404.782Z" transform="translate(-107.332 -366.907)" fill="#fead1e"/>
                <g id="Grupo_1107031" data-name="Grupo 1107031" transform="translate(0 51.128)">
                  <path id="Trazado_885167" data-name="Trazado 885167" d="M150.334,428.663c-5.181-.888-10.477-.665-15.73-.859a98.727,98.727,0,0,1-27.949-5.13q2.888,10.29,5.778,20.58c1.49,5.307,2.994,10.649,5.451,15.583a43.978,43.978,0,0,0,9.4,12.575c8,7.438,19.3,11.752,30.051,9.812,9.4-1.7,18.223-8.282,20.961-17.65C183.523,445.714,166.371,431.414,150.334,428.663Z" transform="translate(-106.656 -422.674)" fill="#17bfaf"/>
                  <path id="Trazado_885168" data-name="Trazado 885168" d="M113.475,429.142c7.259,3.242,14.539,6.5,21.6,10.162a38.911,38.911,0,0,0-4.237-6.895c-.634-.823.557-1.926,1.195-1.1a40.9,40.9,0,0,1,5.3,9.027.845.845,0,0,1,.038.186c3.149,1.686,6.254,3.453,9.281,5.358a95.874,95.874,0,0,1,12.737,9.281,186.933,186.933,0,0,0-5.8-18.125c-.366-.966,1.067-1.729,1.437-.755a191.07,191.07,0,0,1,6.6,20.983,37.406,37.406,0,0,1,8.771,12.877c.376.964-1.059,1.727-1.438.755a32.268,32.268,0,0,0-3.2-6.107c-.017,0-.029.01-.046.01-9.039.115-18.466-.5-27.406.946-1.027.166-1.379-1.419-.345-1.586,8.719-1.411,17.839-.918,26.674-.976-5.04-6.792-12.378-11.929-19.511-16.34-.009,0-.015.005-.024.006-8.382.423-17.082.239-25.3,2.069a.812.812,0,0,1-.346-1.586c7.523-1.675,15.435-1.693,23.155-1.994-9.5-5.625-19.587-10.156-29.653-14.653C112.029,430.265,112.52,428.715,113.475,429.142Z" transform="translate(-107.332 -423.418)" fill="#fff"/>
                  <path id="Trazado_885169" data-name="Trazado 885169" d="M179.336,464.5c-2.739,9.367-11.559,15.96-20.961,17.656-10.746,1.935-22.048-2.377-30.046-9.818a43.92,43.92,0,0,1-9.411-12.575,59.227,59.227,0,0,1-3.358-8.5c33.139,5.938,39.218-12.221,40.279-20.617C170.393,435.028,184.073,448.292,179.336,464.5Z" transform="translate(-107.692 -423.601)" fill="#188c80" opacity="0.3"/>
                </g>
                <g id="Grupo_1107032" data-name="Grupo 1107032" transform="translate(132.547 15.134)">
                  <path id="Trazado_885170" data-name="Trazado 885170" d="M305.01,420.694c-2.349-4.7-5.664-8.839-8.616-13.187a98.741,98.741,0,0,1-12.406-25.564L270.819,398.78c-3.4,4.342-6.812,8.716-9.334,13.617a43.99,43.99,0,0,0-4.571,15.023c-1.258,10.853,1.949,22.511,9.876,30.03,6.93,6.573,17.461,9.788,26.633,6.451C310.909,457.538,312.284,435.248,305.01,420.694Z" transform="translate(-256.648 -381.942)" fill="#17bfaf"/>
                  <path id="Trazado_885171" data-name="Trazado 885171" d="M284.5,391.307c1.683,7.77,3.364,15.566,4.593,23.427a38.792,38.792,0,0,0,3.051-7.5c.287-1,1.881-.691,1.593.313a40.851,40.851,0,0,1-4.138,9.618.845.845,0,0,1-.126.141c.5,3.536.918,7.085,1.174,10.652a95.8,95.8,0,0,1,.057,15.759,186.961,186.961,0,0,0,11.176-15.4c.562-.867,2.026-.163,1.459.712a191.248,191.248,0,0,1-13.006,17.74,37.4,37.4,0,0,1-5.19,14.69c-.555.874-2.018.169-1.459-.711a32.258,32.258,0,0,0,3.031-6.191c-.011-.013-.025-.018-.035-.032-5.442-7.218-10.524-15.18-16.981-21.53-.742-.73.327-1.951,1.074-1.217,6.3,6.193,11.3,13.836,16.574,20.924,2.491-8.082,2.289-17.037,1.622-25.4-.005-.007-.013-.009-.019-.016-5.3-6.506-10.3-13.627-16.638-19.166a.812.812,0,0,1,1.074-1.217c5.8,5.073,10.5,11.44,15.311,17.486-1.087-10.984-3.406-21.8-5.738-32.576C282.739,390.806,284.277,390.284,284.5,391.307Z" transform="translate(-258.136 -382.967)" fill="#fff"/>
                  <path id="Trazado_885172" data-name="Trazado 885172" d="M293.422,466.886c-9.172,3.336-19.7.128-26.637-6.447-7.92-7.517-11.133-19.179-9.867-30.029a43.918,43.918,0,0,1,4.566-15.029,59.285,59.285,0,0,1,4.865-7.738c14.826,30.227,33.062,24.379,40.456,20.266C311.885,442.236,309.29,461.113,293.422,466.886Z" transform="translate(-256.648 -384.931)" fill="#188c80" opacity="0.3"/>
                </g>
                <g id="Grupo_1107033" data-name="Grupo 1107033" transform="translate(57.192)">
                  <path id="Trazado_885173" data-name="Trazado 885173" d="M248.179,423.491a39.07,39.07,0,0,0-17.792-21.073c-5.5-3.038-11.839-4.812-16.375-9.155-4.69-4.49-6.712-11.015-10.128-16.536-3.151-5.092-7.78-9.509-13.519-11.222s-12.615-.233-16.3,4.483c-4.775,6.1-2.736,15.554,2.618,21.157,2.718,2.846,6.336,5.292,7.2,9.133a14.882,14.882,0,0,1-.347,6.1c-1.257,6.351-2.535,12.75-2.523,19.224a42.731,42.731,0,0,0,7.517,24.586,34.19,34.19,0,0,0,21.315,13.953,49.233,49.233,0,0,0,13.488.2C245.041,462.252,255.375,444.067,248.179,423.491Z" transform="translate(-171.376 -364.817)" fill="#31d9cc"/>
                  <path id="Trazado_885174" data-name="Trazado 885174" d="M178.617,376.2a112.174,112.174,0,0,0,10.475,4.6c-1.836-2.587-3.712-5.151-5.667-7.665-.6-.77.68-1.581,1.273-.817,2.162,2.78,4.234,5.616,6.252,8.486a39.032,39.032,0,0,0,.86-6.527c.044-.965,1.555-1.054,1.512-.081a41.585,41.585,0,0,1-1.2,8.269c4,5.791,7.729,11.746,11.258,17.822q.708-4.413,1.825-8.743c.244-.94,1.723-.622,1.478.323a94.144,94.144,0,0,0-2.1,10.534c5.929,10.388,11.285,21.114,16.4,31.956q2.3-13.876,4-27.835c.118-.967,1.6-.637,1.478.323q-1.825,15-4.341,29.9c0,.005,0,.008-.005.013,2.346,5.021,4.637,10.065,6.915,15.11a4.962,4.962,0,0,0,1.254-1.71q1.634-3.256,3.1-6.59a150.432,150.432,0,0,0,5.8-15.492c.291-.922,1.772-.607,1.478.323A154.657,154.657,0,0,1,230,454.008c.547,1.215,1.1,2.43,1.645,3.644.4.889-1.045,1.347-1.44.467-.58-1.288-1.166-2.577-1.746-3.866-10.094-3.445-18.824-10.037-29.213-12.706-.941-.242-.622-1.721.323-1.478,8.724,2.242,16.194,7.234,24.357,10.837a13.985,13.985,0,0,0,3.651,1.4c-2.3-5.1-4.623-10.2-7-15.282l-29.152-14.9a.757.757,0,0,1,.7-1.34l27.385,13.994c-5.041-10.686-10.326-21.256-16.166-31.5a88.92,88.92,0,0,1-13.076-4.7c-.887-.4-.182-1.74.705-1.34a86.4,86.4,0,0,0,11.294,4.157c-3.639-6.284-7.491-12.441-11.633-18.42a114.234,114.234,0,0,1-12.729-5.436A.757.757,0,0,1,178.617,376.2Z" transform="translate(-172.09 -365.653)" fill="#fff"/>
                  <path id="Trazado_885175" data-name="Trazado 885175" d="M224.59,469.153a49.563,49.563,0,0,1-13.485-.194A34.21,34.21,0,0,1,189.79,455a42.726,42.726,0,0,1-7.52-24.584,76.91,76.91,0,0,1,1.511-13.989c6.151,7.732,17.515,17.046,35.242,13.759,14.731-2.731,14.493-13.768,10.693-23.966q.981.477,1.935,1.007a39.13,39.13,0,0,1,17.8,21.076C256.642,448.881,246.311,467.067,224.59,469.153Z" transform="translate(-172.643 -369.633)" fill="#188c80" opacity="0.3"/>
                </g>
                <g id="Grupo_1107034" data-name="Grupo 1107034" transform="translate(182.358 29.779)">
                  <path id="Trazado_885176" data-name="Trazado 885176" d="M341.009,413.844c5.763-2.022,11.876-2.792,17.857-4.033a114.744,114.744,0,0,0,31.03-11.3q-1.316,12.351-2.632,24.7c-.679,6.369-1.366,12.783-3.225,18.911a51.143,51.143,0,0,1-8.338,16.233c-7.729,10.074-19.836,17.207-32.532,17.069-11.1-.121-22.486-5.957-27.44-16.161C306.284,439.816,323.166,420.105,341.009,413.844Z" transform="translate(-313.016 -398.515)" fill="#31d9cc"/>
                  <path id="Trazado_885177" data-name="Trazado 885177" d="M385.761,407.264c-7.688,5.124-15.4,10.268-22.783,15.832a45.183,45.183,0,0,1,3.519-8.722c.567-1.066-1.011-2.1-1.583-1.027a47.508,47.508,0,0,0-4.328,11.371.971.971,0,0,0-.008.219c-3.281,2.543-6.5,5.17-9.6,7.939a111.27,111.27,0,0,0-12.8,13.1,217.126,217.126,0,0,1,3.135-21.893c.232-1.178-1.56-1.774-1.793-.586a222.159,222.159,0,0,0-3.5,25.323,43.475,43.475,0,0,0-7.553,16.455c-.243,1.178,1.548,1.774,1.793.587a37.541,37.541,0,0,1,2.479-7.617c.02,0,.035.005.056,0,10.379-1.621,21.06-4.153,31.585-4.228,1.209-.009,1.305-1.893.088-1.884-10.264.073-20.619,2.406-30.754,4.053,4.459-8.759,11.871-16.067,19.189-22.5.01,0,.018,0,.028,0,9.686-1.14,19.619-3.036,29.386-2.534a.944.944,0,0,0,.088-1.884c-8.945-.46-18.016,1.052-26.918,2.2,9.79-8.286,20.475-15.435,31.137-22.539C387.635,408.27,386.773,406.59,385.761,407.264Z" transform="translate(-314.811 -399.514)" fill="#fff"/>
                  <path id="Trazado_885178" data-name="Trazado 885178" d="M384.956,442.979c-.274,1.149-.574,2.3-.919,3.438a51.149,51.149,0,0,1-8.333,16.225c-7.732,10.074-19.839,17.214-32.538,17.073-11.1-.124-22.481-5.956-27.439-16.163-4.834-9.942-2.775-19.963,2.766-28.207l.009.009C330.883,461.908,366.169,451.109,384.956,442.979Z" transform="translate(-313.015 -402.798)" fill="#188c80" opacity="0.3"/>
                </g>
                <path id="Trazado_885179" data-name="Trazado 885179" d="M341.488,386.52a.367.367,0,0,0-.387-.217c-6.607.867-13.384,2.955-17.77,7.871,2.082-5.2,4.118-10.425,6.02-15.7.16-.443-.517-.719-.677-.277-2.146,5.95-4.472,11.839-6.841,17.713,0-.027,0-.057.005-.082a18.377,18.377,0,0,0-.379-6,12.636,12.636,0,0,0-6.044-7.777.37.37,0,0,0-.582.246c-.007.1-1.367,8.57.406,12.214a10.329,10.329,0,0,0,2.834,3.61c.6.471,1.562,1.25,2.416,1.115-2.075,5.115-4.164,10.226-6.181,15.361a14.553,14.553,0,0,0-.3-2.633,11.742,11.742,0,0,0-4.434-7.183,7.547,7.547,0,0,0-3.142-1.444,12.036,12.036,0,0,0-.587,7.1,8.955,8.955,0,0,0,1.315,3.724,6.311,6.311,0,0,0,2.861,2.182c.838.332,2.487.85,3.429.449-2.43,6.267-4.729,12.578-6.747,18.986a7.407,7.407,0,0,0-2.941-3.691,16.569,16.569,0,0,0-4.382-1.98,5.8,5.8,0,0,1-2.807-1.47,15.272,15.272,0,0,1,.9,3.6,10.588,10.588,0,0,0,2.2,4.432,6.445,6.445,0,0,0,2.611,1.979,4.73,4.73,0,0,0,3.523.037c-.707,2.362-1.377,4.737-1.993,7.13a142.221,142.221,0,0,0-3.736,20.293.366.366,0,0,0,.726.093,154.589,154.589,0,0,1,6.419-29.585,3.639,3.639,0,0,0,2.4,2.944,5.608,5.608,0,0,0,2.144.391,8.851,8.851,0,0,0,8.908-8.242c.017-.249-.011-.558-.239-.662a.683.683,0,0,0-.488.042,14.779,14.779,0,0,1-4.854.482,13.629,13.629,0,0,0-4.842.551,4.791,4.791,0,0,0-2.051,1.443c1.815-5.55,3.834-11.043,5.949-16.5a4.074,4.074,0,0,0,2.116,1.317,12.729,12.729,0,0,0,16.5-8.642,16.922,16.922,0,0,0-16.552,3.862c-.281.263-.713.634-1.124,1.045,2.1-5.35,4.281-10.67,6.429-15.977,2.657,4.381,9.607,3.1,13.55,1.011C339.86,397.152,343.042,391.972,341.488,386.52Z" transform="translate(-128.744 -366.347)" fill="#eb6b5d"/>
              </g>
              <path id="Trazado_885180" data-name="Trazado 885180" d="M91.037,472.508h10.39a2.8,2.8,0,0,0,2.777-2.784h0a2.8,2.8,0,0,0-2.777-2.785H52.565a3.443,3.443,0,0,1-3.433-3.431h0a3.443,3.443,0,0,1,3.433-3.431H376.428a3.443,3.443,0,0,1,3.434,3.431h0a3.443,3.443,0,0,1-3.434,3.431H355.079a2.8,2.8,0,0,0-2.777,2.785h0a2.8,2.8,0,0,0,2.777,2.784h16.713a8.464,8.464,0,0,1,8.432,8.439h0a8.465,8.465,0,0,1-8.432,8.442H214.63a4.95,4.95,0,0,0-4.938,4.936h0a4.951,4.951,0,0,0,4.938,4.936h63.04a6.976,6.976,0,0,1,6.956,6.956h0a6.975,6.975,0,0,1-6.956,6.956H153.729a6.976,6.976,0,0,1-6.956-6.956h0a6.976,6.976,0,0,1,6.956-6.956h14.666a4.95,4.95,0,0,0,4.936-4.936h0a4.949,4.949,0,0,0-4.936-4.936H91.037a8.465,8.465,0,0,1-8.433-8.442h0a8.464,8.464,0,0,1,8.433-8.439Zm208.219,40.666a6.977,6.977,0,0,0,6.956-6.956h0a6.977,6.977,0,0,0-6.956-6.956h-.632a6.978,6.978,0,0,0-6.957,6.956h0a6.977,6.977,0,0,0,6.957,6.956Zm87.846-53.1h-.447a3.44,3.44,0,0,0-3.431,3.431h0a3.441,3.441,0,0,0,3.431,3.431h.447a3.442,3.442,0,0,0,3.432-3.431h0A3.442,3.442,0,0,0,387.1,460.076Z" transform="translate(-5.714 -53.51)" fill="#afddef" fill-rule="evenodd"/>
              <g id="Grupo_1107036" data-name="Grupo 1107036" transform="translate(-64.124 18.363)">
                <path id="Trazado_885181" data-name="Trazado 885181" d="M514.856,65.847s2.332-15.954-13.867-16.69c0,0,.736-17.671-19.88-18.9s-25.526,17.794-25.526,17.794-19.717-11.494-25.28,9.2c0,0-14.809-6.546-17.918,8.59Z" transform="translate(16.161 -21.875)" fill="#cbecfd" opacity="0.5"/>
                <path id="Trazado_885182" data-name="Trazado 885182" d="M55.539,65.342S58.453,45.4,38.2,44.477c0,0,.921-22.092-24.853-23.626S-18.562,43.1-18.562,43.1-43.21,28.726-50.165,54.6c0,0-18.512-8.182-22.4,10.74Z" transform="translate(72.564 -20.779)" fill="#cbecfd" opacity="0.5"/>
              </g>
              <path id="Trazado_885558" data-name="Trazado 885558" d="M0,0H417V417H0Z" transform="translate(5.485)" fill="#fafafa"/>
              <path id="Trazado_885165" data-name="Trazado 885165" d="M186.117,77.862H327.389A20.4,20.4,0,0,1,347.727,98.2v0a20.4,20.4,0,0,1-20.337,20.337H322.9a6.669,6.669,0,0,0-6.646,6.647h0a6.667,6.667,0,0,0,6.646,6.645H346.37a9.374,9.374,0,0,1,9.342,9.343v0a9.375,9.375,0,0,1-9.342,9.343H315.257a7.474,7.474,0,0,0-7.45,7.452h0a7.474,7.474,0,0,0,7.45,7.451H391.3a17.91,17.91,0,0,1,17.855,17.856v0A17.91,17.91,0,0,1,391.3,201.137H327.947a3.892,3.892,0,0,0-3.88,3.88v0a3.891,3.891,0,0,0,3.88,3.88h37.492a30.681,30.681,0,0,1,30.59,30.592h0a30.68,30.68,0,0,1-30.59,30.591h-42.5a9.029,9.029,0,0,0-8.98,9h0a9.029,9.029,0,0,0,8.98,9h25.333a24.877,24.877,0,0,1,24.8,24.8h0a24.877,24.877,0,0,1-24.8,24.8H328.257a11.717,11.717,0,0,0-11.683,11.682v0a11.716,11.716,0,0,0,11.683,11.682h32.814a6.434,6.434,0,0,1,6.415,6.415,6.432,6.432,0,0,0,6.415,6.413l-187.784-.009-99.168.009a6.433,6.433,0,0,0,6.416-6.413,6.433,6.433,0,0,1,6.414-6.415h23.793a11.715,11.715,0,0,0,11.683-11.682v0a11.716,11.716,0,0,0-11.683-11.682H88a24.875,24.875,0,0,1-24.8-24.8h0a24.875,24.875,0,0,1,24.8-24.8h25.333a9.026,9.026,0,0,0,8.979-9h0a9.026,9.026,0,0,0-8.979-9H55.1a30.68,30.68,0,0,1-30.591-30.591h0A30.68,30.68,0,0,1,55.1,208.9h53.223a3.891,3.891,0,0,0,3.882-3.88v0a3.892,3.892,0,0,0-3.882-3.88H95.288a17.907,17.907,0,0,1-17.856-17.853v0a17.909,17.909,0,0,1,17.856-17.856h33.118a7.475,7.475,0,0,0,7.453-7.451h0a7.476,7.476,0,0,0-7.453-7.452h-17.98a9.373,9.373,0,0,1-9.344-9.343v0a9.372,9.372,0,0,1,9.344-9.343h12.56a6.666,6.666,0,0,0,6.646-6.645h0a6.667,6.667,0,0,0-6.646-6.647h-14.1A20.4,20.4,0,0,1,88.548,98.2v0a20.4,20.4,0,0,1,20.336-20.339Z" transform="translate(-2.851 -9.056)" fill="#cbecfd" fill-rule="evenodd" opacity="0.5"/>
            </g>
          </g>
          <g id="Grupo_1107044" data-name="Grupo 1107044" transform="translate(25.454 24.826)">
            <path id="Trazado_885185" data-name="Trazado 885185" d="M106.733,33.064a1.082,1.082,0,1,1,2.163,0v2.162h2.165a1.082,1.082,0,0,1,0,2.163H108.9v2.164a1.082,1.082,0,0,1-2.163,0V37.39h-2.164a1.082,1.082,0,0,1,0-2.163h2.164Z" transform="translate(-37.49 -28.545)" fill="#cbecfd" fill-rule="evenodd"/>
            <path id="Trazado_885186" data-name="Trazado 885186" d="M459.266,233.659a1.082,1.082,0,1,1,2.163,0v2.163h2.165a1.081,1.081,0,0,1,0,2.162h-2.165v2.164a1.082,1.082,0,0,1-2.163,0v-2.164H457.1a1.081,1.081,0,1,1,0-2.162h2.164Z" transform="translate(-78.492 -51.876)" fill="#cbecfd" fill-rule="evenodd"/>
            <path id="Trazado_885187" data-name="Trazado 885187" d="M242.7,369.144a1.082,1.082,0,1,1,2.163,0v2.162h2.164a1.082,1.082,0,0,1,0,2.163h-2.164v2.164a1.082,1.082,0,0,1-2.163,0V373.47h-2.164a1.082,1.082,0,1,1,0-2.163H242.7Z" transform="translate(-53.304 -67.634)" fill="#cbecfd" fill-rule="evenodd"/>
            <path id="Trazado_885188" data-name="Trazado 885188" d="M74.474,240.337a1.081,1.081,0,1,1,2.162,0V242.5H78.8a1.081,1.081,0,0,1,0,2.162H76.636v2.165a1.081,1.081,0,0,1-2.162,0v-2.165H72.31a1.081,1.081,0,1,1,0-2.162h2.164Z" transform="translate(-33.738 -52.652)" fill="#cbecfd" fill-rule="evenodd"/>
            <g id="Grupo_1107040" data-name="Grupo 1107040" transform="translate(313.237)">
              <path id="Trazado_885189" data-name="Trazado 885189" d="M384.349,30.257a1.082,1.082,0,0,1,0-2.164h12.192a1.082,1.082,0,0,1,0,2.164Z" transform="translate(-383.268 -28.093)" fill="#cbecfd" fill-rule="evenodd"/>
              <path id="Trazado_885190" data-name="Trazado 885190" d="M406.081,28.093a1.082,1.082,0,1,1,0,2.164H403.22a1.082,1.082,0,0,1,0-2.164Z" transform="translate(-385.463 -28.093)" fill="#cbecfd" fill-rule="evenodd"/>
            </g>
            <g id="Grupo_1107041" data-name="Grupo 1107041" transform="translate(0 117.909)">
              <path id="Trazado_885191" data-name="Trazado 885191" d="M29.885,163.684a1.082,1.082,0,0,1,0-2.164H42.076a1.082,1.082,0,1,1,0,2.164Z" transform="translate(-28.804 -161.52)" fill="#cbecfd" fill-rule="evenodd"/>
              <path id="Trazado_885192" data-name="Trazado 885192" d="M51.617,161.52a1.082,1.082,0,1,1,0,2.164H48.756a1.082,1.082,0,1,1,0-2.164Z" transform="translate(-30.999 -161.52)" fill="#cbecfd" fill-rule="evenodd"/>
            </g>
            <g id="Grupo_1107042" data-name="Grupo 1107042" transform="translate(375.179 247.634)">
              <path id="Trazado_885193" data-name="Trazado 885193" d="M454.447,310.481a1.081,1.081,0,1,1,0-2.162h12.187a1.081,1.081,0,1,1,0,2.162Z" transform="translate(-453.362 -308.319)" fill="#cbecfd" fill-rule="evenodd"/>
              <path id="Trazado_885194" data-name="Trazado 885194" d="M476.179,308.319a1.081,1.081,0,1,1,0,2.162h-2.861a1.081,1.081,0,1,1,0-2.162Z" transform="translate(-455.557 -308.319)" fill="#cbecfd" fill-rule="evenodd"/>
            </g>
            <path id="Trazado_885195" data-name="Trazado 885195" d="M471.79,91.024a3.34,3.34,0,1,0-3.336-3.339A3.345,3.345,0,0,0,471.79,91.024Z" transform="translate(-79.938 -34.635)" fill="#cbecfd" fill-rule="evenodd"/>
            <path id="Trazado_885196" data-name="Trazado 885196" d="M452.921,385.693a3.34,3.34,0,1,0-3.337-3.339A3.345,3.345,0,0,0,452.921,385.693Z" transform="translate(-77.744 -68.907)" fill="#cbecfd" fill-rule="evenodd"/>
            <path id="Trazado_885197" data-name="Trazado 885197" d="M243.91,162.9a3.34,3.34,0,1,0-3.336-3.34A3.345,3.345,0,0,0,243.91,162.9Z" transform="translate(-53.434 -42.995)" fill="#cbecfd" fill-rule="evenodd"/>
            <g id="Grupo_1107043" data-name="Grupo 1107043" transform="translate(3.503 302.592)">
              <path id="Trazado_885198" data-name="Trazado 885198" d="M33.849,372.672a1.081,1.081,0,0,1,0-2.162H46.04a1.081,1.081,0,1,1,0,2.162Z" transform="translate(-32.768 -370.51)" fill="#cbecfd" fill-rule="evenodd"/>
              <path id="Trazado_885199" data-name="Trazado 885199" d="M55.584,370.51a1.081,1.081,0,0,1,0,2.162H52.72a1.081,1.081,0,1,1,0-2.162Z" transform="translate(-34.963 -370.51)" fill="#cbecfd" fill-rule="evenodd"/>
            </g>
            <path id="Trazado_885200" data-name="Trazado 885200" d="M53.127,110.227a1.813,1.813,0,1,0-1.815-1.813A1.817,1.817,0,0,0,53.127,110.227Z" transform="translate(-31.422 -37.224)" fill="#cbecfd" fill-rule="evenodd"/>
            <path id="Trazado_885201" data-name="Trazado 885201" d="M244.115,303a1.813,1.813,0,1,0-1.815-1.812A1.816,1.816,0,0,0,244.115,303Z" transform="translate(-53.635 -59.645)" fill="#cbecfd" fill-rule="evenodd"/>
          </g>
          <g id="Grupo_1107047" data-name="Grupo 1107047" transform="translate(103.335 74.826)">
            <g id="Grupo_1107045" data-name="Grupo 1107045">
              <path id="Trazado_885202" data-name="Trazado 885202" d="M120.38,87.786l-3.445,6.539,14.125,9.38,2.205-3.665Z" transform="translate(-116.935 -85.037)" fill="#fead1e"/>
              <path id="Trazado_885203" data-name="Trazado 885203" d="M137.891,84.675l-4.476,2.331,5.531,9.039,2.68-1.225Z" transform="translate(-118.852 -84.675)" fill="#fead1e"/>
              <path id="Trazado_885204" data-name="Trazado 885204" d="M118.663,107.826l.073,5.046,10.56-.883.109-2.945Z" transform="translate(-117.136 -87.367)" fill="#fead1e"/>
            </g>
            <g id="Grupo_1107046" data-name="Grupo 1107046" transform="translate(202.853 8.089)">
              <path id="Trazado_885205" data-name="Trazado 885205" d="M370.467,106.913l-4.169-6.1-14.9,8.1,2.208,3.663Z" transform="translate(-347.058 -94.64)" fill="#fead1e"/>
              <path id="Trazado_885206" data-name="Trazado 885206" d="M366.063,124.106l.033-5.047-10.577.661-.171,2.942Z" transform="translate(-347.517 -96.763)" fill="#fead1e"/>
              <path id="Trazado_885207" data-name="Trazado 885207" d="M355.139,96.123l-4.495-2.3-4.158,9.747,2.552,1.474Z" transform="translate(-346.486 -93.828)" fill="#fead1e"/>
            </g>
          </g>
          <g id="Grupo_1107061" data-name="Grupo 1107061" transform="translate(45.01 114.009)">
            <g id="Grupo_1107053" data-name="Grupo 1107053" transform="translate(257.223 165.229)">
              <g id="Grupo_1107052" data-name="Grupo 1107052">
                <g id="Grupo_1107051" data-name="Grupo 1107051">
                  <g id="Grupo_1107050" data-name="Grupo 1107050">
                    <g id="Grupo_1107048" data-name="Grupo 1107048">
                      <circle id="Elipse_11958" data-name="Elipse 11958" cx="24.18" cy="24.18" r="24.18" transform="translate(0 18.82) rotate(-22.902)" fill="#ffd066"/>
                    </g>
                    <g id="Grupo_1107049" data-name="Grupo 1107049" transform="translate(13.287 13.287)" style="mix-blend-mode: multiply;isolation: isolate">
                      <circle id="Elipse_11959" data-name="Elipse 11959" cx="17.409" cy="17.409" r="17.409" transform="translate(0 34.758) rotate(-86.649)" fill="#ffd066"/>
                    </g>
                  </g>
                  <text id="_" data-name="$" transform="translate(23.684 39.484)" fill="#fff" font-size="25" font-family="Poppins-SemiBold, Poppins" font-weight="600"><tspan x="0" y="0">$</tspan></text>
                </g>
                <path id="Trazado_885208" data-name="Trazado 885208" d="M402.807,348.444a24.181,24.181,0,0,1-23.731-28.823,24.181,24.181,0,1,0,43.1,19.119A24.146,24.146,0,0,1,402.807,348.444Z" transform="translate(-366.763 -302.412)" fill="#ffd066" opacity="0.7" style="mix-blend-mode: multiply;isolation: isolate"/>
              </g>
            </g>
            <g id="Grupo_1107056" data-name="Grupo 1107056" transform="translate(0 8.138)">
              <path id="Trazado_885209" data-name="Trazado 885209" d="M62.039,143.2a26.586,26.586,0,1,0,37.095,6.128A26.586,26.586,0,0,0,62.039,143.2Z" transform="translate(-50.934 -138.224)" fill="#31d9cc"/>
              <path id="Trazado_885210" data-name="Trazado 885210" d="M103.923,162.913a26.59,26.59,0,0,1-46.73-14,26.588,26.588,0,1,0,46.73,14Z" transform="translate(-50.934 -139.468)" fill="#31d9cc" style="mix-blend-mode: multiply;isolation: isolate"/>
              <g id="Grupo_1107055" data-name="Grupo 1107055" transform="translate(12.055 10.656)">
                <g id="Grupo_1107054" data-name="Grupo 1107054">
                  <path id="Trazado_885211" data-name="Trazado 885211" d="M77.125,182.147l-12.549-9.185,4.677-6.392,5.514,4.035L86.83,150.283l6.812,4.043Z" transform="translate(-64.576 -150.283)" fill="#fff"/>
                </g>
              </g>
            </g>
            <g id="Grupo_1107057" data-name="Grupo 1107057" transform="translate(283.293 13)">
              <path id="Trazado_885212" data-name="Trazado 885212" d="M391.392,174.233l8.888,13.73a1.96,1.96,0,0,0,2.663.681h0a1.959,1.959,0,0,0,.711-2.671l-8.233-12.866Z" transform="translate(-387.825 -134.143)" fill="#2a2d58"/>
              <path id="Trazado_885213" data-name="Trazado 885213" d="M419.768,129.463l-22.83,32.84,5.1,9.134,39.019-3.48Z" transform="translate(-388.47 -129.067)" fill="#eb6b5d"/>
              <path id="Trazado_885214" data-name="Trazado 885214" d="M441.544,170.145l-39.017,3.483-1.451-2.589c9.1-1.675,26.762-6.637,28.023-20.132.087-.939.205-1.814.346-2.624Z" transform="translate(-388.951 -131.256)" fill="#d64341"/>
              <path id="Trazado_885215" data-name="Trazado 885215" d="M419.935,130.131s-3.5,3.765,7.094,21.42,13.893,17.362,13.893,17.362" transform="translate(-391.08 -129.144)" fill="none" stroke="#fead1e" stroke-linecap="round" stroke-miterlimit="10" stroke-width="6.816"/>
              <path id="Trazado_885216" data-name="Trazado 885216" d="M400.928,175.78l-5.935,3.3a5.14,5.14,0,0,1-6.989-2h0a5.139,5.139,0,0,1,2-6.989l5.936-3.3Z" transform="translate(-387.355 -133.409)" fill="#fead1e"/>
              <path id="Trazado_885217" data-name="Trazado 885217" d="M437.483,146.453c5.946,10.7,9.12,20.288,7.089,21.417s-8.5-6.63-14.445-17.329-9.121-20.288-7.09-21.417S431.536,135.753,437.483,146.453Z" transform="translate(-391.434 -129.015)" fill="#183257"/>
              <path id="Trazado_885218" data-name="Trazado 885218" d="M438.434,152.905A9,9,0,0,1,435.7,160.6c-1.646-2.41-3.364-5.178-5.031-8.189-1.348-2.425-2.557-4.793-3.595-7.022a8.492,8.492,0,0,1,1.27-.262A9.005,9.005,0,0,1,438.434,152.905Z" transform="translate(-391.975 -130.88)" fill="#eb6b5d"/>
            </g>
            <g id="Grupo_1107060" data-name="Grupo 1107060" transform="translate(9.319 127.88)">
              <g id="Grupo_1107059" data-name="Grupo 1107059" transform="translate(0.457 17.039)">
                <path id="Trazado_885219" data-name="Trazado 885219" d="M62,311.8a18.792,18.792,0,1,1,30.891,14.376,6.109,6.109,0,0,0-2.221,4.663v3.27a2.807,2.807,0,0,1-2.807,2.807H73.394a2.48,2.48,0,0,1-2.48-2.48V330.9a6.282,6.282,0,0,0-2.28-4.773A18.742,18.742,0,0,1,62,311.8Z" transform="translate(-61.997 -293.007)" fill="#ffd066"/>
                <path id="Rectángulo_404567" data-name="Rectángulo 404567" d="M4.854,0H10.64a4.854,4.854,0,0,1,4.854,4.854V7.469a0,0,0,0,1,0,0H0a0,0,0,0,1,0,0V4.854A4.854,4.854,0,0,1,4.854,0Z" transform="translate(26.543 58.209) rotate(180)" fill="#14274b"/>
                <path id="Trazado_885220" data-name="Trazado 885220" d="M74.311,353.605H89.769a1.591,1.591,0,0,0,1.59-1.591h0a1.59,1.59,0,0,0-1.59-1.59H74.311a1.59,1.59,0,0,0-1.59,1.59h0A1.59,1.59,0,0,0,74.311,353.605Z" transform="translate(-63.244 -299.685)" fill="#305476"/>
                <rect id="Rectángulo_404568" data-name="Rectángulo 404568" width="15.476" height="6.86" transform="translate(26.525 50.74) rotate(180)" fill="#959cab"/>
                <path id="Trazado_885221" data-name="Trazado 885221" d="M74.232,347.94H89.69a1.591,1.591,0,0,0,1.591-1.591h0a1.59,1.59,0,0,0-1.591-1.59H74.232a1.59,1.59,0,0,0-1.59,1.59h0A1.591,1.591,0,0,0,74.232,347.94Z" transform="translate(-63.235 -299.026)" fill="#305476"/>
                <g id="Grupo_1107058" data-name="Grupo 1107058" transform="translate(9.695 14.176)">
                  <path id="Trazado_885222" data-name="Trazado 885222" d="M89,316.242a3.6,3.6,0,1,0-3.6-3.6v26.108" transform="translate(-74.414 -309.049)" fill="none" stroke="#fff" stroke-miterlimit="10" stroke-width="0.761"/>
                  <path id="Trazado_885223" data-name="Trazado 885223" d="M76.565,316.242a3.6,3.6,0,1,1,3.6-3.6v26.108" transform="translate(-72.968 -309.049)" fill="none" stroke="#fff" stroke-miterlimit="10" stroke-width="0.761"/>
                </g>
                <path id="Trazado_885224" data-name="Trazado 885224" d="M62,312.809a18.788,18.788,0,0,0,6.634,14.326,6.273,6.273,0,0,1,2.283,4.767v3.544a2.473,2.473,0,0,0,2.483,2.473H87.86a2.8,2.8,0,0,0,2.809-2.8v-3.271a6.11,6.11,0,0,1,2.221-4.667c.09-.082.181-.155.271-.236-22.827,2.175-26.9-16.149-27.521-25.265A18.718,18.718,0,0,0,62,312.809Z" transform="translate(-61.997 -294.016)" fill="#ffd066" opacity="0.7" style="mix-blend-mode: multiply;isolation: isolate"/>
              </g>
              <path id="Trazado_885225" data-name="Trazado 885225" d="M105.526,280.7l-10.544,8,5.935-11.224Z" transform="translate(-65.376 -274.161)" fill="#fead1e"/>
              <path id="Trazado_885226" data-name="Trazado 885226" d="M87.971,273.725,82.7,284.911l-2.16-9.5Z" transform="translate(-63.697 -273.725)" fill="#fead1e"/>
              <path id="Trazado_885227" data-name="Trazado 885227" d="M72.314,288.4l-5.112-12-5.722,3.487Z" transform="translate(-61.48 -274.036)" fill="#fead1e"/>
            </g>
          </g>
          <g id="Grupo_1107073" data-name="Grupo 1107073" transform="translate(122.005 82.037)">
            <g id="Grupo_1107065" data-name="Grupo 1107065" transform="translate(98.082)">
              <g id="Grupo_1107062" data-name="Grupo 1107062" transform="translate(0 203.447)">
                <path id="Trazado_885228" data-name="Trazado 885228" d="M253.036,323.11l2.776.745a1.546,1.546,0,0,1,1.09,1.888l-2.043,7.626a1.547,1.547,0,0,1-1.891,1.091l-2.771-.744a1.545,1.545,0,0,1-1.09-1.889l2.044-7.625A1.544,1.544,0,0,1,253.036,323.11Z" transform="translate(-249.053 -323.058)" fill="#183257" fill-rule="evenodd"/>
                <path id="Trazado_885229" data-name="Trazado 885229" d="M256.312,324.761l-2.043,7.625a1.547,1.547,0,0,1-1.891,1.09l-2.773-.742a1.482,1.482,0,0,1-.55-.274,1.547,1.547,0,0,0,1.141,1.4l2.771.744a1.547,1.547,0,0,0,1.891-1.091l2.043-7.625a1.545,1.545,0,0,0-.541-1.615A1.564,1.564,0,0,1,256.312,324.761Z" transform="translate(-249.053 -323.199)" fill="#111a39" fill-rule="evenodd"/>
              </g>
              <path id="Trazado_885230" data-name="Trazado 885230" d="M321.293,251.655a.613.613,0,0,0-.733.424c-.131.544.322,3.433-2.461,4.93,0,0-.277,1.246,1.41,2.036s20.239,5.454,32.3,3.732,6.6-28.564-.287-45.216-8.757-22.25-23.83-27.129L323.19,206l8.164,7.036,7.681,24.189Z" transform="translate(-257.082 -104.186)" fill="#183257" fill-rule="evenodd"/>
              <path id="Trazado_885231" data-name="Trazado 885231" d="M263.181,295.794a6.192,6.192,0,0,0-2.335,2.489c-.578,1.459-4.292,10.194-4.942,12.09s.23,8.187,2.535,9.422,7.144-2.583,6.9-9.663-.8-8.549.846-11.121S263.181,295.794,263.181,295.794Z" transform="translate(-249.826 -116.44)" fill="#f4ad85" fill-rule="evenodd"/>
              <path id="Trazado_885232" data-name="Trazado 885232" d="M263.318,295.794a6.193,6.193,0,0,0-2.336,2.489c-.173.44-.635,1.547-1.211,2.927,1.1.648,2.784,2.4,2.945,7.067.218,6.248-1.592,9.638-5.838,9.264a4.417,4.417,0,0,0,1.7,2.254c2.3,1.231,7.144-2.583,6.9-9.663s-.8-8.549.846-11.121S263.318,295.794,263.318,295.794Z" transform="translate(-249.963 -116.44)" fill="#ed9072" fill-rule="evenodd"/>
              <path id="Trazado_885233" data-name="Trazado 885233" d="M285.574,198.042l-2.395,1.5h2.867a6.651,6.651,0,0,0-.472-1.5ZM276.465,219.5c-.762,9.258-1.99,20.511-3.859,28.341-3.726,15.588-12.138,38.073-12,40.141s3.378,2.622,5.106,2.344S281.6,259.1,285.1,231.294c.568-4.493.964-8.4,1.23-11.794Z" transform="translate(-250.397 -105.071)" fill="#294264" fill-rule="evenodd"/>
              <path id="Trazado_885234" data-name="Trazado 885234" d="M284.3,198.95l-1.118.7h2.867l-.067-.273q-.793-.191-1.682-.429Zm-7.831,20.656c-.13,1.587-.272,3.231-.431,4.909,1.231,4.221,2.055,10.308,1.326,18.84-1.793,20.968-7.217,34.848-10.967,40.83-2.089,3.337-4.251,3.766-5.755,3.5a2.045,2.045,0,0,0-.034.407c.136,2.068,3.378,2.622,5.106,2.344S281.6,259.2,285.1,231.4c.568-4.492.964-8.4,1.23-11.794Z" transform="translate(-250.397 -105.176)" fill="#14294c" fill-rule="evenodd"/>
              <path id="Trazado_885235" data-name="Trazado 885235" d="M334.891,200.623l-7.534-9.527-1.666-1.428-16.735-6.294-7.745,1.207h0s-7.728,3.759-8.381,3.725a.871.871,0,0,1-.323-.123l-4.57,13.141s-2.772,19.039-3.168,20.334-.727,19.558.712,22.181.217,6.685,5.763,8.392,17.4,5.005,25.358-3.408,9.616-13.085,11.606-15.927S334.891,200.623,334.891,200.623Z" transform="translate(-253.168 -103.365)" fill="#d9d4d6" fill-rule="evenodd"/>
              <path id="Trazado_885236" data-name="Trazado 885236" d="M289.81,205.331c2.488-1.563,3.91-.284,6.613,2.63s5.259,2.632,6.754,3.27,1.44,27.642-8.319,31.777c-3.61,1.529-5.854-.059-7.245-3.272C285.112,233.965,283.343,209.395,289.81,205.331Z" transform="translate(-253.274 -105.84)" fill="#f5f4f4" fill-rule="evenodd"/>
              <path id="Trazado_885237" data-name="Trazado 885237" d="M304.845,196.9l-.465.806s-6.634,20.065-6.357,36.145,8.383,2.336,8.244.963-1.572-27.555-.166-37C306.1,197.81,305.993,196.538,304.845,196.9Z" transform="translate(-254.748 -104.93)" fill="#eb6b5d" fill-rule="evenodd"/>
              <path id="Trazado_885238" data-name="Trazado 885238" d="M304.845,196.9l-.465.806s-.241.733-.631,2.025c.5.355,1.09,1.2,1.072,3.216-.031,2.838.19,13.916-6.069,19.555a78.6,78.6,0,0,0-.729,11.348c.274,16.081,8.383,2.336,8.244.963s-1.572-27.555-.166-37C306.1,197.81,305.993,196.538,304.845,196.9Z" transform="translate(-254.748 -104.93)" fill="#d64341" fill-rule="evenodd"/>
              <path id="Trazado_885239" data-name="Trazado 885239" d="M281.974,304.571l-2.2,2.681s1.44,23.435,4.737,53.67,9.621,85.109,9.483,90.47,8.157,2.258,9.187.745-2.59-108.257-1.767-118.015c.287-3.4,5.437-2.127,7.442,4.656,3.744,12.655,5.413,39.364,6.576,54.576,1.784,23.365,5.045,59.064,4.81,60.954s7.284,3.78,8.8.756a3.735,3.735,0,0,0,.2-2.062c-.1-1.615,1.51-148.47-.413-152.456S286.5,294.64,281.974,304.571Z" transform="translate(-252.627 -116.616)" fill="#14274b" fill-rule="evenodd"/>
              <path id="Trazado_885240" data-name="Trazado 885240" d="M281.974,304.571l-2.2,2.681s.323,5.261,1.01,14.009c2.713-3,7.525-6.458,16.456-6.04,15.393.72,25.7,12.126,27.075,30.819s3.043,91.794,2.2,99.093-5.343,6.689-6.8.531c.381,4.884.593,8.112.527,8.645-.236,1.891,7.284,3.78,8.8.756a3.735,3.735,0,0,0,.2-2.062c-.1-1.615,1.51-148.47-.413-152.456s-42.332-5.909-46.86,4.023Zm11.949,144.817c3.759,1.192,6.567-.709,6.681-5.49.136-5.91-5.771-107.614-3.3-110.362s6.423-1.171,6.423-1.171h0a1.773,1.773,0,0,0-2.31,1.758c-.824,9.758,2.8,116.5,1.767,118.015s-9.323,4.616-9.187-.745C294,450.991,293.981,450.311,293.923,449.388Z" transform="translate(-252.627 -116.616)" fill="#111a39" fill-rule="evenodd"/>
              <path id="Trazado_885241" data-name="Trazado 885241" d="M298.451,185.761s-6.561,15.359-4.088,32.952a155.25,155.25,0,0,0,7.7,31.061V282.6l-7.662.173,2.3,6.311-3.25-1.157s-.461,7.065-9.669,7.616-7.837-5.222-6.874-9.963,4.809-15.875,3.021-35.392S272.64,189.169,298.451,185.761Z" transform="translate(-252.212 -103.642)" fill="#183257" fill-rule="evenodd"/>
              <path id="Trazado_885242" data-name="Trazado 885242" d="M293.945,215.84c.075,1.8.235,3.646.5,5.516a155.25,155.25,0,0,0,7.7,31.061v29.412q-.988,1.746-2.074,3.46l-5.588.126,1.911,5.238-.555.737-2.3-.82s-.461,7.065-9.669,7.616c-4.082.244-6.083-.756-6.965-2.358,5.456.764,10.527-.543,14.529-25.693s-3.654-44.528-4.547-49.3a45.713,45.713,0,0,1-.917-6.716l5.558-5.632.661,7.1S292.844,215.671,293.945,215.84Z" transform="translate(-252.291 -106.285)" fill="#14294c" fill-rule="evenodd"/>
              <path id="Trazado_885243" data-name="Trazado 885243" d="M332.728,289.264c-2.648,6.214-18.112,9.925-26.357,10.492-17.5,1.205-9.081-33.14-8.224-42.765,2.536-28.512,1.265-47.6,20.807-70.135,4.571.858,11.744,4.73,11.744,4.73,3.623,1.855,8.134,5.169,8.735,9.276.851,5.829-5.617,26.019-9.6,38.672C323.17,260.717,336.33,280.809,332.728,289.264Z" transform="translate(-254.441 -103.769)" fill="#183257" fill-rule="evenodd"/>
              <path id="Trazado_885244" data-name="Trazado 885244" d="M335,292.6c-2.063,4.843-11.908,8.163-20.056,9.663,10.367-6.584,12.575-21.777,10.311-38.4-3.026-22.2,4.133-48.287,4.133-48.287l3.291,2.792,6.09,2.425c-2.014,7.4-4.652,15.7-6.66,22.076C325.446,264.058,338.606,284.15,335,292.6Z" transform="translate(-256.717 -107.111)" fill="#14294c" fill-rule="evenodd"/>
              <path id="Trazado_885245" data-name="Trazado 885245" d="M317.022,165.493l-.2,4.57v10.785a3.886,3.886,0,0,0,1.773,2.541c-1.688,1.829-5.842,6.078-8.451,6.481a12.689,12.689,0,0,1-8.142-1.788c-.671-.577-.736-3.561-1.129-5.231.308-.087-.045,0,.268-.1a4.912,4.912,0,0,0,2.084-1.2c1.563-1.706,1.493-9.312-.072-11.3S317.022,165.493,317.022,165.493Z" transform="translate(-255.081 -101.285)" fill="#ed9072" fill-rule="evenodd"/>
              <path id="Trazado_885246" data-name="Trazado 885246" d="M348.206,262.076c1.211-4.309-5.561-16.2-10.54-24.695-.582-.991-1.138-1.934-1.652-2.815a62.428,62.428,0,0,1-3.167-5.756c-.129-.332-.265-.711-.4-1.132-.2-.633-.395-1.359-.568-2.16a27.069,27.069,0,0,1-.535-3.9c.662-2,1.676-2.929,2.721-2.275.6.376.876.984,1.25,2.164.3.948.662,2.261,1.3,4.116.217.634.467,1.332.761,2.1.486,1.276,1.087,2.746,1.842,4.441,1.035,2.332,2.363,5.092,4.084,8.363,8.672,16.492,4.611,22.442,4.611,22.442C348.031,262.654,348.128,262.355,348.206,262.076Z" transform="translate(-258.625 -107.524)" fill="#14294c" fill-rule="evenodd"/>
              <path id="Trazado_885247" data-name="Trazado 885247" d="M282.574,134.481c-20.966-26.855,25.707-44.657,36.792-35.215,30.5,6.2,16.861,50.749-2.7,49-6.029-.539-18.8-3.575-32.337-4.8-.073-.776-.151-1.6-.226-2.472Z" transform="translate(-252.33 -93.285)" fill="#111a39" fill-rule="evenodd"/>
              <path id="Trazado_885248" data-name="Trazado 885248" d="M334.517,105.981c14.479,13.726,2.246,44.83-14.16,43.364-.277-.025-.57-.055-.878-.091-4.462-9.483-10.535-23.777-10.535-23.777C320.909,127.631,343.124,119.654,334.517,105.981Z" transform="translate(-256.019 -94.363)" fill="#050a25" fill-rule="evenodd"/>
              <path id="Trazado_885249" data-name="Trazado 885249" d="M282.575,134.564c-3.856-4.942-5.42-6.5-5.338-10.717h13.517Z" transform="translate(-252.331 -96.441)" fill="#050a25" fill-rule="evenodd"/>
              <path id="Trazado_885250" data-name="Trazado 885250" d="M284.13,152.624a6.686,6.686,0,1,0-6.688-6.686A6.7,6.7,0,0,0,284.13,152.624Z" transform="translate(-252.355 -98.233)" fill="#e37b64" fill-rule="evenodd"/>
              <path id="Trazado_885251" data-name="Trazado 885251" d="M335.958,152.624a6.686,6.686,0,1,0-6.685-6.686A6.7,6.7,0,0,0,335.958,152.624Z" transform="translate(-258.383 -98.233)" fill="#e37b64" fill-rule="evenodd"/>
              <path id="Rectángulo_404569" data-name="Rectángulo 404569" d="M22.9,0h0A22.9,22.9,0,0,1,45.8,22.9V43.711a22.9,22.9,0,0,1-22.9,22.9h0A22.9,22.9,0,0,1,0,43.715V22.9A22.9,22.9,0,0,1,22.9,0Z" transform="translate(30.245 7.21)" fill="#f4ad85"/>
              <path id="Trazado_885252" data-name="Trazado 885252" d="M328.513,120.839a22.91,22.91,0,0,1,.567,5.059v20.81a22.969,22.969,0,0,1-22.9,22.9c24.479-4.828,16.611-35.834,9.075-38.534s-23.527-3.339-27.885-2.522a4.532,4.532,0,0,0-4.09,4.352V125.9a22.705,22.705,0,0,1,1.232-7.393c4.589-.671,16.713.06,27.759.06a58.727,58.727,0,0,1,16.245,2.274Zm-22.335,48.77" transform="translate(-253.034 -95.787)" fill="#ed9072" fill-rule="evenodd"/>
              <path id="Rectángulo_404570" data-name="Rectángulo 404570" d="M2.241,0h0A2.243,2.243,0,0,1,4.484,2.243V5.165A2.241,2.241,0,0,1,2.243,7.406h0A2.241,2.241,0,0,1,0,5.165V2.241A2.241,2.241,0,0,1,2.241,0Z" transform="translate(34.198 42.825)" fill="#050a25"/>
              <path id="Rectángulo_404571" data-name="Rectángulo 404571" d="M2.242,0h0A2.241,2.241,0,0,1,4.483,2.241V5.164A2.241,2.241,0,0,1,2.242,7.406h0A2.24,2.24,0,0,1,0,5.166V2.242A2.242,2.242,0,0,1,2.242,0Z" transform="translate(59.78 42.825)" fill="#050a25"/>
              <path id="Trazado_885253" data-name="Trazado 885253" d="M285.973,134.955h6.339a1.22,1.22,0,0,1,1.216,1.218h0a1.22,1.22,0,0,1-1.216,1.219h-6.339a1.222,1.222,0,0,1-1.216-1.219h0A1.221,1.221,0,0,1,285.973,134.955Z" transform="translate(-253.206 -97.733)" fill="#050a25" fill-rule="evenodd"/>
              <path id="Trazado_885254" data-name="Trazado 885254" d="M304.995,190.57l1.887-1.015s.16,2.082.38,2.151.522-1.309,1.338-1.807,3,2.476,3,2.476-.809,2.32-1.981,2.492-4.683.56-4.729-.493S304.995,190.57,304.995,190.57Z" transform="translate(-255.546 -104.084)" fill="#d9d4d6" fill-rule="evenodd"/>
              <path id="Trazado_885255" data-name="Trazado 885255" d="M314.924,134.955h6.333a1.219,1.219,0,0,1,1.218,1.218h0a1.22,1.22,0,0,1-1.218,1.219h-6.333a1.222,1.222,0,0,1-1.22-1.219h0A1.222,1.222,0,0,1,314.924,134.955Z" transform="translate(-256.573 -97.733)" fill="#050a25" fill-rule="evenodd"/>
              <path id="Trazado_885256" data-name="Trazado 885256" d="M307.74,193.366a7.355,7.355,0,0,0,3.058-1.013,1.881,1.881,0,0,1,2.421.222L311.88,194.1l-.1.645a4.922,4.922,0,0,0-3.266.57C307.242,196.235,307.74,193.366,307.74,193.366Z" transform="translate(-255.868 -104.369)" fill="#d64341" fill-rule="evenodd"/>
              <path id="Trazado_885257" data-name="Trazado 885257" d="M309.133,155.548a7.283,7.283,0,1,1-14.567,0h.011a1.263,1.263,0,0,1,1.259-1.256h12.025a1.26,1.26,0,0,1,1.259,1.256Z" transform="translate(-254.347 -99.982)" fill="#fff" fill-rule="evenodd"/>
              <g id="Grupo_1107063" data-name="Grupo 1107063" transform="translate(31.666 51.668)">
                <path id="Trazado_885258" data-name="Trazado 885258" d="M288.2,157.929a3.313,3.313,0,1,0-3.311-3.313A3.319,3.319,0,0,0,288.2,157.929Z" transform="translate(-284.887 -151.302)" fill="#e37b64" fill-rule="evenodd"/>
                <path id="Trazado_885259" data-name="Trazado 885259" d="M320.457,157.929a3.313,3.313,0,1,0-3.316-3.313A3.319,3.319,0,0,0,320.457,157.929Z" transform="translate(-288.638 -151.302)" fill="#e37b64" fill-rule="evenodd"/>
              </g>
              <path id="Trazado_885260" data-name="Trazado 885260" d="M337.684,139.15l-4.915-2.055s-2.64,5.961,1.98,8.026V142.27A2.822,2.822,0,0,1,337.684,139.15Z" transform="translate(-258.703 -97.982)" fill="#050a25" fill-rule="evenodd"/>
              <path id="Trazado_885261" data-name="Trazado 885261" d="M329.306,130.083l-1.878,3.628s-6.189-.925-7.185-9.1c-8.092,2.221-18.807-2.121-28.009-1.731-2.6.11-16.771,1.126-11.24,7.351v1.457s-2.3-.713-3.985-4.661l0,0c-13.366,6.853-19.4-20.306-5.244-31.779,8.327-6.746,1.949,3.2,9.254,7.074C296.177,85.751,335.622,88.449,329.306,130.083Z" transform="translate(-250.75 -92.834)" fill="#111a39" fill-rule="evenodd"/>
              <path id="Trazado_885262" data-name="Trazado 885262" d="M299.48,186.336s-9,21.929.136,51.66l-.027,2.27s-7.6-13.838-11.173-25.108c0,0-.312-1.066.446-1.546s2.3-1.563,3.161-1.563-.447-1.115-3.814.328a1.51,1.51,0,0,1-1.065-.929c-.245-.758.764-13.369,9.742-25.153,0,0,.129-.327.8-.514S299.7,185.212,299.48,186.336Z" transform="translate(-253.48 -103.619)" fill="#496683" fill-rule="evenodd"/>
              <path id="Trazado_885263" data-name="Trazado 885263" d="M334.575,133.06l-1.881,3.629s-6.186-.927-7.182-9.1c-4.71,1.294-10.31.362-15.983-.566,8.255,1.231,20.838-2.081,25.291-8.589a49.554,49.554,0,0,1-.245,14.629Zm-25.385-6.094-.247-.041h0Z" transform="translate(-256.019 -95.811)" fill="#050a25" fill-rule="evenodd"/>
              <path id="Trazado_885264" data-name="Trazado 885264" d="M318.65,183.272s-2.369,4.262-8.658,5.36a1.664,1.664,0,0,0-1.341,1.546c0,1.273,3.71,4.708,4.055,6.564s7.907-7.8,8.386-10.823C321.094,185.92,319.853,183.616,318.65,183.272Z" transform="translate(-255.985 -103.353)" fill="#fff" fill-rule="evenodd"/>
              <path id="Trazado_885265" data-name="Trazado 885265" d="M304.749,193.6a2.707,2.707,0,0,1,1.3-.566,3.737,3.737,0,0,1,2.094.4,4.077,4.077,0,0,1,1.014,1.6,8.385,8.385,0,0,1-2.3,2.336c-.548.274-1.136-.171-1.721-.1S304.387,194.217,304.749,193.6Z" transform="translate(-255.509 -104.489)" fill="#eb6b5d" fill-rule="evenodd"/>
              <path id="Trazado_885266" data-name="Trazado 885266" d="M307.535,193.161a1.454,1.454,0,0,1,.642.286,4.077,4.077,0,0,1,1.014,1.6,8.385,8.385,0,0,1-2.3,2.336c-.548.274-1.136-.171-1.721-.1-.148.017-.269-.169-.359-.467C309,196.173,307.819,193.664,307.535,193.161Z" transform="translate(-255.538 -104.503)" fill="#d64341" fill-rule="evenodd"/>
              <path id="Trazado_885267" data-name="Trazado 885267" d="M296.005,473.083a5.148,5.148,0,0,0-3.759-.727c-1.953.5-13.239,5.829-15.048,6.558s-3.713,3.507-2.285,5.1,10.95,1.412,16,.409a34.425,34.425,0,0,1,10.808-.183c1.857.138,4.031-3.887,2.238-9.7S302.719,474.13,296.005,473.083Z" transform="translate(-252.003 -136.91)" fill="#eb6b5d" fill-rule="evenodd"/>
              <path id="Trazado_885268" data-name="Trazado 885268" d="M298.274,473.084a5.15,5.15,0,0,0-3.762-.728c-.145.036-.345.1-.589.189,1.618.364,4.867,1.351,5.506,3.5.607,2.038.972,5.55-1.286,7.85a49.615,49.615,0,0,1,5.845.346c1.857.138,4.031-3.887,2.238-9.7S304.988,474.13,298.274,473.084Z" transform="translate(-254.272 -136.91)" fill="#d64341" fill-rule="evenodd"/>
              <path id="Trazado_885269" data-name="Trazado 885269" d="M274.611,482.755a2.227,2.227,0,0,0,.3,2.36c1.427,1.594,10.95,1.412,16,.409a34.425,34.425,0,0,1,10.808-.183c1.168.088,2.46-1.474,2.814-4.094-1.383,1.914-3.771,2.078-8.342,1.718-4.727-.372-9.066.868-15.02,1.425C277.006,484.78,275.275,483.536,274.611,482.755Z" transform="translate(-252.003 -138.009)" fill="#fff" fill-rule="evenodd"/>
              <path id="Trazado_885270" data-name="Trazado 885270" d="M298.7,484.995a49.615,49.615,0,0,1,5.845.346c1.168.086,2.46-1.474,2.814-4.094-1.284,1.781-3.438,2.046-7.4,1.786A5.756,5.756,0,0,1,298.7,484.995Z" transform="translate(-254.827 -138.009)" fill="#d9d4d6" fill-rule="evenodd"/>
              <path id="Trazado_885271" data-name="Trazado 885271" d="M326.269,474.749s3.279-3.781,7.288-.775a5.8,5.8,0,0,1,3.007,2.734c.821,1.913,2.369,2.78,2.641,4.874s-.362,3.734-3.233,3.734h-4.646c-2.05,0-5.1.32-6.15-2.233s0-4.874-.365-6.195S326.269,474.749,326.269,474.749Z" transform="translate(-257.851 -137.028)" fill="#eb6b5d" fill-rule="evenodd"/>
              <path id="Trazado_885272" data-name="Trazado 885272" d="M326.278,474.749s3.279-3.78,7.288-.775a5.79,5.79,0,0,1,3.007,2.734c.821,1.913,2.369,2.78,2.641,4.873s-.366,3.736-3.233,3.736h-2.56c4.088-3.349.565-9.89-2.711-10.463-2.177-.379-4.465.885-5.915,1.929C324.554,475.523,326.278,474.749,326.278,474.749Z" transform="translate(-257.86 -137.028)" fill="#d64341" fill-rule="evenodd"/>
              <path id="Trazado_885273" data-name="Trazado 885273" d="M339.254,483.108c.139,1.9-.589,3.338-3.276,3.338h-4.646c-2.05,0-5.1.32-6.15-2.233a6.254,6.254,0,0,1-.431-1.695c.011.018,1.2,1.648,5.147,1.895C333.862,484.66,338.572,484.713,339.254,483.108Z" transform="translate(-257.857 -138.157)" fill="#fff" fill-rule="evenodd"/>
              <path id="Trazado_885274" data-name="Trazado 885274" d="M340.395,483.186c.139,1.9-.591,3.338-3.276,3.338h-2.56a4.939,4.939,0,0,0,1.458-1.931C338.218,484.5,340,484.124,340.395,483.186Z" transform="translate(-258.998 -138.235)" fill="#d9d4d6" fill-rule="evenodd"/>
              <path id="Trazado_885275" data-name="Trazado 885275" d="M319.485,186.816s-17.906,12.563-19.542,55.882c0,0-.082.883.364.952s8.557-23.123,13.778-27.245a1.4,1.4,0,0,0,.483-1.546c-.345-.928-2.853-2.714-4.022-3.368s3.3.035,4.912.894,2.681,0,3.748-1.615-.363-19.928,4.147-22.814a.442.442,0,0,0-.075-.482,18.007,18.007,0,0,0-2.82-.945A1.221,1.221,0,0,0,319.485,186.816Z" transform="translate(-254.971 -103.73)" fill="#496683" fill-rule="evenodd"/>
              <path id="Trazado_885276" data-name="Trazado 885276" d="M302.822,183.1s.153,3.826,3.134,5.171a.685.685,0,0,1,.151,1.16,17.465,17.465,0,0,0-1.951,5c-.3,1.319-3.975-5.364-3.719-9.47A7.184,7.184,0,0,1,302.822,183.1Z" transform="translate(-255.028 -103.333)" fill="#fff" fill-rule="evenodd"/>
              <path id="Trazado_885277" data-name="Trazado 885277" d="M308.213,215.953s-1.651.43-1.651,1.939,1.865,52.392,2.007,53.828.61,2.118,2.655,2.153,34.847-1.829,36.065-1.974a3.184,3.184,0,0,0,3.195-3.265c.215-2.692-1.721-49.523-1.757-51.5a2.749,2.749,0,0,0-3.158-2.726C343.989,214.48,313.811,215.737,308.213,215.953Z" transform="translate(-255.742 -106.974)" fill="#fff" fill-rule="evenodd"/>
              <path id="Trazado_885278" data-name="Trazado 885278" d="M307.795,249.9l.332,8.772a29.771,29.771,0,0,1,7.723,2.946c7.895,4.235,6.531,3.158,7.822,3.661,1.169.454-5.057,4.134-15.069,5.314.031.627.052,1.02.061,1.128.144,1.436.61,2.118,2.655,2.153s34.847-1.829,36.065-1.974a3.184,3.184,0,0,0,3.195-3.265c.215-2.692-1.721-49.523-1.757-51.5a2.749,2.749,0,0,0-3.158-2.726l-2.775.118c.009.032,6.66,30.852-12.735,45.561,0,0-17.3-11.1-18.751-10.66a29.459,29.459,0,0,1-3.608.469Zm-.414-11.231a7.464,7.464,0,0,1,3.726.013l2.717,5.669a42,42,0,0,1-6.253-.423l-.19-5.259Zm13.466-21.088,9.387-.535a1,1,0,0,1,1.06.946l.114,2.006a1.006,1.006,0,0,1-.946,1.061l-9.386.533a1.006,1.006,0,0,1-1.06-.945l-.114-2.006A1.006,1.006,0,0,1,320.847,217.578Z" transform="translate(-255.837 -106.974)" fill="#e5e5e5" fill-rule="evenodd"/>
              <path id="Trazado_885279" data-name="Trazado 885279" d="M307.016,243.075s-2.275-.508-2.706,2.435-1.866,10.835,5.239,13.563,9.333,3.16,11.343,4.307,3.585-4.162,2.079-5.024-2.87-2.154-4.95-5.383-5.288-6.544-8.111-7.249S307.016,243.075,307.016,243.075Z" transform="translate(-255.432 -110.304)" fill="#f4ad85" fill-rule="evenodd"/>
              <path id="Trazado_885280" data-name="Trazado 885280" d="M304.31,245.858c-.438,2.959-1.848,10.823,5.239,13.543,7.107,2.73,9.333,3.16,11.343,4.307s3.585-4.162,2.079-5.024a9.906,9.906,0,0,1-2.65-2.234c-1.842,2.045-4.973,3.336-9.894.7A11.6,11.6,0,0,1,304.31,245.858Z" transform="translate(-255.432 -110.632)" fill="#ed9072" fill-rule="evenodd"/>
              <path id="Trazado_885281" data-name="Trazado 885281" d="M311.137,247.439s-2.048-3.625-1.543-5.168,5.353.367,6.494,4.451a28.537,28.537,0,0,0,1.361,4.364S312.717,250.274,311.137,247.439Z" transform="translate(-256.085 -110.153)" fill="#f4ad85" fill-rule="evenodd"/>
              <path id="Trazado_885282" data-name="Trazado 885282" d="M346.159,262.462c-5.837.2-21.117-3.119-21.117-3.119a.606.606,0,0,0-.727.424c-.13.545.323,3.434-2.464,4.93,0,0-.275,1.245,1.41,2.035,1.538.719,17.109,4.664,28.983,4.046-.034-1.513,3.1-3.568,3.03-5.865-.054-1.757-3.315-3.627-3.386-5.685C351.888,259.229,351.994,262.268,346.159,262.462Z" transform="translate(-257.518 -112.187)" fill="#183257" fill-rule="evenodd"/>
              <path id="Trazado_885283" data-name="Trazado 885283" d="M322.921,217.112l9.386-.535a1.006,1.006,0,0,1,1.06.946l.114,2.008a1.007,1.007,0,0,1-.945,1.06l-9.389.534a1,1,0,0,1-1.057-.945l-.115-2.009A1,1,0,0,1,322.921,217.112Z" transform="translate(-257.534 -107.226)" fill="#f5f4f4" fill-rule="evenodd"/>
              <path id="Trazado_885284" data-name="Trazado 885284" d="M331.753,216.61l.568-.033a1.006,1.006,0,0,1,1.06.946l.114,2.006a1.007,1.007,0,0,1-.945,1.061l-9.387.534a1,1,0,0,1-1.06-.946l-.009-.138C333.137,220.569,331.76,216.629,331.753,216.61Z" transform="translate(-257.549 -107.226)" fill="#d9d4d6" fill-rule="evenodd"/>
              <path id="Trazado_885285" data-name="Trazado 885285" d="M266.838,102.055c3.693,18.166,49.413,12.5,55.649-.888.494.51.975,1.049,1.434,1.616-9.918,17.836-44.892,20.088-60.087,14.738A25.4,25.4,0,0,1,266.838,102.055Z" transform="translate(-250.75 -93.803)" fill="#183257" fill-rule="evenodd"/>
              <path id="Trazado_885286" data-name="Trazado 885286" d="M280.11,112.2c15.044,4.122,39.513-1.489,43.961-11.023.647.257,1.265.531,1.86.829-7.373,14.675-31.292,19.241-48.6,17.823A17.453,17.453,0,0,1,280.11,112.2Z" transform="translate(-252.342 -93.804)" fill="#183257" fill-rule="evenodd"/>
              <path id="Trazado_885287" data-name="Trazado 885287" d="M255.473,324.259a.813.813,0,0,1-1.528-.554,8.755,8.755,0,0,1,2.5-3.7,7.475,7.475,0,0,0,.767,1.486,7.284,7.284,0,0,0-1.738,2.769Zm6.842-3.16a8.533,8.533,0,0,1,.379,3.513.812.812,0,1,1-1.621-.11,8.066,8.066,0,0,0-.124-2.332A6.291,6.291,0,0,0,262.314,321.1Z" transform="translate(-249.617 -119.256)" fill="#111a39" fill-rule="evenodd"/>
              <path id="Trazado_885288" data-name="Trazado 885288" d="M262.161,319.507a2.805,2.805,0,0,1,.254.259c.8.913,1.265,2.47,1.1,4.772a.812.812,0,1,1-1.621-.11c.126-1.827-.174-2.989-.7-3.592l-.1-.1h0a1.03,1.03,0,0,1,.322-1.274c.317-.224.743.049.743.049Z" transform="translate(-250.442 -119.182)" fill="#111a39" fill-rule="evenodd"/>
              <g id="Grupo_1107064" data-name="Grupo 1107064" transform="translate(8.49 204.722)">
                <path id="Trazado_885289" data-name="Trazado 885289" d="M263.713,331.368h0a1.226,1.226,0,0,1,1.491.863l.673,2.509-.683.182a.522.522,0,0,0-.365.634h0a.519.519,0,0,0,.634.367l.68-.184.293,1.083-.291.077a.52.52,0,0,0-.365.635h0a.517.517,0,0,0,.634.365l.287-.075.437,1.633a1.222,1.222,0,0,1-.86,1.493h0a1.22,1.22,0,0,1-1.492-.863l-1.939-7.227A1.224,1.224,0,0,1,263.713,331.368Z" transform="translate(-259.143 -325.294)" fill="#959cab" fill-rule="evenodd"/>
                <path id="Trazado_885290" data-name="Trazado 885290" d="M259.584,325.717l4.374-1.174a1.247,1.247,0,0,1,1.523.883l1.271,4.737a1.25,1.25,0,0,1-.88,1.525L261.5,332.86a1.248,1.248,0,0,1-1.525-.88L258.7,327.24a1.243,1.243,0,0,1,.879-1.523Zm.5,1.152a.551.551,0,0,0-.386.669h0a.545.545,0,0,0,.667.388l4.01-1.075a.55.55,0,0,0,.386-.67v0a.548.548,0,0,0-.668-.384Z" transform="translate(-258.661 -324.5)" fill="#183257" fill-rule="evenodd"/>
                <path id="Trazado_885291" data-name="Trazado 885291" d="M264.868,324.992l1.271,4.739a1.252,1.252,0,0,1-.882,1.526l-.356.095-2.346.629-1.673.448a1.286,1.286,0,0,1-.446.037,1.241,1.241,0,0,0,1.268.394l1.011-.27,2.352-.631,1.012-.27a1.25,1.25,0,0,0,.88-1.525l-1.271-4.737a1.249,1.249,0,0,0-1.077-.919A1.24,1.24,0,0,1,264.868,324.992Z" transform="translate(-258.867 -324.501)" fill="#111a39" fill-rule="evenodd"/>
              </g>
              <circle id="Elipse_11960" data-name="Elipse 11960" cx="1.22" cy="1.22" r="1.22" transform="translate(34.83 45.308)" fill="#fff"/>
              <path id="Trazado_885292" data-name="Trazado 885292" d="M317.54,145.325a1.22,1.22,0,1,0,1.219-1.22A1.22,1.22,0,0,0,317.54,145.325Z" transform="translate(-257.019 -98.797)" fill="#fff" fill-rule="evenodd"/>
            </g>
            <g id="Grupo_1107072" data-name="Grupo 1107072" transform="translate(0 3.842)">
              <g id="Grupo_1107071" data-name="Grupo 1107071">
                <g id="Grupo_1107066" data-name="Grupo 1107066" transform="translate(8.63 202.459)">
                  <path id="Trazado_885293" data-name="Trazado 885293" d="M190.452,331.69s-.716,116.684-.536,118.617-2.5,3.326-1.878,4.331,16.724,7.116,16.724,7.116l6.171-2.243s-13.952-6.883-13.683-9.126,11.317-124.1,11.317-124.1Z" transform="translate(-152.494 -326.287)" fill="#f4ad85"/>
                  <path id="Trazado_885294" data-name="Trazado 885294" d="M161.46,338.583l-4.245,107.978a7.918,7.918,0,0,0,.352,9.967c4.21,5.2,11.818,5.224,12.78,4.612s-.048-1.372-.048-1.372-7.29-6.252-6.476-11.054,15.468-110.76,15.468-110.76Z" transform="translate(-148.732 -327.644)" fill="#f4ad85"/>
                  <path id="Trazado_885295" data-name="Trazado 885295" d="M209.44,460.053l-4.68,1.7s-16.1-6.11-16.724-7.116,2.057-2.4,1.876-4.331.537-118.616.537-118.616l18.116-5.4s-.3,3.328-.8,8.9c-4.937.456-11.009,1.96-11.945,6.537-1.61,7.889-5.768,109.631-2.685,111.6S203.211,459.93,209.44,460.053Z" transform="translate(-152.494 -326.287)" fill="#ed9072"/>
                  <path id="Trazado_885296" data-name="Trazado 885296" d="M179.164,338.84c-.136,1.015-.393,2.873-.741,5.4-4.124-.065-10.765.241-11.652,2.839-1.3,3.807-8.623,98.006-6.959,102.069,1.243,3.03,5.985,9.279,8.31,12.259-2.813-.085-7.548-1.159-10.555-4.872a7.922,7.922,0,0,1-.352-9.969l4.245-107.979,17.307-.61Z" transform="translate(-148.732 -327.646)" fill="#ed9072"/>
                  <path id="Trazado_885297" data-name="Trazado 885297" d="M189.94,481.645s-2.594-2.683-2.549-8.228,1.073-5.724,2.012-5.053,3.756,4.913,11.089,6.5,8.293-.442,8.293-.442,4.63,3.239,7.313,3.418,5.1-.358,5.5,1.163-1.61,2.861-1.61,2.861Z" transform="translate(-152.43 -342.78)" fill="#fead1e"/>
                  <path id="Trazado_885298" data-name="Trazado 885298" d="M157.056,457.745s-6.439,1.476-8.519,4.829,1.074,6.372,1.141,6.574,8.25,11.2,8.988,11.469,20.256.335,20.256.335S180.868,478.2,175.3,477a13.294,13.294,0,0,1-7.961-4.729s-4.314,1.308-5.723,1.04-5.1-7.647-4.963-10.4S157.056,457.745,157.056,457.745Z" transform="translate(-147.828 -341.576)" fill="#fead1e"/>
                  <path id="Trazado_885299" data-name="Trazado 885299" d="M178.918,481.585s-19.512-.062-20.254-.336-8.916-11.267-8.987-11.47-3.217-3.217-1.14-6.566c0-.009.009-.009.009-.018,2.289,3.712,9.332,14.979,11.205,15.915s14.917.654,19.291.539A1.953,1.953,0,0,1,178.918,481.585Z" transform="translate(-147.828 -342.21)" fill="#fff"/>
                  <path id="Trazado_885300" data-name="Trazado 885300" d="M221.558,481.751a4.747,4.747,0,0,1-1.432,1.564l-30.054-.221a8.659,8.659,0,0,1-1.529-2.58C194.614,480.991,211.722,482.211,221.558,481.751Z" transform="translate(-152.564 -344.225)" fill="#fff"/>
                </g>
                <path id="Trazado_885301" data-name="Trazado 885301" d="M209.275,289.394s2.557,63.4,3.157,84.242a5.037,5.037,0,0,1-5.161,5.181l-57.4-1.419a4.293,4.293,0,0,1-4.169-4.741c2-18.95,15.323-83.833,17.42-86.026C172.891,276.407,204,281.813,209.275,289.394Z" transform="translate(-138.947 -118.561)" fill="#1f334b" fill-rule="evenodd"/>
                <path id="Trazado_885302" data-name="Trazado 885302" d="M212.433,373.633a5.043,5.043,0,0,1-5.161,5.187l-57.4-1.423a4.291,4.291,0,0,1-4.171-4.737c2-18.955,15.323-83.836,17.418-86.028,9.774-10.224,40.88-4.825,46.164,2.757,0,0,.336,8.377.8,20.042-14.007-.893-51.449-1.1-49.77,22.525,1.918,26.926,2.872,39.581,52.058,39.3C212.389,372.1,212.416,372.891,212.433,373.633Z" transform="translate(-138.947 -118.561)" fill="#111a39" fill-rule="evenodd"/>
                <path id="Trazado_885303" data-name="Trazado 885303" d="M208.8,259.124a80.155,80.155,0,0,0-.866,10.991c-3.685-2.142-8.365.3-8.56,3.547-.256,4.243-1.076,6.948,3.39,15.7,2.093,4.1,4.2,5.483,5.847,5.8-2.755,1.652-5.862,3.049-8.117,3.217,0,0-.452.148-.968-.831s-1.894-11-3.305-13.517c-.449-.8.726-7.392,2.537-16.006-9.014,1.85-23.269-.33-29.531-3.294a5.247,5.247,0,0,1-.636-1.889c.292-.465,5.664-6.793,12.033-13.958,3.964,8.132,7.422,14.911,7.422,14.911Z" transform="translate(-141.611 -114.825)" fill="#264467" fill-rule="evenodd"/>
                <path id="Trazado_885304" data-name="Trazado 885304" d="M167.6,251.884a17.239,17.239,0,0,0,.652-1.925,16.908,16.908,0,0,0,.422-2.464,46.826,46.826,0,0,0-.9-22.612c-3.758-13.79-9.058-36.443-9.061-36.455q.546-.447,1.094-.841a10.892,10.892,0,0,1,3.322-1.922,22.5,22.5,0,0,1,7.935-1.784l.052-.005s.042,0,.118-.006c5.929-.348,13.031.633,22.593.482.577.083.93.194,1.469.262,6.668.838,22.537,25.923,18.285,37.415a102.34,102.34,0,0,0-3.759,14.889c-1.579,8.807-3.706,24.333-2.933,26.629s7.108,18.306,7.54,19.86c1.888,6.8-42.334,11.1-56.087-3.884a118.282,118.282,0,0,1,5.108-16.138A99.473,99.473,0,0,0,167.6,251.884Z" transform="translate(-140.42 -107.255)" fill="#fff" fill-rule="evenodd"/>
                <path id="Trazado_885305" data-name="Trazado 885305" d="M167.654,251.78a17.179,17.179,0,0,0,.652-1.925,16.914,16.914,0,0,0,.422-2.465,46.818,46.818,0,0,0-.9-22.61c-3.758-13.789-9.056-36.438-9.061-36.455.364-.3.727-.577,1.094-.841a10.886,10.886,0,0,1,3.323-1.922,22.482,22.482,0,0,1,7.935-1.784l.051-.005s.042,0,.118-.006c1.472-.087,3.385-.909,5.022-.869,2.321.057,4.457,1.019,7.2,1.146,0,0-16.864,10.076-4.329,41.831,6.057,15.346-2.054,23.814-12.112,27.866Q167.38,252.753,167.654,251.78Z" transform="translate(-140.47 -107.151)" fill="#e5e5e5" fill-rule="evenodd"/>
                <path id="Trazado_885306" data-name="Trazado 885306" d="M181.254,160.9l-.189,5.109s-.836,10.429-.962,12.013c-.054.671-.663,1.381-1.7,1.97-1.088.617,3.305,3.38,1.419,3.546-.031,0,7.676.831,12.718,1.318,3.172.307,4.5,3.564,4.654-3.271,0-.039-.069-.039-.1-.058-1.075-.6-.619-.062-1.5-1.024-.126-.137-.26-.3-.4-.482-1.59-2.039-.832-10.507,1.088-12.584S181.254,160.9,181.254,160.9Z" transform="translate(-142.733 -104.593)" fill="#cc685c" fill-rule="evenodd"/>
                <path id="Trazado_885307" data-name="Trazado 885307" d="M244.018,211.75l4.469-.249s2.625,5.813-3.993,15.458c0,0-1.948-3.535-1.992-5.364S244.018,211.75,244.018,211.75Z" transform="translate(-150.209 -110.478)" fill="#eccdbc" fill-rule="evenodd"/>
                <path id="Trazado_885308" data-name="Trazado 885308" d="M207.249,185.868c11.834,6.2,27.364,16.4,39.215,23.513,3.334,2,6.275,3.748,7.3.928a247.623,247.623,0,0,0,7.954-31.361c.359-2.158-1.783-4.678-2.243-5.978-.245-.689,2.614,1.06,3.24,1.3,2.23.846,4.149-1.313,5.053.459a69.69,69.69,0,0,0-2.057,10.2c-.608,7.22,1.047,16.808-4.65,35.312-.068.141.971-2.488-.19.433-.906,2.275-4.057,4.133-6.644,4.2-4.8.135-32.5-12.6-37.252-15.694a66.81,66.81,0,0,1-7.332-5.533C212.114,199.037,205.172,190.122,207.249,185.868Z" transform="translate(-146.063 -105.978)" fill="#f4ad85" fill-rule="evenodd"/>
                <path id="Trazado_885309" data-name="Trazado 885309" d="M271.757,178.7c.371-3.091,1.846-4.266,2.619-5.5a22.692,22.692,0,0,0,1.387-5.408c.078-.839.11-7.3-1.658-3.765a7.246,7.246,0,0,0-.215-2.893c-.442-1.117-1.483,1.015-1.483,1.015s.144-2.309-.91-2.4-1.171,3.643-1.235,2.582-.156-2.678-1.31-2.633c-.068.032-.138.064-.207.1-.243.122-1.294,7.543-1.364,8.669a5.511,5.511,0,0,0-2.557-2.5c-.443-.247-1.068-.09-1.179.159-.1.215.946,1.841.992,2.3.356,3.637,2.685,4.439,3.7,7.088-.12.445.09,1.8-.07,2.352C270.252,178.421,270.322,178.23,271.757,178.7Z" transform="translate(-152.668 -104.453)" fill="#f4ad85" fill-rule="evenodd"/>
                <path id="Trazado_885310" data-name="Trazado 885310" d="M272.638,167.015c.962.1-2.3,10.188-1.939,10.9-.313.934-.564,6.482-.844,9.8-.609,7.219.8,13.35-4.9,31.854-.068.141.971-2.488-.19.433-.906,2.275-4.057,4.132-6.644,4.2-2.306.065-9.9-2.842-17.7-6.224-.095-3.72-.113-6.234-.113-6.234l5.262-3.266s1.635,7.176,3.47,9.075,8.93,3.63,11.167,2.983,7.255-20.521,8.11-29.3.543-11.674-.034-13.434C267.9,176.621,271,168.826,272.638,167.015Z" transform="translate(-149.955 -105.304)" fill="#ed9072" fill-rule="evenodd"/>
                <path id="Trazado_885311" data-name="Trazado 885311" d="M205.043,187.681l1.509-.524a384.559,384.559,0,0,1,37.578,21.513c-1.488,1.4-5.985,10.094-3.993,15.458l-16.285-3.752Z" transform="translate(-145.852 -107.646)" fill="#fff" fill-rule="evenodd"/>
                <path id="Trazado_885312" data-name="Trazado 885312" d="M205.043,187.681l1.509-.524,0,0,.008,0h0l.016.009.016.007.008,0,.03.014.019.01.019.008.042.021.018.009.032.014.056.028.012.006.05.024.069.034,0,0,.072.035.072.034.008,0,.088.044.068.033.026.013.1.049.06.03.047.022.112.056.049.023.07.035.124.063.033.016.1.049.137.068.013.007.128.065.141.07.009,0,.155.078.125.064.036.017.165.085.108.054.065.034.178.089.084.043.1.05.189.1.06.03.135.068.2.1.03.015.176.091.21.108,0,0,.217.111.186.095.037.021.229.118.157.08.078.041.239.123.125.065.119.064.032.016.473.247.262.137.053.027.214.113.271.142.011.005.265.141.248.132.033.017.288.153.209.112.082.043.3.158.17.09.131.072.308.163.125.069.186.1.316.171.238.128.084.045.326.177.03.017.3.163.313.171.023.013.34.185.268.145.078.044.352.192.217.119.137.076.36.2a39.161,39.161,0,0,0,5.544,13.355c5.308,7.97,12.8,7.669,16.885,6.743-1.318,3.248-2.283,7.373-1.155,10.422l-27.441-6.377Z" transform="translate(-145.852 -107.646)" fill="#e5e5e5" fill-rule="evenodd"/>
                <path id="Trazado_885313" data-name="Trazado 885313" d="M195.642,184.869c14.334,18.051-8.66,24.18-17.544,10.019-5.542-8.83-8.272-10.988-8.272-10.988a.86.86,0,0,0-.662-.222c-.447.017-4.264.9-4.68,1.007s-.482.33-.482.33,18.436,17.932.945,35.364c0,0,10.607,17.453-4.57,42.46,0,0-12.059,19.732-7.5,25.118,3.6,4.251,42.194,4.4,58.3,4.271a4.828,4.828,0,0,0,4.459-6.584c-2.333-5.982-5.581-14.352-6.624-17.24-1.692-4.677-2.944-9.415-.889-20.973s5.785-24.41,6.128-31.85-12.546-26.8-13.155-28.111S196.414,184.636,195.642,184.869Z" transform="translate(-139.665 -107.242)" fill="#eb6b5d" fill-rule="evenodd"/>
                <path id="Trazado_885314" data-name="Trazado 885314" d="M172.135,210.574c-1.628,6.508-5.036,11.089-7.242,12.934,0,0,10.608,17.454-4.57,42.46,0,0-9.193,16.5-8.919,24.124.132,3.686,8.239,3.365,11.975,3.75,2.991-21.955,10.538-68.6,46.665-52.994,1.151-5.224,2.358-10.339,3.177-14.757C198.52,229.953,171.766,232.589,172.135,210.574Z" transform="translate(-139.613 -110.37)" fill="#d64341" fill-rule="evenodd"/>
                <g id="Grupo_1107069" data-name="Grupo 1107069">
                  <path id="Trazado_885315" data-name="Trazado 885315" d="M149.151,106.734a13.153,13.153,0,1,0,15.055,10.923A13.152,13.152,0,0,0,149.151,106.734Z" transform="translate(-138.062 -98.274)" fill="#111a39" fill-rule="evenodd"/>
                  <path id="Trazado_885316" data-name="Trazado 885316" d="M171.792,102.2s-9.4-5.393-15.822,4.17c-5.079,7.569-9.265,18.177-6.837,31.34.372,1.843,5.156,23.558,24.2,23.379,19.881-.186,30.768-15.524,30.768-15.524C226.041,133.015,197.066,81,171.792,102.2Z" transform="translate(-139.267 -97.182)" fill="#111a39" fill-rule="evenodd"/>
                  <path id="Trazado_885317" data-name="Trazado 885317" d="M151.36,117.2a40.327,40.327,0,0,0-2.237,22.633c.3,1.5,5,23.6,24.205,23.423-.956-12.527-2.079-21.651-2.079-21.651l20.853-9.162,1.164-16.658C162.968,147.53,151.367,117.217,151.36,117.2Z" transform="translate(-139.267 -99.346)" fill="#050a25" fill-rule="evenodd"/>
                  <path id="Trazado_885318" data-name="Trazado 885318" d="M204.421,151.586c-4.1-9.48-33.524-4.715-33.524-4.715l-5.435-4.88s-10.808,1.379-8.574,15.776a21.153,21.153,0,0,0,17.389,8.538C191.4,166.144,201.852,154.745,204.421,151.586Z" transform="translate(-140.216 -102.393)" fill="#111a39" fill-rule="evenodd"/>
                  <path id="Trazado_885319" data-name="Trazado 885319" d="M161.986,143.168a6.042,6.042,0,1,0,6.209,5.871A6.042,6.042,0,0,0,161.986,143.168Z" transform="translate(-140.162 -102.53)" fill="#cc685c" fill-rule="evenodd"/>
                  <path id="Trazado_885320" data-name="Trazado 885320" d="M184.118,107.907h0a20.756,20.756,0,0,0-20.108,21.266l.524,18.8A20.757,20.757,0,0,0,185.8,168.081h0a20.756,20.756,0,0,0,20.108-21.264l-.525-18.8A20.758,20.758,0,0,0,184.118,107.907Z" transform="translate(-141.079 -98.428)" fill="#f4ad85" fill-rule="evenodd"/>
                  <path id="Trazado_885321" data-name="Trazado 885321" d="M165.781,120.253a20.525,20.525,0,0,0-1.771,8.946l.524,18.8A20.755,20.755,0,0,0,185.8,168.107h0c.676-.018,1.341-.071,2-.153-22.175-3.068-23.942-29.013-14.516-30.382,11.649-1.691,21.982-11.228,21.982-11.228,1.873,3.226,6.848,5.431,10.255,6.617l-.137-4.919a20.769,20.769,0,0,0-17.839-19.917c-3.357.482-6.368,1.181-7.874,1.222-3.946.11-9.618,6.67-13.062,10.17A10.5,10.5,0,0,1,165.781,120.253Z" transform="translate(-141.079 -98.455)" fill="#d68671" fill-rule="evenodd"/>
                  <path id="Trazado_885322" data-name="Trazado 885322" d="M186.644,159.741a5.436,5.436,0,0,0,10.867-.3h-.01a.942.942,0,0,0-.965-.912l-8.97.251a.941.941,0,0,0-.913.964Z" transform="translate(-143.712 -104.316)" fill="#fff" fill-rule="evenodd"/>
                  <g id="Grupo_1107067" data-name="Grupo 1107067" transform="translate(31.139 49.201)">
                    <path id="Trazado_885323" data-name="Trazado 885323" d="M205.347,152.86a2.995,2.995,0,1,0,3.076,2.911A2.995,2.995,0,0,0,205.347,152.86Z" transform="translate(-176.688 -152.859)" fill="#cc685c" fill-rule="evenodd"/>
                    <path id="Trazado_885324" data-name="Trazado 885324" d="M176.21,153.675a2.995,2.995,0,1,0,3.077,2.91A2.993,2.993,0,0,0,176.21,153.675Z" transform="translate(-173.3 -152.953)" fill="#cc685c" fill-rule="evenodd"/>
                  </g>
                  <path id="Trazado_885325" data-name="Trazado 885325" d="M161.325,143.1l4.388-1.981s2.535,5.318-1.585,7.3l-.072-2.576A2.55,2.55,0,0,0,161.325,143.1Z" transform="translate(-140.768 -102.292)" fill="#050a25" fill-rule="evenodd"/>
                  <path id="Trazado_885326" data-name="Trazado 885326" d="M194.9,114.513s-1.774,15.545-32.174,24.2l-.292-22.392,15.359-11.483,15.34,1.629s7.914,8.343,8.717,9.477,6.417,12.335,6.417,12.335l-2.973,2.548S198.614,128.033,194.9,114.513Z" transform="translate(-140.896 -98.072)" fill="#111a39" fill-rule="evenodd"/>
                  <path id="Trazado_885327" data-name="Trazado 885327" d="M194.913,115.786s-1.774,15.545-32.175,24.2l-.15-11.588C169.275,132.016,179.755,131.669,194.913,115.786Z" transform="translate(-140.915 -99.346)" fill="#050a25" fill-rule="evenodd"/>
                  <path id="Trazado_885328" data-name="Trazado 885328" d="M153.859,110.826l-.015.028-.014.027q-.449.855-.873,1.748c15.449,18.376,33.582,6.74,43.578-11.54a22.119,22.119,0,0,0-8.36-3.56C182.5,116.332,163.7,123.359,153.859,110.826Z" transform="translate(-139.794 -97.222)" fill="#183257" fill-rule="evenodd"/>
                  <g id="Grupo_1107068" data-name="Grupo 1107068" transform="translate(32.601 41.755)">
                    <path id="Trazado_885329" data-name="Trazado 885329" d="M180.777,148.713a.761.761,0,0,0,1.522-.042,3.673,3.673,0,0,0-7.343.205.761.761,0,1,0,1.522-.042,2.15,2.15,0,1,1,4.3-.12Z" transform="translate(-174.954 -144.51)" fill="#31223a" fill-rule="evenodd"/>
                    <path id="Trazado_885330" data-name="Trazado 885330" d="M204.637,148.045a.761.761,0,0,0,1.522-.042,3.673,3.673,0,0,0-7.343.205.761.761,0,1,0,1.522-.042,2.15,2.15,0,1,1,4.3-.12Z" transform="translate(-177.729 -144.432)" fill="#31223a" fill-rule="evenodd"/>
                  </g>
                  <path id="Trazado_885331" data-name="Trazado 885331" d="M168.508,146.332l-6.424.179a.968.968,0,1,1-.054-1.935l6.425-.179-.022-.754a2.408,2.408,0,0,1,2.611-2.715l11.983-.335a2.421,2.421,0,0,1,2.756,2.63l.012.41.015.521,4.99-.14-.013-.521-.011-.41a2.42,2.42,0,0,1,2.605-2.78l10.679-.3a2.409,2.409,0,0,1,2.758,2.566l.245,8.722a3.39,3.39,0,0,1-3.465,3.542l-.1.01-6.2.172c-5.145.143-6.158-4.869-6.42-9.068l-5.042.141c-.026,4.206-.758,9.268-5.9,9.412l-1.88.053-5.619.156-.1,0a3.391,3.391,0,0,1-3.656-3.345l-.17-6.033Zm3.873,7.444,7.5-.209c4.281-.12,4.1-6.249,3.986-9.881l-.012-.411a.98.98,0,0,1,0-.153s.055-.618-.775-.594l-11.982.335c-.71.02-.746.472-.741.6a1.084,1.084,0,0,1,.013.133l.047,1.713.2,7a1.539,1.539,0,0,0,1.685,1.471l.083-.006Zm31.144-.866a1.54,1.54,0,0,0,1.6-1.564l-.243-8.713a.967.967,0,0,1,.005-.133c0-.128-.064-.579-.775-.559l-10.679.3c-.826.024-.739.634-.739.636a1,1,0,0,1,.008.153l.011.411c.094,3.632.252,9.761,4.533,9.643l6.2-.173Z" transform="translate(-140.74 -102.162)" fill="#31223a" fill-rule="evenodd"/>
                  <path id="Trazado_885332" data-name="Trazado 885332" d="M191.279,147.778s6.024,8.749,0,7.862" transform="translate(-144.252 -103.066)" fill="none" stroke="#e37b64" stroke-linecap="round" stroke-miterlimit="10" stroke-width="1.016" fill-rule="evenodd"/>
                </g>
                <path id="Trazado_885333" data-name="Trazado 885333" d="M244.5,208.942c-2.362,2.595-7.022,8.894-5.159,16.628l1.144.264c-2.124-7.66,2.671-13.926,4.907-16.331l-.892-.561Zm1.812,1.143.883.562c-2.321,2.628-6.448,8.529-4.6,15.674l-1.133-.262C239.845,218.816,243.9,212.865,246.314,210.085Z" transform="translate(-149.792 -110.18)" fill="#183257" fill-rule="evenodd"/>
                <g id="Grupo_1107070" data-name="Grupo 1107070" transform="translate(1.048 79.123)">
                  <path id="Trazado_885334" data-name="Trazado 885334" d="M143.962,232.691l-1.446.758s.163,1.735,4.844,4.867a42.926,42.926,0,0,0,8.357,4.456l.122-3.722Z" transform="translate(-139.628 -192.066)" fill="#eccdbc" fill-rule="evenodd"/>
                  <path id="Trazado_885335" data-name="Trazado 885335" d="M156.433,189.378c-1.9,3.344-18.906,51.638-17.04,61.25s15.509,27.044,22.552,31.72c0,0,.793.475,1.221-.666s2.011-.922,3.624-1.9c-7.422-12.671-11.237-17.013-15.909-31.055-2.555-7.683,13.639-28.388,16.467-33.29C174.075,203.772,160.6,182.048,156.433,189.378Z" transform="translate(-139.248 -186.856)" fill="#f4ad85" fill-rule="evenodd"/>
                  <path id="Trazado_885336" data-name="Trazado 885336" d="M179.231,297.551s.744,1.964-1.828,2.724-9.432,3.045-12.77-2.947-4.008-7.926-5.287-9.573,3.257-3.73,4.218-2.5,2.288,2.287,5.434,3.732,6.513,3.885,7.5,6.314S179.231,297.551,179.231,297.551Z" transform="translate(-141.559 -198.136)" fill="#f4ad85" fill-rule="evenodd"/>
                  <path id="Trazado_885337" data-name="Trazado 885337" d="M139.391,255.188c1.646,8.47,12.434,23.006,19.792,29.546.711,1.386,1.67,3.237,3.14,5.875,3.335,5.991,10.2,3.707,12.768,2.949.976-.289-2.793.049-5.217-.079-4.017-.843-3.821-1.261-6.709-7.238a42.261,42.261,0,0,0-5.382-7.224c-5.782-6.781-13.876-15.587-14.638-22.1-1.084-9.285,5.651-28.463,5.651-28.463l-3.791-1.33C141.41,239.214,138.568,250.955,139.391,255.188Z" transform="translate(-139.248 -191.418)" fill="#ed9072" fill-rule="evenodd"/>
                  <path id="Trazado_885338" data-name="Trazado 885338" d="M175.713,294.188s4.067,2.863,5.379,2.217-1.009-4.73-4.8-5.229a25.829,25.829,0,0,1-4.067-.658A6.07,6.07,0,0,0,175.713,294.188Z" transform="translate(-143.084 -198.792)" fill="#f4ad85" fill-rule="evenodd"/>
                  <path id="Trazado_885339" data-name="Trazado 885339" d="M161.194,186.829l-2.042-.11s-2.465,1.632-3.111,3.372S146.8,213.4,142.516,228.1c0,0,10.714,1.242,13.2,9.322,0,0,13.809-18.869,14.542-21.987A30.566,30.566,0,0,0,161.194,186.829Z" transform="translate(-139.628 -186.719)" fill="#fff" fill-rule="evenodd"/>
                  <path id="Trazado_885340" data-name="Trazado 885340" d="M162.271,186.829l-2.042-.11a12.571,12.571,0,0,0-1.949,1.652c14.092,4.893,5.885,29.369.859,36.939a13.486,13.486,0,0,1-7.362,5.776,11.658,11.658,0,0,1,5.017,6.339s13.809-18.869,14.542-21.987A30.566,30.566,0,0,0,162.271,186.829Z" transform="translate(-140.705 -186.719)" fill="#e5e5e5" fill-rule="evenodd"/>
                  <path id="Trazado_885341" data-name="Trazado 885341" d="M143.893,228.629c3.212.359,11.278,1.98,15.038,9.288l-.687.96c-3.51-7.463-11.733-8.947-14.668-9.24q.156-.5.316-1.007Zm-.633,2.033q-.155.505-.3,1c3.286.42,10.66,2.121,14.007,8.99l.683-.949C154.057,232.936,146.739,231.139,143.26,230.662Z" transform="translate(-139.679 -191.593)" fill="#183257" fill-rule="evenodd"/>
                </g>
                <path id="Trazado_885342" data-name="Trazado 885342" d="M192.33,187.263c-2.159,17.062-23.443-6.6-13.058-5.667C179.271,181.6,181.862,185.508,192.33,187.263Z" transform="translate(-142.525 -106.997)" fill="#183257" fill-rule="evenodd"/>
                <path id="Trazado_885343" data-name="Trazado 885343" d="M197.448,183.081s1.3,3.727-3.026,4.355c0,0,1.025,4.867,4.141,4.454S201.652,182.544,197.448,183.081Z" transform="translate(-144.617 -107.17)" fill="#183257" fill-rule="evenodd"/>
                <path id="Trazado_885344" data-name="Trazado 885344" d="M182.2,212.145l7.019.151a.751.751,0,0,1,.739.849l-.252,2.24a.935.935,0,0,1-.925.813l-7.019-.153a.749.749,0,0,1-.739-.848l.252-2.239A.933.933,0,0,1,182.2,212.145Z" transform="translate(-143.058 -110.553)" fill="#fff" fill-rule="evenodd"/>
              </g>
            </g>
          </g>
        </g>
      </g>
    </g>
    <path id="Rectángulo_400911" data-name="Rectángulo 400911" d="M0,0H297a0,0,0,0,1,0,0V41a19,19,0,0,1-19,19H19A19,19,0,0,1,0,41V0A0,0,0,0,1,0,0Z" transform="translate(-1385.192 -8147.491) rotate(-90)" fill="#59836b"/>
    <g id="Grupo_1098761" data-name="Grupo 1098761" transform="translate(-2647.192 -9753.491)">
      <line id="Línea_557" data-name="Línea 557" y2="128" transform="translate(1273.5 1470.5)" fill="none" stroke="#fff" stroke-linecap="round" stroke-width="2" stroke-dasharray="5"/>
      <circle id="Elipse_11447" data-name="Elipse 11447" cx="33.5" cy="33.5" r="33.5" transform="translate(1238 1511)" fill="#fd9f81"/>
    </g>
    <g id="Grupo_1098820" data-name="Grupo 1098820" transform="translate(-2403.543 -9508.409)">
      <rect id="Rectángulo_400898" data-name="Rectángulo 400898" width="47" height="47" rx="23.5" transform="translate(981.351 1258.917)" fill="#fff"/>
      <path id="Rectángulo_400898_-_Contorno" data-name="Rectángulo 400898 - Contorno" d="M23.485,1.3a22.187,22.187,0,0,0-8.633,42.619A22.187,22.187,0,0,0,32.119,3.047,22.041,22.041,0,0,0,23.485,1.3m0-1.3A23.485,23.485,0,1,1,0,23.485,23.485,23.485,0,0,1,23.485,0Z" transform="translate(981 1258.947)" fill="#fff"/>
    </g>
  </g>
</svg>
