<svg xmlns="http://www.w3.org/2000/svg" width="73.744" height="73.74" viewBox="0 0 73.744 73.74">
  <g id="Grupo_1107164" data-name="Grupo 1107164" transform="translate(0 0)">
    <g id="cinta-adhesiva-azul-aislado-sobre-fondo-blanco_457211-2103" transform="translate(0 0)" fill="#fff">
      <path d="M 36.8721923828125 72.23999786376953 C 32.0963020324707 72.23999786376953 27.46406936645508 71.30502319335938 23.10416984558105 69.46105194091797 C 18.89225959777832 67.67966461181641 15.10924816131592 65.12914276123047 11.86024761199951 61.88033294677734 C 8.611248016357422 58.63153076171875 6.060581207275391 54.8487663269043 4.279092311859131 50.63711166381836 C 2.435025691986084 46.27750015258789 1.500003457069397 41.64556503295898 1.500003457069397 36.86999893188477 C 1.500003457069397 32.09443283081055 2.435025691986084 27.46250915527344 4.279092311859131 23.1028881072998 C 6.060581207275391 18.89123153686523 8.611248016357422 15.10846519470215 11.86024761199951 11.8596658706665 C 15.10924816131592 8.610854148864746 18.89225959777832 6.060332298278809 23.10416984558105 4.278943538665771 C 27.46406936645508 2.434976816177368 32.0963020324707 1.499998927116394 36.8721923828125 1.499998927116394 C 41.6480827331543 1.499998927116394 46.28031539916992 2.434976816177368 50.64021301269531 4.278943538665771 C 54.85213851928711 6.060332298278809 58.63513565063477 8.610854148864746 61.88413619995117 11.8596658706665 C 65.13314056396484 15.10846519470215 67.68379974365234 18.89123153686523 69.46529388427734 23.1028881072998 C 71.30935668945312 27.46250915527344 72.244384765625 32.09443283081055 72.244384765625 36.86999893188477 C 72.244384765625 41.64556503295898 71.30935668945312 46.27750015258789 69.46529388427734 50.63711166381836 C 67.68379974365234 54.8487663269043 65.13314056396484 58.63153076171875 61.88413619995117 61.88033294677734 C 58.63513565063477 65.12914276123047 54.85213851928711 67.67966461181641 50.64021301269531 69.46105194091797 C 46.28031539916992 71.30502319335938 41.6480827331543 72.23999786376953 36.8721923828125 72.23999786376953 Z" stroke="none"/>
      <path d="M 36.8721923828125 3 C 32.29813003540039 3 27.86248016357422 3.895111083984375 23.68846893310547 5.66046142578125 C 19.65534210205078 7.366233825683594 16.0326042175293 9.808811187744141 12.92086791992188 12.92036056518555 C 9.809154510498047 16.03188705444336 7.366439819335938 19.65439987182617 5.66058349609375 23.68724822998047 C 3.8951416015625 27.8609619140625 2.999992370605469 32.29627227783203 2.999992370605469 36.86999893188477 C 2.999992370605469 41.4437255859375 3.8951416015625 45.87903594970703 5.66058349609375 50.05276107788086 C 7.366439819335938 54.08560943603516 9.809154510498047 57.70811080932617 12.92086791992188 60.81964874267578 C 16.0325927734375 63.93118667602539 19.65534210205078 66.37377166748047 23.68846893310547 68.07953643798828 C 27.86248016357422 69.84488677978516 32.29813003540039 70.73999786376953 36.8721923828125 70.73999786376953 C 41.44625473022461 70.73999786376953 45.88190460205078 69.84488677978516 50.05591583251953 68.07953643798828 C 54.08904266357422 66.37377166748047 57.7117805480957 63.93118667602539 60.82350540161133 60.81964874267578 C 63.93523025512695 57.70811080932617 66.37794494628906 54.08560943603516 68.08379364013672 50.05276107788086 C 69.84922790527344 45.87905120849609 70.74437713623047 41.4437255859375 70.74437713623047 36.86999893188477 C 70.74437713623047 32.29627227783203 69.84922790527344 27.8609619140625 68.08379364013672 23.68724822998047 C 66.37794494628906 19.65439987182617 63.93523025512695 16.03188705444336 60.82350540161133 12.92036056518555 C 57.7117805480957 9.808811187744141 54.08904266357422 7.366233825683594 50.05591583251953 5.66046142578125 C 45.88189315795898 3.895111083984375 41.44625473022461 3 36.8721923828125 3 M 36.8721923828125 0 C 57.23614501953125 0 73.74437713623047 16.50726318359375 73.74437713623047 36.86999893188477 C 73.74437713623047 57.23274993896484 57.23614501953125 73.73999786376953 36.8721923828125 73.73999786376953 C 16.50824356079102 73.73999786376953 -7.62939453125e-06 57.23274993896484 -7.62939453125e-06 36.86999893188477 C -7.62939453125e-06 16.50726318359375 16.50824356079102 0 36.8721923828125 0 Z" stroke="none" fill="#7bb5f2"/>
    </g>
    <g id="business_15123237" transform="translate(14.573 15.926)">
      <path id="Trazado_887354" data-name="Trazado 887354" d="M16,26.947V6.827a1.988,1.988,0,0,1,.2-.877,2.029,2.029,0,0,1,.424-.622l3.706-3.706A2.029,2.029,0,0,1,20.95,1.2a1.988,1.988,0,0,1,.877-.2H41.459a1.419,1.419,0,0,1,1.414,1.414V27.506L35.8,35.653H16Z" transform="translate(-4.685 -0.293)" fill="#dadee4"/>
      <circle id="Elipse_11982" data-name="Elipse 11982" cx="4.243" cy="4.243" r="4.243" transform="translate(26.166 16.973)" fill="#4896e9"/>
      <path id="Trazado_887355" data-name="Trazado 887355" d="M21.032,1.28V4.618a1.419,1.419,0,0,1-1.414,1.414H16.28A2.029,2.029,0,0,1,16.7,5.41L20.41,1.7A2.029,2.029,0,0,1,21.032,1.28Z" transform="translate(-4.767 -0.375)" fill="#bec2cc"/>
      <path id="Trazado_887356" data-name="Trazado 887356" d="M47.243,28.243H43V24A4.243,4.243,0,0,1,47.243,28.243Z" transform="translate(-12.59 -7.027)" fill="#ffd05e"/>
      <path id="Trazado_887357" data-name="Trazado 887357" d="M44.36,38.665a1.542,1.542,0,0,1-.58,1.2L28.7,51.96a2.829,2.829,0,0,1-2.553.474l-14.392-4.6a2.11,2.11,0,0,0-1.337.035L9,48.311v-9.9l1.414.6,3.826-1.655a6.342,6.342,0,0,1,3.147-.29l13.748,2.348h.014l1.209.205a1.526,1.526,0,0,1-.24,3.034H22.331L26.588,45.3a1.422,1.422,0,0,0,1.386.007l12.5-7.065,1.612-.912a1.532,1.532,0,0,1,2.079.594A1.548,1.548,0,0,1,44.36,38.665Z" transform="translate(-2.635 -10.829)" fill="#f1c9a8"/>
      <rect id="Rectángulo_404663" data-name="Rectángulo 404663" width="7.072" height="12.73" rx="2" transform="translate(0.707 26.166)" fill="#f9bc57"/>
      <g id="Grupo_1107280" data-name="Grupo 1107280" transform="translate(0 0)">
        <path id="Trazado_887358" data-name="Trazado 887358" d="M2.122,39.6H6.365a2.122,2.122,0,0,0,2.108-1.985,1.344,1.344,0,0,1,.424.056l14.4,4.608a3.554,3.554,0,0,0,3.2-.6l15.083-12.09a2.259,2.259,0,0,0,.849-1.757,2.285,2.285,0,0,0-.283-1.088,2.238,2.238,0,0,0-3.041-.864l-7.4,4.182a2.227,2.227,0,0,0-1.864-1.973l-1.209-.205-.051-.006-13.72-2.343a7.072,7.072,0,0,0-2.839.133V6.535a1.354,1.354,0,0,1,.019-.17h2.81a2.122,2.122,0,0,0,2.122-2.122V1.433a1.339,1.339,0,0,1,.17-.018H36.774a.707.707,0,0,1,.707.707V23.338a.707.707,0,1,0,1.414,0V2.122A2.122,2.122,0,0,0,36.774,0H17.143A2.648,2.648,0,0,0,16,.252l-.011,0h0a2.714,2.714,0,0,0-.839.572L11.438,4.534a2.664,2.664,0,0,0-.559.813.055.055,0,0,1-.008.022c0,.007-.009.026-.014.039a2.687,2.687,0,0,0-.248,1.127V26.187l-2.173.938a2.122,2.122,0,0,0-2.07-1.666H2.122A2.122,2.122,0,0,0,0,27.581v9.9A2.122,2.122,0,0,0,2.122,39.6Zm12.512-12.67,13.748,2.348c.015,0,.034,0,.052.007l1.176.2a.829.829,0,0,1,.694.808.809.809,0,0,1-.233.576.839.839,0,0,1-.588.245H16.867a.707.707,0,0,0,0,1.414h2.627l4.116,2.556a2.122,2.122,0,0,0,2.078,0L39.8,27.116a.822.822,0,0,1,1.115.315.854.854,0,0,1,.1.4.832.832,0,0,1-.315.65L25.626,40.572a2.136,2.136,0,0,1-1.9.359l-14.4-4.605a2.747,2.747,0,0,0-.82-.124H8.486v-7.56l3.087-1.334.034-.015.237-.1a5.647,5.647,0,0,1,2.789-.257Zm12.71,5.6L25,33.858a.707.707,0,0,1-.67.011l-2.152-1.337ZM15.558,2.414V4.243a.707.707,0,0,1-.707.707H13.022ZM1.414,27.581a.707.707,0,0,1,.707-.707H6.365a.707.707,0,0,1,.707.707v.554c0,.016-.007.031-.007.047l.007,8.854v.445a.707.707,0,0,1-.707.707H2.122a.707.707,0,0,1-.707-.707Z" transform="translate(0 0)" fill="#12263f"/>
        <path id="Trazado_887359" data-name="Trazado 887359" d="M40.95,23a4.95,4.95,0,1,0,4.95,4.95A4.95,4.95,0,0,0,40.95,23Zm3.465,4.243H41.658V24.485A3.547,3.547,0,0,1,44.416,27.243ZM40.95,31.486a3.536,3.536,0,0,1-.707-7V27.95a.707.707,0,0,0,.707.707h3.465A3.542,3.542,0,0,1,40.95,31.486Z" transform="translate(-10.541 -6.734)" fill="#12263f"/>
        <path id="Trazado_887360" data-name="Trazado 887360" d="M4.707,41.414H6.122a.707.707,0,0,0,0-1.414H4.707a.707.707,0,0,0,0,1.414Z" transform="translate(-1.171 -11.712)" fill="#373737"/>
        <path id="Trazado_887361" data-name="Trazado 887361" d="M4.707,51.414H6.122a.707.707,0,0,0,0-1.414H4.707a.707.707,0,1,0,0,1.414Z" transform="translate(-1.171 -14.64)" fill="#373737"/>
        <path id="Trazado_887362" data-name="Trazado 887362" d="M27.486,19.365h-.707V17.243a.707.707,0,0,0-1.414,0v2.122H23.95V13.707a.707.707,0,1,0-1.414,0v5.658H21.122V17.243a.707.707,0,0,0-1.414,0v2.122a.707.707,0,0,0,0,1.414h7.779a.707.707,0,0,0,0-1.414Z" transform="translate(-5.563 -3.806)" fill="#12263f"/>
        <path id="Trazado_887363" data-name="Trazado 887363" d="M27.707,6.414H41.851a.707.707,0,0,0,0-1.414H27.707a.707.707,0,1,0,0,1.414Z" transform="translate(-7.906 -1.464)" fill="#12263f"/>
        <path id="Trazado_887364" data-name="Trazado 887364" d="M34.072,9.707A.707.707,0,0,0,33.365,9H27.707a.707.707,0,0,0,0,1.414h5.658A.707.707,0,0,0,34.072,9.707Z" transform="translate(-7.906 -2.635)" fill="#12263f"/>
        <path id="Trazado_887365" data-name="Trazado 887365" d="M45.194,14H36.707a.707.707,0,1,0,0,1.414h8.486a.707.707,0,0,0,0-1.414Z" transform="translate(-10.541 -4.099)" fill="#12263f"/>
        <path id="Trazado_887366" data-name="Trazado 887366" d="M45.194,18H36.707a.707.707,0,1,0,0,1.414h8.486a.707.707,0,0,0,0-1.414Z" transform="translate(-10.541 -5.27)" fill="#12263f"/>
        <path id="Trazado_887367" data-name="Trazado 887367" d="M27.486,27H19.707a.707.707,0,1,0,0,1.414h7.779a.707.707,0,0,0,0-1.414Z" transform="translate(-5.563 -7.906)" fill="#12263f"/>
        <path id="Trazado_887368" data-name="Trazado 887368" d="M27.486,31H19.707a.707.707,0,0,0,0,1.414h7.779a.707.707,0,0,0,0-1.414Z" transform="translate(-5.563 -9.077)" fill="#12263f"/>
      </g>
    </g>
  </g>
</svg>
