<svg xmlns="http://www.w3.org/2000/svg" width="73.744" height="73.74" viewBox="0 0 73.744 73.74">
  <g id="Grupo_1107186" data-name="Grupo 1107186" transform="translate(0 0)">
    <g id="cinta-adhesiva-azul-aislado-sobre-fondo-blanco_457211-2103" transform="translate(0 0)" fill="#fff">
      <path d="M 36.8721923828125 72.23999786376953 C 32.0963020324707 72.23999786376953 27.46406936645508 71.30502319335938 23.10416984558105 69.46105194091797 C 18.89225959777832 67.67966461181641 15.10924816131592 65.12914276123047 11.86024761199951 61.88033294677734 C 8.611248016357422 58.63153076171875 6.060581207275391 54.8487663269043 4.279092311859131 50.63711166381836 C 2.435025691986084 46.27750015258789 1.500003457069397 41.64556503295898 1.500003457069397 36.86999893188477 C 1.500003457069397 32.09443283081055 2.435025691986084 27.46250915527344 4.279092311859131 23.1028881072998 C 6.060581207275391 18.89123153686523 8.611248016357422 15.10846519470215 11.86024761199951 11.8596658706665 C 15.10924816131592 8.610854148864746 18.89225959777832 6.060332298278809 23.10416984558105 4.278943538665771 C 27.46406936645508 2.434976816177368 32.0963020324707 1.499998927116394 36.8721923828125 1.499998927116394 C 41.6480827331543 1.499998927116394 46.28031539916992 2.434976816177368 50.64021301269531 4.278943538665771 C 54.85213851928711 6.060332298278809 58.63513565063477 8.610854148864746 61.88413619995117 11.8596658706665 C 65.13314056396484 15.10846519470215 67.68379974365234 18.89123153686523 69.46529388427734 23.1028881072998 C 71.30935668945312 27.46250915527344 72.244384765625 32.09443283081055 72.244384765625 36.86999893188477 C 72.244384765625 41.64556503295898 71.30935668945312 46.27750015258789 69.46529388427734 50.63711166381836 C 67.68379974365234 54.8487663269043 65.13314056396484 58.63153076171875 61.88413619995117 61.88033294677734 C 58.63513565063477 65.12914276123047 54.85213851928711 67.67966461181641 50.64021301269531 69.46105194091797 C 46.28031539916992 71.30502319335938 41.6480827331543 72.23999786376953 36.8721923828125 72.23999786376953 Z" stroke="none"/>
      <path d="M 36.8721923828125 3 C 32.29813003540039 3 27.86248016357422 3.895111083984375 23.68846893310547 5.66046142578125 C 19.65534210205078 7.366233825683594 16.0326042175293 9.808811187744141 12.92086791992188 12.92036056518555 C 9.809154510498047 16.03188705444336 7.366439819335938 19.65439987182617 5.66058349609375 23.68724822998047 C 3.8951416015625 27.8609619140625 2.999992370605469 32.29627227783203 2.999992370605469 36.86999893188477 C 2.999992370605469 41.4437255859375 3.8951416015625 45.87903594970703 5.66058349609375 50.05276107788086 C 7.366439819335938 54.08560943603516 9.809154510498047 57.70811080932617 12.92086791992188 60.81964874267578 C 16.0325927734375 63.93118667602539 19.65534210205078 66.37377166748047 23.68846893310547 68.07953643798828 C 27.86248016357422 69.84488677978516 32.29813003540039 70.73999786376953 36.8721923828125 70.73999786376953 C 41.44625473022461 70.73999786376953 45.88190460205078 69.84488677978516 50.05591583251953 68.07953643798828 C 54.08904266357422 66.37377166748047 57.7117805480957 63.93118667602539 60.82350540161133 60.81964874267578 C 63.93523025512695 57.70811080932617 66.37794494628906 54.08560943603516 68.08379364013672 50.05276107788086 C 69.84922790527344 45.87905120849609 70.74437713623047 41.4437255859375 70.74437713623047 36.86999893188477 C 70.74437713623047 32.29627227783203 69.84922790527344 27.8609619140625 68.08379364013672 23.68724822998047 C 66.37794494628906 19.65439987182617 63.93523025512695 16.03188705444336 60.82350540161133 12.92036056518555 C 57.7117805480957 9.808811187744141 54.08904266357422 7.366233825683594 50.05591583251953 5.66046142578125 C 45.88189315795898 3.895111083984375 41.44625473022461 3 36.8721923828125 3 M 36.8721923828125 0 C 57.23614501953125 0 73.74437713623047 16.50726318359375 73.74437713623047 36.86999893188477 C 73.74437713623047 57.23274993896484 57.23614501953125 73.73999786376953 36.8721923828125 73.73999786376953 C 16.50824356079102 73.73999786376953 -7.62939453125e-06 57.23274993896484 -7.62939453125e-06 36.86999893188477 C -7.62939453125e-06 16.50726318359375 16.50824356079102 0 36.8721923828125 0 Z" stroke="none" fill="#f6de44"/>
    </g>
    <g id="validation_10733324" transform="translate(-29.84 14.404)">
      <g id="Grupo_1107281" data-name="Grupo 1107281" transform="translate(62.747 23.495)">
        <path id="Trazado_887369" data-name="Trazado 887369" d="M221.1,287.405a5.646,5.646,0,0,1,5.529-2.29,2.633,2.633,0,0,0,2.867-3.6l-5.707-13.779-12.972,5.373,5.707,13.779A2.633,2.633,0,0,0,221.1,287.405Z" transform="translate(-210.813 -267.732)" fill="#80dbff"/>
      </g>
      <g id="Grupo_1107282" data-name="Grupo 1107282" transform="translate(62.747 26.182)">
        <path id="Trazado_887370" data-name="Trazado 887370" d="M222.7,311.4,217.3,298.347l-6.486,2.687,5.707,13.779a2.633,2.633,0,0,0,4.576.521,5.645,5.645,0,0,1,3.863-2.319A2.609,2.609,0,0,1,222.7,311.4Z" transform="translate(-210.813 -298.347)" fill="#19cffc"/>
      </g>
      <g id="Grupo_1107283" data-name="Grupo 1107283" transform="translate(51.794 23.495)">
        <path id="Trazado_887371" data-name="Trazado 887371" d="M94.6,287.405a5.646,5.646,0,0,0-5.529-2.29,2.633,2.633,0,0,1-2.867-3.6l5.707-13.779,12.972,5.373-5.707,13.779A2.633,2.633,0,0,1,94.6,287.405Z" transform="translate(-86.003 -267.732)" fill="#b5efff"/>
      </g>
      <g id="Grupo_1107284" data-name="Grupo 1107284" transform="translate(51.794 23.495)">
        <path id="Trazado_887372" data-name="Trazado 887372" d="M93,283.468,98.4,270.419l-6.486-2.687-5.708,13.779a2.633,2.633,0,0,0,2.867,3.6,5.645,5.645,0,0,1,4.371,1.091A2.609,2.609,0,0,1,93,283.468Z" transform="translate(-86.004 -267.732)" fill="#80dbff"/>
      </g>
      <g id="Grupo_1107285" data-name="Grupo 1107285" transform="translate(49.161 0.658)">
        <path id="Trazado_887373" data-name="Trazado 887373" d="M91.106,25.051a3.883,3.883,0,0,0-1.022-2.631,3.8,3.8,0,0,1-.9-3.364A3.9,3.9,0,0,0,86.56,14.51,3.8,3.8,0,0,1,84.1,12.047,3.9,3.9,0,0,0,79.55,9.419a3.8,3.8,0,0,1-3.364-.9,3.9,3.9,0,0,0-5.263,0,3.8,3.8,0,0,1-3.364.9,3.9,3.9,0,0,0-4.546,2.628,3.8,3.8,0,0,1-2.463,2.463,3.9,3.9,0,0,0-2.628,4.546,3.8,3.8,0,0,1-.9,3.364,3.9,3.9,0,0,0,0,5.263,3.8,3.8,0,0,1,.9,3.364,3.9,3.9,0,0,0,2.628,4.546,3.8,3.8,0,0,1,2.463,2.463,3.9,3.9,0,0,0,4.546,2.628,3.8,3.8,0,0,1,3.364.9,3.9,3.9,0,0,0,5.263,0,3.8,3.8,0,0,1,3.364-.9A3.9,3.9,0,0,0,84.1,38.055a3.8,3.8,0,0,1,2.463-2.463,3.9,3.9,0,0,0,2.628-4.546,3.8,3.8,0,0,1,.9-3.364,3.883,3.883,0,0,0,1.022-2.631Z" transform="translate(-56.004 -7.5)" fill="#a5e887"/>
      </g>
      <g id="Grupo_1107286" data-name="Grupo 1107286" transform="translate(49.161 1.684)">
        <path id="Trazado_887374" data-name="Trazado 887374" d="M73.555,45.468v-19.5a3.9,3.9,0,0,1-2.636-6.774,3.8,3.8,0,0,1-3.359.893,3.9,3.9,0,0,0-4.546,2.628,3.8,3.8,0,0,1-2.463,2.463,3.9,3.9,0,0,0-2.628,4.546,3.8,3.8,0,0,1-.9,3.364,3.9,3.9,0,0,0,0,5.263,3.8,3.8,0,0,1,.9,3.364,3.9,3.9,0,0,0,2.628,4.546,3.8,3.8,0,0,1,2.463,2.463,3.9,3.9,0,0,0,4.546,2.628,3.8,3.8,0,0,1,3.359.893,3.9,3.9,0,0,1,2.636-6.774Z" transform="translate(-56.004 -19.192)" fill="#9adb86"/>
      </g>
      <g id="Grupo_1107287" data-name="Grupo 1107287" transform="translate(55.012 6.509)">
        <circle id="Elipse_11983" data-name="Elipse 11983" cx="11.701" cy="11.701" r="11.701" fill="#9adb86"/>
      </g>
      <g id="Grupo_1107288" data-name="Grupo 1107288" transform="translate(55.012 6.509)">
        <path id="Trazado_887375" data-name="Trazado 887375" d="M131.446,85.868a11.719,11.719,0,0,1,7.313-10.846,11.7,11.7,0,1,0,0,21.692A11.719,11.719,0,0,1,131.446,85.868Z" transform="translate(-122.67 -74.167)" fill="#86c983"/>
      </g>
      <g id="Grupo_1107290" data-name="Grupo 1107290" transform="translate(59.65 12.526)">
        <g id="Grupo_1107289" data-name="Grupo 1107289" transform="translate(0)">
          <path id="Trazado_887376" data-name="Trazado 887376" d="M181.213,154.107h0a2.925,2.925,0,0,1-2.068-.857l-2.758-2.758a2.925,2.925,0,1,1,4.137-4.137l.689.689,3.447-3.447a2.925,2.925,0,0,1,4.137,4.137l-5.516,5.516A2.926,2.926,0,0,1,181.213,154.107Z" transform="translate(-175.53 -142.741)" fill="#f2f6fc"/>
        </g>
      </g>
      <g id="Grupo_1107291" data-name="Grupo 1107291" transform="translate(59.65 15.284)">
        <path id="Trazado_887377" data-name="Trazado 887377" d="M185.35,179.849a2.925,2.925,0,0,1-4.137-4.137h0l-.689-.689a2.925,2.925,0,1,0-4.137,4.137l2.758,2.758a2.925,2.925,0,0,0,4.137,0Z" transform="translate(-175.53 -174.166)" fill="#dce1eb"/>
      </g>
      <g id="Grupo_1107292" data-name="Grupo 1107292" transform="translate(48.503 0)">
        <path id="Trazado_887378" data-name="Trazado 887378" d="M84.922,18.209a4.544,4.544,0,0,0-1.195-3.076,3.128,3.128,0,0,1-.739-2.779A4.556,4.556,0,0,0,79.916,7.04a3.132,3.132,0,0,1-2.035-2.035,4.556,4.556,0,0,0-5.314-3.072,3.128,3.128,0,0,1-2.779-.739,4.556,4.556,0,0,0-6.152,0,3.128,3.128,0,0,1-2.779.739,4.556,4.556,0,0,0-5.314,3.072,3.132,3.132,0,0,1-2.035,2.035,4.556,4.556,0,0,0-3.072,5.314,3.128,3.128,0,0,1-.739,2.779,4.556,4.556,0,0,0,0,6.152,3.128,3.128,0,0,1,.739,2.779,4.556,4.556,0,0,0,3.072,5.314,3.12,3.12,0,0,1,.868.435l-2.986,7.209a3.291,3.291,0,0,0,3.584,4.5,5.019,5.019,0,0,1,4.885,2.023,3.243,3.243,0,0,0,2.664,1.381,3.42,3.42,0,0,0,.388-.022,3.25,3.25,0,0,0,2.668-2.01l1.134-2.737L67.846,42.9a3.25,3.25,0,0,0,2.668,2.01,3.421,3.421,0,0,0,.388.022,3.243,3.243,0,0,0,2.664-1.381,5.018,5.018,0,0,1,4.885-2.023,3.291,3.291,0,0,0,3.584-4.5.658.658,0,1,0-1.216.5,1.975,1.975,0,0,1-2.15,2.7,6.343,6.343,0,0,0-6.174,2.557,1.974,1.974,0,0,1-3.432-.391l-1.637-3.953L68.4,36.1a4.549,4.549,0,0,0,1.392-.872,3.128,3.128,0,0,1,2.779-.739,4.556,4.556,0,0,0,5.314-3.072,3.116,3.116,0,0,1,.2-.488l1.727,4.168a.658.658,0,1,0,1.216-.5l-1.979-4.777a3.123,3.123,0,0,1,.868-.435,4.556,4.556,0,0,0,3.072-5.314,3.128,3.128,0,0,1,.739-2.779A4.545,4.545,0,0,0,84.922,18.209ZM64.363,42.4a1.975,1.975,0,0,1-3.432.391,6.343,6.343,0,0,0-6.174-2.557,1.975,1.975,0,0,1-2.15-2.7l2.734-6.6a3.121,3.121,0,0,1,.2.488,4.556,4.556,0,0,0,5.314,3.072,3.128,3.128,0,0,1,2.779.739,4.544,4.544,0,0,0,3.076,1.195l.127,0Zm18.393-22A4.446,4.446,0,0,0,81.7,24.345a3.24,3.24,0,0,1-2.184,3.778,4.45,4.45,0,0,0-2.891,2.891A3.24,3.24,0,0,1,72.848,33.2,4.446,4.446,0,0,0,68.9,34.253a3.24,3.24,0,0,1-4.374,0A4.454,4.454,0,0,0,60.576,33.2,3.24,3.24,0,0,1,56.8,31.015a4.45,4.45,0,0,0-2.891-2.891,3.24,3.24,0,0,1-2.184-3.778A4.446,4.446,0,0,0,50.669,20.4a3.24,3.24,0,0,1,0-4.374,4.446,4.446,0,0,0,1.054-3.949A3.24,3.24,0,0,1,53.907,8.3,4.45,4.45,0,0,0,56.8,5.4,3.24,3.24,0,0,1,60.576,3.22a4.447,4.447,0,0,0,3.949-1.054,3.24,3.24,0,0,1,4.374,0A4.446,4.446,0,0,0,72.848,3.22,3.24,3.24,0,0,1,76.626,5.4,4.45,4.45,0,0,0,79.518,8.3,3.24,3.24,0,0,1,81.7,12.074a4.446,4.446,0,0,0,1.054,3.949,3.24,3.24,0,0,1,0,4.374Z" transform="translate(-48.503 0)"/>
        <path id="Trazado_887379" data-name="Trazado 887379" d="M127.529,66.667a12.386,12.386,0,0,0-7.7,2.7.658.658,0,0,0,.821,1.029,10.915,10.915,0,0,1,6.876-2.408,11.043,11.043,0,1,1-11.043,11.043,10.915,10.915,0,0,1,2.408-6.876.658.658,0,0,0-1.029-.821,12.355,12.355,0,1,0,9.663-4.661Z" transform="translate(-109.32 -60.817)"/>
        <path id="Trazado_887380" data-name="Trazado 887380" d="M174.37,147.922a3.56,3.56,0,0,0,2.534-1.05l5.516-5.516a3.583,3.583,0,0,0-5.068-5.068l-2.982,2.982-.224-.224a3.583,3.583,0,1,0-5.068,5.068l2.758,2.758A3.56,3.56,0,0,0,174.37,147.922Zm-5.025-6.341a2.267,2.267,0,0,1,3.87-1.6l.689.689a.658.658,0,0,0,.931,0l3.447-3.447a2.267,2.267,0,0,1,3.206,3.206l-5.516,5.516a2.267,2.267,0,0,1-3.206,0l-2.758-2.758A2.252,2.252,0,0,1,169.345,141.58Z" transform="translate(-157.54 -123.371)"/>
      </g>
    </g>
  </g>
</svg>
