<svg xmlns="http://www.w3.org/2000/svg" xmlns:xlink="http://www.w3.org/1999/xlink" width="418.404" height="297.014" viewBox="0 0 418.404 297.014">
  <defs>
    <clipPath id="clip-path">
      <rect id="Rectángulo_404572" data-name="Rectángulo 404572" width="373" height="297" rx="19" transform="translate(-2182 -8855)" fill="#feece6" opacity="0.53"/>
    </clipPath>
    <clipPath id="clip-path-2">
      <path id="Trazado_885380" data-name="Trazado 885380" d="M254.467,287.948s-18.856-5.971-23.571-3.142c0,0-2.937-5.172-5.765-.772,0,0-21.891-6.142-29.119-11.17,0,0-11,10.371-11,29.228,0,0,9.8,10.2,28.345,13.339,0,0-8.546,48.888-4.46,92.258,0,0,15.4,12.571,36.142,7.542s34.256,2.514,46.827-4.4c0,0-1.886-55.941-8.8-80.455l7.228,9.114s16.028-1.571,23.885-11.314C314.18,328.176,291.238,280.405,254.467,287.948Z" transform="translate(-185.012 -272.863)" fill="none"/>
    </clipPath>
  </defs>
  <g id="Grupo_1107110" data-name="Grupo 1107110" transform="translate(1720 8433.014)">
    <g id="Enmascarar_grupo_1099790" data-name="Enmascarar grupo 1099790" transform="translate(462 422)" clip-path="url(#clip-path)">
      <g id="Grupo_1107109" data-name="Grupo 1107109" transform="translate(-2204 -8878)">
        <g id="BACKGROUND">
          <path id="Trazado_885430" data-name="Trazado 885430" d="M0,0H417V417H0Z" fill="#e5f5fe"/>
          <path id="Trazado_885345" data-name="Trazado 885345" d="M328.166,226.639c-1.115-16.608-8.957-32.4-20.379-44.508s-26.249-20.687-41.961-26.183c-31.539-11.033-67.807-9.522-97.117,6.523s-50.565,47.078-52.353,80.444c-1.123,20.958,5.095,41.775,14.44,60.568,2.021,4.063,4.235,8.211,4.508,12.741.318,5.276-2.034,10.31-2.934,15.517-1.975,11.428,3.364,23.26,11.722,31.3s19.372,12.766,30.516,15.978c13.278,3.829,27.038,5.738,40.8,6.967,27.063,2.417,55.635,1.94,79.607-10.851a85.687,85.687,0,0,0,43.835-63.069,35.015,35.015,0,0,0-.228-13.073c-2.6-10.495-12.873-19.939-13.244-31.239C324.943,254.307,329.093,240.436,328.166,226.639Z" transform="translate(-19.296 -24.709)" fill="#d5e6fd" opacity="0.5" style="mix-blend-mode: multiply;isolation: isolate"/>
        </g>
        <g id="OBJECTS" transform="translate(61.196 52.863)">
          <g id="Grupo_1107078" data-name="Grupo 1107078" transform="translate(136.034 157.444)">
            <path id="Trazado_885346" data-name="Trazado 885346" d="M236.5,252.241l0-.067A.108.108,0,0,0,236.5,252.241Z" transform="translate(-236.494 -252.174)" fill="#fbac98"/>
          </g>
          <g id="Grupo_1107083" data-name="Grupo 1107083">
            <g id="Grupo_1107079" data-name="Grupo 1107079">
              <rect id="Rectángulo_404574" data-name="Rectángulo 404574" width="294.596" height="59.072" rx="9.134" fill="#3c8cf8"/>
              <path id="Trazado_885347" data-name="Trazado 885347" d="M81,124.617h279.36A7.64,7.64,0,0,0,367.975,117V76.389c-42.317,16.494-142.16,43.187-294.6,10.713V117A7.64,7.64,0,0,0,81,124.617Z" transform="translate(-73.379 -65.546)" fill="#3c8cf8" opacity="0.2" style="mix-blend-mode: multiply;isolation: isolate"/>
              <rect id="Rectángulo_404575" data-name="Rectángulo 404575" width="294.596" height="59.072" rx="9.134" fill="none" stroke="#2456a2" stroke-miterlimit="10" stroke-width="1"/>
            </g>
            <g id="Grupo_1107080" data-name="Grupo 1107080" transform="translate(126.654 9.146)">
              <path id="Trazado_885348" data-name="Trazado 885348" d="M246.729,75.632l4.226,8.564a2.3,2.3,0,0,0,1.727,1.254l9.451,1.373a2.294,2.294,0,0,1,1.271,3.912L256.565,97.4a2.294,2.294,0,0,0-.66,2.03l1.615,9.412a2.293,2.293,0,0,1-3.328,2.418l-8.453-4.443a2.289,2.289,0,0,0-2.134,0l-8.452,4.443a2.293,2.293,0,0,1-3.328-2.418l1.615-9.412a2.294,2.294,0,0,0-.66-2.03l-6.839-6.665a2.294,2.294,0,0,1,1.271-3.912l9.451-1.373A2.292,2.292,0,0,0,238.39,84.2l4.227-8.564A2.293,2.293,0,0,1,246.729,75.632Z" transform="translate(-225.247 -74.354)" fill="#fbce67"/>
              <path id="Trazado_885349" data-name="Trazado 885349" d="M253.985,86.67a2.292,2.292,0,0,1-1.726-1.254L250.423,81.7l-16.115,21.487-1.18,6.877a2.293,2.293,0,0,0,3.328,2.418l1-.528,18-25.068Z" transform="translate(-226.549 -75.573)" fill="#fbce67" opacity="0.4" style="mix-blend-mode: multiply;isolation: isolate"/>
              <path id="Trazado_885350" data-name="Trazado 885350" d="M262.38,88.7l-14.6,20.338a2.283,2.283,0,0,1,1.705.163l1.057.555,14.268-20.7Z" transform="translate(-228.987 -76.735)" fill="#fbce67" opacity="0.4" style="mix-blend-mode: multiply;isolation: isolate"/>
            </g>
            <g id="Grupo_1107081" data-name="Grupo 1107081" transform="translate(180.932 9.146)">
              <path id="Trazado_885351" data-name="Trazado 885351" d="M311.812,75.632l4.227,8.564a2.293,2.293,0,0,0,1.726,1.254l9.451,1.373a2.294,2.294,0,0,1,1.271,3.912L321.648,97.4a2.294,2.294,0,0,0-.66,2.03l1.615,9.412a2.293,2.293,0,0,1-3.328,2.418l-8.452-4.443a2.289,2.289,0,0,0-2.134,0l-8.453,4.443a2.293,2.293,0,0,1-3.328-2.418l1.615-9.412a2.294,2.294,0,0,0-.66-2.03l-6.839-6.665a2.294,2.294,0,0,1,1.271-3.912l9.451-1.373a2.3,2.3,0,0,0,1.727-1.254l4.226-8.564A2.293,2.293,0,0,1,311.812,75.632Z" transform="translate(-290.33 -74.354)" fill="#fbce67"/>
              <path id="Trazado_885352" data-name="Trazado 885352" d="M319.068,86.67a2.293,2.293,0,0,1-1.726-1.254L315.507,81.7l-16.116,21.487-1.18,6.877a2.293,2.293,0,0,0,3.328,2.418l1-.528,18-25.068Z" transform="translate(-291.632 -75.573)" fill="#fbce67" opacity="0.4" style="mix-blend-mode: multiply;isolation: isolate"/>
              <path id="Trazado_885353" data-name="Trazado 885353" d="M327.463,88.7l-14.6,20.338a2.283,2.283,0,0,1,1.706.163l1.057.555,14.268-20.7Z" transform="translate(-294.07 -76.735)" fill="#fbce67" opacity="0.4" style="mix-blend-mode: multiply;isolation: isolate"/>
            </g>
            <g id="Grupo_1107082" data-name="Grupo 1107082" transform="translate(235.21 9.146)">
              <path id="Trazado_885354" data-name="Trazado 885354" d="M376.9,75.632l4.227,8.564a2.3,2.3,0,0,0,1.726,1.254l9.451,1.373a2.294,2.294,0,0,1,1.271,3.912L386.731,97.4a2.293,2.293,0,0,0-.659,2.03l1.614,9.412a2.293,2.293,0,0,1-3.327,2.418l-8.453-4.443a2.289,2.289,0,0,0-2.134,0l-8.453,4.443a2.293,2.293,0,0,1-3.327-2.418l1.614-9.412a2.293,2.293,0,0,0-.659-2.03l-6.839-6.665a2.294,2.294,0,0,1,1.271-3.912l9.451-1.373a2.3,2.3,0,0,0,1.726-1.254l4.227-8.564A2.293,2.293,0,0,1,376.9,75.632Z" transform="translate(-355.413 -74.354)" fill="#fbce67"/>
              <path id="Trazado_885355" data-name="Trazado 885355" d="M384.151,86.67a2.3,2.3,0,0,1-1.726-1.254L380.59,81.7l-16.116,21.487-1.179,6.877a2.293,2.293,0,0,0,3.327,2.418l1-.528,18-25.068Z" transform="translate(-356.716 -75.573)" fill="#fbce67" opacity="0.4" style="mix-blend-mode: multiply;isolation: isolate"/>
              <path id="Trazado_885356" data-name="Trazado 885356" d="M392.546,88.7l-14.6,20.338a2.282,2.282,0,0,1,1.705.163l1.057.555,14.268-20.7Z" transform="translate(-359.154 -76.735)" fill="#fbce67" opacity="0.4" style="mix-blend-mode: multiply;isolation: isolate"/>
            </g>
            <path id="Trazado_885357" data-name="Trazado 885357" d="M176.439,75.632l4.227,8.564a2.292,2.292,0,0,0,1.726,1.254l9.451,1.373a2.294,2.294,0,0,1,1.271,3.912L186.275,97.4a2.294,2.294,0,0,0-.66,2.03l1.615,9.412a2.293,2.293,0,0,1-3.328,2.418l-8.452-4.443a2.291,2.291,0,0,0-2.135,0l-8.452,4.443a2.293,2.293,0,0,1-3.328-2.418l1.615-9.412a2.294,2.294,0,0,0-.66-2.03l-6.839-6.665a2.294,2.294,0,0,1,1.271-3.912l9.451-1.373A2.292,2.292,0,0,0,168.1,84.2l4.227-8.564A2.293,2.293,0,0,1,176.439,75.632Z" transform="translate(-86.923 -65.208)" fill="#afc0dd"/>
            <path id="Trazado_885358" data-name="Trazado 885358" d="M106.149,75.632l4.227,8.564a2.292,2.292,0,0,0,1.726,1.254l9.451,1.373a2.294,2.294,0,0,1,1.271,3.912L115.985,97.4a2.294,2.294,0,0,0-.66,2.03l1.615,9.412a2.293,2.293,0,0,1-3.328,2.418l-8.452-4.443a2.289,2.289,0,0,0-2.134,0l-8.453,4.443a2.293,2.293,0,0,1-3.328-2.418l1.615-9.412a2.294,2.294,0,0,0-.66-2.03l-6.839-6.665a2.294,2.294,0,0,1,1.271-3.912l9.451-1.373A2.3,2.3,0,0,0,97.81,84.2l4.226-8.564A2.293,2.293,0,0,1,106.149,75.632Z" transform="translate(-75.253 -65.208)" fill="#afc0dd"/>
          </g>
          <g id="Grupo_1107096" data-name="Grupo 1107096" transform="translate(54.287 71.345)">
            <g id="Grupo_1107084" data-name="Grupo 1107084" transform="translate(62.383 228.754)">
              <path id="Trazado_885359" data-name="Trazado 885359" d="M222.421,423.99s-9.146,39.254-9.146,62.12h37.349l3.429-27.058,3.811,28.2H294.07s3.049-32.394-6.479-64.026Z" transform="translate(-213.275 -423.228)" fill="#383838"/>
              <path id="Trazado_885360" data-name="Trazado 885360" d="M223.513,423.99s-1.715,7.363-3.659,17.566a30.229,30.229,0,0,0,8.562,1.94c13.523,1.514,27.168-1.071,40.771-.751,7.981.188,16.171,1.349,23.9-.287a153.193,153.193,0,0,0-4.4-19.231Z" transform="translate(-214.367 -423.228)" fill="#2b2b2b"/>
              <path id="Trazado_885361" data-name="Trazado 885361" d="M249.831,467.885a93.714,93.714,0,0,1,25.34-2.787" transform="translate(-219.344 -430.174)" fill="none" stroke="#161616" stroke-linecap="round" stroke-linejoin="round" stroke-width="1"/>
              <path id="Trazado_885362" data-name="Trazado 885362" d="M260.485,438.749c0,.391,1.3,16.826-.131,22.7l5.739-.522s1.043-13.826.913-21.783" transform="translate(-221.091 -425.805)" fill="none" stroke="#161616" stroke-linecap="round" stroke-linejoin="round" stroke-width="1"/>
              <path id="Trazado_885363" data-name="Trazado 885363" d="M233.159,442.213a45.781,45.781,0,0,1-12.62,10.645" transform="translate(-214.481 -426.38)" fill="none" stroke="#161616" stroke-linecap="round" stroke-linejoin="round" stroke-width="1"/>
              <path id="Trazado_885364" data-name="Trazado 885364" d="M295.308,440.518a21.555,21.555,0,0,0,8.5,8" transform="translate(-226.894 -426.099)" fill="none" stroke="#161616" stroke-linecap="round" stroke-linejoin="round" stroke-width="1"/>
              <path id="Trazado_885365" data-name="Trazado 885365" d="M265.672,465.807s3.783,18.783,3.783,27.652" transform="translate(-221.974 -430.297)" fill="none" stroke="#161616" stroke-linecap="round" stroke-linejoin="round" stroke-width="1"/>
            </g>
            <g id="Grupo_1107086" data-name="Grupo 1107086" transform="translate(0 0)">
              <path id="Trazado_885366" data-name="Trazado 885366" d="M220.716,280.613s-27.938-16.263-45.452-21.683l2.919-57.961L166.091,199.3S154.832,237.663,154,260.18s50.039,35.444,57.127,37.529Z" transform="translate(-141.049 -157.297)" fill="#fbac98"/>
              <path id="Trazado_885367" data-name="Trazado 885367" d="M193.069,293.35c-23.024-.639-33.913-14.929-38.847-25.581-.1,1.3-.179,2.563-.224,3.779-.736,19.886,38.851,32.29,53,36.354C210.242,300.383,208.551,293.781,193.069,293.35Z" transform="translate(-141.049 -168.664)" fill="#e89787"/>
              <g id="Grupo_1107085" data-name="Grupo 1107085">
                <path id="Trazado_885368" data-name="Trazado 885368" d="M176.905,152.065l-.78,12.2a2.935,2.935,0,0,0,1.115,2.494l9.61,7.561a2.936,2.936,0,0,1-1.088,5.152L173.916,182.5a2.937,2.937,0,0,0-2.028,1.831l-4.221,11.476a2.936,2.936,0,0,1-5.237.557l-6.542-10.33a2.935,2.935,0,0,0-2.368-1.363l-12.219-.468a2.936,2.936,0,0,1-2.148-4.808l7.8-9.414a2.934,2.934,0,0,0,.565-2.674l-3.331-11.765a2.936,2.936,0,0,1,3.909-3.529l11.365,4.513a2.934,2.934,0,0,0,2.717-.289l10.159-6.8A2.936,2.936,0,0,1,176.905,152.065Z" transform="translate(-138.473 -148.935)" fill="#fbce67"/>
                <path id="Trazado_885369" data-name="Trazado 885369" d="M177.24,168.76a2.935,2.935,0,0,1-1.115-2.494l.339-5.3-31.609,13.552-5.7,6.879a2.936,2.936,0,0,0,2.148,4.808l1.452.056,35.987-16.322Z" transform="translate(-138.473 -150.933)" fill="#fbce67" opacity="0.4" style="mix-blend-mode: multiply;isolation: isolate"/>
                <path id="Trazado_885370" data-name="Trazado 885370" d="M186.409,176.026l-29.2,13.241A2.927,2.927,0,0,1,159,190.536l.819,1.293,29.057-13.862Z" transform="translate(-141.584 -153.433)" fill="#fbce67" opacity="0.4" style="mix-blend-mode: multiply;isolation: isolate"/>
              </g>
              <path id="Trazado_885371" data-name="Trazado 885371" d="M169.174,184.969a4.226,4.226,0,0,0,4.766,3.7s-1.1,4.675-.412,6.807,6.394-6.945,6.394-6.945l1.582-3.575-6.327-1.307Z" transform="translate(-143.57 -154.699)" fill="#a7a9ac" style="mix-blend-mode: multiply;isolation: isolate"/>
              <path id="Trazado_885372" data-name="Trazado 885372" d="M186.524,192.109a11.652,11.652,0,0,0,.992-3.94q.39-3,.781-6a.626.626,0,0,0-.434-.841,43.241,43.241,0,0,0-10.3-3.551,7.18,7.18,0,0,0-3.329.063c-1.606.51-2.751,1.9-3.8,3.217a4.189,4.189,0,0,0-1.264,2.912c.417,3.453,6.235,2.386,8.285,1.675a10.526,10.526,0,0,0-3.931,6.019,6.283,6.283,0,0,0,.725,5.192,4.253,4.253,0,0,0,6.237.717C182.539,195.962,185.281,194.49,186.524,192.109Z" transform="translate(-143.567 -153.696)" fill="#fbac98"/>
            </g>
            <g id="Grupo_1107089" data-name="Grupo 1107089" transform="translate(38.812 103.353)">
              <path id="Trazado_885373" data-name="Trazado 885373" d="M254.467,287.948s-18.856-5.971-23.571-3.142c0,0-2.937-5.172-5.765-.772,0,0-21.891-6.142-29.119-11.17,0,0-11,10.371-11,29.228,0,0,9.8,10.2,28.345,13.339,0,0-8.546,48.888-4.46,92.258,0,0,15.4,12.571,36.142,7.542s34.256,2.514,46.827-4.4c0,0-1.886-55.941-8.8-80.455l7.228,9.114s16.028-1.571,23.885-11.314C314.18,328.176,291.238,280.405,254.467,287.948Z" transform="translate(-185.012 -272.863)" fill="#2456a2"/>
              <path id="Trazado_885374" data-name="Trazado 885374" d="M185.924,299.088c-.106-.057-.207-.088-.309-.132a46.41,46.41,0,0,0-.6,7.467s9.79,10.182,28.308,13.333l2.115-6.5C202.686,311.6,185.924,299.088,185.924,299.088Z" transform="translate(-185.012 -277.195)" fill="#1f4a87"/>
              <path id="Trazado_885375" data-name="Trazado 885375" d="M217.5,328.708s1.825-18.45,9.326-27.979" transform="translate(-190.406 -277.489)" fill="none" stroke="#103468" stroke-linecap="round" stroke-linejoin="round" stroke-width="1"/>
              <path id="Trazado_885376" data-name="Trazado 885376" d="M237.789,417.48a103.288,103.288,0,0,0,35.252-.55,33.886,33.886,0,0,1-19.831,7.144q13.995.859,28.029.463" transform="translate(-193.774 -296.781)" fill="none" stroke="#103468" stroke-linecap="round" stroke-linejoin="round" stroke-width="1"/>
              <g id="Grupo_1107088" data-name="Grupo 1107088">
                <g id="Grupo_1107087" data-name="Grupo 1107087" clip-path="url(#clip-path-2)">
                  <path id="Trazado_885377" data-name="Trazado 885377" d="M209.955,343.849l-.721-7.055c.494-.051,49.777-4.988,87.284.013l-.937,7.03C258.891,338.943,210.441,343.8,209.955,343.849Z" transform="translate(-189.033 -283.108)" fill="#103468"/>
                  <path id="Trazado_885378" data-name="Trazado 885378" d="M209.955,351.238l-.721-7.055c.494-.052,49.777-4.989,87.284.012l-.937,7.03C258.891,346.332,210.441,351.188,209.955,351.238Z" transform="translate(-189.033 -284.334)" fill="#fbce67"/>
                  <path id="Trazado_885379" data-name="Trazado 885379" d="M209.955,358.626l-.721-7.055c.494-.051,49.777-4.988,87.284.012l-.937,7.03C258.891,353.72,210.441,358.577,209.955,358.626Z" transform="translate(-189.033 -285.561)" fill="#ea4e4e"/>
                </g>
              </g>
            </g>
            <g id="Grupo_1107090" data-name="Grupo 1107090" transform="translate(89.754 95.901)">
              <path id="Trazado_885381" data-name="Trazado 885381" d="M246.983,292.55a8.48,8.48,0,0,0,4.04,4.365c3.191,1.671,6.927,1.846,10.526,1.986a10.406,10.406,0,0,0,4.448-.474A7.6,7.6,0,0,0,268.116,297a9.181,9.181,0,0,0,2.861-9.977c-1.4-4.978-2.56-10.027-3.941-15.012-1-3.629-1.31-5.935-5.163-7.105a11.937,11.937,0,0,0-6.749-.452c-3.87,1.181-5.319,5.195-6.233,8.763C247.518,278.577,244.641,286.921,246.983,292.55Z" transform="translate(-246.095 -263.962)" fill="#fbac98"/>
              <path id="Trazado_885382" data-name="Trazado 885382" d="M261.705,264.7a11.945,11.945,0,0,0-6.749-.453c-3.87,1.182-5.32,5.2-6.233,8.763-.726,2.833-1.292,5.724-1.8,8.628a25.9,25.9,0,0,0,22.686.429q-1.322-5.143-2.735-10.261C265.863,268.175,265.558,265.87,261.705,264.7Z" transform="translate(-246.231 -263.927)" fill="#e89787"/>
            </g>
            <g id="Grupo_1107093" data-name="Grupo 1107093" transform="translate(65.092 17.753)">
              <g id="Grupo_1107091" data-name="Grupo 1107091" transform="translate(63.172 40.783)">
                <path id="Trazado_885383" data-name="Trazado 885383" d="M304.284,221.689a7.219,7.219,0,0,1,1.233,2.51c.927,3.629-1.43,8.628-3.6,11.381a6.4,6.4,0,0,1-2.806,2.25c-3.147,1.073-4.641-1.8-5.791-4.1a9.037,9.037,0,0,1-.17-8.078c1.081-2.083,2.513-4.919,4.691-6.041C300.241,218.368,302.767,219.674,304.284,221.689Z" transform="translate(-292.271 -219.124)" fill="#fbac98"/>
                <path id="Trazado_885384" data-name="Trazado 885384" d="M303.62,225.895a2.565,2.565,0,0,0-.922-2.188.8.8,0,0,0-.565-.222.869.869,0,0,0-.452.254,7.555,7.555,0,0,0-2.112,3.726,22.535,22.535,0,0,0-.565,4.3,2.844,2.844,0,0,1,1.006-1.128,1.627,1.627,0,0,1,1.781.269,2.149,2.149,0,0,1,.66,1.73,2.654,2.654,0,0,1-3.058,2.331" transform="translate(-293.389 -219.848)" fill="none" stroke="#c66b59" stroke-miterlimit="10" stroke-width="1"/>
              </g>
              <g id="Grupo_1107092" data-name="Grupo 1107092" transform="translate(0 40.783)">
                <path id="Trazado_885385" data-name="Trazado 885385" d="M217.963,221.689a7.219,7.219,0,0,0-1.233,2.51c-.927,3.629,1.43,8.628,3.6,11.381a6.4,6.4,0,0,0,2.806,2.25c3.147,1.073,4.641-1.8,5.791-4.1a9.037,9.037,0,0,0,.17-8.078c-1.081-2.083-2.514-4.919-4.691-6.041C222.006,218.368,219.48,219.674,217.963,221.689Z" transform="translate(-216.523 -219.124)" fill="#fbac98"/>
                <path id="Trazado_885386" data-name="Trazado 885386" d="M220.384,225.895a2.565,2.565,0,0,1,.922-2.188.8.8,0,0,1,.565-.222.869.869,0,0,1,.452.254,7.555,7.555,0,0,1,2.112,3.726,22.471,22.471,0,0,1,.564,4.3,2.836,2.836,0,0,0-1-1.128,1.626,1.626,0,0,0-1.781.269,2.149,2.149,0,0,0-.661,1.73,2.654,2.654,0,0,0,3.058,2.331" transform="translate(-217.163 -219.848)" fill="none" stroke="#c66b59" stroke-miterlimit="10" stroke-width="1"/>
              </g>
              <path id="Trazado_885387" data-name="Trazado 885387" d="M228.756,217.9s-4.548,49.263,27.284,48.5,30.316-51.537,30.316-51.537,4.168-32.968-29.179-32.968C225.716,181.9,228.756,217.9,228.756,217.9Z" transform="translate(-218.517 -172.161)" fill="#fbac98"/>
              <path id="Trazado_885388" data-name="Trazado 885388" d="M232.63,208.043l6.78-13.3a2.962,2.962,0,0,1,.786-1.088,2.776,2.776,0,0,1,1.125-.419c4.82-.992,9.809-.518,14.7.031a79.107,79.107,0,0,1,15.411,2.854,13.538,13.538,0,0,1,6,3.354c1.808,1.967,2.508,4.68,3.146,7.275q.442,1.8.884,3.6c1.75-2.449,2.307-5.527,2.817-8.493a9.272,9.272,0,0,0-.016-4.758c-.75-2.037-2.79-3.261-4.716-4.265-10.009-5.217-21.015-8.9-32.3-9.106a24.821,24.821,0,0,0-9.783,1.437,5.92,5.92,0,0,0-2.455,1.62,7.272,7.272,0,0,0-1.212,3.143q-1.5,7.017-3.008,14.032-.375,1.754-.752,3.508c-.186.867-.731,2.11-.38,2.976C230.623,212.83,232.222,208.844,232.63,208.043Z" transform="translate(-218.685 -172.462)" fill="#ef9d8e" opacity="0.5"/>
              <path id="Trazado_885389" data-name="Trazado 885389" d="M255.292,222.166q-1.754,4.342-3.506,8.683a4.269,4.269,0,0,0-.414,1.593,1.45,1.45,0,0,0,.784,1.352c.861.357,2.018-.445,2.707.181a2.272,2.272,0,0,1,.478,1.027,3.358,3.358,0,0,0,5.439,1.428c.888-.8,1.56-2.173,2.755-2.1.479.029.913.309,1.39.349a1.851,1.851,0,0,0,1.706-1.087,4.093,4.093,0,0,0,.308-2.1c-.231-3.726-2.331-7.149-2.533-10.878" transform="translate(-222.309 -178.588)" fill="none" stroke="#c66b59" stroke-miterlimit="10" stroke-width="1"/>
              <circle id="Elipse_11961" data-name="Elipse 11961" cx="2.944" cy="2.944" r="2.944" transform="translate(45.825 36.897)" fill="#231f20"/>
              <circle id="Elipse_11962" data-name="Elipse 11962" cx="2.944" cy="2.944" r="2.944" transform="translate(24.887 36.045)" fill="#231f20"/>
              <path id="Trazado_885390" data-name="Trazado 885390" d="M281.038,204.893c1.911.991,3.8,2.508,4.159,4.631a14.938,14.938,0,0,1-2.31-1.189c-3.162-1.637-6.96-.944-10.518-1.118-2.077-.1-1.323-3.73-.754-4.917.848-1.771,1.63-1.781,1.678.349A26.672,26.672,0,0,1,281.038,204.893Z" transform="translate(-225.568 -175.333)" fill="#3c2415"/>
              <path id="Trazado_885391" data-name="Trazado 885391" d="M243.483,197.741c-1.911.991-3.8,2.508-4.158,4.63a14.966,14.966,0,0,0,2.309-1.188c3.163-1.637,6.961-.945,10.518-1.119,2.078-.1,1.323-3.729.754-4.916-.847-1.771-1.629-1.781-1.678.349A26.679,26.679,0,0,0,243.483,197.741Z" transform="translate(-220.309 -174.146)" fill="#3c2415"/>
              <path id="Trazado_885392" data-name="Trazado 885392" d="M246.1,249.428s13.513,7.06,26.416-2.679" transform="translate(-221.434 -182.927)" fill="none" stroke="#9b4335" stroke-linecap="round" stroke-linejoin="round" stroke-width="1"/>
              <path id="Trazado_885393" data-name="Trazado 885393" d="M236.159,189.844a3.19,3.19,0,0,1,.732-1.692,2.939,2.939,0,0,1,1.145-.589c4.758-1.562,9.889-1.482,14.881-1.087,9.122.722,18.478,2.574,25.962,7.84a3.415,3.415,0,0,1,1.109,1.085,3.668,3.668,0,0,1,.2,2.152,40.734,40.734,0,0,0-.152,9.834,16.635,16.635,0,0,0,3.82,8.931c.294.327.7.667,1.123.556a1.236,1.236,0,0,0,.553-.4,16.772,16.772,0,0,0,3.763-6.453c.51-1.631.614-3.737-.788-4.714a10.761,10.761,0,0,0,1.967-6.869c-.1-1.518-1.011-3.373-2.519-3.177.293-1.946.472-4.241-.977-5.572a10.105,10.105,0,0,1-.992-.86,3.789,3.789,0,0,1-.65-1.544q-.554-2.172-1.108-4.345a2.2,2.2,0,0,0-.792-1.43c-.478-.292-1.294.051-1.183.6a3.969,3.969,0,0,1-.924-2.29,3.2,3.2,0,0,0-1.091-2.19c-.7-.465-1.928-.05-1.861.786-9.082-6.366-20.593-8.365-31.683-8.186-3.9.063-8.088.482-11.089,2.981a4.124,4.124,0,0,0-1.561,2.307,1.975,1.975,0,0,0,1.233,2.273,9.906,9.906,0,0,0-4.7,2.22,1.313,1.313,0,0,0-.456.595c-.163.576.436,1.079,1,1.292s1.225.368,1.505.9c-2.4,1.014-3.724,3.594-4.566,6.064-2.344,6.87-2.508,14.238-2.184,21.42.047,1.043-.358,3.188.969,3.5,1.249.289,1.884-1.079,2.265-1.957,1.472-3.385,2.768-6.85,3.911-10.359A119.456,119.456,0,0,0,236.159,189.844Z" transform="translate(-218.054 -170.222)" fill="#3c2415"/>
            </g>
            <g id="Grupo_1107095" data-name="Grupo 1107095" transform="translate(114.104 101.825)">
              <path id="Trazado_885394" data-name="Trazado 885394" d="M301.076,337.932s-2.928-13.586-7.591-19.554" transform="translate(-278.313 -278.891)" fill="none" stroke="#103468" stroke-linecap="round" stroke-linejoin="round" stroke-width="1"/>
              <path id="Trazado_885395" data-name="Trazado 885395" d="M278.561,276.391a26.106,26.106,0,0,0,2.476-2.227l-5.672-1.1S274.523,275.857,278.561,276.391Z" transform="translate(-275.292 -271.369)" fill="#e89787"/>
              <g id="Grupo_1107094" data-name="Grupo 1107094" transform="translate(0.062)">
                <path id="Trazado_885396" data-name="Trazado 885396" d="M288.488,274.989a2.8,2.8,0,0,0-.38-.977,2.729,2.729,0,0,0-1.371-.839,47.168,47.168,0,0,0-7.4-1.974,5.558,5.558,0,0,0-2.372-.063,1.83,1.83,0,0,0-.58,3.457,6.083,6.083,0,0,0,2.09.738l3.715.819a1.133,1.133,0,0,1,1.1,1.2l1.006,6.493a1.451,1.451,0,0,0,.262.743,1.318,1.318,0,0,0,.9.356c1.566.157,4.976-.364,4.935-2.4a17.562,17.562,0,0,0-.879-3.467Q289,277.032,288.488,274.989Z" transform="translate(-275.367 -271.031)" fill="#fbac98"/>
                <path id="Trazado_885397" data-name="Trazado 885397" d="M286.277,286.457a1.318,1.318,0,0,0,.9.356c1.566.157,4.976-.364,4.935-2.4a7.8,7.8,0,0,0-.466-2.117,14.946,14.946,0,0,1-5.91,1.595l.283,1.826A1.451,1.451,0,0,0,286.277,286.457Z" transform="translate(-277.088 -272.901)" fill="#e89787"/>
              </g>
              <path id="Trazado_885398" data-name="Trazado 885398" d="M294.3,284.3a3.528,3.528,0,0,0-2.087-1.558,3.7,3.7,0,0,0-2.09.555l-5.556,2.748c-1.558.77-4.124,1.463-4.864,3.209a4.777,4.777,0,0,0-.272,1.688c-.164,4.2-.314,8.458.609,12.56a3.958,3.958,0,0,0,1.678,2.833,3.394,3.394,0,0,0,1.722.279,3.8,3.8,0,0,0,2.446-.855,4.874,4.874,0,0,0,1.134-2.281,7.155,7.155,0,0,1,.62-1.891c.7.211.973,3.258,1.264,4.012a9.09,9.09,0,0,0,2.53,3.333c2.794,2.794,3.143,9.052,4.433,13.068a128.442,128.442,0,0,0,6.393,16.568c4.04,8.388,9.552,16.242,17.015,21.807a16.184,16.184,0,0,0,6.04,3.092,7.262,7.262,0,0,0,6.423-1.42c1.938-1.778,2.371-4.623,2.69-7.234.655-5.373,1.285-10.983-.564-16.072a33.075,33.075,0,0,0-5.133-8.467q-8.828-11.614-18.578-22.486C303.713,300.6,300.167,291.835,294.3,284.3Z" transform="translate(-275.96 -272.972)" fill="#fbac98"/>
              <path id="Trazado_885399" data-name="Trazado 885399" d="M276.578,271.482s.045,1.007,2.1,1.3l1.387.044a1.221,1.221,0,0,0,.179-1.409" transform="translate(-275.506 -271.095)" fill="none" stroke="#c66b59" stroke-miterlimit="10" stroke-width="0.567"/>
              <path id="Trazado_885400" data-name="Trazado 885400" d="M275.311,273.132s-.417-3.44,5.995-1.512c0,0,3.648.866,5.421,1.554" transform="translate(-275.295 -271.031)" fill="none" stroke="#c66b59" stroke-miterlimit="10" stroke-width="0.567"/>
              <path id="Trazado_885401" data-name="Trazado 885401" d="M286.563,293.15s1.277,19.97,11.034,18.785" transform="translate(-277.164 -274.703)" fill="none" stroke="#c66b59" stroke-miterlimit="10" stroke-width="1"/>
              <path id="Trazado_885402" data-name="Trazado 885402" d="M281.506,306.252s-1.733-13.132-1.094-15.776c0,0,1-2.827,8.936-5.745" transform="translate(-276.119 -273.305)" fill="none" stroke="#c66b59" stroke-linecap="round" stroke-linejoin="round" stroke-width="0.567"/>
            </g>
          </g>
          <g id="Grupo_1107107" data-name="Grupo 1107107" transform="translate(3.878 73.676)">
            <g id="Grupo_1107098" data-name="Grupo 1107098" transform="translate(202.54 0)">
              <g id="Grupo_1107097" data-name="Grupo 1107097">
                <circle id="Elipse_11963" data-name="Elipse 11963" cx="18.811" cy="18.811" r="18.811" transform="translate(0 4.33)" fill="#ea4e4e"/>
                <path id="Trazado_885403" data-name="Trazado 885403" d="M334.284,157.7l-7.12-5.967,1.429,15.079Z" transform="translate(-321.931 -151.73)" fill="#ea4e4e"/>
              </g>
              <path id="Trazado_885404" data-name="Trazado 885404" d="M349.54,173.643c-2.264-3.838-7.473-.51-7.5-.49-.023-.02-5.232-3.348-7.5.49-3.109,5.272,7.448,11.611,7.495,11.639h0C342.09,185.255,352.649,178.915,349.54,173.643Z" transform="translate(-323.062 -155.061)" fill="#fff"/>
            </g>
            <g id="Grupo_1107101" data-name="Grupo 1107101" transform="translate(3.331 53.764)">
              <g id="Grupo_1107099" data-name="Grupo 1107099">
                <circle id="Elipse_11964" data-name="Elipse 11964" cx="25.637" cy="25.637" r="25.637" transform="translate(0 6.783)" fill="#2456a2"/>
                <path id="Trazado_885405" data-name="Trazado 885405" d="M121.3,227.538,135.92,216.2l-5.8,16.382Z" transform="translate(-88.545 -216.197)" fill="#2456a2"/>
              </g>
              <g id="Grupo_1107100" data-name="Grupo 1107100" transform="translate(12.824 17.722)">
                <path id="Trazado_885406" data-name="Trazado 885406" d="M111.823,243.9c.053-.079.1-.16.153-.242a7.276,7.276,0,0,0,1.04-3.371c.049-.912.011-2.248.984-2.716a1.728,1.728,0,0,1,2.12.9,4.74,4.74,0,0,1,.34,2.492q-.116,2.22-.415,4.428l4.368.585a5.971,5.971,0,0,1,2.445.7,2.04,2.04,0,0,1,1,2.167c-.339,1.14-1.814,1.442-3,1.357a2.841,2.841,0,0,1,2.454,2.788,2.389,2.389,0,0,1-2.821,2.169A1.791,1.791,0,0,1,122,257.073a2.835,2.835,0,0,1-1.494,2.138,7.267,7.267,0,0,1-2.589.762,36.343,36.343,0,0,1-10.362.058,3.386,3.386,0,0,1-1.466-.45,2.638,2.638,0,0,1-.928-1.341,8.918,8.918,0,0,1,.061-4.906,36.357,36.357,0,0,1,1.175-4.074,6.745,6.745,0,0,1,1.019-2.04c.651-.8,1.567-.757,2.369-1.289A7.294,7.294,0,0,0,111.823,243.9Z" transform="translate(-98.636 -237.448)" fill="#fff"/>
                <path id="Trazado_885407" data-name="Trazado 885407" d="M102.394,259.63c.18.575.321,1.191-.015,1.578a1.469,1.469,0,0,1-1.155.334l-2.092-.008a1.631,1.631,0,0,1-.693-.1,1.561,1.561,0,0,1-.69-1.147,14.3,14.3,0,0,1,1.627-10.376,2.237,2.237,0,0,1,.856-.932,2.422,2.422,0,0,1,.972-.18c.8-.037,1.619-.123,2.421-.112.528.008,1.039-.06.791.625-.264.728-.736,1.414-1.026,2.147a19.664,19.664,0,0,0-1.247,4.207,9.752,9.752,0,0,0-.021,3.031A8.1,8.1,0,0,0,102.394,259.63Z" transform="translate(-97.401 -239.313)" fill="#fff"/>
              </g>
            </g>
            <g id="Grupo_1107103" data-name="Grupo 1107103" transform="translate(158.64 194.75)">
              <path id="Trazado_885408" data-name="Trazado 885408" d="M394.389,405.682H278.466a10.246,10.246,0,0,1-10.216-10.216h0a10.246,10.246,0,0,1,10.216-10.216H394.389a10.247,10.247,0,0,1,10.216,10.216h0A10.247,10.247,0,0,1,394.389,405.682Z" transform="translate(-268.25 -385.25)" fill="#3c8cf8"/>
              <g id="Grupo_1107102" data-name="Grupo 1107102" transform="translate(114.453 2.293)">
                <path id="Trazado_885409" data-name="Trazado 885409" d="M415.563,398.075a5.9,5.9,0,1,1,0-8.35A5.909,5.909,0,0,1,415.563,398.075Zm-7.574-7.574a4.808,4.808,0,1,0,6.8,0A4.814,4.814,0,0,0,407.989,390.5Z" transform="translate(-405.487 -387.999)" fill="#fff"/>
                <path id="Trazado_885410" data-name="Trazado 885410" d="M421.614,404.125a.626.626,0,0,1-.887,0l-3.945-3.945a.627.627,0,1,1,.886-.886l3.945,3.945A.627.627,0,0,1,421.614,404.125Z" transform="translate(-407.332 -389.844)" fill="#fff"/>
              </g>
            </g>
            <g id="Grupo_1107105" data-name="Grupo 1107105" transform="translate(0 125.147)">
              <g id="Grupo_1107104" data-name="Grupo 1107104" transform="translate(0 39.897)">
                <path id="Trazado_885411" data-name="Trazado 885411" d="M78.029,368.126l57.135.763-1.525-14.2Z" transform="translate(-78.029 -350.47)" fill="#dac7ff"/>
                <path id="Trazado_885412" data-name="Trazado 885412" d="M78.029,368.147l56.041-13.324,29,9.014Z" transform="translate(-78.029 -350.491)" fill="#fff"/>
                <path id="Trazado_885413" data-name="Trazado 885413" d="M134.07,353.96l-17.207-4.331L78.029,367.285Z" transform="translate(-78.029 -349.629)" fill="#ededed"/>
              </g>
              <path id="Trazado_885414" data-name="Trazado 885414" d="M158.485,345.267a46.079,46.079,0,0,0,24.644-10.575c2.125-1.8,4.182-4.979,2.37-7.093a3.883,3.883,0,0,0-2.579-1.2c-3.637-.375-6.975,2.82-7.643,6.415s.828,7.3,3.065,10.192c6.6,8.536,18.385,10.737,29.1,12.055,26.549,3.264,54.1,4.771,79.48-3.688,13.389-4.463,26.606-12.45,32.429-25.307a18.555,18.555,0,0,0,1.88-7.382c.071-7.085-5.937-13.071-12.654-15.325s-14.016-1.609-21.069-.936" transform="translate(-91.387 -301.79)" fill="none" stroke="#383838" stroke-linecap="round" stroke-linejoin="round" stroke-width="1" stroke-dasharray="2.835"/>
            </g>
            <g id="Grupo_1107106" data-name="Grupo 1107106" transform="translate(223.255 77.424)">
              <rect id="Rectángulo_404576" data-name="Rectángulo 404576" width="47.606" height="25.912" rx="4.08" fill="#fff"/>
              <path id="Trazado_885415" data-name="Trazado 885415" d="M346.451,246.013l22,12.052,23.8-11.751" transform="translate(-345.848 -244.808)" fill="none" stroke="#b29ce5" stroke-linecap="round" stroke-linejoin="round" stroke-width="1.593"/>
              <rect id="Rectángulo_404577" data-name="Rectángulo 404577" width="47.606" height="25.912" rx="4.08" fill="none" stroke="#b29ce5" stroke-linecap="round" stroke-linejoin="round" stroke-width="1.593"/>
            </g>
          </g>
          <g id="Grupo_1107108" data-name="Grupo 1107108" transform="translate(45.524 82.032)">
            <path id="Trazado_885416" data-name="Trazado 885416" d="M350.62,224.944a4.182,4.182,0,1,1-4.182-4.182A4.182,4.182,0,0,1,350.62,224.944Z" transform="translate(-163.543 -171.547)" fill="#fff"/>
            <path id="Trazado_885417" data-name="Trazado 885417" d="M333.1,219.311a1.788,1.788,0,1,1-1.788-1.789A1.788,1.788,0,0,1,333.1,219.311Z" transform="translate(-161.429 -171.009)" fill="#fff"/>
            <path id="Trazado_885418" data-name="Trazado 885418" d="M163.766,327.644a1.788,1.788,0,1,1-1.789-1.789A1.789,1.789,0,0,1,163.766,327.644Z" transform="translate(-133.316 -188.995)" fill="#fff"/>
            <path id="Trazado_885419" data-name="Trazado 885419" d="M207.1,175.122a1.788,1.788,0,1,1-1.788-1.789A1.789,1.789,0,0,1,207.1,175.122Z" transform="translate(-140.51 -163.673)" fill="#fff"/>
            <path id="Trazado_885420" data-name="Trazado 885420" d="M136.191,315.294a.862.862,0,1,1-.862-.862A.862.862,0,0,1,136.191,315.294Z" transform="translate(-129.045 -187.099)" fill="#fff"/>
            <path id="Trazado_885421" data-name="Trazado 885421" d="M141.191,203.794a.862.862,0,1,1-.862-.863A.862.862,0,0,1,141.191,203.794Z" transform="translate(-129.875 -168.587)" fill="#fff"/>
            <path id="Trazado_885422" data-name="Trazado 885422" d="M213.191,180.362a.862.862,0,1,1-.862-.862A.863.863,0,0,1,213.191,180.362Z" transform="translate(-141.829 -164.697)" fill="#fff"/>
            <path id="Trazado_885423" data-name="Trazado 885423" d="M378.691,221.794a.862.862,0,1,1-.862-.863A.862.862,0,0,1,378.691,221.794Z" transform="translate(-169.306 -171.575)" fill="#fff"/>
            <path id="Trazado_885424" data-name="Trazado 885424" d="M341.191,231.828a.862.862,0,1,1-.862-.862A.862.862,0,0,1,341.191,231.828Z" transform="translate(-163.08 -173.241)" fill="#fff"/>
            <path id="Trazado_885425" data-name="Trazado 885425" d="M365.725,356.828a.862.862,0,1,1-.862-.862A.862.862,0,0,1,365.725,356.828Z" transform="translate(-167.153 -193.994)" fill="#fff"/>
            <path id="Trazado_885426" data-name="Trazado 885426" d="M161.225,390.328a.862.862,0,1,1-.862-.862A.862.862,0,0,1,161.225,390.328Z" transform="translate(-133.201 -199.556)" fill="#fff"/>
            <path id="Trazado_885427" data-name="Trazado 885427" d="M210.656,357.328a.863.863,0,1,1-.862-.862A.862.862,0,0,1,210.656,357.328Z" transform="translate(-141.408 -194.077)" fill="#fff"/>
            <path id="Trazado_885428" data-name="Trazado 885428" d="M129.691,205.862a.862.862,0,1,1-.862-.862A.863.863,0,0,1,129.691,205.862Z" transform="translate(-127.966 -168.931)" fill="#fff"/>
            <path id="Trazado_885429" data-name="Trazado 885429" d="M153.142,319.826a4.182,4.182,0,1,1-4.182-4.182A4.181,4.181,0,0,1,153.142,319.826Z" transform="translate(-130.757 -187.3)" fill="#fff"/>
            <circle id="Elipse_11965" data-name="Elipse 11965" cx="4.182" cy="4.182" r="4.182" transform="translate(67.74)" fill="#fff"/>
          </g>
        </g>
      </g>
    </g>
    <path id="Rectángulo_400911" data-name="Rectángulo 400911" d="M0,0H297a0,0,0,0,1,0,0V41a19,19,0,0,1-19,19H19A19,19,0,0,1,0,41V0A0,0,0,0,1,0,0Z" transform="translate(-1361.596 -8136.014) rotate(-90)" fill="#59836b"/>
    <g id="Grupo_1098761" data-name="Grupo 1098761" transform="translate(-2623.596 -9742.014)">
      <line id="Línea_557" data-name="Línea 557" y2="128" transform="translate(1273.5 1470.5)" fill="none" stroke="#fff" stroke-linecap="round" stroke-width="2" stroke-dasharray="5"/>
      <circle id="Elipse_11447" data-name="Elipse 11447" cx="33.5" cy="33.5" r="33.5" transform="translate(1238 1511)" fill="#fd9f81"/>
    </g>
    <g id="Grupo_1098820" data-name="Grupo 1098820" transform="translate(-2379.947 -9496.932)">
      <rect id="Rectángulo_400898" data-name="Rectángulo 400898" width="47" height="47" rx="23.5" transform="translate(981.351 1258.917)" fill="#fff"/>
      <path id="Rectángulo_400898_-_Contorno" data-name="Rectángulo 400898 - Contorno" d="M23.485,1.3a22.187,22.187,0,0,0-8.633,42.619A22.187,22.187,0,0,0,32.119,3.047,22.041,22.041,0,0,0,23.485,1.3m0-1.3A23.485,23.485,0,1,1,0,23.485,23.485,23.485,0,0,1,23.485,0Z" transform="translate(981 1258.947)" fill="#fff"/>
    </g>
  </g>
</svg>
