<svg xmlns="http://www.w3.org/2000/svg" xmlns:xlink="http://www.w3.org/1999/xlink" width="415" height="297" viewBox="0 0 415 297">
  <defs>
    <clipPath id="clip-path">
      <rect id="Rectángulo_404562" data-name="Rectángulo 404562" width="373" height="297" rx="19" transform="translate(-2292.422 -8647.533)" fill="#feece6" opacity="0.41"/>
    </clipPath>
  </defs>
  <g id="Grupo_1107132" data-name="Grupo 1107132" transform="translate(2292.308 8411.998)">
    <g id="Enmascarar_grupo_1099791" data-name="Enmascarar grupo 1099791" transform="translate(0.114 235.535)" clip-path="url(#clip-path)">
      <g id="Grupo_1107131" data-name="Grupo 1107131">
        <g id="Grupo_1107027" data-name="Grupo 1107027" transform="translate(-470.014 236.118)">
          <rect id="Rectángulo_404561" data-name="Rectángulo 404561" width="416.336" height="309.634" transform="translate(-1844.076 -8889.969)" fill="#e5f0fc"/>
        </g>
        <g id="BACKGROUND" transform="translate(-2470.808 -8013.991)">
          <path id="Trazado_885345" data-name="Trazado 885345" d="M328.166,226.639c-1.115-16.608-8.957-32.4-20.379-44.508s-26.249-20.687-41.961-26.183c-31.539-11.033-67.807-9.522-97.117,6.523s-50.565,47.078-52.353,80.444c-1.123,20.958,5.095,41.775,14.44,60.568,2.021,4.063,4.235,8.211,4.508,12.741.318,5.276-2.034,10.31-2.934,15.517-1.975,11.428,3.364,23.26,11.722,31.3s19.372,12.766,30.516,15.978c13.278,3.829,27.038,5.738,40.8,6.967,27.063,2.417,55.635,1.94,79.607-10.851a85.687,85.687,0,0,0,43.835-63.069,35.015,35.015,0,0,0-.228-13.073c-2.6-10.495-12.873-19.939-13.244-31.239C324.943,254.307,329.093,240.436,328.166,226.639Z" transform="translate(139.704 -745.709)" fill="#d5e6fd" opacity="0.5" style="mix-blend-mode: multiply;isolation: isolate"/>
        </g>
        <g id="Grupo_1107130" data-name="Grupo 1107130" transform="translate(-2330.002 -8756.092)">
          <g id="Grupo_1107121" data-name="Grupo 1107121">
            <path id="Rectángulo_404580" data-name="Rectángulo 404580" d="M8.908,0h94.985A8.907,8.907,0,0,1,112.8,8.907V136.943a8.91,8.91,0,0,1-8.91,8.91H8.908A8.908,8.908,0,0,1,0,136.946V8.908A8.908,8.908,0,0,1,8.908,0Z" transform="translate(138.969 209.475)" fill="#26576c" stroke="#141413" stroke-linecap="round" stroke-linejoin="round" stroke-width="1.496"/>
            <rect id="Rectángulo_404581" data-name="Rectángulo 404581" width="97.243" height="130.154" transform="translate(146.748 217.324)" fill="#e2e0e0" stroke="#141413" stroke-linecap="round" stroke-linejoin="round" stroke-width="1.496"/>
            <g id="Grupo_1107119" data-name="Grupo 1107119">
              <rect id="Rectángulo_404582" data-name="Rectángulo 404582" width="14.055" height="41.717" transform="translate(173.697 250.99)" fill="#26576c" stroke="#141413" stroke-linecap="round" stroke-linejoin="round" stroke-width="1.496"/>
              <rect id="Rectángulo_404583" data-name="Rectángulo 404583" width="14.05" height="31.178" transform="translate(192.581 261.529)" fill="#dd4138" stroke="#141413" stroke-linecap="round" stroke-linejoin="round" stroke-width="1.496"/>
              <rect id="Rectángulo_404584" data-name="Rectángulo 404584" width="14.052" height="20.639" transform="translate(211.462 272.068)" fill="#faaa27" stroke="#141413" stroke-linecap="round" stroke-linejoin="round" stroke-width="1.496"/>
              <path id="Trazado_885431" data-name="Trazado 885431" d="M166.688,237.629v75.61" fill="#faaa27" stroke="#141413" stroke-linecap="round" stroke-linejoin="round" stroke-width="1.496"/>
              <path id="Trazado_885432" data-name="Trazado 885432" d="M237.084,298.247h-83.43" fill="#faaa27" stroke="#141413" stroke-linecap="round" stroke-linejoin="round" stroke-width="1.496"/>
            </g>
            <line id="Línea_576" data-name="Línea 576" x2="59.094" transform="translate(165.822 229.822)" fill="#e29870" stroke="#141413" stroke-linecap="round" stroke-linejoin="round" stroke-width="1.496"/>
            <line id="Línea_577" data-name="Línea 577" x2="32.536" transform="translate(179.101 234.31)" fill="#e29870" stroke="#141413" stroke-linecap="round" stroke-linejoin="round" stroke-width="1.496"/>
            <g id="Grupo_1107120" data-name="Grupo 1107120">
              <line id="Línea_578" data-name="Línea 578" x2="77.046" transform="translate(156.846 322.453)" fill="none" stroke="#141413" stroke-linecap="round" stroke-linejoin="round" stroke-width="1.496"/>
              <line id="Línea_579" data-name="Línea 579" x2="38.523" transform="translate(156.846 327.148)" fill="none" stroke="#141413" stroke-linecap="round" stroke-linejoin="round" stroke-width="1.496"/>
              <line id="Línea_580" data-name="Línea 580" x2="27.677" transform="translate(206.215 327.148)" fill="none" stroke="#141413" stroke-linecap="round" stroke-linejoin="round" stroke-width="1.496"/>
              <line id="Línea_581" data-name="Línea 581" x2="27.677" transform="translate(206.215 336.539)" fill="none" stroke="#141413" stroke-linecap="round" stroke-linejoin="round" stroke-width="1.496"/>
              <line id="Línea_582" data-name="Línea 582" x2="27.676" transform="translate(189.011 331.844)" fill="none" stroke="#141413" stroke-linecap="round" stroke-linejoin="round" stroke-width="1.496"/>
              <line id="Línea_583" data-name="Línea 583" x2="27.677" transform="translate(156.846 331.844)" fill="none" stroke="#141413" stroke-linecap="round" stroke-linejoin="round" stroke-width="1.496"/>
              <line id="Línea_584" data-name="Línea 584" x2="12.466" transform="translate(221.426 331.844)" fill="none" stroke="#141413" stroke-linecap="round" stroke-linejoin="round" stroke-width="1.496"/>
              <line id="Línea_585" data-name="Línea 585" x2="12.467" transform="translate(190.507 336.539)" fill="none" stroke="#141413" stroke-linecap="round" stroke-linejoin="round" stroke-width="1.496"/>
              <line id="Línea_586" data-name="Línea 586" x2="25.433" transform="translate(156.846 336.539)" fill="none" stroke="#141413" stroke-linecap="round" stroke-linejoin="round" stroke-width="1.496"/>
            </g>
            <path id="Trazado_885433" data-name="Trazado 885433" d="M138.969,282.808V346.42a8.907,8.907,0,0,0,8.906,8.908h94.986a8.908,8.908,0,0,0,8.908-8.908V282.808Z" fill="#b6b8bf" style="mix-blend-mode: multiply;isolation: isolate"/>
            <path id="Trazado_885434" data-name="Trazado 885434" d="M212.209,205.361h-7.687a11.968,11.968,0,1,0-18.306,0h-7.688a18.5,18.5,0,0,0-18.3,15.859H230.51A18.5,18.5,0,0,0,212.209,205.361Zm-16.84-2.468a5.236,5.236,0,1,1,5.236-5.236A5.236,5.236,0,0,1,195.369,202.893Z" fill="#dd4138" stroke="#141413" stroke-linecap="round" stroke-linejoin="round" stroke-width="1.496"/>
            <path id="Trazado_885435" data-name="Trazado 885435" d="M162.382,214.862a18.432,18.432,0,0,0-2.153,6.358H230.51a18.433,18.433,0,0,0-2.154-6.358Z" fill="#b6b8bf" style="mix-blend-mode: multiply;isolation: isolate"/>
          </g>
          <g id="Grupo_1107123" data-name="Grupo 1107123">
            <g id="Grupo_1107122" data-name="Grupo 1107122">
              <path id="Trazado_885436" data-name="Trazado 885436" d="M277.481,411.875l-3.342-52.251H232.423q-1.671,26.125-3.343,52.251Z" fill="#e29870" stroke="#141413" stroke-linecap="round" stroke-linejoin="round" stroke-width="1.496"/>
            </g>
            <path id="Trazado_885437" data-name="Trazado 885437" d="M258.892,368h15.672s9.749-8.366,12.06-16.259c1.346-4.285,1.164-12.718.491-21.108.012,0,.024,0,.035,0,.706-28.257.265-27.493.265-27.493-.789-6.441-7.755-7.688-8.676-2.565l-.758,6.57h-1.275l-2.755-11.86c-1.059-8.65-11.655-8.3-11.655-1.411l.056,13.271H260.66l-2.044-16.347c-.888-5.515-12.342-7.683-12.342,0l-.025,16.347h-1.857L241.038,250.4c-.883-4.944-11.832-4.591-11.832,2.3l.828,54.444L219.86,347.476,232.2,368l9.6-.286" fill="#e29870" stroke="#141413" stroke-linecap="round" stroke-linejoin="round" stroke-width="1.496"/>
            <path id="Trazado_885438" data-name="Trazado 885438" d="M272.28,411.875h5.2q-1.4-21.855-2.8-43.707L258.892,368v13.227l9.667,5.3Z" fill="#b6b8bf" style="mix-blend-mode: multiply;isolation: isolate"/>
            <path id="Trazado_885439" data-name="Trazado 885439" d="M222.339,351.287l-23.5-17.6-2.5-15.337-1.4-14.958c.006,0,4.541-2.629,4.548-2.632,6.1-1.2,10.625,23.338,10.625,23.338l11.152,4.831s-.2-.048,7.3-5.155" fill="#e29870" stroke="#141413" stroke-linecap="round" stroke-linejoin="round" stroke-width="1.496"/>
            <path id="Trazado_885440" data-name="Trazado 885440" d="M205.484,325.353l2.2.445,2.936-1.545" fill="#e29870" stroke="#141413" stroke-linecap="round" stroke-linejoin="round" stroke-width="1.496"/>
            <path id="Trazado_885441" data-name="Trazado 885441" d="M239.171,411.875l3.165-44.428h-9.8l1.172,44.428Z" fill="#b6b8bf" style="mix-blend-mode: multiply;isolation: isolate"/>
            <line id="Línea_587" data-name="Línea 587" x2="6.205" transform="translate(256.07 307.491)" fill="none" stroke="#141413" stroke-linecap="round" stroke-linejoin="round" stroke-width="1.496"/>
            <line id="Línea_588" data-name="Línea 588" x2="6.205" transform="translate(272.758 307.491)" fill="none" stroke="#141413" stroke-linecap="round" stroke-linejoin="round" stroke-width="1.496"/>
            <path id="Trazado_885442" data-name="Trazado 885442" d="M239.645,307.491h6.623l-2.516,8.079.265,5.3-4.238-6.093Z" fill="#b6b8bf" style="mix-blend-mode: multiply;isolation: isolate"/>
            <path id="Trazado_885443" data-name="Trazado 885443" d="M256.07,307.491h6.623l-1.856,6.888-1.721,4.768-1.723-4.768Z" fill="#b6b8bf" style="mix-blend-mode: multiply;isolation: isolate"/>
            <line id="Línea_589" data-name="Línea 589" x1="6.205" transform="translate(239.779 307.491)" fill="none" stroke="#141413" stroke-linecap="round" stroke-linejoin="round" stroke-width="1.496"/>
            <line id="Línea_590" data-name="Línea 590" x1="6.205" transform="translate(235.938 288.993)" fill="none" stroke="#141413" stroke-linecap="round" stroke-linejoin="round" stroke-width="1.496"/>
            <line id="Línea_591" data-name="Línea 591" x1="6.206" transform="translate(232.626 291.774)" fill="none" stroke="#141413" stroke-linecap="round" stroke-linejoin="round" stroke-width="1.496"/>
            <line id="Línea_592" data-name="Línea 592" x1="6.206" transform="translate(233.906 268.95)" fill="none" stroke="#141413" stroke-linecap="round" stroke-linejoin="round" stroke-width="1.496"/>
          </g>
          <g id="Grupo_1107125" data-name="Grupo 1107125">
            <path id="Rectángulo_404585" data-name="Rectángulo 404585" d="M2,0H70.953a2,2,0,0,1,2,2V45.169a2,2,0,0,1-2,2H2a2,2,0,0,1-2-2V2A2,2,0,0,1,2,0Z" transform="translate(300.891 264.987)" fill="#26576c" stroke="#141413" stroke-linecap="round" stroke-linejoin="round" stroke-width="1.206"/>
            <path id="Trazado_885444" data-name="Trazado 885444" d="M300.891,299.23v10.926a2,2,0,0,0,2,2h68.954a2,2,0,0,0,2-2V299.23Z" fill="#b6b8bf" style="mix-blend-mode: multiply;isolation: isolate"/>
            <g id="Grupo_1107124" data-name="Grupo 1107124">
              <path id="Trazado_885445" data-name="Trazado 885445" d="M324.914,288.571a4.654,4.654,0,1,1-4.654-4.655A4.653,4.653,0,0,1,324.914,288.571Z" fill="#e2e0e0" stroke="#141413" stroke-linecap="round" stroke-linejoin="round" stroke-width="1.206"/>
              <path id="Trazado_885446" data-name="Trazado 885446" d="M342.02,288.571a4.653,4.653,0,1,1-4.653-4.655A4.652,4.652,0,0,1,342.02,288.571Z" fill="#e2e0e0" stroke="#141413" stroke-linecap="round" stroke-linejoin="round" stroke-width="1.206"/>
              <path id="Trazado_885447" data-name="Trazado 885447" d="M359.126,284.545a4.654,4.654,0,1,1-4.653-4.652A4.654,4.654,0,0,1,359.126,284.545Z" fill="#e2e0e0" stroke="#141413" stroke-linecap="round" stroke-linejoin="round" stroke-width="1.206"/>
            </g>
            <path id="Trazado_885448" data-name="Trazado 885448" d="M346.12,310.3l-17.508,16.625.906-17.915" fill="#26576c" stroke="#141413" stroke-linecap="round" stroke-linejoin="round" stroke-width="1.206"/>
            <path id="Trazado_885449" data-name="Trazado 885449" d="M346.12,310.3l-17.508,16.625.906-17.915" fill="#b6b8bf" style="mix-blend-mode: multiply;isolation: isolate"/>
          </g>
          <g id="Grupo_1107126" data-name="Grupo 1107126">
            <rect id="Rectángulo_404586" data-name="Rectángulo 404586" width="10.874" height="32.278" transform="translate(264.624 162.482)" fill="#26576c" stroke="#141413" stroke-linecap="round" stroke-linejoin="round" stroke-width="0.917"/>
            <rect id="Rectángulo_404587" data-name="Rectángulo 404587" width="10.872" height="24.124" transform="translate(279.236 170.636)" fill="#dd4138" stroke="#141413" stroke-linecap="round" stroke-linejoin="round" stroke-width="0.917"/>
            <rect id="Rectángulo_404588" data-name="Rectángulo 404588" width="10.872" height="15.969" transform="translate(293.845 178.791)" fill="#faaa27" stroke="#141413" stroke-linecap="round" stroke-linejoin="round" stroke-width="0.917"/>
            <path id="Trazado_885450" data-name="Trazado 885450" d="M259.2,152.143v58.5" fill="#faaa27" stroke="#141413" stroke-linecap="round" stroke-linejoin="round" stroke-width="0.917"/>
            <path id="Trazado_885451" data-name="Trazado 885451" d="M313.67,199.047H249.114" fill="#faaa27" stroke="#141413" stroke-linecap="round" stroke-linejoin="round" stroke-width="0.917"/>
          </g>
          <g id="Grupo_1107129" data-name="Grupo 1107129">
            <path id="Trazado_885452" data-name="Trazado 885452" d="M105.959,194.33A21.609,21.609,0,0,0,85.708,208.4,15.022,15.022,0,0,0,65.7,220.3a8.807,8.807,0,1,0-2.575,17.23c-.049,0,42.964.143,42.833,0a21.6,21.6,0,1,0,0-43.2Z" fill="#17a2b1" stroke="#141413" stroke-linecap="round" stroke-linejoin="round" stroke-width="1.042"/>
            <path id="Trazado_885453" data-name="Trazado 885453" d="M120.017,199.535a18.492,18.492,0,0,1-28.348,22.184,14.91,14.91,0,0,1-26.159-1.468,8.8,8.8,0,1,0-2.384,17.28c-.049,0,42.964.143,42.833,0a21.6,21.6,0,0,0,14.058-38Z" fill="#b6b8bf" style="mix-blend-mode: multiply;isolation: isolate"/>
            <g id="Grupo_1107127" data-name="Grupo 1107127">
              <path id="Trazado_885454" data-name="Trazado 885454" d="M111.961,237.436l-9.768-16.92-9.767,16.92h4.462v10.227H107.5V237.436Z" fill="#faaa27" stroke="#141413" stroke-linecap="round" stroke-linejoin="round" stroke-width="1.042"/>
              <path id="Trazado_885455" data-name="Trazado 885455" d="M102.193,220.516l-.424.735,3.292,16.185H102.41v10.227H107.5V237.436h4.463Z" fill="#b6b8bf" style="mix-blend-mode: multiply;isolation: isolate"/>
              <line id="Línea_593" data-name="Línea 593" x2="10.967" transform="translate(100.544 237.436)" fill="#dd4138" stroke="#141413" stroke-linecap="round" stroke-linejoin="round" stroke-width="1.042"/>
            </g>
            <g id="Grupo_1107128" data-name="Grupo 1107128">
              <path id="Trazado_885456" data-name="Trazado 885456" d="M90.55,237.243l-9.766,16.918-9.769-16.918h4.462V227.018h10.61v10.226Z" fill="#dd4138" stroke="#141413" stroke-linecap="round" stroke-linejoin="round" stroke-width="1.042"/>
              <path id="Trazado_885457" data-name="Trazado 885457" d="M80.784,254.161l-.425-.733,3.291-16.185H81V227.018h5.09v10.226H90.55Z" fill="#b6b8bf" style="mix-blend-mode: multiply;isolation: isolate"/>
              <line id="Línea_594" data-name="Línea 594" x2="10.969" transform="translate(79.133 237.243)" fill="#dd4138" stroke="#141413" stroke-linecap="round" stroke-linejoin="round" stroke-width="1.042"/>
            </g>
          </g>
        </g>
      </g>
    </g>
    <path id="Rectángulo_400911" data-name="Rectángulo 400911" d="M0,0H297a0,0,0,0,1,0,0V41a19,19,0,0,1-19,19H19A19,19,0,0,1,0,41V0A0,0,0,0,1,0,0Z" transform="translate(-1937.308 -8114.999) rotate(-90)" fill="#59836b"/>
    <g id="Grupo_1098761" data-name="Grupo 1098761" transform="translate(-3199.308 -9720.998)">
      <line id="Línea_557" data-name="Línea 557" y2="128" transform="translate(1273.5 1470.5)" fill="none" stroke="#fff" stroke-linecap="round" stroke-width="2" stroke-dasharray="5"/>
      <circle id="Elipse_11447" data-name="Elipse 11447" cx="33.5" cy="33.5" r="33.5" transform="translate(1238 1511)" fill="#fd9f81"/>
    </g>
    <g id="Grupo_1098820" data-name="Grupo 1098820" transform="translate(-2955.659 -9475.916)">
      <rect id="Rectángulo_400898" data-name="Rectángulo 400898" width="47" height="47" rx="23.5" transform="translate(981.351 1258.917)" fill="#fff"/>
      <path id="Rectángulo_400898_-_Contorno" data-name="Rectángulo 400898 - Contorno" d="M23.485,1.3a22.187,22.187,0,0,0-8.633,42.619A22.187,22.187,0,0,0,32.119,3.047,22.041,22.041,0,0,0,23.485,1.3m0-1.3A23.485,23.485,0,1,1,0,23.485,23.485,23.485,0,0,1,23.485,0Z" transform="translate(981 1258.947)" fill="#fff"/>
    </g>
  </g>
</svg>
