<svg xmlns="http://www.w3.org/2000/svg" xmlns:xlink="http://www.w3.org/1999/xlink" width="415" height="297" viewBox="0 0 415 297">
  <defs>
    <clipPath id="clip-path">
      <rect id="Rectángulo_404562" data-name="Rectángulo 404562" width="373" height="297" rx="19" transform="translate(-2292.422 -8647.533)" fill="#feece6" opacity="0.41"/>
    </clipPath>
    <clipPath id="clip-path-2">
      <rect id="Rectángulo_404648" data-name="Rectángulo 404648" width="435.396" height="343.673" fill="none"/>
    </clipPath>
  </defs>
  <g id="Grupo_1107205" data-name="Grupo 1107205" transform="translate(2292.308 8411.998)">
    <g id="Enmascarar_grupo_1099791" data-name="Enmascarar grupo 1099791" transform="translate(0.114 235.535)" clip-path="url(#clip-path)">
      <g id="Grupo_1107131" data-name="Grupo 1107131">
        <g id="Grupo_1107027" data-name="Grupo 1107027" transform="translate(-470.014 236.118)">
          <rect id="Rectángulo_404561" data-name="Rectángulo 404561" width="416.336" height="309.634" transform="translate(-1844.076 -8889.969)" fill="#e5f0fc"/>
        </g>
        <g id="Grupo_1107209" data-name="Grupo 1107209" transform="translate(-2323.62 -8679.491)">
          <g id="Grupo_1107208" data-name="Grupo 1107208" clip-path="url(#clip-path-2)">
            <path id="Trazado_886687" data-name="Trazado 886687" d="M69.983,343.673a69.983,69.983,0,1,1,0-139.966,29.59,29.59,0,1,0,0-59.181H66.462a30.765,30.765,0,1,1,0-61.53h10.8a11.978,11.978,0,0,0,0-23.956H69.326a8.266,8.266,0,1,1,0-16.531h53.366a12.988,12.988,0,0,0,0-25.977H106.735a8.266,8.266,0,0,1,0-16.532H340.43a10.786,10.786,0,1,1,0,21.572H324.066a17,17,0,0,0-16.95,16.947v0a17,17,0,0,0,16.95,16.948h63.3a10.786,10.786,0,0,1,0,21.573H377.012a15.629,15.629,0,1,0,0,31.257h14.1a40.144,40.144,0,1,1,0,80.288h-4.6a38.613,38.613,0,0,0,0,77.226h9.951a38.93,38.93,0,1,1,0,77.86Zm298.048-322.1a10.786,10.786,0,1,0-10.787-10.786,10.787,10.787,0,0,0,10.787,10.786M46.13,59.042a8.267,8.267,0,1,0-8.266-8.267,8.266,8.266,0,0,0,8.266,8.267" fill="#b7e1f8" fill-rule="evenodd"/>
            <path id="Trazado_886688" data-name="Trazado 886688" d="M230.182,32.89a2.432,2.432,0,1,0-2.433-2.432,2.436,2.436,0,0,0,2.433,2.432" fill="#fff" fill-rule="evenodd"/>
            <path id="Trazado_886689" data-name="Trazado 886689" d="M105.464,108.568h40.342a1.977,1.977,0,0,1,1.971,1.971v23.128a1.976,1.976,0,0,1-1.971,1.971H105.464a1.976,1.976,0,0,1-1.971-1.971V110.539a1.977,1.977,0,0,1,1.971-1.971" fill="#b2323a" fill-rule="evenodd"/>
            <path id="Trazado_886690" data-name="Trazado 886690" d="M147.748,134.008a1.978,1.978,0,0,1-1.94,1.63H105.464a1.982,1.982,0,0,1-1.942-1.63l22.114-15.337Z" fill="#c44345" fill-rule="evenodd"/>
            <path id="Trazado_886691" data-name="Trazado 886691" d="M105.464,108.568h40.343a1.968,1.968,0,0,1,1.451.64l-21.623,15-21.623-15a1.967,1.967,0,0,1,1.452-.64" fill="#da4346" fill-rule="evenodd"/>
            <path id="Trazado_886692" data-name="Trazado 886692" d="M315.525,167.493h12.581a2.365,2.365,0,0,1,2.359,2.358v12.581a2.364,2.364,0,0,1-2.359,2.358H315.525a2.364,2.364,0,0,1-2.359-2.358V169.851a2.364,2.364,0,0,1,2.359-2.358" fill="#9cc6e0" fill-rule="evenodd"/>
            <path id="Trazado_886693" data-name="Trazado 886693" d="M315.525,189.281h12.581a2.367,2.367,0,0,1,2.359,2.361v12.58a2.365,2.365,0,0,1-2.359,2.359H315.525a2.365,2.365,0,0,1-2.359-2.359v-12.58a2.366,2.366,0,0,1,2.359-2.361" fill="#9cc6e0" fill-rule="evenodd"/>
            <path id="Trazado_886694" data-name="Trazado 886694" d="M315.525,211.071h12.581a2.365,2.365,0,0,1,2.359,2.358V226.01a2.366,2.366,0,0,1-2.359,2.359H315.525a2.365,2.365,0,0,1-2.359-2.359V213.429a2.364,2.364,0,0,1,2.359-2.358" fill="#9cc6e0" fill-rule="evenodd"/>
            <path id="Trazado_886695" data-name="Trazado 886695" d="M315.525,232.859h12.581a2.365,2.365,0,0,1,2.359,2.358V247.8a2.368,2.368,0,0,1-2.359,2.361H315.525a2.367,2.367,0,0,1-2.359-2.361V235.217a2.364,2.364,0,0,1,2.359-2.358" fill="#9cc6e0" fill-rule="evenodd"/>
            <path id="Trazado_886696" data-name="Trazado 886696" d="M313.571,165.829h12.58a2.366,2.366,0,0,1,2.36,2.357v12.581a2.366,2.366,0,0,1-2.36,2.358h-12.58a2.364,2.364,0,0,1-2.359-2.358V168.186a2.364,2.364,0,0,1,2.359-2.357" fill="#fff" fill-rule="evenodd"/>
            <path id="Trazado_886697" data-name="Trazado 886697" d="M313.571,187.615h12.58a2.368,2.368,0,0,1,2.36,2.361v12.581a2.366,2.366,0,0,1-2.36,2.358h-12.58a2.364,2.364,0,0,1-2.359-2.358V189.976a2.367,2.367,0,0,1,2.359-2.361" fill="#fff" fill-rule="evenodd"/>
            <path id="Trazado_886698" data-name="Trazado 886698" d="M313.571,209.406h12.58a2.366,2.366,0,0,1,2.36,2.357v12.581a2.366,2.366,0,0,1-2.36,2.359h-12.58a2.365,2.365,0,0,1-2.359-2.359V211.763a2.364,2.364,0,0,1,2.359-2.357" fill="#fff" fill-rule="evenodd"/>
            <path id="Trazado_886699" data-name="Trazado 886699" d="M313.571,231.194h12.58a2.366,2.366,0,0,1,2.36,2.358v12.581a2.368,2.368,0,0,1-2.36,2.361h-12.58a2.367,2.367,0,0,1-2.359-2.361V233.552a2.364,2.364,0,0,1,2.359-2.358" fill="#fff" fill-rule="evenodd"/>
            <path id="Trazado_886700" data-name="Trazado 886700" d="M314.965,176.394a1.03,1.03,0,0,1,1.483-1.429l1.861,1.935,4.86-7.054a1.03,1.03,0,1,1,1.7,1.172l-5.554,8.06a1.143,1.143,0,0,1-.156.189,1.03,1.03,0,0,1-1.456-.028Z" fill="#78c9d9" fill-rule="evenodd"/>
            <path id="Trazado_886701" data-name="Trazado 886701" d="M317.48,200.687a1.03,1.03,0,1,1-1.573-1.331l2.6-3.09-2.606-3.091a1.03,1.03,0,1,1,1.574-1.33l2.382,2.822,2.38-2.822a1.03,1.03,0,1,1,1.574,1.33l-2.606,3.091,2.606,3.09a1.031,1.031,0,1,1-1.574,1.331l-2.38-2.823Z" fill="#d84f50" fill-rule="evenodd"/>
            <path id="Trazado_886702" data-name="Trazado 886702" d="M314.965,219.972a1.03,1.03,0,0,1,1.483-1.429l1.861,1.935,4.86-7.055a1.03,1.03,0,0,1,1.7,1.17l-5.554,8.063a1.143,1.143,0,0,1-.156.189,1.029,1.029,0,0,1-1.456-.031Z" fill="#78c9d9" fill-rule="evenodd"/>
            <path id="Trazado_886703" data-name="Trazado 886703" d="M341.079,268.591c.8.991,8.836,5.437,8.836,5.437l-2.972,42.042s-.081,4.449-5.141,4.449H325.415c-5.061,0-5.142-4.449-5.142-4.449L317.3,274.028s8.034-4.446,8.836-5.437Z" fill="#fff" fill-rule="evenodd"/>
            <path id="Trazado_886704" data-name="Trazado 886704" d="M349.2,282.993H318.011a1.08,1.08,0,0,0-1.078,1.155l1.87,26.42a1.076,1.076,0,0,0,1.076,1.005h27.458a1.078,1.078,0,0,0,1.078-1.005l1.868-26.42a1.077,1.077,0,0,0-1.078-1.155" fill="#a36e4e" fill-rule="evenodd"/>
            <path id="Trazado_886705" data-name="Trazado 886705" d="M344.922,265.746H322.3a5,5,0,0,0,0,10h22.627a5,5,0,0,0,0-10" fill="#fff" fill-rule="evenodd"/>
            <path id="Trazado_886706" data-name="Trazado 886706" d="M350.573,270.727h-33.93a2.806,2.806,0,1,0,0,5.612h33.93a2.806,2.806,0,1,0,0-5.612" fill="#a36e4e" fill-rule="evenodd"/>
            <path id="Trazado_886707" data-name="Trazado 886707" d="M333.608,307.784a10.5,10.5,0,1,0-10.5-10.5,10.523,10.523,0,0,0,10.5,10.5" fill="#0c0e0e" fill-rule="evenodd"/>
            <path id="Trazado_886708" data-name="Trazado 886708" d="M333.609,306.527a9.245,9.245,0,1,0-9.244-9.243,9.262,9.262,0,0,0,9.244,9.243" fill="#fffaf9" fill-rule="evenodd"/>
            <path id="Trazado_886709" data-name="Trazado 886709" d="M333.608,289.853h0a4.48,4.48,0,0,0-4.468,4.468v5.924a4.488,4.488,0,0,0,2.98,4.213v-4.744c0-1.629.256-1.868.884-2.45.082-.078.172-.161.3-.287.145-.145.3-.276.458-.407.59-.492,1.2-1.007,1.2-2.912v-3.593a4.438,4.438,0,0,0-1.356-.212m-.621,14.816v-4.955c0-1.256.175-1.417.605-1.818.1-.1.22-.206.324-.306.128-.129.26-.242.4-.357.741-.621,1.516-1.266,1.516-3.575v-3.21a4.48,4.48,0,0,1,2.245,3.873v5.924a4.481,4.481,0,0,1-4.468,4.469,4.541,4.541,0,0,1-.621-.045" fill-rule="evenodd"/>
            <path id="Trazado_886710" data-name="Trazado 886710" d="M315.983,271.634a2.814,2.814,0,0,0,2.807,2.807h33.929a2.758,2.758,0,0,0,.526-.05,2.819,2.819,0,0,1-2.672,1.948h-33.93a2.806,2.806,0,0,1-.524-5.562,2.766,2.766,0,0,0-.136.857" fill="#794c34" fill-rule="evenodd"/>
            <path id="Trazado_886711" data-name="Trazado 886711" d="M319.608,266.534a5.014,5.014,0,0,0,4.585,3.015h22.628a4.963,4.963,0,0,0,2.687-.788,4.966,4.966,0,0,1,.412,1.965H317.3a5,5,0,0,1,2.311-4.192" fill="#fadfd3" fill-rule="evenodd"/>
            <path id="Trazado_886712" data-name="Trazado 886712" d="M322.563,278.747a1.243,1.243,0,0,0-1.241,1.331l.206,2.915h-3.517a.637.637,0,0,0-.076,0l-.47-6.657h32.287l-.169,2.408Zm1.306,32.826.339,4.789a1.158,1.158,0,0,0,1.156,1.077h21.288c-.458,1.309-1.668,3.079-4.86,3.079H325.4c-5.059,0-5.141-4.449-5.141-4.449l-.318-4.5Z" fill="#fadfd3" fill-rule="evenodd"/>
            <path id="Trazado_886713" data-name="Trazado 886713" d="M321.394,284.149l1.867,26.42a1.078,1.078,0,0,0,1.078,1.005h-4.46a1.077,1.077,0,0,1-1.076-1.005l-1.87-26.42a1.055,1.055,0,0,1,.289-.813,1.037,1.037,0,0,1,.714-.339.614.614,0,0,1,.075,0h4.458a1.075,1.075,0,0,0-1.075,1.155" fill="#794c34" fill-rule="evenodd"/>
            <path id="Trazado_886714" data-name="Trazado 886714" d="M78.761,160.929h60.562a5.6,5.6,0,0,1,5.583,5.584v31.046a.624.624,0,0,1-1.064.444l-9.515-9.516H78.761a5.6,5.6,0,0,1-5.585-5.585V166.513a5.6,5.6,0,0,1,5.585-5.584" fill="#7cbee2" fill-rule="evenodd"/>
            <path id="Trazado_886715" data-name="Trazado 886715" d="M86.114,178.8,78.848,175.6V174.55l7.266-3.627v1.756L81.108,175l5.006,2.055Zm2.661-2.066v-.543a2.4,2.4,0,0,1,.3-1.219,3.906,3.906,0,0,1,1.1-1.1,4.591,4.591,0,0,0,1.013-.892,1.289,1.289,0,0,0,.245-.768.827.827,0,0,0-.352-.721,1.661,1.661,0,0,0-.978-.25,5.643,5.643,0,0,0-2.5.715l-.8-1.6a6.959,6.959,0,0,1,3.459-.916,3.7,3.7,0,0,1,2.4.724,2.369,2.369,0,0,1,.885,1.932,2.546,2.546,0,0,1-.364,1.387,5.21,5.21,0,0,1-1.391,1.316,4.348,4.348,0,0,0-.887.791,1.221,1.221,0,0,0-.186.707v.44Zm-.234,2.5a1.224,1.224,0,0,1,.328-.93,1.338,1.338,0,0,1,.957-.315,1.3,1.3,0,0,1,.942.323,1.423,1.423,0,0,1-.006,1.832,1.265,1.265,0,0,1-.936.332,1.3,1.3,0,0,1-.948-.323,1.223,1.223,0,0,1-.337-.919m8.973-4.617h.746a2.457,2.457,0,0,0,1.566-.414,1.44,1.44,0,0,0,.519-1.2,1.487,1.487,0,0,0-.434-1.178,2.045,2.045,0,0,0-1.366-.381H97.514Zm5.121-1.7a3.271,3.271,0,0,1-1.079,2.642,4.616,4.616,0,0,1-3.068.913h-.974v3.805H95.246v-10.7h3.416a4.556,4.556,0,0,1,2.961.838,3.058,3.058,0,0,1,1.012,2.5m10.781,7.36h-2.26v-4.613h-4.235v4.613h-2.266v-10.7h2.266v4.2h4.235v-4.2h2.26Zm4.968-5.663h.746a2.456,2.456,0,0,0,1.566-.414,1.438,1.438,0,0,0,.52-1.2,1.484,1.484,0,0,0-.435-1.178,2.038,2.038,0,0,0-1.365-.381h-1.032Zm5.122-1.7a3.271,3.271,0,0,1-1.079,2.642,4.618,4.618,0,0,1-3.068.913h-.975v3.805h-2.266v-10.7h3.415a4.564,4.564,0,0,1,2.962.838,3.06,3.06,0,0,1,1.011,2.5m2.693,3.811v-.543a2.385,2.385,0,0,1,.3-1.219,3.887,3.887,0,0,1,1.1-1.1,4.6,4.6,0,0,0,1.014-.892,1.3,1.3,0,0,0,.244-.768.823.823,0,0,0-.352-.721,1.661,1.661,0,0,0-.978-.25,5.647,5.647,0,0,0-2.5.715l-.8-1.6a6.956,6.956,0,0,1,3.458-.916,3.7,3.7,0,0,1,2.4.724,2.366,2.366,0,0,1,.885,1.932,2.563,2.563,0,0,1-.363,1.387,5.218,5.218,0,0,1-1.392,1.316,4.277,4.277,0,0,0-.886.791,1.214,1.214,0,0,0-.188.707v.44Zm-.234,2.5a1.224,1.224,0,0,1,.329-.93,1.332,1.332,0,0,1,.956-.315,1.3,1.3,0,0,1,.942.323,1.421,1.421,0,0,1-.005,1.832,1.266,1.266,0,0,1-.937.332,1.307,1.307,0,0,1-.948-.323,1.226,1.226,0,0,1-.337-.919m6-2.186L136.976,175l-5.007-2.319v-1.756l7.266,3.627V175.6l-7.266,3.205Z" fill="#fff" fill-rule="evenodd"/>
            <path id="Trazado_886716" data-name="Trazado 886716" d="M95.66,299.355,98.571,303H111.8l2.909-3.645c10.453-28.193-29.5-28.193-19.048,0" fill="#aabd46" fill-rule="evenodd"/>
            <path id="Trazado_886717" data-name="Trazado 886717" d="M99.43,299.355,101.188,303h7.995l1.757-3.645c6.316-28.193-17.827-28.193-11.51,0" fill="#ccde6f" fill-rule="evenodd"/>
            <path id="Trazado_886718" data-name="Trazado 886718" d="M116.527,297.014H93.841a1.429,1.429,0,0,0-1.427,1.425v6.481a1.429,1.429,0,0,0,1.427,1.428h22.686a1.429,1.429,0,0,0,1.428-1.428v-6.481a1.429,1.429,0,0,0-1.428-1.425" fill="#a36e4e" fill-rule="evenodd"/>
            <path id="Trazado_886719" data-name="Trazado 886719" d="M112.751,302.283H97.617l-3.95,4.064,3.226,14.171h16.582l3.228-14.171Z" fill="#a36e4e" fill-rule="evenodd"/>
            <path id="Trazado_886720" data-name="Trazado 886720" d="M93.667,306.348l.663,2.8h21.709l.665-2.8Z" fill="#794c34" fill-rule="evenodd"/>
            <path id="Trazado_886721" data-name="Trazado 886721" d="M82.916,215.311H84.4a.661.661,0,1,1,0,1.322H82.916a.661.661,0,1,1,0-1.322" fill="#d84f50" fill-rule="evenodd"/>
            <path id="Trazado_886722" data-name="Trazado 886722" d="M81.5,225.548H73.129a.661.661,0,1,0,0,1.322H81.5a.661.661,0,1,0,0-1.322" fill="#d84f50" fill-rule="evenodd"/>
            <path id="Trazado_886723" data-name="Trazado 886723" d="M88.806,230.283H95.82a.661.661,0,1,1,0,1.322H88.806a.661.661,0,1,1,0-1.322" fill="#d84f50" fill-rule="evenodd"/>
            <path id="Trazado_886724" data-name="Trazado 886724" d="M93.788,239.2H95.82a.661.661,0,1,1,0,1.322H93.788a.661.661,0,1,1,0-1.322" fill="#d84f50" fill-rule="evenodd"/>
            <path id="Trazado_886725" data-name="Trazado 886725" d="M56.273,248.669H76.7a.661.661,0,1,1,0,1.322H56.273a.661.661,0,1,1,0-1.322" fill="#d84f50" fill-rule="evenodd"/>
            <path id="Trazado_886726" data-name="Trazado 886726" d="M81.5,253.407H73.129a.661.661,0,0,0,0,1.322H81.5a.661.661,0,1,0,0-1.322" fill="#d84f50" fill-rule="evenodd"/>
            <path id="Trazado_886727" data-name="Trazado 886727" d="M88.806,258.143H95.82a.661.661,0,1,1,0,1.322H88.806a.661.661,0,1,1,0-1.322" fill="#d84f50" fill-rule="evenodd"/>
            <path id="Trazado_886728" data-name="Trazado 886728" d="M93.788,267.06H95.82a.661.661,0,1,1,0,1.323H93.788a.661.661,0,0,1,0-1.323" fill="#d84f50" fill-rule="evenodd"/>
            <path id="Trazado_886729" data-name="Trazado 886729" d="M56.273,276.529H76.7a.661.661,0,0,1,0,1.322H56.273a.661.661,0,1,1,0-1.322" fill="#d84f50" fill-rule="evenodd"/>
            <path id="Trazado_886730" data-name="Trazado 886730" d="M111.64,215.311h10.747a.661.661,0,1,1,0,1.322H111.64a.661.661,0,1,1,0-1.322" fill="#7897a8" fill-rule="evenodd"/>
            <path id="Trazado_886731" data-name="Trazado 886731" d="M71.315,219.768H92.376a.661.661,0,0,1,0,1.323H71.315a.661.661,0,1,1,0-1.323" fill="#7897a8" fill-rule="evenodd"/>
            <path id="Trazado_886732" data-name="Trazado 886732" d="M96,219.768h-.856a.661.661,0,1,0,0,1.323H96a.662.662,0,0,0,0-1.323" fill="#7897a8" fill-rule="evenodd"/>
            <path id="Trazado_886733" data-name="Trazado 886733" d="M122.387,219.768H98.682a.661.661,0,0,0,0,1.323h23.705a.661.661,0,0,0,0-1.323" fill="#7897a8" fill-rule="evenodd"/>
            <path id="Trazado_886734" data-name="Trazado 886734" d="M88.171,215.311h20.08a.661.661,0,1,1,0,1.322H88.171a.661.661,0,1,1,0-1.322" fill="#7897a8" fill-rule="evenodd"/>
            <path id="Trazado_886735" data-name="Trazado 886735" d="M39.69,225.548H69.9a.661.661,0,1,1,0,1.322H39.69a.661.661,0,1,1,0-1.322" fill="#7897a8" fill-rule="evenodd"/>
            <path id="Trazado_886736" data-name="Trazado 886736" d="M84.365,225.548h30.213a.661.661,0,1,1,0,1.322H84.365a.661.661,0,1,1,0-1.322" fill="#7897a8" fill-rule="evenodd"/>
            <path id="Trazado_886737" data-name="Trazado 886737" d="M99.861,230.283h10.911a.661.661,0,1,1,0,1.322H99.861a.661.661,0,1,1,0-1.322" fill="#7897a8" fill-rule="evenodd"/>
            <path id="Trazado_886738" data-name="Trazado 886738" d="M37.516,230.283h47.7a.661.661,0,0,1,0,1.322h-47.7a.661.661,0,1,1,0-1.322" fill="#7897a8" fill-rule="evenodd"/>
            <path id="Trazado_886739" data-name="Trazado 886739" d="M63.07,234.8h47.7a.661.661,0,1,1,0,1.322H63.07a.661.661,0,1,1,0-1.322" fill="#7897a8" fill-rule="evenodd"/>
            <path id="Trazado_886740" data-name="Trazado 886740" d="M99.861,239.2h10.911a.661.661,0,0,1,0,1.322H99.861a.661.661,0,1,1,0-1.322" fill="#7897a8" fill-rule="evenodd"/>
            <path id="Trazado_886741" data-name="Trazado 886741" d="M56.273,239.2H89.93a.661.661,0,1,1,0,1.322H56.273a.661.661,0,1,1,0-1.322" fill="#7897a8" fill-rule="evenodd"/>
            <path id="Trazado_886742" data-name="Trazado 886742" d="M63.07,243.934h52.775a.661.661,0,1,1,0,1.322H63.07a.661.661,0,1,1,0-1.322" fill="#7897a8" fill-rule="evenodd"/>
            <path id="Trazado_886743" data-name="Trazado 886743" d="M81.464,248.669h34.381a.661.661,0,1,1,0,1.322H81.464a.661.661,0,1,1,0-1.322" fill="#7897a8" fill-rule="evenodd"/>
            <path id="Trazado_886744" data-name="Trazado 886744" d="M39.69,253.407H69.9a.661.661,0,1,1,0,1.322H39.69a.661.661,0,1,1,0-1.322" fill="#7897a8" fill-rule="evenodd"/>
            <path id="Trazado_886745" data-name="Trazado 886745" d="M84.365,253.407h30.213a.661.661,0,1,1,0,1.322H84.365a.661.661,0,0,1,0-1.322" fill="#7897a8" fill-rule="evenodd"/>
            <path id="Trazado_886746" data-name="Trazado 886746" d="M99.861,258.143h10.911a.661.661,0,1,1,0,1.322H99.861a.661.661,0,1,1,0-1.322" fill="#7897a8" fill-rule="evenodd"/>
            <path id="Trazado_886747" data-name="Trazado 886747" d="M37.516,258.143h47.7a.661.661,0,0,1,0,1.322h-47.7a.661.661,0,1,1,0-1.322" fill="#7897a8" fill-rule="evenodd"/>
            <path id="Trazado_886748" data-name="Trazado 886748" d="M63.07,262.656h47.7a.661.661,0,0,1,0,1.323H63.07a.661.661,0,0,1,0-1.323" fill="#7897a8" fill-rule="evenodd"/>
            <path id="Trazado_886749" data-name="Trazado 886749" d="M99.861,267.06h10.911a.661.661,0,0,1,0,1.323H99.861a.661.661,0,0,1,0-1.323" fill="#7897a8" fill-rule="evenodd"/>
            <path id="Trazado_886750" data-name="Trazado 886750" d="M56.273,267.06H89.93a.661.661,0,0,1,0,1.323H56.273a.661.661,0,1,1,0-1.323" fill="#7897a8" fill-rule="evenodd"/>
            <path id="Trazado_886751" data-name="Trazado 886751" d="M63.07,271.793h52.775a.661.661,0,1,1,0,1.322H63.07a.661.661,0,1,1,0-1.322" fill="#7897a8" fill-rule="evenodd"/>
            <path id="Trazado_886752" data-name="Trazado 886752" d="M81.464,276.529h34.381a.661.661,0,0,1,0,1.322H81.464a.661.661,0,0,1,0-1.322" fill="#7897a8" fill-rule="evenodd"/>
            <path id="Trazado_886753" data-name="Trazado 886753" d="M251.714,36.071h41.34a5.475,5.475,0,0,1,5.459,5.46V75.052a.609.609,0,0,1-1.04.431l-9.3-9.3H251.714a5.476,5.476,0,0,1-5.46-5.46V41.531a5.475,5.475,0,0,1,5.46-5.46" fill="#7cbee2" fill-rule="evenodd"/>
            <path id="Trazado_886754" data-name="Trazado 886754" d="M261.58,56.4h-2.267V51.777h-4.247V56.4h-2.272V45.677h2.272v4.207h4.247V45.677h2.267Zm6.846,0h-2.274V47.57h-2.913V45.677h8.1V47.57h-2.912Zm9.108,0-2.585-8.416h-.065q.138,2.568.14,3.426V56.4H272.99V45.677h3.1l2.536,8.2h.045l2.694-8.2h3.1V56.4h-2.12V51.326q0-.357.012-.83t.1-2.493h-.065l-2.768,8.4Zm9.622,0V45.677h2.273v8.849h4.352V56.4Z" fill="#fff" fill-rule="evenodd"/>
            <path id="Trazado_886755" data-name="Trazado 886755" d="M77.368,117.41a2.433,2.433,0,1,0-2.432-2.433,2.438,2.438,0,0,0,2.432,2.433" fill="#fff" fill-rule="evenodd"/>
            <path id="Trazado_886756" data-name="Trazado 886756" d="M289.754,180.839a2.432,2.432,0,1,0-2.432-2.433,2.438,2.438,0,0,0,2.432,2.433" fill="#fff" fill-rule="evenodd"/>
            <path id="Trazado_886757" data-name="Trazado 886757" d="M346.058,79.635a2.432,2.432,0,1,0-2.432-2.432,2.437,2.437,0,0,0,2.432,2.432" fill="#fff" fill-rule="evenodd"/>
            <path id="Trazado_886758" data-name="Trazado 886758" d="M388.108,305.563a2.431,2.431,0,1,0-2.432-2.433,2.437,2.437,0,0,0,2.432,2.433" fill="#fff" fill-rule="evenodd"/>
            <path id="Trazado_886759" data-name="Trazado 886759" d="M55.986,306.276a2.432,2.432,0,1,0-2.432-2.433,2.436,2.436,0,0,0,2.432,2.433" fill="#fff" fill-rule="evenodd"/>
            <path id="Trazado_886760" data-name="Trazado 886760" d="M180,24.115a1.1,1.1,0,1,0-1.1-1.1,1.108,1.108,0,0,0,1.1,1.1" fill="#fff" fill-rule="evenodd"/>
            <path id="Trazado_886761" data-name="Trazado 886761" d="M104.451,89.684a1.105,1.105,0,1,0-1.1-1.1,1.108,1.108,0,0,0,1.1,1.1" fill="#fff" fill-rule="evenodd"/>
            <path id="Trazado_886762" data-name="Trazado 886762" d="M284.377,95.169h67.985a3.537,3.537,0,0,1,3.527,3.526v51.87a3.536,3.536,0,0,1-3.527,3.525H284.377a3.535,3.535,0,0,1-3.524-3.525V98.695a3.536,3.536,0,0,1,3.524-3.526" fill="#9cc6e0" fill-rule="evenodd"/>
            <path id="Trazado_886763" data-name="Trazado 886763" d="M282.552,93.292h67.985a3.534,3.534,0,0,1,3.526,3.524v51.871a3.536,3.536,0,0,1-3.526,3.526H282.552a3.536,3.536,0,0,1-3.525-3.526V96.816a3.534,3.534,0,0,1,3.525-3.524" fill="#fff" fill-rule="evenodd"/>
            <path id="Trazado_886764" data-name="Trazado 886764" d="M282.552,93.292h67.985a3.534,3.534,0,0,1,3.526,3.524v4.868a.991.991,0,0,1-.988.987H280.013a.989.989,0,0,1-.986-.987V96.816a3.534,3.534,0,0,1,3.525-3.524" fill="#252626" fill-rule="evenodd"/>
            <path id="Trazado_886765" data-name="Trazado 886765" d="M284.73,106.6h19.058a.732.732,0,0,1,0,1.464H284.73a.732.732,0,1,1,0-1.464" fill="#0c0e0e" fill-rule="evenodd"/>
            <path id="Trazado_886766" data-name="Trazado 886766" d="M303.788,109.833h-8.514a.732.732,0,0,0,0,1.464h8.514a.732.732,0,1,0,0-1.464" fill="#0c0e0e" fill-rule="evenodd"/>
            <path id="Trazado_886767" data-name="Trazado 886767" d="M291.561,109.833h.676a.732.732,0,0,1,0,1.464h-.676a.732.732,0,0,1,0-1.464" fill="#0c0e0e" fill-rule="evenodd"/>
            <path id="Trazado_886768" data-name="Trazado 886768" d="M284.73,109.833h4.265a.732.732,0,0,1,0,1.464H284.73a.732.732,0,1,1,0-1.464" fill="#0c0e0e" fill-rule="evenodd"/>
            <path id="Trazado_886769" data-name="Trazado 886769" d="M284.73,113.665h19.058a.735.735,0,0,1,.732.732v0a.735.735,0,0,1-.732.732H284.73A.735.735,0,0,1,284,114.4v0a.735.735,0,0,1,.732-.732" fill="#0c0e0e" fill-rule="evenodd"/>
            <path id="Trazado_886770" data-name="Trazado 886770" d="M284.73,116.9h8.514a.732.732,0,1,1,0,1.464H284.73a.732.732,0,1,1,0-1.464" fill="#0c0e0e" fill-rule="evenodd"/>
            <path id="Trazado_886771" data-name="Trazado 886771" d="M296.958,116.9h-.676a.732.732,0,0,0,0,1.464h.676a.732.732,0,0,0,0-1.464" fill="#0c0e0e" fill-rule="evenodd"/>
            <path id="Trazado_886772" data-name="Trazado 886772" d="M303.788,116.9h-4.264a.732.732,0,0,0,0,1.464h4.264a.732.732,0,1,0,0-1.464" fill="#0c0e0e" fill-rule="evenodd"/>
            <path id="Trazado_886773" data-name="Trazado 886773" d="M284.73,120.73h19.058a.735.735,0,0,1,.732.732v0a.733.733,0,0,1-.732.73H284.73a.733.733,0,0,1-.732-.73v0a.735.735,0,0,1,.732-.732" fill="#0c0e0e" fill-rule="evenodd"/>
            <path id="Trazado_886774" data-name="Trazado 886774" d="M303.788,123.961h-8.514a.732.732,0,0,0,0,1.464h8.514a.732.732,0,1,0,0-1.464" fill="#0c0e0e" fill-rule="evenodd"/>
            <path id="Trazado_886775" data-name="Trazado 886775" d="M291.561,123.961h.676a.732.732,0,0,1,0,1.464h-.676a.732.732,0,0,1,0-1.464" fill="#0c0e0e" fill-rule="evenodd"/>
            <path id="Trazado_886776" data-name="Trazado 886776" d="M284.73,123.961h4.265a.732.732,0,0,1,0,1.464H284.73a.732.732,0,1,1,0-1.464" fill="#0c0e0e" fill-rule="evenodd"/>
            <path id="Trazado_886777" data-name="Trazado 886777" d="M284.73,127.794h19.058a.732.732,0,0,1,0,1.464H284.73a.732.732,0,1,1,0-1.464" fill="#0c0e0e" fill-rule="evenodd"/>
            <path id="Trazado_886778" data-name="Trazado 886778" d="M284.73,131.025h8.514a.732.732,0,1,1,0,1.464H284.73a.732.732,0,1,1,0-1.464" fill="#0c0e0e" fill-rule="evenodd"/>
            <path id="Trazado_886779" data-name="Trazado 886779" d="M303.112,131.025h.676a.732.732,0,0,1,0,1.464h-.676a.732.732,0,1,1,0-1.464" fill="#0c0e0e" fill-rule="evenodd"/>
            <path id="Trazado_886780" data-name="Trazado 886780" d="M296.281,131.025h4.266a.732.732,0,0,1,0,1.464h-4.266a.732.732,0,0,1,0-1.464" fill="#0c0e0e" fill-rule="evenodd"/>
            <path id="Trazado_886781" data-name="Trazado 886781" d="M284.73,134.857h19.058a.735.735,0,0,1,.732.732v0a.733.733,0,0,1-.732.73H284.73a.733.733,0,0,1-.732-.73v0a.735.735,0,0,1,.732-.732" fill="#0c0e0e" fill-rule="evenodd"/>
            <path id="Trazado_886782" data-name="Trazado 886782" d="M296.958,138.09h-8.514a.734.734,0,0,0-.732.731h0a.735.735,0,0,0,.732.732h8.514a.734.734,0,0,0,.732-.732h0a.733.733,0,0,0-.732-.731" fill="#0c0e0e" fill-rule="evenodd"/>
            <path id="Trazado_886783" data-name="Trazado 886783" d="M284.73,138.09h.677a.734.734,0,0,1,.732.731h0a.735.735,0,0,1-.732.732h-.677a.735.735,0,0,1-.732-.732h0a.734.734,0,0,1,.732-.731" fill="#0c0e0e" fill-rule="evenodd"/>
            <path id="Trazado_886784" data-name="Trazado 886784" d="M303.788,138.09h-4.264a.733.733,0,0,0-.732.731h0a.734.734,0,0,0,.732.732h4.264a.736.736,0,0,0,.733-.732h0a.735.735,0,0,0-.733-.731" fill="#0c0e0e" fill-rule="evenodd"/>
            <path id="Trazado_886785" data-name="Trazado 886785" d="M284.73,141.922h19.058a.735.735,0,0,1,.732.732v0a.733.733,0,0,1-.732.73H284.73a.733.733,0,0,1-.732-.73v0a.735.735,0,0,1,.732-.732" fill="#0c0e0e" fill-rule="evenodd"/>
            <path id="Trazado_886786" data-name="Trazado 886786" d="M284.73,145.153h8.514a.732.732,0,1,1,0,1.464H284.73a.732.732,0,1,1,0-1.464" fill="#0c0e0e" fill-rule="evenodd"/>
            <path id="Trazado_886787" data-name="Trazado 886787" d="M296.958,145.153h-.676a.732.732,0,0,0,0,1.464h.676a.732.732,0,0,0,0-1.464" fill="#0c0e0e" fill-rule="evenodd"/>
            <path id="Trazado_886788" data-name="Trazado 886788" d="M303.788,145.153h-4.264a.732.732,0,0,0,0,1.464h4.264a.732.732,0,1,0,0-1.464" fill="#0c0e0e" fill-rule="evenodd"/>
            <path id="Trazado_886789" data-name="Trazado 886789" d="M315.983,106.6h32.242a.732.732,0,1,1,0,1.464H315.983a.732.732,0,0,1,0-1.464" fill="#d84f50" fill-rule="evenodd"/>
            <path id="Trazado_886790" data-name="Trazado 886790" d="M348.226,109.833H333.3a.732.732,0,0,0,0,1.464h14.924a.732.732,0,0,0,0-1.464" fill="#d84f50" fill-rule="evenodd"/>
            <path id="Trazado_886791" data-name="Trazado 886791" d="M327.2,109.833h2.05a.732.732,0,0,1,0,1.464H327.2a.732.732,0,0,1,0-1.464" fill="#d84f50" fill-rule="evenodd"/>
            <path id="Trazado_886792" data-name="Trazado 886792" d="M315.983,109.833h7.944a.732.732,0,1,1,0,1.464h-7.944a.732.732,0,0,1,0-1.464" fill="#d84f50" fill-rule="evenodd"/>
            <path id="Trazado_886793" data-name="Trazado 886793" d="M315.983,113.665h32.242a.735.735,0,0,1,.733.732v0a.735.735,0,0,1-.733.732H315.983a.733.733,0,0,1-.731-.732v0a.733.733,0,0,1,.731-.732" fill="#d84f50" fill-rule="evenodd"/>
            <path id="Trazado_886794" data-name="Trazado 886794" d="M315.983,116.9h14.923a.732.732,0,0,1,0,1.464H315.983a.732.732,0,0,1,0-1.464" fill="#d84f50" fill-rule="evenodd"/>
            <path id="Trazado_886795" data-name="Trazado 886795" d="M337.006,116.9h-2.051a.732.732,0,0,0,0,1.464h2.051a.732.732,0,0,0,0-1.464" fill="#d84f50" fill-rule="evenodd"/>
            <path id="Trazado_886796" data-name="Trazado 886796" d="M348.226,116.9h-7.945a.732.732,0,1,0,0,1.464h7.945a.732.732,0,1,0,0-1.464" fill="#d84f50" fill-rule="evenodd"/>
            <path id="Trazado_886797" data-name="Trazado 886797" d="M315.983,120.73h32.242a.735.735,0,0,1,.733.732v0a.733.733,0,0,1-.733.73H315.983a.732.732,0,0,1-.731-.73v0a.733.733,0,0,1,.731-.732" fill="#d84f50" fill-rule="evenodd"/>
            <path id="Trazado_886798" data-name="Trazado 886798" d="M348.226,123.961H333.3a.732.732,0,0,0,0,1.464h14.924a.732.732,0,0,0,0-1.464" fill="#d84f50" fill-rule="evenodd"/>
            <path id="Trazado_886799" data-name="Trazado 886799" d="M327.2,123.961h2.05a.732.732,0,0,1,0,1.464H327.2a.732.732,0,0,1,0-1.464" fill="#d84f50" fill-rule="evenodd"/>
            <path id="Trazado_886800" data-name="Trazado 886800" d="M315.983,123.961h7.944a.732.732,0,1,1,0,1.464h-7.944a.732.732,0,0,1,0-1.464" fill="#d84f50" fill-rule="evenodd"/>
            <path id="Trazado_886801" data-name="Trazado 886801" d="M315.983,127.794h32.242a.732.732,0,1,1,0,1.464H315.983a.732.732,0,0,1,0-1.464" fill="#d84f50" fill-rule="evenodd"/>
            <path id="Trazado_886802" data-name="Trazado 886802" d="M315.983,131.025h14.923a.732.732,0,0,1,0,1.464H315.983a.732.732,0,0,1,0-1.464" fill="#d84f50" fill-rule="evenodd"/>
            <path id="Trazado_886803" data-name="Trazado 886803" d="M346.174,131.025h2.052a.732.732,0,0,1,0,1.464h-2.052a.732.732,0,1,1,0-1.464" fill="#d84f50" fill-rule="evenodd"/>
            <path id="Trazado_886804" data-name="Trazado 886804" d="M334.955,131.025H342.9a.732.732,0,1,1,0,1.464h-7.944a.732.732,0,0,1,0-1.464" fill="#d84f50" fill-rule="evenodd"/>
            <path id="Trazado_886805" data-name="Trazado 886805" d="M315.983,134.857h32.242a.735.735,0,0,1,.733.732v0a.733.733,0,0,1-.733.73H315.983a.732.732,0,0,1-.731-.73v0a.733.733,0,0,1,.731-.732" fill="#d84f50" fill-rule="evenodd"/>
            <path id="Trazado_886806" data-name="Trazado 886806" d="M337.006,138.09H322.083a.734.734,0,0,0-.731.731h0a.735.735,0,0,0,.731.732h14.923a.734.734,0,0,0,.732-.732h0a.733.733,0,0,0-.732-.731" fill="#d84f50" fill-rule="evenodd"/>
            <path id="Trazado_886807" data-name="Trazado 886807" d="M315.983,138.09h2.052a.734.734,0,0,1,.732.731h0a.735.735,0,0,1-.732.732h-2.052a.733.733,0,0,1-.731-.732h0a.733.733,0,0,1,.731-.731" fill="#d84f50" fill-rule="evenodd"/>
            <path id="Trazado_886808" data-name="Trazado 886808" d="M348.226,138.09h-7.945a.734.734,0,0,0-.733.731h0a.735.735,0,0,0,.733.732h7.945a.736.736,0,0,0,.733-.732h0a.735.735,0,0,0-.733-.731" fill="#d84f50" fill-rule="evenodd"/>
            <path id="Trazado_886809" data-name="Trazado 886809" d="M315.983,141.922h32.242a.735.735,0,0,1,.733.732v0a.733.733,0,0,1-.733.73H315.983a.732.732,0,0,1-.731-.73v0a.733.733,0,0,1,.731-.732" fill="#d84f50" fill-rule="evenodd"/>
            <path id="Trazado_886810" data-name="Trazado 886810" d="M315.983,145.153h14.923a.732.732,0,0,1,0,1.464H315.983a.732.732,0,0,1,0-1.464" fill="#d84f50" fill-rule="evenodd"/>
            <path id="Trazado_886811" data-name="Trazado 886811" d="M337.006,145.153h-2.051a.732.732,0,0,0,0,1.464h2.051a.732.732,0,0,0,0-1.464" fill="#d84f50" fill-rule="evenodd"/>
            <path id="Trazado_886812" data-name="Trazado 886812" d="M348.226,145.153h-7.945a.732.732,0,1,0,0,1.464h7.945a.732.732,0,1,0,0-1.464" fill="#d84f50" fill-rule="evenodd"/>
            <path id="Trazado_886813" data-name="Trazado 886813" d="M335.97,99.673a1.692,1.692,0,1,0-1.693-1.693,1.695,1.695,0,0,0,1.693,1.693" fill="#fff" fill-rule="evenodd"/>
            <path id="Trazado_886814" data-name="Trazado 886814" d="M342.072,99.673a1.692,1.692,0,1,0-1.692-1.693,1.7,1.7,0,0,0,1.692,1.693" fill="#fff" fill-rule="evenodd"/>
            <path id="Trazado_886815" data-name="Trazado 886815" d="M348.175,99.673a1.692,1.692,0,1,0-1.692-1.693,1.7,1.7,0,0,0,1.692,1.693" fill="#fff" fill-rule="evenodd"/>
            <path id="Trazado_886816" data-name="Trazado 886816" d="M276.213,84.695a1.1,1.1,0,1,0-1.105-1.105,1.108,1.108,0,0,0,1.105,1.105" fill="#fff" fill-rule="evenodd"/>
            <path id="Trazado_886817" data-name="Trazado 886817" d="M149.672,144.883a1.1,1.1,0,1,0-1.106-1.1,1.107,1.107,0,0,0,1.106,1.1" fill="#fff" fill-rule="evenodd"/>
            <path id="Trazado_886818" data-name="Trazado 886818" d="M292.286,196.2a1.106,1.106,0,1,0-1.107-1.105,1.107,1.107,0,0,0,1.107,1.105" fill="#fff" fill-rule="evenodd"/>
            <path id="Trazado_886819" data-name="Trazado 886819" d="M369.972,275.309a1.1,1.1,0,1,0-1.107-1.107,1.109,1.109,0,0,0,1.107,1.107" fill="#fff" fill-rule="evenodd"/>
            <path id="Trazado_886820" data-name="Trazado 886820" d="M77.049,290.989a1.105,1.105,0,1,0-1.107-1.1,1.108,1.108,0,0,0,1.107,1.1" fill="#fff" fill-rule="evenodd"/>
            <path id="Trazado_886821" data-name="Trazado 886821" d="M169.218,192.065s-4.967,2.336-10.5,8.8c-3.947,4.613-20.325,48.2-30.2,75.678-2.443,6.8-12.01,30.507,7.015,43.976l4.1,3.669c6.3-13.079,22.066-47.862,22.066-47.862Z" fill="#da4346" fill-rule="evenodd"/>
            <path id="Trazado_886822" data-name="Trazado 886822" d="M169.218,192.065s-4.967,2.336-10.5,8.8a27.788,27.788,0,0,0-2.765,4.969c1.345,6.813,1.132,16.128-2.5,28.768-11.009,38.33-5.947,59.112-.947,61.295l.223.1c4.858-10.607,8.962-19.667,8.962-19.667Zm-44.656,98.323c-.28,11.2,8.975,20.829,19.87,23.61-1.851,3.979-3.522,7.532-4.8,10.19l-4.1-3.669c-11.691-8.279-12.584-20.421-10.969-30.131" fill="#a62a34" fill-rule="evenodd"/>
            <path id="Trazado_886823" data-name="Trazado 886823" d="M262.759,122.283s1.3,23.217,9.658,38.124c0,0,2.707,3.558-.088,6.843s-20.611,17.848-51.622,22.092-61.274-20.984-62.067-24.291,9.5-26.948,8.69-47.056Z" fill="#0c0e0e" fill-rule="evenodd"/>
            <path id="Trazado_886824" data-name="Trazado 886824" d="M262.759,122.282a126.086,126.086,0,0,0,4.456,25.321c-5.291,4.364-16.36,15.646-14.985,32.729a111.9,111.9,0,0,1-31.523,9.01c-14.168,1.941-28.177-2.274-39.294-7.737a21.981,21.981,0,0,0-.218-16.616c-4.745-11.777-12.055-16.958-17.661-19.236,2.176-8.442,4.169-18.475,3.8-27.757Z" fill-rule="evenodd"/>
            <path id="Trazado_886825" data-name="Trazado 886825" d="M266.991,192.065s4.965,2.336,10.5,8.8c3.946,4.613,20.324,48.2,30.2,75.678,2.444,6.8,12.01,30.507-7.014,43.976l-4.1,3.669c-6.305-13.079-22.067-47.862-22.067-47.862Z" fill="#da4346" fill-rule="evenodd"/>
            <path id="Trazado_886826" data-name="Trazado 886826" d="M266.991,192.065s4.965,2.336,10.5,8.8a30.52,30.52,0,0,1,3.021,5.512c-1.229,6.763-.936,15.916,2.6,28.225,11.01,38.33,5.947,59.112.947,61.295l-.52.222c-4.884-10.662-9.023-19.793-9.023-19.793Zm44.954,100.408c-.836,10.4-9.783,19.1-20.133,21.606,1.837,3.946,3.494,7.47,4.767,10.109l4.1-3.669c10.869-7.7,12.4-18.731,11.269-28.046" fill="#a62a34" fill-rule="evenodd"/>
            <path id="Trazado_886827" data-name="Trazado 886827" d="M218.017,179.139s46.94,11.1,49.1,13.123,11.945,50.377,11.969,55.1c.023,4.362-11.278,64.274-13.121,80.631h-95.9c-1.844-16.357-13.146-76.269-13.122-80.631.023-4.722,9.805-53.077,11.968-55.1s49.1-13.123,49.1-13.123" fill="#da4346" fill-rule="evenodd"/>
            <path id="Trazado_886828" data-name="Trazado 886828" d="M218.017,179.139s46.94,11.1,49.1,13.123,11.945,50.377,11.969,55.1c.02,4-9.5,54.814-12.489,75.775-34.079,2.035-53.594,17.489-35.647,12.327s16.036-39.421,16.036-47.069-18.268-23.744-7.84-31.192,23.521-46.61,19.956-51.064-36.348-19.777-36.348-19.777-10.419,3.449-10.216-5.911c3.355-.81,5.476-1.311,5.476-1.311" fill="#a62a34" fill-rule="evenodd"/>
            <path id="Trazado_886829" data-name="Trazado 886829" d="M218.017,179.139s13.107,2.981,26.053,6.136a26.453,26.453,0,0,1-25.609,21.567l-.318.006a26.428,26.428,0,0,1-26.244-21.56c12.968-3.16,26.118-6.149,26.118-6.149" fill="#fff" fill-rule="evenodd"/>
            <path id="Trazado_886830" data-name="Trazado 886830" d="M218.017,179.139s13.107,2.981,26.053,6.136a26.254,26.254,0,0,1-3.871,9.613c-8.859-4.516-17.442-8.527-17.442-8.527s-10.419,3.449-10.216-5.911a.358.358,0,0,1,.01-.053c3.359-.777,5.466-1.258,5.466-1.258" fill="#e2ecf7" fill-rule="evenodd"/>
            <path id="Trazado_886831" data-name="Trazado 886831" d="M217.4,143.978l.32,0a16.835,16.835,0,0,1,16.98,16.59l.228,19.721a16.834,16.834,0,0,1-16.591,16.976l-.32.006a16.837,16.837,0,0,1-16.978-16.593l-.229-19.718a16.836,16.836,0,0,1,16.59-16.979" fill="#e8685b" fill-rule="evenodd"/>
            <path id="Trazado_886832" data-name="Trazado 886832" d="M180.826,129.5c-.256.035-.509.077-.76.129l-.007,0h0a10.353,10.353,0,1,0,8.638,2.081c.263,3.056-.222,6.838-4.122,7.216l.113-5.968a3.558,3.558,0,0,0-3.863-3.46" fill="#e8685b" fill-rule="evenodd"/>
            <path id="Trazado_886833" data-name="Trazado 886833" d="M255.523,129.5c.256.035.507.077.757.129l.009,0h0a10.35,10.35,0,1,1-8.64,2.081c-.263,3.056.224,6.838,4.123,7.216l-.111-5.968a3.556,3.556,0,0,1,3.863-3.46" fill="#e8685b" fill-rule="evenodd"/>
            <path id="Trazado_886834" data-name="Trazado 886834" d="M218.176,77.8h0a35.539,35.539,0,0,0-35.436,35.434v32.229a35.434,35.434,0,0,0,70.869,0V113.238A35.539,35.539,0,0,0,218.176,77.8" fill="#f4ad85" fill-rule="evenodd"/>
            <path id="Trazado_886835" data-name="Trazado 886835" d="M211.7,139.256a11.116,11.116,0,0,0-3.274-5.391l-14.808,16.55a11.062,11.062,0,0,0,5.722,2.656Zm-4.607-6.427-14.653,16.379a11.134,11.134,0,0,1-1.657-2.673l13.471-15.058a11.052,11.052,0,0,1,2.839,1.352" fill="#f6bb98" fill-rule="evenodd"/>
            <path id="Trazado_886836" data-name="Trazado 886836" d="M241.631,132.1l-14.245,15.924a11.018,11.018,0,0,1-1.337-3.032l12.42-13.883a10.97,10.97,0,0,1,3.162.991m5.343,5.6a11.141,11.141,0,0,0-3.861-4.734l-14.7,16.43a11.113,11.113,0,0,0,5.133,3.313Z" fill="#f6bb98" fill-rule="evenodd"/>
            <path id="Trazado_886837" data-name="Trazado 886837" d="M226.944,179.795a35.579,35.579,0,0,0,26.664-34.328V113.238a35.389,35.389,0,0,0-12.476-26.933c-23.27,2.454-47.638,4.562-47.638,4.562s-13.365,24.945-6,30.206l1.229-1.389h45.663c6.88,0,12.225,1.605,12.225,10v24.407c0,5.363-7.288,21.526-19.67,25.708" fill="#ef8871" fill-rule="evenodd"/>
            <path id="Trazado_886838" data-name="Trazado 886838" d="M238.264,147.221a4.66,4.66,0,1,0,4.57,4.747,4.66,4.66,0,0,0-4.57-4.747" fill="#e8685b" fill-rule="evenodd"/>
            <path id="Trazado_886839" data-name="Trazado 886839" d="M198.184,146.458a4.66,4.66,0,1,0,4.571,4.748,4.664,4.664,0,0,0-4.571-4.748" fill="#e8685b" fill-rule="evenodd"/>
            <path id="Trazado_886840" data-name="Trazado 886840" d="M196.18,128.117a9.322,9.322,0,0,1,8.746-.04,1.153,1.153,0,1,0,1.184-1.979,11.668,11.668,0,0,0-10.96-.042,1.152,1.152,0,0,0,1.03,2.061" fill-rule="evenodd"/>
            <path id="Trazado_886841" data-name="Trazado 886841" d="M197.207,141.519a3.385,3.385,0,0,1,6.771,0,1.156,1.156,0,1,0,2.311,0,5.7,5.7,0,1,0-11.394,0,1.156,1.156,0,1,0,2.312,0" fill-rule="evenodd"/>
            <path id="Trazado_886842" data-name="Trazado 886842" d="M240.482,141.519a1.157,1.157,0,0,0,2.313,0,5.7,5.7,0,1,0-11.4,0,1.156,1.156,0,1,0,2.311,0,3.385,3.385,0,1,1,6.771,0" fill-rule="evenodd"/>
            <path id="Trazado_886843" data-name="Trazado 886843" d="M241.509,128.117a1.152,1.152,0,1,0,1.03-2.061,11.7,11.7,0,0,0-10.961.042,1.154,1.154,0,0,0,1.186,1.979,9.326,9.326,0,0,1,8.745.04" fill-rule="evenodd"/>
            <path id="Trazado_886844" data-name="Trazado 886844" d="M152.092,299.611l-1.812,1.729,25.88,13.806-5.787,9.057H140.867s-6.734-3-6.2-6.1,6.949-20.421,17.425-18.5" fill="#d84f50" fill-rule="evenodd"/>
            <path id="Trazado_886845" data-name="Trazado 886845" d="M166.247,309.859l9.913,5.287-5.787,9.057H140.867s-6.735-3-6.2-6.1a32.09,32.09,0,0,1,2.636-7.032,25.974,25.974,0,0,0,18.33,3.216c5.149-1.112,8.472-2.743,10.614-4.433" fill="#a62a34" fill-rule="evenodd"/>
            <path id="Trazado_886846" data-name="Trazado 886846" d="M187.067,314.508s-4.975-3.33-7.655-4.935a7.045,7.045,0,0,0-7.2.075,113.924,113.924,0,0,0-10.258,8.2c-1.147,1.217,5.513,3.894,6.2,3.894s18.909-7.235,18.909-7.235" fill="#ef8871" fill-rule="evenodd"/>
            <path id="Trazado_886847" data-name="Trazado 886847" d="M284.115,299.611l1.812,1.729-25.879,13.806,5.786,9.057H295.34s6.736-3,6.2-6.1-6.949-20.421-17.427-18.5" fill="#d84f50" fill-rule="evenodd"/>
            <path id="Trazado_886848" data-name="Trazado 886848" d="M270.176,309.744l-10.128,5.4,5.786,9.057H295.34s6.736-3,6.2-6.1a31.774,31.774,0,0,0-2.558-6.871,25.911,25.911,0,0,1-18.052,3.055c-5.266-1.136-8.621-2.818-10.756-4.547" fill="#a62a34" fill-rule="evenodd"/>
            <path id="Trazado_886849" data-name="Trazado 886849" d="M249.14,314.508s4.975-3.33,7.656-4.935a7.042,7.042,0,0,1,7.2.075,114.068,114.068,0,0,1,10.258,8.2c1.149,1.217-5.512,3.894-6.2,3.894s-18.909-7.235-18.909-7.235" fill="#ef8871" fill-rule="evenodd"/>
            <path id="Trazado_886850" data-name="Trazado 886850" d="M151.652,326.031H284.384a4.493,4.493,0,0,0,0-8.987H151.652a4.493,4.493,0,0,0,0,8.987" fill="#0c0e0e" fill-rule="evenodd"/>
            <path id="Trazado_886851" data-name="Trazado 886851" d="M249.879,130v4.567c0,2.2,2.042,4.654,3.729,4.654v-4.992s.715-3.681,5.26-3.681c13.946-16.034,12.108-41.487-2.781-54.684s-46.863-14.042-52.446-12.18-11.335,11.333-11.335,11.333-4.738-4.23-9.136-2.031-19.119,29.944-19.119,36.88,13.428,20.682,13.428,20.682c4.546,0,5.261,3.681,5.261,3.681v4.992c1.685,0,3.729-2.454,3.729-4.654V130s3.96-6.278,3.96-12.876h9.463a2.416,2.416,0,0,0,2.005-1.95c.2-.965.812-7.361,1.016-8.884s.71-2.284,1.014-1.878.509,5.685,1.015,9.086c.5,3.349,2.77,3.619,2.841,3.626h39.739s.318,8.039,2.357,12.876" fill="#0c0e0e" fill-rule="evenodd"/>
            <path id="Trazado_886852" data-name="Trazado 886852" d="M266.012,90.809a36.307,36.307,0,0,0-8.561-13.668c-9.682,11.354-33.51,30.917-61.614-7.044-.561.685-1.072,1.352-1.521,1.964,3.435,7.868,10.3,19.433,22.869,26.645,17.725,10.174,40.384,5.809,48.827-7.9" fill="#252626" fill-rule="evenodd"/>
            <path id="Trazado_886853" data-name="Trazado 886853" d="M249.879,130v4.569c0,2.2,2.042,4.65,3.729,4.65v-4.99s.715-3.681,5.26-3.681c8.658-9.954,11.231-23.54,8.376-35.568-1.108,5.867-5.568,17.269-23.51,17.269-24.151,0-38.44-12.693-39.91-14.03a1.549,1.549,0,0,0-2.494.312s-8.239,12.538-22.451,8.731c-5.989-1.607-8.544-6.891-9.5-12.467-3.043,6.364-5.332,12.336-5.332,15.071,0,6.936,13.428,20.682,13.428,20.682,4.546,0,5.261,3.681,5.261,3.681v4.99c1.685,0,3.729-2.452,3.729-4.65V130s3.962-6.278,3.962-12.876h9.461a2.414,2.414,0,0,0,2.005-1.95c.2-.965.812-7.361,1.016-8.884s.71-2.284,1.014-1.878.509,5.685,1.015,9.086c.5,3.348,2.77,3.619,2.841,3.626h39.739s.318,8.039,2.357,12.876" fill-rule="evenodd"/>
            <path id="Trazado_886854" data-name="Trazado 886854" d="M228.6,156.067a10.068,10.068,0,0,1-20.133-.374h.018a1.742,1.742,0,0,1,1.77-1.706l16.623.309a1.743,1.743,0,0,1,1.705,1.771Z" fill-rule="evenodd"/>
            <path id="Trazado_886855" data-name="Trazado 886855" d="M224.706,163.835a10.063,10.063,0,0,1-11.65.491,6.267,6.267,0,0,1,5.824-3.605,6.355,6.355,0,0,1,5.826,3.114" fill="#d64341" fill-rule="evenodd"/>
            <path id="Trazado_886856" data-name="Trazado 886856" d="M210.819,154l15.624.29c.214,1.732-.618,3.464-1.788,3.822-1.422.434-12.723-.07-13.505-.974-.378-.437-.406-1.823-.331-3.138" fill="#fff" fill-rule="evenodd"/>
            <path id="Trazado_886857" data-name="Trazado 886857" d="M215.417,147.183s-1.384,2.529-.949,3.874,2.331.632,2.53-.554a9.681,9.681,0,0,0-.515-3.675c-.138-.257-.731-.356-1.066.355" fill="#f8caae" fill-rule="evenodd"/>
            <rect id="Rectángulo_404642" data-name="Rectángulo 404642" width="18.255" height="28.257" transform="translate(209.681 290.816)"/>
            <path id="Trazado_886858" data-name="Trazado 886858" d="M178.189,326.326h79.657a5.807,5.807,0,0,0,0-11.615H178.189a5.807,5.807,0,0,0,0,11.615" fill="#0c0e0e" fill-rule="evenodd"/>
            <path id="Trazado_886859" data-name="Trazado 886859" d="M142.66,214.192h88.267v91.783H154.25a6.912,6.912,0,0,1-6.643-5.9l-10.1-79.988a5.1,5.1,0,0,1,5.155-5.9" fill="#222221" fill-rule="evenodd"/>
            <path id="Trazado_886860" data-name="Trazado 886860" d="M142.66,214.192h88.267v91.783H154.25a6.912,6.912,0,0,1-6.643-5.9l-10.1-79.988a5.1,5.1,0,0,1,5.155-5.9" fill="#373736" fill-rule="evenodd"/>
            <path id="Trazado_886861" data-name="Trazado 886861" d="M149.016,269.919h81.911v4.568H149.592a2.677,2.677,0,0,1-2.572-2.282,1.976,1.976,0,0,1,2-2.286" fill="#222221" fill-rule="evenodd"/>
            <path id="Trazado_886862" data-name="Trazado 886862" d="M151.183,276.874h79.744V302.7H154.445a4.191,4.191,0,0,1-4.026-3.575l-2.358-18.675a3.091,3.091,0,0,1,3.122-3.574" fill="#222221" fill-rule="evenodd"/>
            <path id="Trazado_886863" data-name="Trazado 886863" d="M155.7,232.794h19.47a2.561,2.561,0,0,1,2.461,2.186l3.562,28.21a1.889,1.889,0,0,1-1.91,2.186H159.814a2.563,2.563,0,0,1-2.463-2.186l-3.562-28.21a1.89,1.89,0,0,1,1.91-2.186" fill="#0c0e0e" fill-rule="evenodd"/>
            <path id="Trazado_886864" data-name="Trazado 886864" d="M153.116,232.794h19.469a2.563,2.563,0,0,1,2.462,2.186l3.562,28.21a1.89,1.89,0,0,1-1.91,2.186h-19.47a2.562,2.562,0,0,1-2.461-2.186l-3.562-28.21a1.89,1.89,0,0,1,1.91-2.186" fill="#222221" fill-rule="evenodd"/>
            <path id="Trazado_886865" data-name="Trazado 886865" d="M156.734,249.084h0a1.364,1.364,0,0,1,1.311,1.166l1.236,9.789a1,1,0,0,1-1.017,1.163,1.359,1.359,0,0,1-1.31-1.163l-1.237-9.789a1.008,1.008,0,0,1,1.017-1.166" fill="#0c0e0e" fill-rule="evenodd"/>
            <path id="Trazado_886866" data-name="Trazado 886866" d="M162.232,249.084h0a1.365,1.365,0,0,1,1.311,1.166l1.236,9.789a1,1,0,0,1-1.017,1.163,1.36,1.36,0,0,1-1.31-1.163l-1.236-9.789a1.007,1.007,0,0,1,1.016-1.166" fill="#0c0e0e" fill-rule="evenodd"/>
            <path id="Trazado_886867" data-name="Trazado 886867" d="M167.731,249.084h0a1.365,1.365,0,0,1,1.312,1.166l1.235,9.789a1,1,0,0,1-1.017,1.163,1.36,1.36,0,0,1-1.31-1.163l-1.236-9.789a1.007,1.007,0,0,1,1.016-1.166" fill="#0c0e0e" fill-rule="evenodd"/>
            <path id="Trazado_886868" data-name="Trazado 886868" d="M173.23,249.084h0a1.364,1.364,0,0,1,1.31,1.166l1.237,9.789a1,1,0,0,1-1.017,1.163,1.362,1.362,0,0,1-1.311-1.163l-1.237-9.789a1.009,1.009,0,0,1,1.018-1.166" fill="#0c0e0e" fill-rule="evenodd"/>
            <path id="Trazado_886869" data-name="Trazado 886869" d="M142.869,221.243h88.058v4.569h-87.48a2.678,2.678,0,0,1-2.575-2.286,1.976,1.976,0,0,1,2-2.283" fill="#222221" fill-rule="evenodd"/>
            <path id="Trazado_886870" data-name="Trazado 886870" d="M152.09,278.956h78.837v1.787H152.316a1.046,1.046,0,0,1-1.007-.894.772.772,0,0,1,.781-.893m2.415,19.12h76.422v1.791h-76.2a1.049,1.049,0,0,1-1.007-.9.774.774,0,0,1,.781-.9m-.483-3.822h76.9v1.788H154.248a1.047,1.047,0,0,1-1.007-.895.772.772,0,0,1,.781-.893m-.483-3.825h77.388v1.788H153.765a1.049,1.049,0,0,1-1.008-.9.775.775,0,0,1,.782-.893m-.483-3.826h77.871v1.79H153.282a1.05,1.05,0,0,1-1.008-.893.777.777,0,0,1,.782-.9m-.483-3.822h78.354v1.787H152.8a1.047,1.047,0,0,1-1.007-.893.772.772,0,0,1,.781-.894" fill="#0c0e0e" fill-rule="evenodd"/>
            <path id="Trazado_886871" data-name="Trazado 886871" d="M185.826,230.679h45.1V264.65H190.116a2.212,2.212,0,0,1-2.124-1.885l-3.814-30.2a1.63,1.63,0,0,1,1.648-1.885" fill="#222221" fill-rule="evenodd"/>
            <path id="Trazado_886872" data-name="Trazado 886872" d="M189.061,235.05H216.08a1.164,1.164,0,0,1,1.119.993.858.858,0,0,1-.868.991H189.312a1.164,1.164,0,0,1-1.12-.991.859.859,0,0,1,.869-.993" fill="#fff" fill-rule="evenodd"/>
            <path id="Trazado_886873" data-name="Trazado 886873" d="M189.687,240.017h41.24V242H189.939a1.164,1.164,0,0,1-1.119-.994h0a.86.86,0,0,1,.869-.993" fill="#0c0e0e" fill-rule="evenodd"/>
            <path id="Trazado_886874" data-name="Trazado 886874" d="M190.328,245.083h40.6v1.985H190.579a1.16,1.16,0,0,1-1.118-.991v0a.856.856,0,0,1,.867-.991" fill="#0c0e0e" fill-rule="evenodd"/>
            <path id="Trazado_886875" data-name="Trazado 886875" d="M190.968,250.148h39.959v1.987H191.219a1.164,1.164,0,0,1-1.12-.994.86.86,0,0,1,.869-.993" fill="#0c0e0e" fill-rule="evenodd"/>
            <path id="Trazado_886876" data-name="Trazado 886876" d="M191.607,255.214h39.319V257.2H191.859a1.163,1.163,0,0,1-1.119-.994.857.857,0,0,1,.867-.994" fill="#0c0e0e" fill-rule="evenodd"/>
            <path id="Trazado_886877" data-name="Trazado 886877" d="M192.247,260.281h38.68v1.984H192.5a1.164,1.164,0,0,1-1.119-.991v0a.857.857,0,0,1,.869-.991" fill="#0c0e0e" fill-rule="evenodd"/>
            <path id="Trazado_886878" data-name="Trazado 886878" d="M279.681,287.434s1.98-3.238,4.748-3.377,2.68,3.229,1.742,3.642-6.49-.265-6.49-.265" fill="#dedede" fill-rule="evenodd"/>
            <path id="Trazado_886879" data-name="Trazado 886879" d="M280.123,293.188l-.69-.152h-.01l-2.349-.521c.255,8.274,9.074,7.085,7.882.712l-3.87-.854-.145.422a.625.625,0,0,1-.7.421Z" fill="#dedede" fill-rule="evenodd"/>
            <path id="Trazado_886880" data-name="Trazado 886880" d="M228.721,214.192h66.231a5.106,5.106,0,0,1,5.159,5.9L290.1,300.079a6.9,6.9,0,0,1-6.637,5.9H228.721Z" fill="#222221" fill-rule="evenodd"/>
            <path id="Trazado_886881" data-name="Trazado 886881" d="M228.721,214.192h62.358a5.106,5.106,0,0,1,5.159,5.9l-10.015,79.988a6.9,6.9,0,0,1-6.637,5.9H228.721Z" fill="#373736" fill-rule="evenodd"/>
            <path id="Trazado_886882" data-name="Trazado 886882" d="M228.721,269.919h55.17a1.979,1.979,0,0,1,2,2.286,2.672,2.672,0,0,1-2.57,2.282h-54.6Z" fill="#222221" fill-rule="evenodd"/>
            <path id="Trazado_886883" data-name="Trazado 886883" d="M228.721,276.874H281.73a3.1,3.1,0,0,1,3.128,3.574l-2.338,18.675A4.187,4.187,0,0,1,278.5,302.7H228.721Z" fill="#222221" fill-rule="evenodd"/>
            <path id="Trazado_886884" data-name="Trazado 886884" d="M228.721,221.243h61.265a1.976,1.976,0,0,1,2,2.283,2.672,2.672,0,0,1-2.57,2.286H228.721Z" fill="#222221" fill-rule="evenodd"/>
            <path id="Trazado_886885" data-name="Trazado 886885" d="M228.721,278.956h52.1a.775.775,0,0,1,.783.893,1.047,1.047,0,0,1-1.007.894H228.721Zm0,19.12h49.711a.775.775,0,0,1,.782.9,1.049,1.049,0,0,1-1.006.9H228.721Zm0-3.822H278.91a.774.774,0,0,1,.783.893,1.048,1.048,0,0,1-1.006.895H228.721Zm0-3.825H279.39a.775.775,0,0,1,.782.893,1.048,1.048,0,0,1-1.007.9H228.721Zm0-3.826h51.147a.777.777,0,0,1,.783.9,1.048,1.048,0,0,1-1.007.893H228.721Zm0-3.822h51.626a.773.773,0,0,1,.782.894,1.042,1.042,0,0,1-1.006.893h-51.4Z" fill="#0c0e0e" fill-rule="evenodd"/>
            <path id="Trazado_886886" data-name="Trazado 886886" d="M277.542,247.1h2.016a1.149,1.149,0,0,1,1.161,1.325l-.731,5.838a1.552,1.552,0,0,1-1.492,1.325h-2.017a1.147,1.147,0,0,1-1.16-1.325l.731-5.838a1.552,1.552,0,0,1,1.492-1.325" fill="#0c0e0e" fill-rule="evenodd"/>
            <path id="Trazado_886887" data-name="Trazado 886887" d="M278.233,234.554h3.775a2.15,2.15,0,0,1,2.173,2.483l-1.368,10.928a2.911,2.911,0,0,1-2.795,2.484h-3.775a2.154,2.154,0,0,1-2.173-2.484l1.37-10.928a2.9,2.9,0,0,1,2.793-2.483" fill="#222221" fill-rule="evenodd"/>
            <path id="Trazado_886888" data-name="Trazado 886888" d="M228.721,230.679h37.385a1.631,1.631,0,0,1,1.649,1.885l-3.78,30.2a2.209,2.209,0,0,1-2.122,1.885H228.721Z" fill="#222221" fill-rule="evenodd"/>
            <path id="Trazado_886889" data-name="Trazado 886889" d="M228.721,240.017h31.247a.859.859,0,0,1,.869.993,1.163,1.163,0,0,1-1.116.994h-31Z" fill="#0c0e0e" fill-rule="evenodd"/>
            <path id="Trazado_886890" data-name="Trazado 886890" d="M228.721,245.083h30.614a.857.857,0,0,1,.867.991v0a1.16,1.16,0,0,1-1.118.991H228.721Z" fill="#0c0e0e" fill-rule="evenodd"/>
            <path id="Trazado_886891" data-name="Trazado 886891" d="M228.721,250.148H258.7a.86.86,0,0,1,.869.993,1.161,1.161,0,0,1-1.117.994H228.721Z" fill="#0c0e0e" fill-rule="evenodd"/>
            <path id="Trazado_886892" data-name="Trazado 886892" d="M228.721,255.214h29.345a.859.859,0,0,1,.868.994,1.163,1.163,0,0,1-1.116.994h-29.1Z" fill="#0c0e0e" fill-rule="evenodd"/>
            <path id="Trazado_886893" data-name="Trazado 886893" d="M228.721,260.281h28.711a.857.857,0,0,1,.867.991v0a1.157,1.157,0,0,1-1.116.991H228.721Z" fill="#0c0e0e" fill-rule="evenodd"/>
            <path id="Trazado_886894" data-name="Trazado 886894" d="M260.59,235.05h-10.6a1.161,1.161,0,0,0-1.118.993.858.858,0,0,0,.869.991h10.6a1.161,1.161,0,0,0,1.118-.991.859.859,0,0,0-.869-.993" fill="#373736" fill-rule="evenodd"/>
            <path id="Trazado_886895" data-name="Trazado 886895" d="M246.48,235.05H221.355a1.161,1.161,0,0,0-1.118.993.857.857,0,0,0,.869.991H246.23a1.161,1.161,0,0,0,1.118-.991.859.859,0,0,0-.868-.993" fill="#373736" fill-rule="evenodd"/>
            <path id="Trazado_886896" data-name="Trazado 886896" d="M122.981,203a1.105,1.105,0,1,0-1.105-1.105A1.107,1.107,0,0,0,122.981,203" fill="#fff" fill-rule="evenodd"/>
            <path id="Trazado_886897" data-name="Trazado 886897" d="M126.866,251.581a1.369,1.369,0,1,0-1.1-1.342,1.245,1.245,0,0,0,1.1,1.342" fill="#fff" fill-rule="evenodd"/>
            <path id="Trazado_886898" data-name="Trazado 886898" d="M200.946,129.812a12.133,12.133,0,0,1,11.858,9.572,26.493,26.493,0,0,1,12.221-.018,12.134,12.134,0,0,1,22.9-2.433l4.7-3.421a1.005,1.005,0,0,1,1.183,1.625l-5.187,3.776a12.13,12.13,0,1,1-23.876,3.027c0-.187.005-.372.013-.555a24.173,24.173,0,0,0-11.7,0c.008.184.012.366.012.551a12.129,12.129,0,1,1-23.863-3.079l-5.114-3.724a1.006,1.006,0,0,1,1.185-1.625l4.636,3.374a12.14,12.14,0,0,1,11.028-7.074m43.081,4.98a10.108,10.108,0,1,0,2.961,7.148,10.078,10.078,0,0,0-2.961-7.148m-35.933,0a10.111,10.111,0,1,0,2.96,7.148,10.078,10.078,0,0,0-2.96-7.148" fill-rule="evenodd"/>
            <path id="Trazado_886899" data-name="Trazado 886899" d="M191.329,57.225,188.58,46.754a5.291,5.291,0,1,0,1.549,3.742,5.28,5.28,0,0,0-1.549-3.742m-1.142-5.242a9.284,9.284,0,0,1,2.072.882,9.423,9.423,0,0,1,1.819,1.371.323.323,0,0,0,.387.048l2.458-1.42.014-.007a.594.594,0,0,1,.449-.051.607.607,0,0,1,.37.282l.01.017,1.729,3a.614.614,0,0,1-.223.833l-.016.01-2.438,1.407a.325.325,0,0,0-.155.359,9.2,9.2,0,0,1,.205,1.116,9.429,9.429,0,0,1-.205,3.4.325.325,0,0,0,.171.369l2.438,1.406v0a.613.613,0,0,1,.223.832l-1.739,3.012a.612.612,0,0,1-.833.223l-.018-.01-2.44-1.408a.325.325,0,0,0-.387.047,9.442,9.442,0,0,1-1.818,1.37,9.293,9.293,0,0,1-2.088.888.323.323,0,0,0-.235.311V62.63a.613.613,0,0,1-.608.608H183.1a.613.613,0,0,1-.609-.608V59.794a.326.326,0,0,0-.249-.316,9.326,9.326,0,0,1-2.074-.882,9.457,9.457,0,0,1-1.818-1.371.323.323,0,0,0-.4-.038l-2.441,1.41a.614.614,0,0,1-.833-.224l-.009-.016-1.73-3a.613.613,0,0,1,.222-.831l2.456-1.419a.325.325,0,0,0,.153-.358h0a9.449,9.449,0,0,1-.206-1.117,9.6,9.6,0,0,1,0-2.281,9.4,9.4,0,0,1,.206-1.116.325.325,0,0,0-.171-.369l-2.439-1.407a.615.615,0,0,1-.222-.833l.009-.016,1.73-3a.616.616,0,0,1,.833-.224l2.457,1.42a.326.326,0,0,0,.395-.054,9.453,9.453,0,0,1,1.811-1.365,9.234,9.234,0,0,1,2.087-.886.326.326,0,0,0,.236-.312V38.36a.613.613,0,0,1,.609-.608h3.48a.613.613,0,0,1,.608.608V41.2a.325.325,0,0,0,.25.316" fill="#9cc6e0" fill-rule="evenodd"/>
            <path id="Trazado_886900" data-name="Trazado 886900" d="M146.164,65.591a11.444,11.444,0,1,0,2.485,3.72,11.486,11.486,0,0,0-2.485-3.72m-4.121-1.507a10.45,10.45,0,1,1-3.976-.785,10.389,10.389,0,0,1,3.976.785m1.265-8.424a18.638,18.638,0,0,1,6.046,3.03,19.1,19.1,0,0,1,1.744,1.487,1.2,1.2,0,0,0,1.432.174c1.68-.971,3.448-1.931,5.1-2.943a.709.709,0,0,1,.247-.077.8.8,0,0,1,.28.022.714.714,0,0,1,.258.126.705.705,0,0,1,.187.211c1.225,1.854,2.455,4.25,3.591,6.217a.731.731,0,0,1,.089.264.793.793,0,0,1-.021.29.741.741,0,0,1-.127.258.7.7,0,0,1-.211.185c-1.512,1-3.46,2-5.064,2.927a1.187,1.187,0,0,0-.5.567,1.2,1.2,0,0,0-.076.25l-.1.034.117.473q.138.558.241,1.114c.065.359.122.734.171,1.129s.081.762.1,1.138.034.752.034,1.151-.012.786-.034,1.15-.057.757-.1,1.141-.106.769-.173,1.128-.147.744-.239,1.115a1.191,1.191,0,0,0,.075.789,1.2,1.2,0,0,0,.541.563l4.487,2.589,0,0,.532.306a.732.732,0,0,1,.211.186.724.724,0,0,1,.127.258.793.793,0,0,1,.021.29.733.733,0,0,1-.089.263l-3.321,5.754h0l-.268.464a.706.706,0,0,1-.187.211.714.714,0,0,1-.258.126.739.739,0,0,1-.288.021.676.676,0,0,1-.261-.089c-1.608-1.009-3.42-1.972-5.077-2.93a1.2,1.2,0,0,0-1.428.173h0a18.944,18.944,0,0,1-1.744,1.489,19.231,19.231,0,0,1-1.909,1.265,19.034,19.034,0,0,1-2.041,1.019,18.427,18.427,0,0,1-2.148.759,1.2,1.2,0,0,0-.87,1.156l0,5.852a.722.722,0,0,1-.054.276.7.7,0,0,1-.16.234.719.719,0,0,1-.235.161.711.711,0,0,1-.276.054h-7.181a.715.715,0,0,1-.276-.054.749.749,0,0,1-.236-.159.739.739,0,0,1-.159-.236.705.705,0,0,1-.056-.276V92.884a1.208,1.208,0,0,0-.922-1.167,18.463,18.463,0,0,1-2.111-.752,18.963,18.963,0,0,1-2.027-1.013,18.912,18.912,0,0,1-3.652-2.754,1.207,1.207,0,0,0-1.493-.136l-5.011,2.892a.678.678,0,0,1-.264.089.746.746,0,0,1-.289-.021.722.722,0,0,1-.258-.126.713.713,0,0,1-.185-.211c-1.19-2.075-2.4-4.142-3.592-6.217a.694.694,0,0,1-.089-.265.767.767,0,0,1,.021-.289.731.731,0,0,1,.126-.258.681.681,0,0,1,.207-.185l5.069-2.926a1.2,1.2,0,0,0,.506-.567,1.174,1.174,0,0,0,.062-.193l.133-.027-.133-.537c-.092-.371-.172-.743-.24-1.112s-.124-.738-.171-1.131-.083-.764-.1-1.14-.034-.75-.034-1.151.013-.783.034-1.149.058-.756.1-1.139c.048-.4.105-.777.171-1.133s.148-.741.24-1.111a1.188,1.188,0,0,0-.076-.792,1.21,1.21,0,0,0-.539-.561l-5.021-2.9A.669.669,0,0,1,114,64.72a.711.711,0,0,1-.126-.259.761.761,0,0,1-.021-.288.683.683,0,0,1,.089-.264c1.226-1.824,2.454-4.259,3.592-6.219a.713.713,0,0,1,.185-.211.722.722,0,0,1,.258-.126.766.766,0,0,1,.289-.022.717.717,0,0,1,.264.091l5.073,2.927a1.178,1.178,0,0,0,.76.153,1.217,1.217,0,0,0,.685-.339,18.873,18.873,0,0,1,1.737-1.481,18.485,18.485,0,0,1,1.9-1.259,18.7,18.7,0,0,1,4.185-1.778,1.187,1.187,0,0,0,.63-.431,1.2,1.2,0,0,0,.242-.724V48.637a.709.709,0,0,1,.055-.274.748.748,0,0,1,.16-.236.691.691,0,0,1,.236-.16.734.734,0,0,1,.276-.054h7.181a.73.73,0,0,1,.276.054.712.712,0,0,1,.236.159.726.726,0,0,1,.213.511V54.49a1.211,1.211,0,0,0,.925,1.17m2.525-.222a19.362,19.362,0,0,1,2.142,1.071,19.611,19.611,0,0,1,2.017,1.335,20.014,20.014,0,0,1,1.839,1.571.146.146,0,0,0,.081.038.158.158,0,0,0,.088-.017c1.705-.985,3.413-1.965,5.115-2.955a1.746,1.746,0,0,1,.64-.2,1.811,1.811,0,0,1,.673.052,1.767,1.767,0,0,1,.626.307,1.738,1.738,0,0,1,.458.522c1.236,2,2.41,4.171,3.592,6.217a1.749,1.749,0,0,1,.222.661,1.846,1.846,0,0,1-.046.7,1.772,1.772,0,0,1-.309.626,1.745,1.745,0,0,1-.522.46c-1.63,1.008-3.4,1.962-5.068,2.926a.138.138,0,0,0-.058.066.163.163,0,0,0-.008.09l.118.473h-.008q.076.345.142.7c.074.4.136.8.183,1.195s.084.789.108,1.2.038.819.038,1.213-.013.8-.038,1.213-.061.814-.108,1.2-.11.79-.183,1.195-.16.8-.253,1.176a.147.147,0,0,0,.073.16c1.862.995,3.752,2.166,5.594,3.23l-.065.082.055.069a1.793,1.793,0,0,1,.309.627,1.843,1.843,0,0,1,.046.7A1.749,1.749,0,0,1,163.1,84l-3.859,6.683-.073-.043c-.037.034-.077.068-.118.1a1.806,1.806,0,0,1-1.321.354,1.779,1.779,0,0,1-.643-.212c-1.689-.895-3.425-1.978-5.093-2.942a.161.161,0,0,0-.085-.013.144.144,0,0,0-.082.037,19.825,19.825,0,0,1-3.855,2.906,19.826,19.826,0,0,1-4.428,1.881.138.138,0,0,0-.073.05.135.135,0,0,0-.03.087v5.852a1.778,1.778,0,0,1-.136.68,1.758,1.758,0,0,1-.39.581,1.778,1.778,0,0,1-.579.387,1.752,1.752,0,0,1-.681.138h-7.181a1.753,1.753,0,0,1-.682-.138,1.819,1.819,0,0,1-.581-.387,1.794,1.794,0,0,1-.386-.581,1.761,1.761,0,0,1-.138-.68V92.884a.137.137,0,0,0-.028-.087.133.133,0,0,0-.079-.049l-.023-.008a19.646,19.646,0,0,1-4.4-1.872,20.12,20.12,0,0,1-3.856-2.907.139.139,0,0,0-.083-.039.141.141,0,0,0-.091.022l-5.069,2.926a1.746,1.746,0,0,1-.659.222,1.79,1.79,0,0,1-1.772-.862c-1.332-2.141-2.589-4.486-3.86-6.685l.068-.041c-.012-.056-.022-.111-.029-.169a1.794,1.794,0,0,1,.876-1.78l5.069-2.926a.144.144,0,0,0,.058-.066.15.15,0,0,0,.008-.091l-.132-.537h.008q-.069-.313-.127-.637-.112-.607-.185-1.2c-.046-.388-.084-.79-.107-1.2s-.039-.817-.039-1.213.014-.8.039-1.211.061-.815.107-1.2.109-.787.185-1.2.158-.793.252-1.173a.14.14,0,0,0-.075-.16l-5.063-2.924a1.721,1.721,0,0,1-.52-.458,1.82,1.82,0,0,1-.308-.626,1.774,1.774,0,0,1-.046-.694,1.75,1.75,0,0,1,.215-.645c1.2-2.236,2.588-4.489,3.865-6.7l.073.044a1.236,1.236,0,0,1,.119-.1,1.755,1.755,0,0,1,.627-.307,1.8,1.8,0,0,1,1.353.17l.374.216v.005l4.7,2.714a.152.152,0,0,0,.09.017.138.138,0,0,0,.081-.039l.011-.013a20.466,20.466,0,0,1,1.836-1.565,19.767,19.767,0,0,1,2.006-1.327,19.832,19.832,0,0,1,4.428-1.883.136.136,0,0,0,.1-.136V48.637a1.774,1.774,0,0,1,.138-.681,1.79,1.79,0,0,1,.967-.967,1.771,1.771,0,0,1,.682-.137h7.181a1.769,1.769,0,0,1,.681.137,1.856,1.856,0,0,1,.581.386,1.785,1.785,0,0,1,.524,1.262V54.49a.155.155,0,0,0,.03.091.142.142,0,0,0,.077.047l.024.008a19.825,19.825,0,0,1,2.258.8" fill="#9cc6e0" fill-rule="evenodd"/>
            <path id="Trazado_886901" data-name="Trazado 886901" d="M89.753,329.606H346.284a5.859,5.859,0,1,1,0,11.718H89.753a5.859,5.859,0,0,1,0-11.718" fill="#0c0e0e" fill-rule="evenodd"/>
            <path id="Trazado_886902" data-name="Trazado 886902" d="M77.281,320.519H358.755a7.472,7.472,0,1,1,0,14.944H77.281a7.472,7.472,0,1,1,0-14.944" fill="#be865e" fill-rule="evenodd"/>
            <rect id="Rectángulo_404643" data-name="Rectángulo 404643" width="15.55" height="14.944" transform="translate(247.889 320.519)" fill="#915e40"/>
            <rect id="Rectángulo_404644" data-name="Rectángulo 404644" width="8.077" height="14.944" transform="translate(271.517 320.519)" fill="#915e40"/>
            <rect id="Rectángulo_404645" data-name="Rectángulo 404645" width="4.038" height="14.944" transform="translate(288.077 320.519)" fill="#915e40"/>
            <rect id="Rectángulo_404646" data-name="Rectángulo 404646" width="17.395" height="14.944" transform="translate(305.947 320.519)" fill="#915e40"/>
            <rect id="Rectángulo_404647" data-name="Rectángulo 404647" width="8.697" height="14.944" transform="translate(336.454 320.519)" fill="#915e40"/>
            <path id="Trazado_886903" data-name="Trazado 886903" d="M77.885,322.944h136.8a4.443,4.443,0,0,1,0,8.887H77.885a4.443,4.443,0,0,1,0-8.887" fill="#d49d80" fill-rule="evenodd"/>
          </g>
        </g>
      </g>
    </g>
    <path id="Rectángulo_400911" data-name="Rectángulo 400911" d="M0,0H297a0,0,0,0,1,0,0V41a19,19,0,0,1-19,19H19A19,19,0,0,1,0,41V0A0,0,0,0,1,0,0Z" transform="translate(-1937.308 -8114.999) rotate(-90)" fill="#59836b"/>
    <g id="Grupo_1098761" data-name="Grupo 1098761" transform="translate(-3199.308 -9720.998)">
      <line id="Línea_557" data-name="Línea 557" y2="128" transform="translate(1273.5 1470.5)" fill="none" stroke="#fff" stroke-linecap="round" stroke-width="2" stroke-dasharray="5"/>
      <circle id="Elipse_11447" data-name="Elipse 11447" cx="33.5" cy="33.5" r="33.5" transform="translate(1238 1511)" fill="#fd9f81"/>
    </g>
    <g id="Grupo_1098820" data-name="Grupo 1098820" transform="translate(-2955.659 -9475.916)">
      <rect id="Rectángulo_400898" data-name="Rectángulo 400898" width="47" height="47" rx="23.5" transform="translate(981.351 1258.917)" fill="#fff"/>
      <path id="Rectángulo_400898_-_Contorno" data-name="Rectángulo 400898 - Contorno" d="M23.485,1.3a22.187,22.187,0,0,0-8.633,42.619A22.187,22.187,0,0,0,32.119,3.047,22.041,22.041,0,0,0,23.485,1.3m0-1.3A23.485,23.485,0,1,1,0,23.485,23.485,23.485,0,0,1,23.485,0Z" transform="translate(981 1258.947)" fill="#fff"/>
    </g>
  </g>
</svg>
